<svg width="1200" height="860" viewBox="0 0 1200 860" fill="none" xmlns="http://www.w3.org/2000/svg">
<g clip-path="url(#clip0_78_47446)">
<path d="M1200 0H0V860H1200V0Z" fill="white"/>
<path d="M1188 698H0V716H1188V698Z" fill="#2A2A2A"/>
<path d="M102 114H46V698H102V114Z" fill="white" stroke="#1A1A1A" stroke-width="2"/>
<path d="M105 104H43V114H105V104Z" fill="white" stroke="#1A1A1A" stroke-width="2"/>
<path opacity="0.55" d="M49 117H99" stroke="#1A1A1A" stroke-width="0.9" stroke-linecap="square"/>
<path opacity="0.55" d="M49 129H99" stroke="#1A1A1A" stroke-width="0.9" stroke-linecap="square"/>
<path opacity="0.55" d="M49 141H99" stroke="#1A1A1A" stroke-width="0.9" stroke-linecap="square"/>
<path opacity="0.55" d="M49 153H99" stroke="#1A1A1A" stroke-width="0.9" stroke-linecap="square"/>
<path opacity="0.55" d="M49 165H99" stroke="#1A1A1A" stroke-width="0.9" stroke-linecap="square"/>
<path opacity="0.55" d="M49 177H99" stroke="#1A1A1A" stroke-width="0.9" stroke-linecap="square"/>
<path opacity="0.55" d="M49 189H99" stroke="#1A1A1A" stroke-width="0.9" stroke-linecap="square"/>
<path opacity="0.55" d="M49 201H99" stroke="#1A1A1A" stroke-width="0.9" stroke-linecap="square"/>
<path opacity="0.55" d="M49 213H99" stroke="#1A1A1A" stroke-width="0.9" stroke-linecap="square"/>
<path opacity="0.55" d="M49 225H99" stroke="#1A1A1A" stroke-width="0.9" stroke-linecap="square"/>
<path opacity="0.55" d="M49 237H99" stroke="#1A1A1A" stroke-width="0.9" stroke-linecap="square"/>
<path opacity="0.55" d="M49 249H99" stroke="#1A1A1A" stroke-width="0.9" stroke-linecap="square"/>
<path opacity="0.55" d="M49 261H99" stroke="#1A1A1A" stroke-width="0.9" stroke-linecap="square"/>
<path opacity="0.55" d="M49 273H99" stroke="#1A1A1A" stroke-width="0.9" stroke-linecap="square"/>
<path opacity="0.55" d="M49 285H99" stroke="#1A1A1A" stroke-width="0.9" stroke-linecap="square"/>
<path opacity="0.55" d="M49 297H99" stroke="#1A1A1A" stroke-width="0.9" stroke-linecap="square"/>
<path opacity="0.55" d="M49 309H99" stroke="#1A1A1A" stroke-width="0.9" stroke-linecap="square"/>
<path opacity="0.55" d="M49 321H99" stroke="#1A1A1A" stroke-width="0.9" stroke-linecap="square"/>
<path opacity="0.55" d="M49 333H99" stroke="#1A1A1A" stroke-width="0.9" stroke-linecap="square"/>
<path opacity="0.55" d="M49 345H99" stroke="#1A1A1A" stroke-width="0.9" stroke-linecap="square"/>
<path opacity="0.55" d="M49 357H99" stroke="#1A1A1A" stroke-width="0.9" stroke-linecap="square"/>
<path opacity="0.55" d="M49 369H99" stroke="#1A1A1A" stroke-width="0.9" stroke-linecap="square"/>
<path opacity="0.55" d="M49 381H99" stroke="#1A1A1A" stroke-width="0.9" stroke-linecap="square"/>
<path opacity="0.55" d="M49 393H99" stroke="#1A1A1A" stroke-width="0.9" stroke-linecap="square"/>
<path opacity="0.55" d="M49 405H99" stroke="#1A1A1A" stroke-width="0.9" stroke-linecap="square"/>
<path opacity="0.55" d="M49 417H99" stroke="#1A1A1A" stroke-width="0.9" stroke-linecap="square"/>
<path opacity="0.55" d="M49 429H99" stroke="#1A1A1A" stroke-width="0.9" stroke-linecap="square"/>
<path opacity="0.55" d="M49 441H99" stroke="#1A1A1A" stroke-width="0.9" stroke-linecap="square"/>
<path opacity="0.55" d="M49 453H99" stroke="#1A1A1A" stroke-width="0.9" stroke-linecap="square"/>
<path opacity="0.55" d="M49 465H99" stroke="#1A1A1A" stroke-width="0.9" stroke-linecap="square"/>
<path opacity="0.55" d="M49 477H99" stroke="#1A1A1A" stroke-width="0.9" stroke-linecap="square"/>
<path opacity="0.55" d="M49 489H99" stroke="#1A1A1A" stroke-width="0.9" stroke-linecap="square"/>
<path opacity="0.55" d="M49 501H99" stroke="#1A1A1A" stroke-width="0.9" stroke-linecap="square"/>
<path opacity="0.55" d="M49 513H99" stroke="#1A1A1A" stroke-width="0.9" stroke-linecap="square"/>
<path opacity="0.55" d="M49 525H99" stroke="#1A1A1A" stroke-width="0.9" stroke-linecap="square"/>
<path opacity="0.55" d="M49 537H99" stroke="#1A1A1A" stroke-width="0.9" stroke-linecap="square"/>
<path opacity="0.55" d="M49 549H99" stroke="#1A1A1A" stroke-width="0.9" stroke-linecap="square"/>
<path opacity="0.55" d="M49 561H99" stroke="#1A1A1A" stroke-width="0.9" stroke-linecap="square"/>
<path opacity="0.55" d="M49 573H99" stroke="#1A1A1A" stroke-width="0.9" stroke-linecap="square"/>
<path opacity="0.55" d="M49 585H99" stroke="#1A1A1A" stroke-width="0.9" stroke-linecap="square"/>
<path opacity="0.55" d="M49 597H99" stroke="#1A1A1A" stroke-width="0.9" stroke-linecap="square"/>
<path opacity="0.55" d="M49 609H99" stroke="#1A1A1A" stroke-width="0.9" stroke-linecap="square"/>
<path opacity="0.55" d="M49 621H99" stroke="#1A1A1A" stroke-width="0.9" stroke-linecap="square"/>
<path opacity="0.55" d="M49 633H99" stroke="#1A1A1A" stroke-width="0.9" stroke-linecap="square"/>
<path opacity="0.55" d="M49 645H99" stroke="#1A1A1A" stroke-width="0.9" stroke-linecap="square"/>
<path opacity="0.55" d="M49 657H99" stroke="#1A1A1A" stroke-width="0.9" stroke-linecap="square"/>
<path opacity="0.55" d="M49 669H99" stroke="#1A1A1A" stroke-width="0.9" stroke-linecap="square"/>
<path opacity="0.55" d="M49 681H99" stroke="#1A1A1A" stroke-width="0.9" stroke-linecap="square"/>
<path opacity="0.55" d="M49 693H99" stroke="#1A1A1A" stroke-width="0.9" stroke-linecap="square"/>
<path opacity="0.55" d="M63 129V141" stroke="#1A1A1A" stroke-width="0.9" stroke-linecap="square"/>
<path opacity="0.55" d="M63 153V165" stroke="#1A1A1A" stroke-width="0.9" stroke-linecap="square"/>
<path opacity="0.55" d="M63 177V189" stroke="#1A1A1A" stroke-width="0.9" stroke-linecap="square"/>
<path opacity="0.55" d="M63 201V213" stroke="#1A1A1A" stroke-width="0.9" stroke-linecap="square"/>
<path opacity="0.55" d="M63 225V237" stroke="#1A1A1A" stroke-width="0.9" stroke-linecap="square"/>
<path opacity="0.55" d="M63 249V261" stroke="#1A1A1A" stroke-width="0.9" stroke-linecap="square"/>
<path opacity="0.55" d="M63 273V285" stroke="#1A1A1A" stroke-width="0.9" stroke-linecap="square"/>
<path opacity="0.55" d="M63 297V309" stroke="#1A1A1A" stroke-width="0.9" stroke-linecap="square"/>
<path opacity="0.55" d="M63 321V333" stroke="#1A1A1A" stroke-width="0.9" stroke-linecap="square"/>
<path opacity="0.55" d="M63 345V357" stroke="#1A1A1A" stroke-width="0.9" stroke-linecap="square"/>
<path opacity="0.55" d="M63 369V381" stroke="#1A1A1A" stroke-width="0.9" stroke-linecap="square"/>
<path opacity="0.55" d="M63 393V405" stroke="#1A1A1A" stroke-width="0.9" stroke-linecap="square"/>
<path opacity="0.55" d="M63 417V429" stroke="#1A1A1A" stroke-width="0.9" stroke-linecap="square"/>
<path opacity="0.55" d="M63 441V453" stroke="#1A1A1A" stroke-width="0.9" stroke-linecap="square"/>
<path opacity="0.55" d="M63 465V477" stroke="#1A1A1A" stroke-width="0.9" stroke-linecap="square"/>
<path opacity="0.55" d="M63 489V501" stroke="#1A1A1A" stroke-width="0.9" stroke-linecap="square"/>
<path opacity="0.55" d="M63 513V525" stroke="#1A1A1A" stroke-width="0.9" stroke-linecap="square"/>
<path opacity="0.55" d="M63 537V549" stroke="#1A1A1A" stroke-width="0.9" stroke-linecap="square"/>
<path opacity="0.55" d="M63 561V573" stroke="#1A1A1A" stroke-width="0.9" stroke-linecap="square"/>
<path opacity="0.55" d="M63 585V597" stroke="#1A1A1A" stroke-width="0.9" stroke-linecap="square"/>
<path opacity="0.55" d="M63 609V621" stroke="#1A1A1A" stroke-width="0.9" stroke-linecap="square"/>
<path opacity="0.55" d="M63 633V645" stroke="#1A1A1A" stroke-width="0.9" stroke-linecap="square"/>
<path opacity="0.55" d="M63 657V669" stroke="#1A1A1A" stroke-width="0.9" stroke-linecap="square"/>
<path opacity="0.55" d="M63 681V693" stroke="#1A1A1A" stroke-width="0.9" stroke-linecap="square"/>
<path opacity="0.55" d="M77 117V129" stroke="#1A1A1A" stroke-width="0.9" stroke-linecap="square"/>
<path opacity="0.55" d="M91 129V141" stroke="#1A1A1A" stroke-width="0.9" stroke-linecap="square"/>
<path opacity="0.55" d="M77 141V153" stroke="#1A1A1A" stroke-width="0.9" stroke-linecap="square"/>
<path opacity="0.55" d="M91 153V165" stroke="#1A1A1A" stroke-width="0.9" stroke-linecap="square"/>
<path opacity="0.55" d="M77 165V177" stroke="#1A1A1A" stroke-width="0.9" stroke-linecap="square"/>
<path opacity="0.55" d="M91 177V189" stroke="#1A1A1A" stroke-width="0.9" stroke-linecap="square"/>
<path opacity="0.55" d="M77 189V201" stroke="#1A1A1A" stroke-width="0.9" stroke-linecap="square"/>
<path opacity="0.55" d="M91 201V213" stroke="#1A1A1A" stroke-width="0.9" stroke-linecap="square"/>
<path opacity="0.55" d="M77 213V225" stroke="#1A1A1A" stroke-width="0.9" stroke-linecap="square"/>
<path opacity="0.55" d="M91 225V237" stroke="#1A1A1A" stroke-width="0.9" stroke-linecap="square"/>
<path opacity="0.55" d="M77 237V249" stroke="#1A1A1A" stroke-width="0.9" stroke-linecap="square"/>
<path opacity="0.55" d="M91 249V261" stroke="#1A1A1A" stroke-width="0.9" stroke-linecap="square"/>
<path opacity="0.55" d="M77 261V273" stroke="#1A1A1A" stroke-width="0.9" stroke-linecap="square"/>
<path opacity="0.55" d="M91 273V285" stroke="#1A1A1A" stroke-width="0.9" stroke-linecap="square"/>
<path opacity="0.55" d="M77 285V297" stroke="#1A1A1A" stroke-width="0.9" stroke-linecap="square"/>
<path opacity="0.55" d="M91 297V309" stroke="#1A1A1A" stroke-width="0.9" stroke-linecap="square"/>
<path opacity="0.55" d="M77 309V321" stroke="#1A1A1A" stroke-width="0.9" stroke-linecap="square"/>
<path opacity="0.55" d="M91 321V333" stroke="#1A1A1A" stroke-width="0.9" stroke-linecap="square"/>
<path opacity="0.55" d="M77 333V345" stroke="#1A1A1A" stroke-width="0.9" stroke-linecap="square"/>
<path opacity="0.55" d="M91 345V357" stroke="#1A1A1A" stroke-width="0.9" stroke-linecap="square"/>
<path opacity="0.55" d="M77 357V369" stroke="#1A1A1A" stroke-width="0.9" stroke-linecap="square"/>
<path opacity="0.55" d="M91 369V381" stroke="#1A1A1A" stroke-width="0.9" stroke-linecap="square"/>
<path opacity="0.55" d="M77 381V393" stroke="#1A1A1A" stroke-width="0.9" stroke-linecap="square"/>
<path opacity="0.55" d="M91 393V405" stroke="#1A1A1A" stroke-width="0.9" stroke-linecap="square"/>
<path opacity="0.55" d="M77 405V417" stroke="#1A1A1A" stroke-width="0.9" stroke-linecap="square"/>
<path opacity="0.55" d="M91 417V429" stroke="#1A1A1A" stroke-width="0.9" stroke-linecap="square"/>
<path opacity="0.55" d="M77 429V441" stroke="#1A1A1A" stroke-width="0.9" stroke-linecap="square"/>
<path opacity="0.55" d="M91 441V453" stroke="#1A1A1A" stroke-width="0.9" stroke-linecap="square"/>
<path opacity="0.55" d="M77 453V465" stroke="#1A1A1A" stroke-width="0.9" stroke-linecap="square"/>
<path opacity="0.55" d="M91 465V477" stroke="#1A1A1A" stroke-width="0.9" stroke-linecap="square"/>
<path opacity="0.55" d="M77 477V489" stroke="#1A1A1A" stroke-width="0.9" stroke-linecap="square"/>
<path opacity="0.55" d="M91 489V501" stroke="#1A1A1A" stroke-width="0.9" stroke-linecap="square"/>
<path opacity="0.55" d="M77 501V513" stroke="#1A1A1A" stroke-width="0.9" stroke-linecap="square"/>
<path opacity="0.55" d="M91 513V525" stroke="#1A1A1A" stroke-width="0.9" stroke-linecap="square"/>
<path opacity="0.55" d="M77 525V537" stroke="#1A1A1A" stroke-width="0.9" stroke-linecap="square"/>
<path opacity="0.55" d="M91 537V549" stroke="#1A1A1A" stroke-width="0.9" stroke-linecap="square"/>
<path opacity="0.55" d="M77 549V561" stroke="#1A1A1A" stroke-width="0.9" stroke-linecap="square"/>
<path opacity="0.55" d="M91 561V573" stroke="#1A1A1A" stroke-width="0.9" stroke-linecap="square"/>
<path opacity="0.55" d="M77 573V585" stroke="#1A1A1A" stroke-width="0.9" stroke-linecap="square"/>
<path opacity="0.55" d="M91 585V597" stroke="#1A1A1A" stroke-width="0.9" stroke-linecap="square"/>
<path opacity="0.55" d="M77 597V609" stroke="#1A1A1A" stroke-width="0.9" stroke-linecap="square"/>
<path opacity="0.55" d="M91 609V621" stroke="#1A1A1A" stroke-width="0.9" stroke-linecap="square"/>
<path opacity="0.55" d="M77 621V633" stroke="#1A1A1A" stroke-width="0.9" stroke-linecap="square"/>
<path opacity="0.55" d="M91 633V645" stroke="#1A1A1A" stroke-width="0.9" stroke-linecap="square"/>
<path opacity="0.55" d="M77 645V657" stroke="#1A1A1A" stroke-width="0.9" stroke-linecap="square"/>
<path opacity="0.55" d="M91 657V669" stroke="#1A1A1A" stroke-width="0.9" stroke-linecap="square"/>
<path opacity="0.55" d="M77 669V681" stroke="#1A1A1A" stroke-width="0.9" stroke-linecap="square"/>
<path opacity="0.55" d="M91 681V693" stroke="#1A1A1A" stroke-width="0.9" stroke-linecap="square"/>
<path opacity="0.55" d="M77 693V695" stroke="#1A1A1A" stroke-width="0.9" stroke-linecap="square"/>
<path d="M1020 114H964V698H1020V114Z" fill="white" stroke="#1A1A1A" stroke-width="2"/>
<path d="M1023 104H961V114H1023V104Z" fill="white" stroke="#1A1A1A" stroke-width="2"/>
<path opacity="0.55" d="M967 117H1017" stroke="#1A1A1A" stroke-width="0.9" stroke-linecap="square"/>
<path opacity="0.55" d="M967 129H1017" stroke="#1A1A1A" stroke-width="0.9" stroke-linecap="square"/>
<path opacity="0.55" d="M967 141H1017" stroke="#1A1A1A" stroke-width="0.9" stroke-linecap="square"/>
<path opacity="0.55" d="M967 153H1017" stroke="#1A1A1A" stroke-width="0.9" stroke-linecap="square"/>
<path opacity="0.55" d="M967 165H1017" stroke="#1A1A1A" stroke-width="0.9" stroke-linecap="square"/>
<path opacity="0.55" d="M967 177H1017" stroke="#1A1A1A" stroke-width="0.9" stroke-linecap="square"/>
<path opacity="0.55" d="M967 189H1017" stroke="#1A1A1A" stroke-width="0.9" stroke-linecap="square"/>
<path opacity="0.55" d="M967 201H1017" stroke="#1A1A1A" stroke-width="0.9" stroke-linecap="square"/>
<path opacity="0.55" d="M967 213H1017" stroke="#1A1A1A" stroke-width="0.9" stroke-linecap="square"/>
<path opacity="0.55" d="M967 225H1017" stroke="#1A1A1A" stroke-width="0.9" stroke-linecap="square"/>
<path opacity="0.55" d="M967 237H1017" stroke="#1A1A1A" stroke-width="0.9" stroke-linecap="square"/>
<path opacity="0.55" d="M967 249H1017" stroke="#1A1A1A" stroke-width="0.9" stroke-linecap="square"/>
<path opacity="0.55" d="M967 261H1017" stroke="#1A1A1A" stroke-width="0.9" stroke-linecap="square"/>
<path opacity="0.55" d="M967 273H1017" stroke="#1A1A1A" stroke-width="0.9" stroke-linecap="square"/>
<path opacity="0.55" d="M967 285H1017" stroke="#1A1A1A" stroke-width="0.9" stroke-linecap="square"/>
<path opacity="0.55" d="M967 297H1017" stroke="#1A1A1A" stroke-width="0.9" stroke-linecap="square"/>
<path opacity="0.55" d="M967 309H1017" stroke="#1A1A1A" stroke-width="0.9" stroke-linecap="square"/>
<path opacity="0.55" d="M967 321H1017" stroke="#1A1A1A" stroke-width="0.9" stroke-linecap="square"/>
<path opacity="0.55" d="M967 333H1017" stroke="#1A1A1A" stroke-width="0.9" stroke-linecap="square"/>
<path opacity="0.55" d="M967 345H1017" stroke="#1A1A1A" stroke-width="0.9" stroke-linecap="square"/>
<path opacity="0.55" d="M967 357H1017" stroke="#1A1A1A" stroke-width="0.9" stroke-linecap="square"/>
<path opacity="0.55" d="M967 369H1017" stroke="#1A1A1A" stroke-width="0.9" stroke-linecap="square"/>
<path opacity="0.55" d="M967 381H1017" stroke="#1A1A1A" stroke-width="0.9" stroke-linecap="square"/>
<path opacity="0.55" d="M967 393H1017" stroke="#1A1A1A" stroke-width="0.9" stroke-linecap="square"/>
<path opacity="0.55" d="M967 405H1017" stroke="#1A1A1A" stroke-width="0.9" stroke-linecap="square"/>
<path opacity="0.55" d="M967 417H1017" stroke="#1A1A1A" stroke-width="0.9" stroke-linecap="square"/>
<path opacity="0.55" d="M967 429H1017" stroke="#1A1A1A" stroke-width="0.9" stroke-linecap="square"/>
<path opacity="0.55" d="M967 441H1017" stroke="#1A1A1A" stroke-width="0.9" stroke-linecap="square"/>
<path opacity="0.55" d="M967 453H1017" stroke="#1A1A1A" stroke-width="0.9" stroke-linecap="square"/>
<path opacity="0.55" d="M967 465H1017" stroke="#1A1A1A" stroke-width="0.9" stroke-linecap="square"/>
<path opacity="0.55" d="M967 477H1017" stroke="#1A1A1A" stroke-width="0.9" stroke-linecap="square"/>
<path opacity="0.55" d="M967 489H1017" stroke="#1A1A1A" stroke-width="0.9" stroke-linecap="square"/>
<path opacity="0.55" d="M967 501H1017" stroke="#1A1A1A" stroke-width="0.9" stroke-linecap="square"/>
<path opacity="0.55" d="M967 513H1017" stroke="#1A1A1A" stroke-width="0.9" stroke-linecap="square"/>
<path opacity="0.55" d="M967 525H1017" stroke="#1A1A1A" stroke-width="0.9" stroke-linecap="square"/>
<path opacity="0.55" d="M967 537H1017" stroke="#1A1A1A" stroke-width="0.9" stroke-linecap="square"/>
<path opacity="0.55" d="M967 549H1017" stroke="#1A1A1A" stroke-width="0.9" stroke-linecap="square"/>
<path opacity="0.55" d="M967 561H1017" stroke="#1A1A1A" stroke-width="0.9" stroke-linecap="square"/>
<path opacity="0.55" d="M967 573H1017" stroke="#1A1A1A" stroke-width="0.9" stroke-linecap="square"/>
<path opacity="0.55" d="M967 585H1017" stroke="#1A1A1A" stroke-width="0.9" stroke-linecap="square"/>
<path opacity="0.55" d="M967 597H1017" stroke="#1A1A1A" stroke-width="0.9" stroke-linecap="square"/>
<path opacity="0.55" d="M967 609H1017" stroke="#1A1A1A" stroke-width="0.9" stroke-linecap="square"/>
<path opacity="0.55" d="M967 621H1017" stroke="#1A1A1A" stroke-width="0.9" stroke-linecap="square"/>
<path opacity="0.55" d="M967 633H1017" stroke="#1A1A1A" stroke-width="0.9" stroke-linecap="square"/>
<path opacity="0.55" d="M967 645H1017" stroke="#1A1A1A" stroke-width="0.9" stroke-linecap="square"/>
<path opacity="0.55" d="M967 657H1017" stroke="#1A1A1A" stroke-width="0.9" stroke-linecap="square"/>
<path opacity="0.55" d="M967 669H1017" stroke="#1A1A1A" stroke-width="0.9" stroke-linecap="square"/>
<path opacity="0.55" d="M967 681H1017" stroke="#1A1A1A" stroke-width="0.9" stroke-linecap="square"/>
<path opacity="0.55" d="M967 693H1017" stroke="#1A1A1A" stroke-width="0.9" stroke-linecap="square"/>
<path opacity="0.55" d="M981 129V141" stroke="#1A1A1A" stroke-width="0.9" stroke-linecap="square"/>
<path opacity="0.55" d="M981 153V165" stroke="#1A1A1A" stroke-width="0.9" stroke-linecap="square"/>
<path opacity="0.55" d="M981 177V189" stroke="#1A1A1A" stroke-width="0.9" stroke-linecap="square"/>
<path opacity="0.55" d="M981 201V213" stroke="#1A1A1A" stroke-width="0.9" stroke-linecap="square"/>
<path opacity="0.55" d="M981 225V237" stroke="#1A1A1A" stroke-width="0.9" stroke-linecap="square"/>
<path opacity="0.55" d="M981 249V261" stroke="#1A1A1A" stroke-width="0.9" stroke-linecap="square"/>
<path opacity="0.55" d="M981 273V285" stroke="#1A1A1A" stroke-width="0.9" stroke-linecap="square"/>
<path opacity="0.55" d="M981 297V309" stroke="#1A1A1A" stroke-width="0.9" stroke-linecap="square"/>
<path opacity="0.55" d="M981 321V333" stroke="#1A1A1A" stroke-width="0.9" stroke-linecap="square"/>
<path opacity="0.55" d="M981 345V357" stroke="#1A1A1A" stroke-width="0.9" stroke-linecap="square"/>
<path opacity="0.55" d="M981 369V381" stroke="#1A1A1A" stroke-width="0.9" stroke-linecap="square"/>
<path opacity="0.55" d="M981 393V405" stroke="#1A1A1A" stroke-width="0.9" stroke-linecap="square"/>
<path opacity="0.55" d="M981 417V429" stroke="#1A1A1A" stroke-width="0.9" stroke-linecap="square"/>
<path opacity="0.55" d="M981 441V453" stroke="#1A1A1A" stroke-width="0.9" stroke-linecap="square"/>
<path opacity="0.55" d="M981 465V477" stroke="#1A1A1A" stroke-width="0.9" stroke-linecap="square"/>
<path opacity="0.55" d="M981 489V501" stroke="#1A1A1A" stroke-width="0.9" stroke-linecap="square"/>
<path opacity="0.55" d="M981 513V525" stroke="#1A1A1A" stroke-width="0.9" stroke-linecap="square"/>
<path opacity="0.55" d="M981 537V549" stroke="#1A1A1A" stroke-width="0.9" stroke-linecap="square"/>
<path opacity="0.55" d="M981 561V573" stroke="#1A1A1A" stroke-width="0.9" stroke-linecap="square"/>
<path opacity="0.55" d="M981 585V597" stroke="#1A1A1A" stroke-width="0.9" stroke-linecap="square"/>
<path opacity="0.55" d="M981 609V621" stroke="#1A1A1A" stroke-width="0.9" stroke-linecap="square"/>
<path opacity="0.55" d="M981 633V645" stroke="#1A1A1A" stroke-width="0.9" stroke-linecap="square"/>
<path opacity="0.55" d="M981 657V669" stroke="#1A1A1A" stroke-width="0.9" stroke-linecap="square"/>
<path opacity="0.55" d="M981 681V693" stroke="#1A1A1A" stroke-width="0.9" stroke-linecap="square"/>
<path opacity="0.55" d="M995 117V129" stroke="#1A1A1A" stroke-width="0.9" stroke-linecap="square"/>
<path opacity="0.55" d="M1009 129V141" stroke="#1A1A1A" stroke-width="0.9" stroke-linecap="square"/>
<path opacity="0.55" d="M995 141V153" stroke="#1A1A1A" stroke-width="0.9" stroke-linecap="square"/>
<path opacity="0.55" d="M1009 153V165" stroke="#1A1A1A" stroke-width="0.9" stroke-linecap="square"/>
<path opacity="0.55" d="M995 165V177" stroke="#1A1A1A" stroke-width="0.9" stroke-linecap="square"/>
<path opacity="0.55" d="M1009 177V189" stroke="#1A1A1A" stroke-width="0.9" stroke-linecap="square"/>
<path opacity="0.55" d="M995 189V201" stroke="#1A1A1A" stroke-width="0.9" stroke-linecap="square"/>
<path opacity="0.55" d="M1009 201V213" stroke="#1A1A1A" stroke-width="0.9" stroke-linecap="square"/>
<path opacity="0.55" d="M995 213V225" stroke="#1A1A1A" stroke-width="0.9" stroke-linecap="square"/>
<path opacity="0.55" d="M1009 225V237" stroke="#1A1A1A" stroke-width="0.9" stroke-linecap="square"/>
<path opacity="0.55" d="M995 237V249" stroke="#1A1A1A" stroke-width="0.9" stroke-linecap="square"/>
<path opacity="0.55" d="M1009 249V261" stroke="#1A1A1A" stroke-width="0.9" stroke-linecap="square"/>
<path opacity="0.55" d="M995 261V273" stroke="#1A1A1A" stroke-width="0.9" stroke-linecap="square"/>
<path opacity="0.55" d="M1009 273V285" stroke="#1A1A1A" stroke-width="0.9" stroke-linecap="square"/>
<path opacity="0.55" d="M995 285V297" stroke="#1A1A1A" stroke-width="0.9" stroke-linecap="square"/>
<path opacity="0.55" d="M1009 297V309" stroke="#1A1A1A" stroke-width="0.9" stroke-linecap="square"/>
<path opacity="0.55" d="M995 309V321" stroke="#1A1A1A" stroke-width="0.9" stroke-linecap="square"/>
<path opacity="0.55" d="M1009 321V333" stroke="#1A1A1A" stroke-width="0.9" stroke-linecap="square"/>
<path opacity="0.55" d="M995 333V345" stroke="#1A1A1A" stroke-width="0.9" stroke-linecap="square"/>
<path opacity="0.55" d="M1009 345V357" stroke="#1A1A1A" stroke-width="0.9" stroke-linecap="square"/>
<path opacity="0.55" d="M995 357V369" stroke="#1A1A1A" stroke-width="0.9" stroke-linecap="square"/>
<path opacity="0.55" d="M1009 369V381" stroke="#1A1A1A" stroke-width="0.9" stroke-linecap="square"/>
<path opacity="0.55" d="M995 381V393" stroke="#1A1A1A" stroke-width="0.9" stroke-linecap="square"/>
<path opacity="0.55" d="M1009 393V405" stroke="#1A1A1A" stroke-width="0.9" stroke-linecap="square"/>
<path opacity="0.55" d="M995 405V417" stroke="#1A1A1A" stroke-width="0.9" stroke-linecap="square"/>
<path opacity="0.55" d="M1009 417V429" stroke="#1A1A1A" stroke-width="0.9" stroke-linecap="square"/>
<path opacity="0.55" d="M995 429V441" stroke="#1A1A1A" stroke-width="0.9" stroke-linecap="square"/>
<path opacity="0.55" d="M1009 441V453" stroke="#1A1A1A" stroke-width="0.9" stroke-linecap="square"/>
<path opacity="0.55" d="M995 453V465" stroke="#1A1A1A" stroke-width="0.9" stroke-linecap="square"/>
<path opacity="0.55" d="M1009 465V477" stroke="#1A1A1A" stroke-width="0.9" stroke-linecap="square"/>
<path opacity="0.55" d="M995 477V489" stroke="#1A1A1A" stroke-width="0.9" stroke-linecap="square"/>
<path opacity="0.55" d="M1009 489V501" stroke="#1A1A1A" stroke-width="0.9" stroke-linecap="square"/>
<path opacity="0.55" d="M995 501V513" stroke="#1A1A1A" stroke-width="0.9" stroke-linecap="square"/>
<path opacity="0.55" d="M1009 513V525" stroke="#1A1A1A" stroke-width="0.9" stroke-linecap="square"/>
<path opacity="0.55" d="M995 525V537" stroke="#1A1A1A" stroke-width="0.9" stroke-linecap="square"/>
<path opacity="0.55" d="M1009 537V549" stroke="#1A1A1A" stroke-width="0.9" stroke-linecap="square"/>
<path opacity="0.55" d="M995 549V561" stroke="#1A1A1A" stroke-width="0.9" stroke-linecap="square"/>
<path opacity="0.55" d="M1009 561V573" stroke="#1A1A1A" stroke-width="0.9" stroke-linecap="square"/>
<path opacity="0.55" d="M995 573V585" stroke="#1A1A1A" stroke-width="0.9" stroke-linecap="square"/>
<path opacity="0.55" d="M1009 585V597" stroke="#1A1A1A" stroke-width="0.9" stroke-linecap="square"/>
<path opacity="0.55" d="M995 597V609" stroke="#1A1A1A" stroke-width="0.9" stroke-linecap="square"/>
<path opacity="0.55" d="M1009 609V621" stroke="#1A1A1A" stroke-width="0.9" stroke-linecap="square"/>
<path opacity="0.55" d="M995 621V633" stroke="#1A1A1A" stroke-width="0.9" stroke-linecap="square"/>
<path opacity="0.55" d="M1009 633V645" stroke="#1A1A1A" stroke-width="0.9" stroke-linecap="square"/>
<path opacity="0.55" d="M995 645V657" stroke="#1A1A1A" stroke-width="0.9" stroke-linecap="square"/>
<path opacity="0.55" d="M1009 657V669" stroke="#1A1A1A" stroke-width="0.9" stroke-linecap="square"/>
<path opacity="0.55" d="M995 669V681" stroke="#1A1A1A" stroke-width="0.9" stroke-linecap="square"/>
<path opacity="0.55" d="M1009 681V693" stroke="#1A1A1A" stroke-width="0.9" stroke-linecap="square"/>
<path opacity="0.55" d="M995 693V695" stroke="#1A1A1A" stroke-width="0.9" stroke-linecap="square"/>
<path d="M946 150H120V670H946V150Z" stroke="#1A1A1A" stroke-width="2.2"/>
<path d="M126 514.6H940" stroke="#1A1A1A" stroke-width="1.4" stroke-linecap="square"/>
<path d="M120 495L946 495" stroke="#1A1A1A" stroke-width="1.4" stroke-linecap="square"/>
<path d="M123 514L944 514" stroke="#1A1A1A" stroke-width="1.4" stroke-linecap="square"/>
<circle cx="129.5" cy="504.5" r="9" stroke="black"/>
<circle cx="148.5" cy="504.5" r="9" stroke="black"/>
<circle cx="167.5" cy="504.5" r="9" stroke="black"/>
<circle cx="185.5" cy="504.5" r="9" stroke="black"/>
<circle cx="204.5" cy="504.5" r="9" stroke="black"/>
<circle cx="222.5" cy="504.5" r="9" stroke="black"/>
<circle cx="241.5" cy="504.5" r="9" stroke="black"/>
<circle cx="260.5" cy="504.5" r="9" stroke="black"/>
<circle cx="278.5" cy="504.5" r="9" stroke="black"/>
<circle cx="297.5" cy="504.5" r="9" stroke="black"/>
<circle cx="315.5" cy="504.5" r="9" stroke="black"/>
<circle cx="334.5" cy="504.5" r="9" stroke="black"/>
<circle cx="353.5" cy="504.5" r="9" stroke="black"/>
<circle cx="372.5" cy="504.5" r="9" stroke="black"/>
<circle cx="391.5" cy="504.5" r="9" stroke="black"/>
<circle cx="410.5" cy="504.5" r="9" stroke="black"/>
<circle cx="429.5" cy="504.5" r="9" stroke="black"/>
<circle cx="448.5" cy="504.5" r="9" stroke="black"/>
<circle cx="466.5" cy="504.5" r="9" stroke="black"/>
<circle cx="485.5" cy="504.5" r="9" stroke="black"/>
<circle cx="503.5" cy="504.5" r="9" stroke="black"/>
<circle cx="522.5" cy="504.5" r="9" stroke="black"/>
<circle cx="540.5" cy="504.5" r="9" stroke="black"/>
<circle cx="559.5" cy="504.5" r="9" stroke="black"/>
<circle cx="578.5" cy="504.5" r="9" stroke="black"/>
<circle cx="597.5" cy="504.5" r="9" stroke="black"/>
<circle cx="616.5" cy="504.5" r="9" stroke="black"/>
<circle cx="635.5" cy="504.5" r="9" stroke="black"/>
<circle cx="654.5" cy="504.5" r="9" stroke="black"/>
<circle cx="673.5" cy="504.5" r="9" stroke="black"/>
<circle cx="692.5" cy="504.5" r="9" stroke="black"/>
<circle cx="711.5" cy="504.5" r="9" stroke="black"/>
<circle cx="730.5" cy="504.5" r="9" stroke="black"/>
<circle cx="749.5" cy="504.5" r="9" stroke="black"/>
<circle cx="768.5" cy="504.5" r="9" stroke="black"/>
<circle cx="787.5" cy="504.5" r="9" stroke="black"/>
<circle cx="806.5" cy="504.5" r="9" stroke="black"/>
<circle cx="825.5" cy="504.5" r="9" stroke="black"/>
<circle cx="844.5" cy="504.5" r="9" stroke="black"/>
<circle cx="862.5" cy="504.5" r="9" stroke="black"/>
<circle cx="881.5" cy="504.5" r="9" stroke="black"/>
<circle cx="900.5" cy="504.5" r="9" stroke="black"/>
<circle cx="919.5" cy="504.5" r="9" stroke="black"/>
<circle cx="938.5" cy="504.5" r="9" stroke="black"/>
<path d="M126 183.6H940" stroke="#1A1A1A" stroke-width="1.4" stroke-linecap="square"/>
<path d="M120 164L946 164" stroke="#1A1A1A" stroke-width="1.4" stroke-linecap="square"/>
<path d="M123 183L944 183" stroke="#1A1A1A" stroke-width="1.4" stroke-linecap="square"/>
<circle cx="129.5" cy="173.5" r="9" stroke="black"/>
<circle cx="148.5" cy="173.5" r="9" stroke="black"/>
<circle cx="167.5" cy="173.5" r="9" stroke="black"/>
<circle cx="185.5" cy="173.5" r="9" stroke="black"/>
<circle cx="204.5" cy="173.5" r="9" stroke="black"/>
<circle cx="222.5" cy="173.5" r="9" stroke="black"/>
<circle cx="241.5" cy="173.5" r="9" stroke="black"/>
<circle cx="260.5" cy="173.5" r="9" stroke="black"/>
<circle cx="278.5" cy="173.5" r="9" stroke="black"/>
<circle cx="297.5" cy="173.5" r="9" stroke="black"/>
<circle cx="315.5" cy="173.5" r="9" stroke="black"/>
<circle cx="334.5" cy="173.5" r="9" stroke="black"/>
<circle cx="353.5" cy="173.5" r="9" stroke="black"/>
<circle cx="372.5" cy="173.5" r="9" stroke="black"/>
<circle cx="391.5" cy="173.5" r="9" stroke="black"/>
<circle cx="410.5" cy="173.5" r="9" stroke="black"/>
<circle cx="429.5" cy="173.5" r="9" stroke="black"/>
<circle cx="448.5" cy="173.5" r="9" stroke="black"/>
<circle cx="466.5" cy="173.5" r="9" stroke="black"/>
<circle cx="485.5" cy="173.5" r="9" stroke="black"/>
<circle cx="503.5" cy="173.5" r="9" stroke="black"/>
<circle cx="522.5" cy="173.5" r="9" stroke="black"/>
<circle cx="540.5" cy="173.5" r="9" stroke="black"/>
<circle cx="559.5" cy="173.5" r="9" stroke="black"/>
<circle cx="578.5" cy="173.5" r="9" stroke="black"/>
<circle cx="597.5" cy="173.5" r="9" stroke="black"/>
<circle cx="616.5" cy="173.5" r="9" stroke="black"/>
<circle cx="635.5" cy="173.5" r="9" stroke="black"/>
<circle cx="654.5" cy="173.5" r="9" stroke="black"/>
<circle cx="673.5" cy="173.5" r="9" stroke="black"/>
<circle cx="692.5" cy="173.5" r="9" stroke="black"/>
<circle cx="711.5" cy="173.5" r="9" stroke="black"/>
<circle cx="730.5" cy="173.5" r="9" stroke="black"/>
<circle cx="749.5" cy="173.5" r="9" stroke="black"/>
<circle cx="768.5" cy="173.5" r="9" stroke="black"/>
<circle cx="787.5" cy="173.5" r="9" stroke="black"/>
<circle cx="806.5" cy="173.5" r="9" stroke="black"/>
<circle cx="825.5" cy="173.5" r="9" stroke="black"/>
<circle cx="844.5" cy="173.5" r="9" stroke="black"/>
<circle cx="862.5" cy="173.5" r="9" stroke="black"/>
<circle cx="881.5" cy="173.5" r="9" stroke="black"/>
<circle cx="900.5" cy="173.5" r="9" stroke="black"/>
<circle cx="919.5" cy="173.5" r="9" stroke="black"/>
<circle cx="938.5" cy="173.5" r="9" stroke="black"/>
<path d="M126 164H940" stroke="#1A1A1A" stroke-width="1.4" stroke-linecap="square"/>
<path d="M126 656H940" stroke="#1A1A1A" stroke-width="1.4" stroke-linecap="square"/>
<path d="M126 399.6H940" stroke="#1A1A1A" stroke-width="1.4" stroke-linecap="square"/>
<path d="M126 514H940" stroke="#1A1A1A" stroke-width="1.4" stroke-linecap="square"/>
<path d="M142.28 172V512" stroke="#1A1A1A" stroke-width="1.4" stroke-linecap="square"/>
<path d="M174.84 172V512" stroke="#1A1A1A" stroke-width="1.4" stroke-linecap="square"/>
<path d="M207.4 172V512" stroke="#1A1A1A" stroke-width="1.4" stroke-linecap="square"/>
<path d="M239.96 172V512" stroke="#1A1A1A" stroke-width="1.4" stroke-linecap="square"/>
<path d="M272.52 172V512" stroke="#1A1A1A" stroke-width="1.4" stroke-linecap="square"/>
<path d="M305.08 172V512" stroke="#1A1A1A" stroke-width="1.4" stroke-linecap="square"/>
<path d="M337.64 172V512" stroke="#1A1A1A" stroke-width="1.4" stroke-linecap="square"/>
<path d="M370.2 172V512" stroke="#1A1A1A" stroke-width="1.4" stroke-linecap="square"/>
<path d="M402.76 172V512" stroke="#1A1A1A" stroke-width="1.4" stroke-linecap="square"/>
<path d="M435.32 172V512" stroke="#1A1A1A" stroke-width="1.4" stroke-linecap="square"/>
<path d="M467.88 172V512" stroke="#1A1A1A" stroke-width="1.4" stroke-linecap="square"/>
<path d="M500.44 172V512" stroke="#1A1A1A" stroke-width="1.4" stroke-linecap="square"/>
<path d="M533 172V512" stroke="#1A1A1A" stroke-width="1.4" stroke-linecap="square"/>
<path d="M565.56 172V512" stroke="#1A1A1A" stroke-width="1.4" stroke-linecap="square"/>
<path d="M598.12 172V512" stroke="#1A1A1A" stroke-width="1.4" stroke-linecap="square"/>
<path d="M630.68 172V512" stroke="#1A1A1A" stroke-width="1.4" stroke-linecap="square"/>
<path d="M663.24 172V512" stroke="#1A1A1A" stroke-width="1.4" stroke-linecap="square"/>
<path d="M695.8 172V512" stroke="#1A1A1A" stroke-width="1.4" stroke-linecap="square"/>
<path d="M728.36 172V512" stroke="#1A1A1A" stroke-width="1.4" stroke-linecap="square"/>
<path d="M760.92 172V512" stroke="#1A1A1A" stroke-width="1.4" stroke-linecap="square"/>
<path d="M793.48 172V512" stroke="#1A1A1A" stroke-width="1.4" stroke-linecap="square"/>
<path d="M826.04 172V512" stroke="#1A1A1A" stroke-width="1.4" stroke-linecap="square"/>
<path d="M858.6 172V512" stroke="#1A1A1A" stroke-width="1.4" stroke-linecap="square"/>
<path d="M891.16 172V512" stroke="#1A1A1A" stroke-width="1.4" stroke-linecap="square"/>
<path d="M923.72 172V512" stroke="#1A1A1A" stroke-width="1.4" stroke-linecap="square"/>
<path d="M144.5 516V654" stroke="#1A1A1A" stroke-width="1.4" stroke-linecap="square"/>
<path d="M181.5 516V654" stroke="#1A1A1A" stroke-width="1.4" stroke-linecap="square"/>
<path d="M218.5 516V654" stroke="#1A1A1A" stroke-width="1.4" stroke-linecap="square"/>
<path d="M255.5 516V654" stroke="#1A1A1A" stroke-width="1.4" stroke-linecap="square"/>
<path d="M292.5 516V654" stroke="#1A1A1A" stroke-width="1.4" stroke-linecap="square"/>
<path d="M329.5 516V654" stroke="#1A1A1A" stroke-width="1.4" stroke-linecap="square"/>
<path d="M366.5 516V654" stroke="#1A1A1A" stroke-width="1.4" stroke-linecap="square"/>
<path d="M403.5 516V654" stroke="#1A1A1A" stroke-width="1.4" stroke-linecap="square"/>
<path d="M440.5 516V654" stroke="#1A1A1A" stroke-width="1.4" stroke-linecap="square"/>
<path d="M477.5 516V654" stroke="#1A1A1A" stroke-width="1.4" stroke-linecap="square"/>
<path d="M514.5 516V654" stroke="#1A1A1A" stroke-width="1.4" stroke-linecap="square"/>
<path d="M551.5 516V654" stroke="#1A1A1A" stroke-width="1.4" stroke-linecap="square"/>
<path d="M588.5 516V654" stroke="#1A1A1A" stroke-width="1.4" stroke-linecap="square"/>
<path d="M625.5 516V654" stroke="#1A1A1A" stroke-width="1.4" stroke-linecap="square"/>
<path d="M662.5 516V654" stroke="#1A1A1A" stroke-width="1.4" stroke-linecap="square"/>
<path d="M699.5 516V654" stroke="#1A1A1A" stroke-width="1.4" stroke-linecap="square"/>
<path d="M736.5 516V654" stroke="#1A1A1A" stroke-width="1.4" stroke-linecap="square"/>
<path d="M773.5 516V654" stroke="#1A1A1A" stroke-width="1.4" stroke-linecap="square"/>
<path d="M810.5 516V654" stroke="#1A1A1A" stroke-width="1.4" stroke-linecap="square"/>
<path d="M847.5 516V654" stroke="#1A1A1A" stroke-width="1.4" stroke-linecap="square"/>
<path d="M884.5 516V654" stroke="#1A1A1A" stroke-width="1.4" stroke-linecap="square"/>
<path d="M921.5 516V654" stroke="#1A1A1A" stroke-width="1.4" stroke-linecap="square"/>
<path d="M942 652H124V668H942V652Z" stroke="#1A1A1A" stroke-width="1.4"/>
<path d="M120 684H946" stroke="#1A1A1A" stroke-width="1.4" stroke-linecap="square"/>
<path d="M149 678H139V686H149V678Z" stroke="#1A1A1A" stroke-width="1.4"/>
<path d="M343.5 678H333.5V686H343.5V678Z" stroke="#1A1A1A" stroke-width="1.4"/>
<path d="M538 678H528V686H538V678Z" stroke="#1A1A1A" stroke-width="1.4"/>
<path d="M732.5 678H722.5V686H732.5V678Z" stroke="#1A1A1A" stroke-width="1.4"/>
<path d="M927 678H917V686H927V678Z" stroke="#1A1A1A" stroke-width="1.4"/>
<path d="M946 684H1138" stroke="#1A1A1A" stroke-width="1.4" stroke-linecap="square"/>
<path d="M180.714 282H169.286V285.5H180.714V282Z" stroke="#1A1A1A" stroke-width="1.3"/>
<path d="M181.857 285.5H168.143V289.7H181.857V285.5Z" stroke="#1A1A1A" stroke-width="1.3"/>
<path d="M183 289.7H167V295.3H183V289.7Z" stroke="#1A1A1A" stroke-width="1.3"/>
<path d="M181.857 295.3H168.143V299.5H181.857V295.3Z" stroke="#1A1A1A" stroke-width="1.3"/>
<path d="M180.714 299.5H169.286V303H180.714V299.5Z" stroke="#1A1A1A" stroke-width="1.3"/>
<path d="M245.714 281H234.286V284.5H245.714V281Z" stroke="#1A1A1A" stroke-width="1.3"/>
<path d="M246.857 284.5H233.143V288.7H246.857V284.5Z" stroke="#1A1A1A" stroke-width="1.3"/>
<path d="M248 288.7H232V294.3H248V288.7Z" stroke="#1A1A1A" stroke-width="1.3"/>
<path d="M246.857 294.3H233.143V298.5H246.857V294.3Z" stroke="#1A1A1A" stroke-width="1.3"/>
<path d="M245.714 298.5H234.286V302H245.714V298.5Z" stroke="#1A1A1A" stroke-width="1.3"/>
<path d="M310.714 281H299.286V284.5H310.714V281Z" stroke="#1A1A1A" stroke-width="1.3"/>
<path d="M311.857 284.5H298.143V288.7H311.857V284.5Z" stroke="#1A1A1A" stroke-width="1.3"/>
<path d="M313 288.7H297V294.3H313V288.7Z" stroke="#1A1A1A" stroke-width="1.3"/>
<path d="M311.857 294.3H298.143V298.5H311.857V294.3Z" stroke="#1A1A1A" stroke-width="1.3"/>
<path d="M310.714 298.5H299.286V302H310.714V298.5Z" stroke="#1A1A1A" stroke-width="1.3"/>
<path d="M375.714 281H364.286V284.5H375.714V281Z" stroke="#1A1A1A" stroke-width="1.3"/>
<path d="M376.857 284.5H363.143V288.7H376.857V284.5Z" stroke="#1A1A1A" stroke-width="1.3"/>
<path d="M378 288.7H362V294.3H378V288.7Z" stroke="#1A1A1A" stroke-width="1.3"/>
<path d="M376.857 294.3H363.143V298.5H376.857V294.3Z" stroke="#1A1A1A" stroke-width="1.3"/>
<path d="M375.714 298.5H364.286V302H375.714V298.5Z" stroke="#1A1A1A" stroke-width="1.3"/>
<path d="M440.714 281H429.286V284.5H440.714V281Z" stroke="#1A1A1A" stroke-width="1.3"/>
<path d="M441.857 284.5H428.143V288.7H441.857V284.5Z" stroke="#1A1A1A" stroke-width="1.3"/>
<path d="M443 288.7H427V294.3H443V288.7Z" stroke="#1A1A1A" stroke-width="1.3"/>
<path d="M441.857 294.3H428.143V298.5H441.857V294.3Z" stroke="#1A1A1A" stroke-width="1.3"/>
<path d="M440.714 298.5H429.286V302H440.714V298.5Z" stroke="#1A1A1A" stroke-width="1.3"/>
<path d="M505.714 279H494.286V282.5H505.714V279Z" stroke="#1A1A1A" stroke-width="1.3"/>
<path d="M506.857 282.5H493.143V286.7H506.857V282.5Z" stroke="#1A1A1A" stroke-width="1.3"/>
<path d="M508 286.7H492V292.3H508V286.7Z" stroke="#1A1A1A" stroke-width="1.3"/>
<path d="M506.857 292.3H493.143V296.5H506.857V292.3Z" stroke="#1A1A1A" stroke-width="1.3"/>
<path d="M505.714 296.5H494.286V300H505.714V296.5Z" stroke="#1A1A1A" stroke-width="1.3"/>
<path d="M570.714 279H559.286V282.5H570.714V279Z" stroke="#1A1A1A" stroke-width="1.3"/>
<path d="M571.857 282.5H558.143V286.7H571.857V282.5Z" stroke="#1A1A1A" stroke-width="1.3"/>
<path d="M573 286.7H557V292.3H573V286.7Z" stroke="#1A1A1A" stroke-width="1.3"/>
<path d="M571.857 292.3H558.143V296.5H571.857V292.3Z" stroke="#1A1A1A" stroke-width="1.3"/>
<path d="M570.714 296.5H559.286V300H570.714V296.5Z" stroke="#1A1A1A" stroke-width="1.3"/>
<path d="M635.714 279H624.286V282.5H635.714V279Z" stroke="#1A1A1A" stroke-width="1.3"/>
<path d="M636.857 282.5H623.143V286.7H636.857V282.5Z" stroke="#1A1A1A" stroke-width="1.3"/>
<path d="M638 286.7H622V292.3H638V286.7Z" stroke="#1A1A1A" stroke-width="1.3"/>
<path d="M636.857 292.3H623.143V296.5H636.857V292.3Z" stroke="#1A1A1A" stroke-width="1.3"/>
<path d="M635.714 296.5H624.286V300H635.714V296.5Z" stroke="#1A1A1A" stroke-width="1.3"/>
<path d="M700.714 279H689.286V282.5H700.714V279Z" stroke="#1A1A1A" stroke-width="1.3"/>
<path d="M701.857 282.5H688.143V286.7H701.857V282.5Z" stroke="#1A1A1A" stroke-width="1.3"/>
<path d="M703 286.7H687V292.3H703V286.7Z" stroke="#1A1A1A" stroke-width="1.3"/>
<path d="M701.857 292.3H688.143V296.5H701.857V292.3Z" stroke="#1A1A1A" stroke-width="1.3"/>
<path d="M700.714 296.5H689.286V300H700.714V296.5Z" stroke="#1A1A1A" stroke-width="1.3"/>
<path d="M766.714 279H755.286V282.5H766.714V279Z" stroke="#1A1A1A" stroke-width="1.3"/>
<path d="M767.857 282.5H754.143V286.7H767.857V282.5Z" stroke="#1A1A1A" stroke-width="1.3"/>
<path d="M769 286.7H753V292.3H769V286.7Z" stroke="#1A1A1A" stroke-width="1.3"/>
<path d="M767.857 292.3H754.143V296.5H767.857V292.3Z" stroke="#1A1A1A" stroke-width="1.3"/>
<path d="M766.714 296.5H755.286V300H766.714V296.5Z" stroke="#1A1A1A" stroke-width="1.3"/>
<path d="M830.714 279H819.286V282.5H830.714V279Z" stroke="#1A1A1A" stroke-width="1.3"/>
<path d="M831.857 282.5H818.143V286.7H831.857V282.5Z" stroke="#1A1A1A" stroke-width="1.3"/>
<path d="M833 286.7H817V292.3H833V286.7Z" stroke="#1A1A1A" stroke-width="1.3"/>
<path d="M831.857 292.3H818.143V296.5H831.857V292.3Z" stroke="#1A1A1A" stroke-width="1.3"/>
<path d="M830.714 296.5H819.286V300H830.714V296.5Z" stroke="#1A1A1A" stroke-width="1.3"/>
<path d="M895.714 277H884.286V280.5H895.714V277Z" stroke="#1A1A1A" stroke-width="1.3"/>
<path d="M896.857 280.5H883.143V284.7H896.857V280.5Z" stroke="#1A1A1A" stroke-width="1.3"/>
<path d="M898 284.7H882V290.3H898V284.7Z" stroke="#1A1A1A" stroke-width="1.3"/>
<path d="M896.857 290.3H883.143V294.5H896.857V290.3Z" stroke="#1A1A1A" stroke-width="1.3"/>
<path d="M895.714 294.5H884.286V298H895.714V294.5Z" stroke="#1A1A1A" stroke-width="1.3"/>
</g>
<defs>
<clipPath id="clip0_78_47446">
<rect width="1200" height="860" fill="white"/>
</clipPath>
</defs>
</svg>
