<svg width="1200" height="860" viewBox="0 0 1200 860" fill="none" xmlns="http://www.w3.org/2000/svg">
<g clip-path="url(#clip0_106_10745)">
<path d="M1200 0H0V860H1200V0Z" fill="white"/>
<path d="M1200 698H0V716H1200V698Z" fill="#2A2A2A"/>
<path d="M102 114H46V698H102V114Z" fill="white" stroke="#1A1A1A" stroke-width="2"/>
<path d="M105 104H43V114H105V104Z" fill="white" stroke="#1A1A1A" stroke-width="2"/>
<path opacity="0.55" d="M49 117H99" stroke="#1A1A1A" stroke-width="0.9" stroke-linecap="square"/>
<path opacity="0.55" d="M49 129H99" stroke="#1A1A1A" stroke-width="0.9" stroke-linecap="square"/>
<path opacity="0.55" d="M49 141H99" stroke="#1A1A1A" stroke-width="0.9" stroke-linecap="square"/>
<path opacity="0.55" d="M49 153H99" stroke="#1A1A1A" stroke-width="0.9" stroke-linecap="square"/>
<path opacity="0.55" d="M49 165H99" stroke="#1A1A1A" stroke-width="0.9" stroke-linecap="square"/>
<path opacity="0.55" d="M49 177H99" stroke="#1A1A1A" stroke-width="0.9" stroke-linecap="square"/>
<path opacity="0.55" d="M49 189H99" stroke="#1A1A1A" stroke-width="0.9" stroke-linecap="square"/>
<path opacity="0.55" d="M49 201H99" stroke="#1A1A1A" stroke-width="0.9" stroke-linecap="square"/>
<path opacity="0.55" d="M49 213H99" stroke="#1A1A1A" stroke-width="0.9" stroke-linecap="square"/>
<path opacity="0.55" d="M49 225H99" stroke="#1A1A1A" stroke-width="0.9" stroke-linecap="square"/>
<path opacity="0.55" d="M49 237H99" stroke="#1A1A1A" stroke-width="0.9" stroke-linecap="square"/>
<path opacity="0.55" d="M49 249H99" stroke="#1A1A1A" stroke-width="0.9" stroke-linecap="square"/>
<path opacity="0.55" d="M49 261H99" stroke="#1A1A1A" stroke-width="0.9" stroke-linecap="square"/>
<path opacity="0.55" d="M49 273H99" stroke="#1A1A1A" stroke-width="0.9" stroke-linecap="square"/>
<path opacity="0.55" d="M49 285H99" stroke="#1A1A1A" stroke-width="0.9" stroke-linecap="square"/>
<path opacity="0.55" d="M49 297H99" stroke="#1A1A1A" stroke-width="0.9" stroke-linecap="square"/>
<path opacity="0.55" d="M49 309H99" stroke="#1A1A1A" stroke-width="0.9" stroke-linecap="square"/>
<path opacity="0.55" d="M49 321H99" stroke="#1A1A1A" stroke-width="0.9" stroke-linecap="square"/>
<path opacity="0.55" d="M49 333H99" stroke="#1A1A1A" stroke-width="0.9" stroke-linecap="square"/>
<path opacity="0.55" d="M49 345H99" stroke="#1A1A1A" stroke-width="0.9" stroke-linecap="square"/>
<path opacity="0.55" d="M49 357H99" stroke="#1A1A1A" stroke-width="0.9" stroke-linecap="square"/>
<path opacity="0.55" d="M49 369H99" stroke="#1A1A1A" stroke-width="0.9" stroke-linecap="square"/>
<path opacity="0.55" d="M49 381H99" stroke="#1A1A1A" stroke-width="0.9" stroke-linecap="square"/>
<path opacity="0.55" d="M49 393H99" stroke="#1A1A1A" stroke-width="0.9" stroke-linecap="square"/>
<path opacity="0.55" d="M49 405H99" stroke="#1A1A1A" stroke-width="0.9" stroke-linecap="square"/>
<path opacity="0.55" d="M49 417H99" stroke="#1A1A1A" stroke-width="0.9" stroke-linecap="square"/>
<path opacity="0.55" d="M49 429H99" stroke="#1A1A1A" stroke-width="0.9" stroke-linecap="square"/>
<path opacity="0.55" d="M49 441H99" stroke="#1A1A1A" stroke-width="0.9" stroke-linecap="square"/>
<path opacity="0.55" d="M49 453H99" stroke="#1A1A1A" stroke-width="0.9" stroke-linecap="square"/>
<path opacity="0.55" d="M49 465H99" stroke="#1A1A1A" stroke-width="0.9" stroke-linecap="square"/>
<path opacity="0.55" d="M49 477H99" stroke="#1A1A1A" stroke-width="0.9" stroke-linecap="square"/>
<path opacity="0.55" d="M49 489H99" stroke="#1A1A1A" stroke-width="0.9" stroke-linecap="square"/>
<path opacity="0.55" d="M49 501H99" stroke="#1A1A1A" stroke-width="0.9" stroke-linecap="square"/>
<path opacity="0.55" d="M49 513H99" stroke="#1A1A1A" stroke-width="0.9" stroke-linecap="square"/>
<path opacity="0.55" d="M49 525H99" stroke="#1A1A1A" stroke-width="0.9" stroke-linecap="square"/>
<path opacity="0.55" d="M49 537H99" stroke="#1A1A1A" stroke-width="0.9" stroke-linecap="square"/>
<path opacity="0.55" d="M49 549H99" stroke="#1A1A1A" stroke-width="0.9" stroke-linecap="square"/>
<path opacity="0.55" d="M49 561H99" stroke="#1A1A1A" stroke-width="0.9" stroke-linecap="square"/>
<path opacity="0.55" d="M49 573H99" stroke="#1A1A1A" stroke-width="0.9" stroke-linecap="square"/>
<path opacity="0.55" d="M49 585H99" stroke="#1A1A1A" stroke-width="0.9" stroke-linecap="square"/>
<path opacity="0.55" d="M49 597H99" stroke="#1A1A1A" stroke-width="0.9" stroke-linecap="square"/>
<path opacity="0.55" d="M49 609H99" stroke="#1A1A1A" stroke-width="0.9" stroke-linecap="square"/>
<path opacity="0.55" d="M49 621H99" stroke="#1A1A1A" stroke-width="0.9" stroke-linecap="square"/>
<path opacity="0.55" d="M49 633H99" stroke="#1A1A1A" stroke-width="0.9" stroke-linecap="square"/>
<path opacity="0.55" d="M49 645H99" stroke="#1A1A1A" stroke-width="0.9" stroke-linecap="square"/>
<path opacity="0.55" d="M49 657H99" stroke="#1A1A1A" stroke-width="0.9" stroke-linecap="square"/>
<path opacity="0.55" d="M49 669H99" stroke="#1A1A1A" stroke-width="0.9" stroke-linecap="square"/>
<path opacity="0.55" d="M49 681H99" stroke="#1A1A1A" stroke-width="0.9" stroke-linecap="square"/>
<path opacity="0.55" d="M49 693H99" stroke="#1A1A1A" stroke-width="0.9" stroke-linecap="square"/>
<path opacity="0.55" d="M63 129V141" stroke="#1A1A1A" stroke-width="0.9" stroke-linecap="square"/>
<path opacity="0.55" d="M63 153V165" stroke="#1A1A1A" stroke-width="0.9" stroke-linecap="square"/>
<path opacity="0.55" d="M63 177V189" stroke="#1A1A1A" stroke-width="0.9" stroke-linecap="square"/>
<path opacity="0.55" d="M63 201V213" stroke="#1A1A1A" stroke-width="0.9" stroke-linecap="square"/>
<path opacity="0.55" d="M63 225V237" stroke="#1A1A1A" stroke-width="0.9" stroke-linecap="square"/>
<path opacity="0.55" d="M63 249V261" stroke="#1A1A1A" stroke-width="0.9" stroke-linecap="square"/>
<path opacity="0.55" d="M63 273V285" stroke="#1A1A1A" stroke-width="0.9" stroke-linecap="square"/>
<path opacity="0.55" d="M63 297V309" stroke="#1A1A1A" stroke-width="0.9" stroke-linecap="square"/>
<path opacity="0.55" d="M63 321V333" stroke="#1A1A1A" stroke-width="0.9" stroke-linecap="square"/>
<path opacity="0.55" d="M63 345V357" stroke="#1A1A1A" stroke-width="0.9" stroke-linecap="square"/>
<path opacity="0.55" d="M63 369V381" stroke="#1A1A1A" stroke-width="0.9" stroke-linecap="square"/>
<path opacity="0.55" d="M63 393V405" stroke="#1A1A1A" stroke-width="0.9" stroke-linecap="square"/>
<path opacity="0.55" d="M63 417V429" stroke="#1A1A1A" stroke-width="0.9" stroke-linecap="square"/>
<path opacity="0.55" d="M63 441V453" stroke="#1A1A1A" stroke-width="0.9" stroke-linecap="square"/>
<path opacity="0.55" d="M63 465V477" stroke="#1A1A1A" stroke-width="0.9" stroke-linecap="square"/>
<path opacity="0.55" d="M63 489V501" stroke="#1A1A1A" stroke-width="0.9" stroke-linecap="square"/>
<path opacity="0.55" d="M63 513V525" stroke="#1A1A1A" stroke-width="0.9" stroke-linecap="square"/>
<path opacity="0.55" d="M63 537V549" stroke="#1A1A1A" stroke-width="0.9" stroke-linecap="square"/>
<path opacity="0.55" d="M63 561V573" stroke="#1A1A1A" stroke-width="0.9" stroke-linecap="square"/>
<path opacity="0.55" d="M63 585V597" stroke="#1A1A1A" stroke-width="0.9" stroke-linecap="square"/>
<path opacity="0.55" d="M63 609V621" stroke="#1A1A1A" stroke-width="0.9" stroke-linecap="square"/>
<path opacity="0.55" d="M63 633V645" stroke="#1A1A1A" stroke-width="0.9" stroke-linecap="square"/>
<path opacity="0.55" d="M63 657V669" stroke="#1A1A1A" stroke-width="0.9" stroke-linecap="square"/>
<path opacity="0.55" d="M63 681V693" stroke="#1A1A1A" stroke-width="0.9" stroke-linecap="square"/>
<path opacity="0.55" d="M77 117V129" stroke="#1A1A1A" stroke-width="0.9" stroke-linecap="square"/>
<path opacity="0.55" d="M91 129V141" stroke="#1A1A1A" stroke-width="0.9" stroke-linecap="square"/>
<path opacity="0.55" d="M77 141V153" stroke="#1A1A1A" stroke-width="0.9" stroke-linecap="square"/>
<path opacity="0.55" d="M91 153V165" stroke="#1A1A1A" stroke-width="0.9" stroke-linecap="square"/>
<path opacity="0.55" d="M77 165V177" stroke="#1A1A1A" stroke-width="0.9" stroke-linecap="square"/>
<path opacity="0.55" d="M91 177V189" stroke="#1A1A1A" stroke-width="0.9" stroke-linecap="square"/>
<path opacity="0.55" d="M77 189V201" stroke="#1A1A1A" stroke-width="0.9" stroke-linecap="square"/>
<path opacity="0.55" d="M91 201V213" stroke="#1A1A1A" stroke-width="0.9" stroke-linecap="square"/>
<path opacity="0.55" d="M77 213V225" stroke="#1A1A1A" stroke-width="0.9" stroke-linecap="square"/>
<path opacity="0.55" d="M91 225V237" stroke="#1A1A1A" stroke-width="0.9" stroke-linecap="square"/>
<path opacity="0.55" d="M77 237V249" stroke="#1A1A1A" stroke-width="0.9" stroke-linecap="square"/>
<path opacity="0.55" d="M91 249V261" stroke="#1A1A1A" stroke-width="0.9" stroke-linecap="square"/>
<path opacity="0.55" d="M77 261V273" stroke="#1A1A1A" stroke-width="0.9" stroke-linecap="square"/>
<path opacity="0.55" d="M91 273V285" stroke="#1A1A1A" stroke-width="0.9" stroke-linecap="square"/>
<path opacity="0.55" d="M77 285V297" stroke="#1A1A1A" stroke-width="0.9" stroke-linecap="square"/>
<path opacity="0.55" d="M91 297V309" stroke="#1A1A1A" stroke-width="0.9" stroke-linecap="square"/>
<path opacity="0.55" d="M77 309V321" stroke="#1A1A1A" stroke-width="0.9" stroke-linecap="square"/>
<path opacity="0.55" d="M91 321V333" stroke="#1A1A1A" stroke-width="0.9" stroke-linecap="square"/>
<path opacity="0.55" d="M77 333V345" stroke="#1A1A1A" stroke-width="0.9" stroke-linecap="square"/>
<path opacity="0.55" d="M91 345V357" stroke="#1A1A1A" stroke-width="0.9" stroke-linecap="square"/>
<path opacity="0.55" d="M77 357V369" stroke="#1A1A1A" stroke-width="0.9" stroke-linecap="square"/>
<path opacity="0.55" d="M91 369V381" stroke="#1A1A1A" stroke-width="0.9" stroke-linecap="square"/>
<path opacity="0.55" d="M77 381V393" stroke="#1A1A1A" stroke-width="0.9" stroke-linecap="square"/>
<path opacity="0.55" d="M91 393V405" stroke="#1A1A1A" stroke-width="0.9" stroke-linecap="square"/>
<path opacity="0.55" d="M77 405V417" stroke="#1A1A1A" stroke-width="0.9" stroke-linecap="square"/>
<path opacity="0.55" d="M91 417V429" stroke="#1A1A1A" stroke-width="0.9" stroke-linecap="square"/>
<path opacity="0.55" d="M77 429V441" stroke="#1A1A1A" stroke-width="0.9" stroke-linecap="square"/>
<path opacity="0.55" d="M91 441V453" stroke="#1A1A1A" stroke-width="0.9" stroke-linecap="square"/>
<path opacity="0.55" d="M77 453V465" stroke="#1A1A1A" stroke-width="0.9" stroke-linecap="square"/>
<path opacity="0.55" d="M91 465V477" stroke="#1A1A1A" stroke-width="0.9" stroke-linecap="square"/>
<path opacity="0.55" d="M77 477V489" stroke="#1A1A1A" stroke-width="0.9" stroke-linecap="square"/>
<path opacity="0.55" d="M91 489V501" stroke="#1A1A1A" stroke-width="0.9" stroke-linecap="square"/>
<path opacity="0.55" d="M77 501V513" stroke="#1A1A1A" stroke-width="0.9" stroke-linecap="square"/>
<path opacity="0.55" d="M91 513V525" stroke="#1A1A1A" stroke-width="0.9" stroke-linecap="square"/>
<path opacity="0.55" d="M77 525V537" stroke="#1A1A1A" stroke-width="0.9" stroke-linecap="square"/>
<path opacity="0.55" d="M91 537V549" stroke="#1A1A1A" stroke-width="0.9" stroke-linecap="square"/>
<path opacity="0.55" d="M77 549V561" stroke="#1A1A1A" stroke-width="0.9" stroke-linecap="square"/>
<path opacity="0.55" d="M91 561V573" stroke="#1A1A1A" stroke-width="0.9" stroke-linecap="square"/>
<path opacity="0.55" d="M77 573V585" stroke="#1A1A1A" stroke-width="0.9" stroke-linecap="square"/>
<path opacity="0.55" d="M91 585V597" stroke="#1A1A1A" stroke-width="0.9" stroke-linecap="square"/>
<path opacity="0.55" d="M77 597V609" stroke="#1A1A1A" stroke-width="0.9" stroke-linecap="square"/>
<path opacity="0.55" d="M91 609V621" stroke="#1A1A1A" stroke-width="0.9" stroke-linecap="square"/>
<path opacity="0.55" d="M77 621V633" stroke="#1A1A1A" stroke-width="0.9" stroke-linecap="square"/>
<path opacity="0.55" d="M91 633V645" stroke="#1A1A1A" stroke-width="0.9" stroke-linecap="square"/>
<path opacity="0.55" d="M77 645V657" stroke="#1A1A1A" stroke-width="0.9" stroke-linecap="square"/>
<path opacity="0.55" d="M91 657V669" stroke="#1A1A1A" stroke-width="0.9" stroke-linecap="square"/>
<path opacity="0.55" d="M77 669V681" stroke="#1A1A1A" stroke-width="0.9" stroke-linecap="square"/>
<path opacity="0.55" d="M91 681V693" stroke="#1A1A1A" stroke-width="0.9" stroke-linecap="square"/>
<path opacity="0.55" d="M77 693V695" stroke="#1A1A1A" stroke-width="0.9" stroke-linecap="square"/>
<path d="M1154 114H1098V698H1154V114Z" fill="white" stroke="#1A1A1A" stroke-width="2"/>
<path d="M1157 104H1095V114H1157V104Z" fill="white" stroke="#1A1A1A" stroke-width="2"/>
<path opacity="0.55" d="M1101 117H1151" stroke="#1A1A1A" stroke-width="0.9" stroke-linecap="square"/>
<path opacity="0.55" d="M1101 129H1151" stroke="#1A1A1A" stroke-width="0.9" stroke-linecap="square"/>
<path opacity="0.55" d="M1101 141H1151" stroke="#1A1A1A" stroke-width="0.9" stroke-linecap="square"/>
<path opacity="0.55" d="M1101 153H1151" stroke="#1A1A1A" stroke-width="0.9" stroke-linecap="square"/>
<path opacity="0.55" d="M1101 165H1151" stroke="#1A1A1A" stroke-width="0.9" stroke-linecap="square"/>
<path opacity="0.55" d="M1101 177H1151" stroke="#1A1A1A" stroke-width="0.9" stroke-linecap="square"/>
<path opacity="0.55" d="M1101 189H1151" stroke="#1A1A1A" stroke-width="0.9" stroke-linecap="square"/>
<path opacity="0.55" d="M1101 201H1151" stroke="#1A1A1A" stroke-width="0.9" stroke-linecap="square"/>
<path opacity="0.55" d="M1101 213H1151" stroke="#1A1A1A" stroke-width="0.9" stroke-linecap="square"/>
<path opacity="0.55" d="M1101 225H1151" stroke="#1A1A1A" stroke-width="0.9" stroke-linecap="square"/>
<path opacity="0.55" d="M1101 237H1151" stroke="#1A1A1A" stroke-width="0.9" stroke-linecap="square"/>
<path opacity="0.55" d="M1101 249H1151" stroke="#1A1A1A" stroke-width="0.9" stroke-linecap="square"/>
<path opacity="0.55" d="M1101 261H1151" stroke="#1A1A1A" stroke-width="0.9" stroke-linecap="square"/>
<path opacity="0.55" d="M1101 273H1151" stroke="#1A1A1A" stroke-width="0.9" stroke-linecap="square"/>
<path opacity="0.55" d="M1101 285H1151" stroke="#1A1A1A" stroke-width="0.9" stroke-linecap="square"/>
<path opacity="0.55" d="M1101 297H1151" stroke="#1A1A1A" stroke-width="0.9" stroke-linecap="square"/>
<path opacity="0.55" d="M1101 309H1151" stroke="#1A1A1A" stroke-width="0.9" stroke-linecap="square"/>
<path opacity="0.55" d="M1101 321H1151" stroke="#1A1A1A" stroke-width="0.9" stroke-linecap="square"/>
<path opacity="0.55" d="M1101 333H1151" stroke="#1A1A1A" stroke-width="0.9" stroke-linecap="square"/>
<path opacity="0.55" d="M1101 345H1151" stroke="#1A1A1A" stroke-width="0.9" stroke-linecap="square"/>
<path opacity="0.55" d="M1101 357H1151" stroke="#1A1A1A" stroke-width="0.9" stroke-linecap="square"/>
<path opacity="0.55" d="M1101 369H1151" stroke="#1A1A1A" stroke-width="0.9" stroke-linecap="square"/>
<path opacity="0.55" d="M1101 381H1151" stroke="#1A1A1A" stroke-width="0.9" stroke-linecap="square"/>
<path opacity="0.55" d="M1101 393H1151" stroke="#1A1A1A" stroke-width="0.9" stroke-linecap="square"/>
<path opacity="0.55" d="M1101 405H1151" stroke="#1A1A1A" stroke-width="0.9" stroke-linecap="square"/>
<path opacity="0.55" d="M1101 417H1151" stroke="#1A1A1A" stroke-width="0.9" stroke-linecap="square"/>
<path opacity="0.55" d="M1101 429H1151" stroke="#1A1A1A" stroke-width="0.9" stroke-linecap="square"/>
<path opacity="0.55" d="M1101 441H1151" stroke="#1A1A1A" stroke-width="0.9" stroke-linecap="square"/>
<path opacity="0.55" d="M1101 453H1151" stroke="#1A1A1A" stroke-width="0.9" stroke-linecap="square"/>
<path opacity="0.55" d="M1101 465H1151" stroke="#1A1A1A" stroke-width="0.9" stroke-linecap="square"/>
<path opacity="0.55" d="M1101 477H1151" stroke="#1A1A1A" stroke-width="0.9" stroke-linecap="square"/>
<path opacity="0.55" d="M1101 489H1151" stroke="#1A1A1A" stroke-width="0.9" stroke-linecap="square"/>
<path opacity="0.55" d="M1101 501H1151" stroke="#1A1A1A" stroke-width="0.9" stroke-linecap="square"/>
<path opacity="0.55" d="M1101 513H1151" stroke="#1A1A1A" stroke-width="0.9" stroke-linecap="square"/>
<path opacity="0.55" d="M1101 525H1151" stroke="#1A1A1A" stroke-width="0.9" stroke-linecap="square"/>
<path opacity="0.55" d="M1101 537H1151" stroke="#1A1A1A" stroke-width="0.9" stroke-linecap="square"/>
<path opacity="0.55" d="M1101 549H1151" stroke="#1A1A1A" stroke-width="0.9" stroke-linecap="square"/>
<path opacity="0.55" d="M1101 561H1151" stroke="#1A1A1A" stroke-width="0.9" stroke-linecap="square"/>
<path opacity="0.55" d="M1101 573H1151" stroke="#1A1A1A" stroke-width="0.9" stroke-linecap="square"/>
<path opacity="0.55" d="M1101 585H1151" stroke="#1A1A1A" stroke-width="0.9" stroke-linecap="square"/>
<path opacity="0.55" d="M1101 597H1151" stroke="#1A1A1A" stroke-width="0.9" stroke-linecap="square"/>
<path opacity="0.55" d="M1101 609H1151" stroke="#1A1A1A" stroke-width="0.9" stroke-linecap="square"/>
<path opacity="0.55" d="M1101 621H1151" stroke="#1A1A1A" stroke-width="0.9" stroke-linecap="square"/>
<path opacity="0.55" d="M1101 633H1151" stroke="#1A1A1A" stroke-width="0.9" stroke-linecap="square"/>
<path opacity="0.55" d="M1101 645H1151" stroke="#1A1A1A" stroke-width="0.9" stroke-linecap="square"/>
<path opacity="0.55" d="M1101 657H1151" stroke="#1A1A1A" stroke-width="0.9" stroke-linecap="square"/>
<path opacity="0.55" d="M1101 669H1151" stroke="#1A1A1A" stroke-width="0.9" stroke-linecap="square"/>
<path opacity="0.55" d="M1101 681H1151" stroke="#1A1A1A" stroke-width="0.9" stroke-linecap="square"/>
<path opacity="0.55" d="M1101 693H1151" stroke="#1A1A1A" stroke-width="0.9" stroke-linecap="square"/>
<path opacity="0.55" d="M1115 129V141" stroke="#1A1A1A" stroke-width="0.9" stroke-linecap="square"/>
<path opacity="0.55" d="M1115 153V165" stroke="#1A1A1A" stroke-width="0.9" stroke-linecap="square"/>
<path opacity="0.55" d="M1115 177V189" stroke="#1A1A1A" stroke-width="0.9" stroke-linecap="square"/>
<path opacity="0.55" d="M1115 201V213" stroke="#1A1A1A" stroke-width="0.9" stroke-linecap="square"/>
<path opacity="0.55" d="M1115 225V237" stroke="#1A1A1A" stroke-width="0.9" stroke-linecap="square"/>
<path opacity="0.55" d="M1115 249V261" stroke="#1A1A1A" stroke-width="0.9" stroke-linecap="square"/>
<path opacity="0.55" d="M1115 273V285" stroke="#1A1A1A" stroke-width="0.9" stroke-linecap="square"/>
<path opacity="0.55" d="M1115 297V309" stroke="#1A1A1A" stroke-width="0.9" stroke-linecap="square"/>
<path opacity="0.55" d="M1115 321V333" stroke="#1A1A1A" stroke-width="0.9" stroke-linecap="square"/>
<path opacity="0.55" d="M1115 345V357" stroke="#1A1A1A" stroke-width="0.9" stroke-linecap="square"/>
<path opacity="0.55" d="M1115 369V381" stroke="#1A1A1A" stroke-width="0.9" stroke-linecap="square"/>
<path opacity="0.55" d="M1115 393V405" stroke="#1A1A1A" stroke-width="0.9" stroke-linecap="square"/>
<path opacity="0.55" d="M1115 417V429" stroke="#1A1A1A" stroke-width="0.9" stroke-linecap="square"/>
<path opacity="0.55" d="M1115 441V453" stroke="#1A1A1A" stroke-width="0.9" stroke-linecap="square"/>
<path opacity="0.55" d="M1115 465V477" stroke="#1A1A1A" stroke-width="0.9" stroke-linecap="square"/>
<path opacity="0.55" d="M1115 489V501" stroke="#1A1A1A" stroke-width="0.9" stroke-linecap="square"/>
<path opacity="0.55" d="M1115 513V525" stroke="#1A1A1A" stroke-width="0.9" stroke-linecap="square"/>
<path opacity="0.55" d="M1115 537V549" stroke="#1A1A1A" stroke-width="0.9" stroke-linecap="square"/>
<path opacity="0.55" d="M1115 561V573" stroke="#1A1A1A" stroke-width="0.9" stroke-linecap="square"/>
<path opacity="0.55" d="M1115 585V597" stroke="#1A1A1A" stroke-width="0.9" stroke-linecap="square"/>
<path opacity="0.55" d="M1115 609V621" stroke="#1A1A1A" stroke-width="0.9" stroke-linecap="square"/>
<path opacity="0.55" d="M1115 633V645" stroke="#1A1A1A" stroke-width="0.9" stroke-linecap="square"/>
<path opacity="0.55" d="M1115 657V669" stroke="#1A1A1A" stroke-width="0.9" stroke-linecap="square"/>
<path opacity="0.55" d="M1115 681V693" stroke="#1A1A1A" stroke-width="0.9" stroke-linecap="square"/>
<path opacity="0.55" d="M1129 117V129" stroke="#1A1A1A" stroke-width="0.9" stroke-linecap="square"/>
<path opacity="0.55" d="M1143 129V141" stroke="#1A1A1A" stroke-width="0.9" stroke-linecap="square"/>
<path opacity="0.55" d="M1129 141V153" stroke="#1A1A1A" stroke-width="0.9" stroke-linecap="square"/>
<path opacity="0.55" d="M1143 153V165" stroke="#1A1A1A" stroke-width="0.9" stroke-linecap="square"/>
<path opacity="0.55" d="M1129 165V177" stroke="#1A1A1A" stroke-width="0.9" stroke-linecap="square"/>
<path opacity="0.55" d="M1143 177V189" stroke="#1A1A1A" stroke-width="0.9" stroke-linecap="square"/>
<path opacity="0.55" d="M1129 189V201" stroke="#1A1A1A" stroke-width="0.9" stroke-linecap="square"/>
<path opacity="0.55" d="M1143 201V213" stroke="#1A1A1A" stroke-width="0.9" stroke-linecap="square"/>
<path opacity="0.55" d="M1129 213V225" stroke="#1A1A1A" stroke-width="0.9" stroke-linecap="square"/>
<path opacity="0.55" d="M1143 225V237" stroke="#1A1A1A" stroke-width="0.9" stroke-linecap="square"/>
<path opacity="0.55" d="M1129 237V249" stroke="#1A1A1A" stroke-width="0.9" stroke-linecap="square"/>
<path opacity="0.55" d="M1143 249V261" stroke="#1A1A1A" stroke-width="0.9" stroke-linecap="square"/>
<path opacity="0.55" d="M1129 261V273" stroke="#1A1A1A" stroke-width="0.9" stroke-linecap="square"/>
<path opacity="0.55" d="M1143 273V285" stroke="#1A1A1A" stroke-width="0.9" stroke-linecap="square"/>
<path opacity="0.55" d="M1129 285V297" stroke="#1A1A1A" stroke-width="0.9" stroke-linecap="square"/>
<path opacity="0.55" d="M1143 297V309" stroke="#1A1A1A" stroke-width="0.9" stroke-linecap="square"/>
<path opacity="0.55" d="M1129 309V321" stroke="#1A1A1A" stroke-width="0.9" stroke-linecap="square"/>
<path opacity="0.55" d="M1143 321V333" stroke="#1A1A1A" stroke-width="0.9" stroke-linecap="square"/>
<path opacity="0.55" d="M1129 333V345" stroke="#1A1A1A" stroke-width="0.9" stroke-linecap="square"/>
<path opacity="0.55" d="M1143 345V357" stroke="#1A1A1A" stroke-width="0.9" stroke-linecap="square"/>
<path opacity="0.55" d="M1129 357V369" stroke="#1A1A1A" stroke-width="0.9" stroke-linecap="square"/>
<path opacity="0.55" d="M1143 369V381" stroke="#1A1A1A" stroke-width="0.9" stroke-linecap="square"/>
<path opacity="0.55" d="M1129 381V393" stroke="#1A1A1A" stroke-width="0.9" stroke-linecap="square"/>
<path opacity="0.55" d="M1143 393V405" stroke="#1A1A1A" stroke-width="0.9" stroke-linecap="square"/>
<path opacity="0.55" d="M1129 405V417" stroke="#1A1A1A" stroke-width="0.9" stroke-linecap="square"/>
<path opacity="0.55" d="M1143 417V429" stroke="#1A1A1A" stroke-width="0.9" stroke-linecap="square"/>
<path opacity="0.55" d="M1129 429V441" stroke="#1A1A1A" stroke-width="0.9" stroke-linecap="square"/>
<path opacity="0.55" d="M1143 441V453" stroke="#1A1A1A" stroke-width="0.9" stroke-linecap="square"/>
<path opacity="0.55" d="M1129 453V465" stroke="#1A1A1A" stroke-width="0.9" stroke-linecap="square"/>
<path opacity="0.55" d="M1143 465V477" stroke="#1A1A1A" stroke-width="0.9" stroke-linecap="square"/>
<path opacity="0.55" d="M1129 477V489" stroke="#1A1A1A" stroke-width="0.9" stroke-linecap="square"/>
<path opacity="0.55" d="M1143 489V501" stroke="#1A1A1A" stroke-width="0.9" stroke-linecap="square"/>
<path opacity="0.55" d="M1129 501V513" stroke="#1A1A1A" stroke-width="0.9" stroke-linecap="square"/>
<path opacity="0.55" d="M1143 513V525" stroke="#1A1A1A" stroke-width="0.9" stroke-linecap="square"/>
<path opacity="0.55" d="M1129 525V537" stroke="#1A1A1A" stroke-width="0.9" stroke-linecap="square"/>
<path opacity="0.55" d="M1143 537V549" stroke="#1A1A1A" stroke-width="0.9" stroke-linecap="square"/>
<path opacity="0.55" d="M1129 549V561" stroke="#1A1A1A" stroke-width="0.9" stroke-linecap="square"/>
<path opacity="0.55" d="M1143 561V573" stroke="#1A1A1A" stroke-width="0.9" stroke-linecap="square"/>
<path opacity="0.55" d="M1129 573V585" stroke="#1A1A1A" stroke-width="0.9" stroke-linecap="square"/>
<path opacity="0.55" d="M1143 585V597" stroke="#1A1A1A" stroke-width="0.9" stroke-linecap="square"/>
<path opacity="0.55" d="M1129 597V609" stroke="#1A1A1A" stroke-width="0.9" stroke-linecap="square"/>
<path opacity="0.55" d="M1143 609V621" stroke="#1A1A1A" stroke-width="0.9" stroke-linecap="square"/>
<path opacity="0.55" d="M1129 621V633" stroke="#1A1A1A" stroke-width="0.9" stroke-linecap="square"/>
<path opacity="0.55" d="M1143 633V645" stroke="#1A1A1A" stroke-width="0.9" stroke-linecap="square"/>
<path opacity="0.55" d="M1129 645V657" stroke="#1A1A1A" stroke-width="0.9" stroke-linecap="square"/>
<path opacity="0.55" d="M1143 657V669" stroke="#1A1A1A" stroke-width="0.9" stroke-linecap="square"/>
<path opacity="0.55" d="M1129 669V681" stroke="#1A1A1A" stroke-width="0.9" stroke-linecap="square"/>
<path opacity="0.55" d="M1143 681V693" stroke="#1A1A1A" stroke-width="0.9" stroke-linecap="square"/>
<path opacity="0.55" d="M1129 693V695" stroke="#1A1A1A" stroke-width="0.9" stroke-linecap="square"/>
<path d="M126 178C442 144.667 758 144.667 1074 178" stroke="#1A1A1A" stroke-width="1.4" stroke-linecap="square"/>
<path d="M130 186C444.667 158 759.333 158 1074 186" stroke="#1A1A1A" stroke-width="1.4" stroke-linecap="square"/>
<path d="M126 656H1074" stroke="#1A1A1A" stroke-width="1.4" stroke-linecap="square"/>
<path d="M126 399.6H1074" stroke="#1A1A1A" stroke-width="1.4" stroke-linecap="square"/>
<path d="M155.625 184L158.993 656" stroke="#1A1A1A" stroke-width="1.4" stroke-linecap="square"/>
<path d="M215 180L217.004 656" stroke="#1A1A1A" stroke-width="1.4" stroke-linecap="square"/>
<path d="M275 176L276.023 656" stroke="#1A1A1A" stroke-width="1.4" stroke-linecap="square"/>
<path d="M334.625 172L332.997 655" stroke="#1A1A1A" stroke-width="1.4" stroke-linecap="square"/>
<path d="M392 170L388.994 655" stroke="#1A1A1A" stroke-width="1.4" stroke-linecap="square"/>
<path d="M450 168L451.875 513" stroke="#1A1A1A" stroke-width="1.4" stroke-linecap="square"/>
<path d="M511 167V514" stroke="#1A1A1A" stroke-width="1.4" stroke-linecap="square"/>
<path d="M569 166L570.003 514" stroke="#1A1A1A" stroke-width="1.4" stroke-linecap="square"/>
<path d="M629 166L630.003 513" stroke="#1A1A1A" stroke-width="1.4" stroke-linecap="square"/>
<path d="M687 167L689.006 513" stroke="#1A1A1A" stroke-width="1.4" stroke-linecap="square"/>
<path d="M747 168L748.125 513" stroke="#1A1A1A" stroke-width="1.4" stroke-linecap="square"/>
<path d="M807 170V513" stroke="#1A1A1A" stroke-width="1.4" stroke-linecap="square"/>
<path d="M867 172V513" stroke="#1A1A1A" stroke-width="1.4" stroke-linecap="square"/>
<path d="M925 176L926.003 514" stroke="#1A1A1A" stroke-width="1.4" stroke-linecap="square"/>
<path d="M985 180L985.125 514" stroke="#1A1A1A" stroke-width="1.4" stroke-linecap="square"/>
<path d="M1044 184V514" stroke="#1A1A1A" stroke-width="1.4" stroke-linecap="square"/>
<path d="M451.875 516L452.001 656" stroke="#1A1A1A" stroke-width="1.4" stroke-linecap="square"/>
<path d="M511 514V656" stroke="#1A1A1A" stroke-width="1.4" stroke-linecap="square"/>
<path d="M570.375 515L571.004 655" stroke="#1A1A1A" stroke-width="1.4" stroke-linecap="square"/>
<path d="M630 515L628.993 655" stroke="#1A1A1A" stroke-width="1.4" stroke-linecap="square"/>
<path d="M689 515V655" stroke="#1A1A1A" stroke-width="1.4" stroke-linecap="square"/>
<path d="M748 515L747.999 655" stroke="#1A1A1A" stroke-width="1.4" stroke-linecap="square"/>
<path d="M807 514V656" stroke="#1A1A1A" stroke-width="1.4" stroke-linecap="square"/>
<path d="M867 515V655" stroke="#1A1A1A" stroke-width="1.4" stroke-linecap="square"/>
<path d="M926 514L924.993 656" stroke="#1A1A1A" stroke-width="1.4" stroke-linecap="square"/>
<path d="M985 515L985 655" stroke="#1A1A1A" stroke-width="1.4" stroke-linecap="square"/>
<path d="M1044 514L1044 655" stroke="#1A1A1A" stroke-width="1.4" stroke-linecap="square"/>
<path d="M600 154V655" stroke="#1A1A1A" stroke-width="2.2" stroke-linecap="square"/>
<path d="M605 238.6H595V248.6H605V238.6Z" stroke="#1A1A1A" stroke-width="1.6"/>
<path d="M605 571.4H595V581.4H605V571.4Z" stroke="#1A1A1A" stroke-width="1.6"/>
<path d="M120 206.4H110V218.4H120V206.4Z" stroke="#1A1A1A" stroke-width="1.6"/>
<path d="M120 601.6H110V613.6H120V601.6Z" stroke="#1A1A1A" stroke-width="1.6"/>
<path d="M1079 178H1074V656H1079V178Z" stroke="#1A1A1A" stroke-width="1.6"/>
<path d="M130 178H125V657H130V178Z" stroke="#1A1A1A" stroke-width="1.6"/>
<path d="M134 186C447.333 158 760.667 158 1074 186" stroke="#1A1A1A" stroke-width="1.4" stroke-linecap="square"/>
<path d="M130 205C444.333 177 758.667 177 1073 205" stroke="#1A1A1A" stroke-width="1.4" stroke-linecap="square"/>
<path d="M139.453 186.5C144.421 186.5 148.406 190.328 148.406 195C148.406 199.672 144.421 203.5 139.453 203.5C134.485 203.5 130.5 199.672 130.5 195C130.5 190.328 134.485 186.5 139.453 186.5Z" fill="white" stroke="black"/>
<path d="M156.566 185.5C161.534 185.5 165.519 189.328 165.519 194C165.519 198.672 161.534 202.5 156.566 202.5C151.598 202.5 147.613 198.672 147.613 194C147.613 189.328 151.598 185.5 156.566 185.5Z" fill="white" stroke="black"/>
<path d="M174.686 184.5C179.654 184.5 183.639 188.328 183.639 193C183.639 197.672 179.654 201.5 174.686 201.5C169.717 201.5 165.732 197.672 165.732 193C165.732 188.328 169.717 184.5 174.686 184.5Z" fill="white" stroke="black"/>
<path d="M192.805 182.5C197.773 182.5 201.758 186.328 201.758 191C201.758 195.672 197.773 199.5 192.805 199.5C187.837 199.5 183.852 195.672 183.852 191C183.852 186.328 187.837 182.5 192.805 182.5Z" fill="white" stroke="black"/>
<path d="M210.924 181.5C215.892 181.5 219.877 185.328 219.877 190C219.877 194.672 215.892 198.5 210.924 198.5C205.956 198.5 201.971 194.672 201.971 190C201.971 185.328 205.956 181.5 210.924 181.5Z" fill="white" stroke="black"/>
<path d="M229.044 179.5C234.012 179.5 237.997 183.328 237.997 188C237.997 192.672 234.012 196.5 229.044 196.5C224.076 196.5 220.091 192.672 220.091 188C220.091 183.328 224.076 179.5 229.044 179.5Z" fill="white" stroke="black"/>
<path d="M247.164 178.5C252.132 178.5 256.117 182.328 256.117 187C256.117 191.672 252.132 195.5 247.164 195.5C242.195 195.5 238.21 191.672 238.21 187C238.21 182.328 242.195 178.5 247.164 178.5Z" fill="white" stroke="black"/>
<path d="M265.283 177.5C270.251 177.5 274.236 181.328 274.236 186C274.236 190.672 270.251 194.5 265.283 194.5C260.315 194.5 256.33 190.672 256.33 186C256.33 181.328 260.315 177.5 265.283 177.5Z" fill="white" stroke="black"/>
<path d="M283.402 176.5C288.371 176.5 292.355 180.328 292.355 185C292.355 189.672 288.371 193.5 283.402 193.5C278.434 193.5 274.449 189.672 274.449 185C274.449 180.328 278.434 176.5 283.402 176.5Z" fill="white" stroke="black"/>
<path d="M301.522 175.5C306.49 175.5 310.475 179.328 310.475 184C310.475 188.672 306.49 192.5 301.522 192.5C296.554 192.5 292.569 188.672 292.569 184C292.569 179.328 296.554 175.5 301.522 175.5Z" fill="white" stroke="black"/>
<path d="M319.641 174.5C324.609 174.5 328.594 178.328 328.594 183C328.594 187.672 324.609 191.5 319.641 191.5C314.673 191.5 310.688 187.672 310.688 183C310.688 178.328 314.673 174.5 319.641 174.5Z" fill="white" stroke="black"/>
<path d="M337.761 173.5C342.729 173.5 346.714 177.328 346.714 182C346.714 186.672 342.729 190.5 337.761 190.5C332.793 190.5 328.808 186.672 328.808 182C328.808 177.328 332.793 173.5 337.761 173.5Z" fill="white" stroke="black"/>
<path d="M355.88 172.5C360.849 172.5 364.833 176.328 364.833 181C364.833 185.672 360.849 189.5 355.88 189.5C350.912 189.5 346.927 185.672 346.927 181C346.927 176.328 350.912 172.5 355.88 172.5Z" fill="white" stroke="black"/>
<path d="M374 171.5C378.968 171.5 382.953 175.328 382.953 180C382.953 184.672 378.968 188.5 374 188.5C369.031 188.5 365.046 184.672 365.046 180C365.046 175.328 369.031 171.5 374 171.5Z" fill="white" stroke="black"/>
<path d="M392.119 170.5C397.087 170.5 401.072 174.328 401.072 179C401.072 183.672 397.087 187.5 392.119 187.5C387.151 187.5 383.166 183.672 383.166 179C383.166 174.328 387.151 170.5 392.119 170.5Z" fill="white" stroke="black"/>
<path d="M410.239 170.5C415.207 170.5 419.192 174.328 419.192 179C419.192 183.672 415.207 187.5 410.239 187.5C405.271 187.5 401.286 183.672 401.286 179C401.286 174.328 405.271 170.5 410.239 170.5Z" fill="white" stroke="black"/>
<path d="M428.358 169.5C433.327 169.5 437.312 173.328 437.312 178C437.312 182.672 433.327 186.5 428.358 186.5C423.39 186.5 419.405 182.672 419.405 178C419.405 173.328 423.39 169.5 428.358 169.5Z" fill="white" stroke="black"/>
<path d="M446.478 169.5C451.446 169.5 455.431 173.328 455.431 178C455.431 182.672 451.446 186.5 446.478 186.5C441.509 186.5 437.524 182.672 437.524 178C437.524 173.328 441.509 169.5 446.478 169.5Z" fill="white" stroke="black"/>
<path d="M464.597 168.5C469.565 168.5 473.55 172.328 473.55 177C473.55 181.672 469.565 185.5 464.597 185.5C459.629 185.5 455.644 181.672 455.644 177C455.644 172.328 459.629 168.5 464.597 168.5Z" fill="white" stroke="black"/>
<path d="M482.717 168.5C487.685 168.5 491.67 172.328 491.67 177C491.67 181.672 487.685 185.5 482.717 185.5C477.749 185.5 473.764 181.672 473.764 177C473.764 172.328 477.749 168.5 482.717 168.5Z" fill="white" stroke="black"/>
<path d="M500.836 167.5C505.804 167.5 509.789 171.328 509.789 176C509.789 180.672 505.804 184.5 500.836 184.5C495.868 184.5 491.883 180.672 491.883 176C491.883 171.328 495.868 167.5 500.836 167.5Z" fill="white" stroke="black"/>
<path d="M518.956 167.5C523.924 167.5 527.909 171.328 527.909 176C527.909 180.672 523.924 184.5 518.956 184.5C513.987 184.5 510.002 180.672 510.002 176C510.002 171.328 513.987 167.5 518.956 167.5Z" fill="white" stroke="black"/>
<path d="M537.075 167.5C542.043 167.5 546.028 171.328 546.028 176C546.028 180.672 542.043 184.5 537.075 184.5C532.107 184.5 528.122 180.672 528.122 176C528.122 171.328 532.107 167.5 537.075 167.5Z" fill="white" stroke="black"/>
<path d="M555.194 167.5C560.163 167.5 564.147 171.328 564.147 176C564.147 180.672 560.163 184.5 555.194 184.5C550.226 184.5 546.241 180.672 546.241 176C546.241 171.328 550.226 167.5 555.194 167.5Z" fill="white" stroke="black"/>
<path d="M573.314 166.5C578.282 166.5 582.267 170.328 582.267 175C582.267 179.672 578.282 183.5 573.314 183.5C568.346 183.5 564.361 179.672 564.361 175C564.361 170.328 568.346 166.5 573.314 166.5Z" fill="white" stroke="black"/>
<path d="M591.434 166.5C596.402 166.5 600.387 170.328 600.387 175C600.387 179.672 596.402 183.5 591.434 183.5C586.465 183.5 582.48 179.672 582.48 175C582.48 170.328 586.465 166.5 591.434 166.5Z" fill="white" stroke="black"/>
<path d="M609.553 166.5C614.521 166.5 618.506 170.328 618.506 175C618.506 179.672 614.521 183.5 609.553 183.5C604.585 183.5 600.6 179.672 600.6 175C600.6 170.328 604.585 166.5 609.553 166.5Z" fill="white" stroke="black"/>
<path d="M627.672 166.5C632.641 166.5 636.625 170.328 636.625 175C636.625 179.672 632.641 183.5 627.672 183.5C622.704 183.5 618.719 179.672 618.719 175C618.719 170.328 622.704 166.5 627.672 166.5Z" fill="white" stroke="black"/>
<path d="M645.792 166.5C650.76 166.5 654.745 170.328 654.745 175C654.745 179.672 650.76 183.5 645.792 183.5C640.824 183.5 636.839 179.672 636.839 175C636.839 170.328 640.824 166.5 645.792 166.5Z" fill="white" stroke="black"/>
<path d="M664.918 166.5C669.886 166.5 673.871 170.328 673.871 175C673.871 179.672 669.886 183.5 664.918 183.5C659.95 183.5 655.965 179.672 655.965 175C655.965 170.328 659.95 166.5 664.918 166.5Z" fill="white" stroke="black"/>
<path d="M683.038 166.5C688.006 166.5 691.991 170.328 691.991 175C691.991 179.672 688.006 183.5 683.038 183.5C678.069 183.5 674.084 179.672 674.084 175C674.084 170.328 678.069 166.5 683.038 166.5Z" fill="white" stroke="black"/>
<path d="M701.157 167.5C706.125 167.5 710.11 171.328 710.11 176C710.11 180.672 706.125 184.5 701.157 184.5C696.189 184.5 692.204 180.672 692.204 176C692.204 171.328 696.189 167.5 701.157 167.5Z" fill="white" stroke="black"/>
<path d="M719.276 167.5C724.245 167.5 728.229 171.328 728.229 176C728.229 180.672 724.245 184.5 719.276 184.5C714.308 184.5 710.323 180.672 710.323 176C710.323 171.328 714.308 167.5 719.276 167.5Z" fill="white" stroke="black"/>
<path d="M737.396 168.5C742.364 168.5 746.349 172.328 746.349 177C746.349 181.672 742.364 185.5 737.396 185.5C732.428 185.5 728.443 181.672 728.443 177C728.443 172.328 732.428 168.5 737.396 168.5Z" fill="white" stroke="black"/>
<path d="M755.516 168.5C760.484 168.5 764.469 172.328 764.469 177C764.469 181.672 760.484 185.5 755.516 185.5C750.548 185.5 746.562 181.672 746.562 177C746.562 172.328 750.548 168.5 755.516 168.5Z" fill="white" stroke="black"/>
<path d="M773.635 168.5C778.603 168.5 782.588 172.328 782.588 177C782.588 181.672 778.603 185.5 773.635 185.5C768.667 185.5 764.682 181.672 764.682 177C764.682 172.328 768.667 168.5 773.635 168.5Z" fill="white" stroke="black"/>
<path d="M791.754 169.5C796.723 169.5 800.708 173.328 800.708 178C800.708 182.672 796.723 186.5 791.754 186.5C786.786 186.5 782.801 182.672 782.801 178C782.801 173.328 786.786 169.5 791.754 169.5Z" fill="white" stroke="black"/>
<path d="M809.874 170.5C814.842 170.5 818.827 174.328 818.827 179C818.827 183.672 814.842 187.5 809.874 187.5C804.906 187.5 800.921 183.672 800.921 179C800.921 174.328 804.906 170.5 809.874 170.5Z" fill="white" stroke="black"/>
<path d="M827.993 171.5C832.961 171.5 836.946 175.328 836.946 180C836.946 184.672 832.961 188.5 827.993 188.5C823.025 188.5 819.04 184.672 819.04 180C819.04 175.328 823.025 171.5 827.993 171.5Z" fill="white" stroke="black"/>
<path d="M846.113 172.5C851.081 172.5 855.066 176.328 855.066 181C855.066 185.672 851.081 189.5 846.113 189.5C841.145 189.5 837.16 185.672 837.16 181C837.16 176.328 841.145 172.5 846.113 172.5Z" fill="white" stroke="black"/>
<path d="M864.232 172.5C869.201 172.5 873.186 176.328 873.186 181C873.186 185.672 869.201 189.5 864.232 189.5C859.264 189.5 855.279 185.672 855.279 181C855.279 176.328 859.264 172.5 864.232 172.5Z" fill="white" stroke="black"/>
<path d="M882.352 173.5C887.32 173.5 891.305 177.328 891.305 182C891.305 186.672 887.32 190.5 882.352 190.5C877.383 190.5 873.398 186.672 873.398 182C873.398 177.328 877.383 173.5 882.352 173.5Z" fill="white" stroke="black"/>
<path d="M900.471 174.5C905.439 174.5 909.424 178.328 909.424 183C909.424 187.672 905.439 191.5 900.471 191.5C895.503 191.5 891.518 187.672 891.518 183C891.518 178.328 895.503 174.5 900.471 174.5Z" fill="white" stroke="black"/>
<path d="M918.591 175.5C923.559 175.5 927.544 179.328 927.544 184C927.544 188.672 923.559 192.5 918.591 192.5C913.623 192.5 909.638 188.672 909.638 184C909.638 179.328 913.623 175.5 918.591 175.5Z" fill="white" stroke="black"/>
<path d="M936.71 176.5C941.679 176.5 945.664 180.328 945.664 185C945.664 189.672 941.679 193.5 936.71 193.5C931.742 193.5 927.757 189.672 927.757 185C927.757 180.328 931.742 176.5 936.71 176.5Z" fill="white" stroke="black"/>
<path d="M954.83 177.5C959.798 177.5 963.783 181.328 963.783 186C963.783 190.672 959.798 194.5 954.83 194.5C949.861 194.5 945.876 190.672 945.876 186C945.876 181.328 949.861 177.5 954.83 177.5Z" fill="white" stroke="black"/>
<path d="M972.949 179.5C977.917 179.5 981.902 183.328 981.902 188C981.902 192.672 977.917 196.5 972.949 196.5C967.981 196.5 963.996 192.672 963.996 188C963.996 183.328 967.981 179.5 972.949 179.5Z" fill="white" stroke="black"/>
<path d="M991.069 180.5C996.037 180.5 1000.02 184.328 1000.02 189C1000.02 193.672 996.037 197.5 991.069 197.5C986.101 197.5 982.116 193.672 982.116 189C982.116 184.328 986.101 180.5 991.069 180.5Z" fill="white" stroke="black"/>
<path d="M1009.19 181.5C1014.16 181.5 1018.14 185.328 1018.14 190C1018.14 194.672 1014.16 198.5 1009.19 198.5C1004.22 198.5 1000.23 194.672 1000.23 190C1000.23 185.328 1004.22 181.5 1009.19 181.5Z" fill="white" stroke="black"/>
<path d="M1027.31 183.5C1032.28 183.5 1036.26 187.328 1036.26 192C1036.26 196.672 1032.28 200.5 1027.31 200.5C1022.34 200.5 1018.35 196.672 1018.35 192C1018.35 187.328 1022.34 183.5 1027.31 183.5Z" fill="white" stroke="black"/>
<path d="M1045.43 184.5C1050.4 184.5 1054.38 188.328 1054.38 193C1054.38 197.672 1050.4 201.5 1045.43 201.5C1040.46 201.5 1036.47 197.672 1036.47 193C1036.47 188.328 1040.46 184.5 1045.43 184.5Z" fill="white" stroke="black"/>
<path d="M1063.55 185.5C1068.51 185.5 1072.5 189.328 1072.5 194C1072.5 198.672 1068.51 202.5 1063.55 202.5C1058.58 202.5 1054.59 198.672 1054.59 194C1054.59 189.328 1058.58 185.5 1063.55 185.5Z" fill="white" stroke="black"/>
<path d="M126 516L1078 516.995" stroke="#1A1A1A" stroke-width="1.4" stroke-linecap="square"/>
<path d="M126 537.817L1078 538.811" stroke="#1A1A1A" stroke-width="1.4" stroke-linecap="square"/>
<path d="M138.396 516.5C144.439 516.5 149.3 521.181 149.3 526.908C149.3 532.636 144.439 537.316 138.396 537.316C132.353 537.316 127.492 532.636 127.492 526.908C127.492 521.181 132.353 516.5 138.396 516.5Z" fill="white" stroke="black"/>
<path d="M160.213 516.5C166.256 516.5 171.117 521.181 171.117 526.908C171.117 532.636 166.256 537.316 160.213 537.316C154.17 537.316 149.309 532.636 149.309 526.908C149.309 521.181 154.17 516.5 160.213 516.5Z" fill="white" stroke="black"/>
<path d="M160.213 516.5C166.256 516.5 171.117 521.181 171.117 526.908C171.117 532.636 166.256 537.316 160.213 537.316C154.17 537.316 149.309 532.636 149.309 526.908C149.309 521.181 154.17 516.5 160.213 516.5Z" fill="white" stroke="black"/>
<circle cx="181.533" cy="526.908" r="10.4083" fill="white" stroke="black"/>
<path d="M202.854 516.5C208.898 516.5 213.759 521.181 213.759 526.908C213.759 532.636 208.898 537.316 202.854 537.316C196.811 537.316 191.95 532.636 191.95 526.908C191.95 521.181 196.811 516.5 202.854 516.5Z" fill="white" stroke="black"/>
<path d="M224.671 516.5C230.714 516.5 235.575 521.181 235.575 526.908C235.575 532.636 230.714 537.316 224.671 537.316C218.628 537.316 213.767 532.636 213.767 526.908C213.767 521.181 218.628 516.5 224.671 516.5Z" fill="white" stroke="black"/>
<path d="M246.488 516.5C252.531 516.5 257.392 521.181 257.392 526.908C257.392 532.636 252.531 537.316 246.488 537.316C240.444 537.316 235.583 532.636 235.583 526.908C235.584 521.181 240.444 516.5 246.488 516.5Z" fill="white" stroke="black"/>
<circle cx="267.808" cy="526.908" r="10.4083" fill="white" stroke="black"/>
<path d="M289.129 516.5C295.173 516.5 300.034 521.181 300.034 526.908C300.034 532.636 295.173 537.316 289.129 537.316C283.086 537.316 278.225 532.636 278.225 526.908C278.225 521.181 283.086 516.5 289.129 516.5Z" fill="white" stroke="black"/>
<path d="M310.946 516.5C316.989 516.5 321.85 521.181 321.85 526.908C321.85 532.636 316.989 537.316 310.946 537.316C304.902 537.316 300.042 532.636 300.042 526.908C300.042 521.181 304.902 516.5 310.946 516.5Z" fill="white" stroke="black"/>
<path d="M332.763 516.5C338.806 516.5 343.667 521.181 343.667 526.908C343.667 532.636 338.806 537.316 332.763 537.316C326.719 537.316 321.858 532.636 321.858 526.908C321.858 521.181 326.719 516.5 332.763 516.5Z" fill="white" stroke="black"/>
<circle cx="354.083" cy="526.908" r="10.4083" fill="white" stroke="black"/>
<circle cx="375.9" cy="526.908" r="10.4083" fill="white" stroke="black"/>
<path d="M397.221 516.5C403.264 516.5 408.125 521.181 408.125 526.908C408.125 532.636 403.265 537.316 397.221 537.316C391.178 537.316 386.317 532.636 386.317 526.908C386.317 521.181 391.178 516.5 397.221 516.5Z" fill="white" stroke="black"/>
<path d="M419.038 516.5C425.081 516.5 429.942 521.181 429.942 526.908C429.942 532.636 425.081 537.316 419.038 537.316C412.994 537.316 408.133 532.636 408.133 526.908C408.133 521.181 412.994 516.5 419.038 516.5Z" fill="white" stroke="black"/>
<path d="M440.854 516.5C446.898 516.5 451.759 521.181 451.759 526.908C451.759 532.636 446.898 537.316 440.854 537.316C434.811 537.316 429.95 532.636 429.95 526.908C429.95 521.181 434.811 516.5 440.854 516.5Z" fill="white" stroke="black"/>
<circle cx="462.175" cy="526.908" r="10.4083" fill="white" stroke="black"/>
<path d="M483.496 516.5C489.539 516.5 494.4 521.181 494.4 526.908C494.4 532.636 489.539 537.316 483.496 537.316C477.453 537.316 472.592 532.636 472.592 526.908C472.592 521.181 477.453 516.5 483.496 516.5Z" fill="white" stroke="black"/>
<path d="M505.312 516.5C511.356 516.5 516.217 521.181 516.217 526.908C516.217 532.636 511.356 537.316 505.312 537.316C499.269 537.316 494.408 532.636 494.408 526.908C494.408 521.181 499.269 516.5 505.312 516.5Z" fill="white" stroke="black"/>
<path d="M527.129 516.5C533.173 516.5 538.034 521.181 538.034 526.908C538.034 532.636 533.173 537.316 527.129 537.316C521.086 537.316 516.225 532.636 516.225 526.908C516.225 521.181 521.086 516.5 527.129 516.5Z" fill="white" stroke="black"/>
<circle cx="548.45" cy="526.908" r="10.4083" fill="white" stroke="black"/>
<path d="M569.771 516.5C575.814 516.5 580.675 521.181 580.675 526.908C580.675 532.636 575.814 537.316 569.771 537.316C563.728 537.316 558.867 532.636 558.867 526.908C558.867 521.181 563.728 516.5 569.771 516.5Z" fill="white" stroke="black"/>
<path d="M591.588 516.5C597.631 516.5 602.492 521.181 602.492 526.908C602.492 532.636 597.631 537.316 591.588 537.316C585.545 537.316 580.684 532.636 580.684 526.908C580.684 521.181 585.545 516.5 591.588 516.5Z" fill="white" stroke="black"/>
<path d="M613.404 516.5C619.448 516.5 624.309 521.181 624.309 526.908C624.309 532.636 619.448 537.316 613.404 537.316C607.361 537.316 602.5 532.636 602.5 526.908C602.5 521.181 607.361 516.5 613.404 516.5Z" fill="white" stroke="black"/>
<path d="M635.221 516.5C641.264 516.5 646.125 521.181 646.125 526.908C646.125 532.636 641.264 537.316 635.221 537.316C629.177 537.316 624.316 532.636 624.316 526.908C624.316 521.181 629.177 516.5 635.221 516.5Z" fill="white" stroke="black"/>
<circle cx="656.542" cy="526.908" r="10.4083" fill="white" stroke="black"/>
<path d="M677.863 516.5C683.906 516.5 688.767 521.181 688.767 526.908C688.767 532.636 683.906 537.316 677.863 537.316C671.819 537.316 666.958 532.636 666.958 526.908C666.959 521.181 671.819 516.5 677.863 516.5Z" fill="white" stroke="black"/>
<path d="M699.679 516.5C705.722 516.5 710.583 521.181 710.583 526.908C710.583 532.636 705.723 537.316 699.679 537.316C693.636 537.316 688.775 532.636 688.775 526.908C688.775 521.181 693.636 516.5 699.679 516.5Z" fill="white" stroke="black"/>
<path d="M721.496 516.5C727.539 516.5 732.4 521.181 732.4 526.908C732.4 532.636 727.539 537.316 721.496 537.316C715.453 537.316 710.592 532.636 710.592 526.908C710.592 521.181 715.453 516.5 721.496 516.5Z" fill="white" stroke="black"/>
<circle cx="742.817" cy="526.908" r="10.4083" fill="white" stroke="black"/>
<path d="M764.138 516.5C770.181 516.5 775.042 521.181 775.042 526.908C775.042 532.636 770.181 537.316 764.138 537.316C758.094 537.316 753.233 532.636 753.233 526.908C753.233 521.181 758.094 516.5 764.138 516.5Z" fill="white" stroke="black"/>
<path d="M785.954 516.5C791.997 516.5 796.858 521.181 796.858 526.908C796.858 532.636 791.997 537.316 785.954 537.316C779.911 537.316 775.05 532.636 775.05 526.908C775.05 521.181 779.911 516.5 785.954 516.5Z" fill="white" stroke="black"/>
<path d="M807.771 516.5C813.814 516.5 818.675 521.181 818.675 526.908C818.675 532.636 813.814 537.316 807.771 537.316C801.728 537.316 796.867 532.636 796.867 526.908C796.867 521.181 801.728 516.5 807.771 516.5Z" fill="white" stroke="black"/>
<circle cx="829.091" cy="526.908" r="10.4083" fill="white" stroke="black"/>
<circle cx="850.908" cy="526.908" r="10.4083" fill="white" stroke="black"/>
<path d="M872.229 516.5C878.273 516.5 883.134 521.181 883.134 526.908C883.134 532.636 878.273 537.316 872.229 537.316C866.186 537.316 861.325 532.636 861.325 526.908C861.325 521.181 866.186 516.5 872.229 516.5Z" fill="white" stroke="black"/>
<path d="M894.046 516.5C900.089 516.5 904.95 521.181 904.95 526.908C904.95 532.636 900.089 537.316 894.046 537.316C888.003 537.316 883.142 532.636 883.142 526.908C883.142 521.181 888.003 516.5 894.046 516.5Z" fill="white" stroke="black"/>
<path d="M915.863 516.5C921.906 516.5 926.767 521.181 926.767 526.908C926.767 532.636 921.906 537.316 915.863 537.316C909.819 537.316 904.958 532.636 904.958 526.908C904.959 521.181 909.819 516.5 915.863 516.5Z" fill="white" stroke="black"/>
<circle cx="937.183" cy="526.908" r="10.4083" fill="white" stroke="black"/>
<path d="M958.504 516.5C964.548 516.5 969.409 521.181 969.409 526.908C969.409 532.636 964.548 537.316 958.504 537.316C952.461 537.316 947.6 532.636 947.6 526.908C947.6 521.181 952.461 516.5 958.504 516.5Z" fill="white" stroke="black"/>
<path d="M980.321 516.5C986.364 516.5 991.225 521.181 991.225 526.908C991.225 532.636 986.364 537.316 980.321 537.316C974.277 537.316 969.417 532.636 969.417 526.908C969.417 521.181 974.277 516.5 980.321 516.5Z" fill="white" stroke="black"/>
<path d="M1002.14 516.5C1008.18 516.5 1013.04 521.181 1013.04 526.908C1013.04 532.636 1008.18 537.316 1002.14 537.316C996.094 537.316 991.233 532.636 991.233 526.908C991.233 521.181 996.094 516.5 1002.14 516.5Z" fill="white" stroke="black"/>
<circle cx="1023.46" cy="526.908" r="10.4083" fill="white" stroke="black"/>
<path d="M1044.78 516.5C1050.82 516.5 1055.68 521.181 1055.68 526.908C1055.68 532.636 1050.82 537.316 1044.78 537.316C1038.74 537.316 1033.88 532.636 1033.88 526.908C1033.88 521.181 1038.74 516.5 1044.78 516.5Z" fill="white" stroke="black"/>
<path d="M1066.6 516.5C1072.64 516.5 1077.5 521.181 1077.5 526.908C1077.5 532.636 1072.64 537.316 1066.6 537.316C1060.55 537.316 1055.69 532.636 1055.69 526.908C1055.69 521.181 1060.55 516.5 1066.6 516.5Z" fill="white" stroke="black"/>
</g>
<defs>
<clipPath id="clip0_106_10745">
<rect width="1200" height="860" fill="white"/>
</clipPath>
</defs>
</svg>
