<svg width="1200" height="887" viewBox="0 0 1200 887" fill="none" xmlns="http://www.w3.org/2000/svg">
<path d="M1200 27H0V887H1200V27Z" fill="white"/>
<path d="M1200 725H0V743H1200V725Z" fill="#2A2A2A"/>
<path d="M102 141H46V725H102V141Z" fill="white" stroke="#1A1A1A" stroke-width="2"/>
<path d="M105 131H43V141H105V131Z" fill="white" stroke="#1A1A1A" stroke-width="2"/>
<path opacity="0.55" d="M49 144H99" stroke="#1A1A1A" stroke-width="0.9" stroke-linecap="square"/>
<path opacity="0.55" d="M49 156H99" stroke="#1A1A1A" stroke-width="0.9" stroke-linecap="square"/>
<path opacity="0.55" d="M49 168H99" stroke="#1A1A1A" stroke-width="0.9" stroke-linecap="square"/>
<path opacity="0.55" d="M49 180H99" stroke="#1A1A1A" stroke-width="0.9" stroke-linecap="square"/>
<path opacity="0.55" d="M49 192H99" stroke="#1A1A1A" stroke-width="0.9" stroke-linecap="square"/>
<path opacity="0.55" d="M49 204H99" stroke="#1A1A1A" stroke-width="0.9" stroke-linecap="square"/>
<path opacity="0.55" d="M49 216H99" stroke="#1A1A1A" stroke-width="0.9" stroke-linecap="square"/>
<path opacity="0.55" d="M49 228H99" stroke="#1A1A1A" stroke-width="0.9" stroke-linecap="square"/>
<path opacity="0.55" d="M49 240H99" stroke="#1A1A1A" stroke-width="0.9" stroke-linecap="square"/>
<path opacity="0.55" d="M49 252H99" stroke="#1A1A1A" stroke-width="0.9" stroke-linecap="square"/>
<path opacity="0.55" d="M49 264H99" stroke="#1A1A1A" stroke-width="0.9" stroke-linecap="square"/>
<path opacity="0.55" d="M49 276H99" stroke="#1A1A1A" stroke-width="0.9" stroke-linecap="square"/>
<path opacity="0.55" d="M49 288H99" stroke="#1A1A1A" stroke-width="0.9" stroke-linecap="square"/>
<path opacity="0.55" d="M49 300H99" stroke="#1A1A1A" stroke-width="0.9" stroke-linecap="square"/>
<path opacity="0.55" d="M49 312H99" stroke="#1A1A1A" stroke-width="0.9" stroke-linecap="square"/>
<path opacity="0.55" d="M49 324H99" stroke="#1A1A1A" stroke-width="0.9" stroke-linecap="square"/>
<path opacity="0.55" d="M49 336H99" stroke="#1A1A1A" stroke-width="0.9" stroke-linecap="square"/>
<path opacity="0.55" d="M49 348H99" stroke="#1A1A1A" stroke-width="0.9" stroke-linecap="square"/>
<path opacity="0.55" d="M49 360H99" stroke="#1A1A1A" stroke-width="0.9" stroke-linecap="square"/>
<path opacity="0.55" d="M49 372H99" stroke="#1A1A1A" stroke-width="0.9" stroke-linecap="square"/>
<path opacity="0.55" d="M49 384H99" stroke="#1A1A1A" stroke-width="0.9" stroke-linecap="square"/>
<path opacity="0.55" d="M49 396H99" stroke="#1A1A1A" stroke-width="0.9" stroke-linecap="square"/>
<path opacity="0.55" d="M49 408H99" stroke="#1A1A1A" stroke-width="0.9" stroke-linecap="square"/>
<path opacity="0.55" d="M49 420H99" stroke="#1A1A1A" stroke-width="0.9" stroke-linecap="square"/>
<path opacity="0.55" d="M49 432H99" stroke="#1A1A1A" stroke-width="0.9" stroke-linecap="square"/>
<path opacity="0.55" d="M49 444H99" stroke="#1A1A1A" stroke-width="0.9" stroke-linecap="square"/>
<path opacity="0.55" d="M49 456H99" stroke="#1A1A1A" stroke-width="0.9" stroke-linecap="square"/>
<path opacity="0.55" d="M49 468H99" stroke="#1A1A1A" stroke-width="0.9" stroke-linecap="square"/>
<path opacity="0.55" d="M49 480H99" stroke="#1A1A1A" stroke-width="0.9" stroke-linecap="square"/>
<path opacity="0.55" d="M49 492H99" stroke="#1A1A1A" stroke-width="0.9" stroke-linecap="square"/>
<path opacity="0.55" d="M49 504H99" stroke="#1A1A1A" stroke-width="0.9" stroke-linecap="square"/>
<path opacity="0.55" d="M49 516H99" stroke="#1A1A1A" stroke-width="0.9" stroke-linecap="square"/>
<path opacity="0.55" d="M49 528H99" stroke="#1A1A1A" stroke-width="0.9" stroke-linecap="square"/>
<path opacity="0.55" d="M49 540H99" stroke="#1A1A1A" stroke-width="0.9" stroke-linecap="square"/>
<path opacity="0.55" d="M49 552H99" stroke="#1A1A1A" stroke-width="0.9" stroke-linecap="square"/>
<path opacity="0.55" d="M49 564H99" stroke="#1A1A1A" stroke-width="0.9" stroke-linecap="square"/>
<path opacity="0.55" d="M49 576H99" stroke="#1A1A1A" stroke-width="0.9" stroke-linecap="square"/>
<path opacity="0.55" d="M49 588H99" stroke="#1A1A1A" stroke-width="0.9" stroke-linecap="square"/>
<path opacity="0.55" d="M49 600H99" stroke="#1A1A1A" stroke-width="0.9" stroke-linecap="square"/>
<path opacity="0.55" d="M49 612H99" stroke="#1A1A1A" stroke-width="0.9" stroke-linecap="square"/>
<path opacity="0.55" d="M49 624H99" stroke="#1A1A1A" stroke-width="0.9" stroke-linecap="square"/>
<path opacity="0.55" d="M49 636H99" stroke="#1A1A1A" stroke-width="0.9" stroke-linecap="square"/>
<path opacity="0.55" d="M49 648H99" stroke="#1A1A1A" stroke-width="0.9" stroke-linecap="square"/>
<path opacity="0.55" d="M49 660H99" stroke="#1A1A1A" stroke-width="0.9" stroke-linecap="square"/>
<path opacity="0.55" d="M49 672H99" stroke="#1A1A1A" stroke-width="0.9" stroke-linecap="square"/>
<path opacity="0.55" d="M49 684H99" stroke="#1A1A1A" stroke-width="0.9" stroke-linecap="square"/>
<path opacity="0.55" d="M49 696H99" stroke="#1A1A1A" stroke-width="0.9" stroke-linecap="square"/>
<path opacity="0.55" d="M49 708H99" stroke="#1A1A1A" stroke-width="0.9" stroke-linecap="square"/>
<path opacity="0.55" d="M49 720H99" stroke="#1A1A1A" stroke-width="0.9" stroke-linecap="square"/>
<path opacity="0.55" d="M63 156V168" stroke="#1A1A1A" stroke-width="0.9" stroke-linecap="square"/>
<path opacity="0.55" d="M63 180V192" stroke="#1A1A1A" stroke-width="0.9" stroke-linecap="square"/>
<path opacity="0.55" d="M63 204V216" stroke="#1A1A1A" stroke-width="0.9" stroke-linecap="square"/>
<path opacity="0.55" d="M63 228V240" stroke="#1A1A1A" stroke-width="0.9" stroke-linecap="square"/>
<path opacity="0.55" d="M63 252V264" stroke="#1A1A1A" stroke-width="0.9" stroke-linecap="square"/>
<path opacity="0.55" d="M63 276V288" stroke="#1A1A1A" stroke-width="0.9" stroke-linecap="square"/>
<path opacity="0.55" d="M63 300V312" stroke="#1A1A1A" stroke-width="0.9" stroke-linecap="square"/>
<path opacity="0.55" d="M63 324V336" stroke="#1A1A1A" stroke-width="0.9" stroke-linecap="square"/>
<path opacity="0.55" d="M63 348V360" stroke="#1A1A1A" stroke-width="0.9" stroke-linecap="square"/>
<path opacity="0.55" d="M63 372V384" stroke="#1A1A1A" stroke-width="0.9" stroke-linecap="square"/>
<path opacity="0.55" d="M63 396V408" stroke="#1A1A1A" stroke-width="0.9" stroke-linecap="square"/>
<path opacity="0.55" d="M63 420V432" stroke="#1A1A1A" stroke-width="0.9" stroke-linecap="square"/>
<path opacity="0.55" d="M63 444V456" stroke="#1A1A1A" stroke-width="0.9" stroke-linecap="square"/>
<path opacity="0.55" d="M63 468V480" stroke="#1A1A1A" stroke-width="0.9" stroke-linecap="square"/>
<path opacity="0.55" d="M63 492V504" stroke="#1A1A1A" stroke-width="0.9" stroke-linecap="square"/>
<path opacity="0.55" d="M63 516V528" stroke="#1A1A1A" stroke-width="0.9" stroke-linecap="square"/>
<path opacity="0.55" d="M63 540V552" stroke="#1A1A1A" stroke-width="0.9" stroke-linecap="square"/>
<path opacity="0.55" d="M63 564V576" stroke="#1A1A1A" stroke-width="0.9" stroke-linecap="square"/>
<path opacity="0.55" d="M63 588V600" stroke="#1A1A1A" stroke-width="0.9" stroke-linecap="square"/>
<path opacity="0.55" d="M63 612V624" stroke="#1A1A1A" stroke-width="0.9" stroke-linecap="square"/>
<path opacity="0.55" d="M63 636V648" stroke="#1A1A1A" stroke-width="0.9" stroke-linecap="square"/>
<path opacity="0.55" d="M63 660V672" stroke="#1A1A1A" stroke-width="0.9" stroke-linecap="square"/>
<path opacity="0.55" d="M63 684V696" stroke="#1A1A1A" stroke-width="0.9" stroke-linecap="square"/>
<path opacity="0.55" d="M63 708V720" stroke="#1A1A1A" stroke-width="0.9" stroke-linecap="square"/>
<path opacity="0.55" d="M77 144V156" stroke="#1A1A1A" stroke-width="0.9" stroke-linecap="square"/>
<path opacity="0.55" d="M91 156V168" stroke="#1A1A1A" stroke-width="0.9" stroke-linecap="square"/>
<path opacity="0.55" d="M77 168V180" stroke="#1A1A1A" stroke-width="0.9" stroke-linecap="square"/>
<path opacity="0.55" d="M91 180V192" stroke="#1A1A1A" stroke-width="0.9" stroke-linecap="square"/>
<path opacity="0.55" d="M77 192V204" stroke="#1A1A1A" stroke-width="0.9" stroke-linecap="square"/>
<path opacity="0.55" d="M91 204V216" stroke="#1A1A1A" stroke-width="0.9" stroke-linecap="square"/>
<path opacity="0.55" d="M77 216V228" stroke="#1A1A1A" stroke-width="0.9" stroke-linecap="square"/>
<path opacity="0.55" d="M91 228V240" stroke="#1A1A1A" stroke-width="0.9" stroke-linecap="square"/>
<path opacity="0.55" d="M77 240V252" stroke="#1A1A1A" stroke-width="0.9" stroke-linecap="square"/>
<path opacity="0.55" d="M91 252V264" stroke="#1A1A1A" stroke-width="0.9" stroke-linecap="square"/>
<path opacity="0.55" d="M77 264V276" stroke="#1A1A1A" stroke-width="0.9" stroke-linecap="square"/>
<path opacity="0.55" d="M91 276V288" stroke="#1A1A1A" stroke-width="0.9" stroke-linecap="square"/>
<path opacity="0.55" d="M77 288V300" stroke="#1A1A1A" stroke-width="0.9" stroke-linecap="square"/>
<path opacity="0.55" d="M91 300V312" stroke="#1A1A1A" stroke-width="0.9" stroke-linecap="square"/>
<path opacity="0.55" d="M77 312V324" stroke="#1A1A1A" stroke-width="0.9" stroke-linecap="square"/>
<path opacity="0.55" d="M91 324V336" stroke="#1A1A1A" stroke-width="0.9" stroke-linecap="square"/>
<path opacity="0.55" d="M77 336V348" stroke="#1A1A1A" stroke-width="0.9" stroke-linecap="square"/>
<path opacity="0.55" d="M91 348V360" stroke="#1A1A1A" stroke-width="0.9" stroke-linecap="square"/>
<path opacity="0.55" d="M77 360V372" stroke="#1A1A1A" stroke-width="0.9" stroke-linecap="square"/>
<path opacity="0.55" d="M91 372V384" stroke="#1A1A1A" stroke-width="0.9" stroke-linecap="square"/>
<path opacity="0.55" d="M77 384V396" stroke="#1A1A1A" stroke-width="0.9" stroke-linecap="square"/>
<path opacity="0.55" d="M91 396V408" stroke="#1A1A1A" stroke-width="0.9" stroke-linecap="square"/>
<path opacity="0.55" d="M77 408V420" stroke="#1A1A1A" stroke-width="0.9" stroke-linecap="square"/>
<path opacity="0.55" d="M91 420V432" stroke="#1A1A1A" stroke-width="0.9" stroke-linecap="square"/>
<path opacity="0.55" d="M77 432V444" stroke="#1A1A1A" stroke-width="0.9" stroke-linecap="square"/>
<path opacity="0.55" d="M91 444V456" stroke="#1A1A1A" stroke-width="0.9" stroke-linecap="square"/>
<path opacity="0.55" d="M77 456V468" stroke="#1A1A1A" stroke-width="0.9" stroke-linecap="square"/>
<path opacity="0.55" d="M91 468V480" stroke="#1A1A1A" stroke-width="0.9" stroke-linecap="square"/>
<path opacity="0.55" d="M77 480V492" stroke="#1A1A1A" stroke-width="0.9" stroke-linecap="square"/>
<path opacity="0.55" d="M91 492V504" stroke="#1A1A1A" stroke-width="0.9" stroke-linecap="square"/>
<path opacity="0.55" d="M77 504V516" stroke="#1A1A1A" stroke-width="0.9" stroke-linecap="square"/>
<path opacity="0.55" d="M91 516V528" stroke="#1A1A1A" stroke-width="0.9" stroke-linecap="square"/>
<path opacity="0.55" d="M77 528V540" stroke="#1A1A1A" stroke-width="0.9" stroke-linecap="square"/>
<path opacity="0.55" d="M91 540V552" stroke="#1A1A1A" stroke-width="0.9" stroke-linecap="square"/>
<path opacity="0.55" d="M77 552V564" stroke="#1A1A1A" stroke-width="0.9" stroke-linecap="square"/>
<path opacity="0.55" d="M91 564V576" stroke="#1A1A1A" stroke-width="0.9" stroke-linecap="square"/>
<path opacity="0.55" d="M77 576V588" stroke="#1A1A1A" stroke-width="0.9" stroke-linecap="square"/>
<path opacity="0.55" d="M91 588V600" stroke="#1A1A1A" stroke-width="0.9" stroke-linecap="square"/>
<path opacity="0.55" d="M77 600V612" stroke="#1A1A1A" stroke-width="0.9" stroke-linecap="square"/>
<path opacity="0.55" d="M91 612V624" stroke="#1A1A1A" stroke-width="0.9" stroke-linecap="square"/>
<path opacity="0.55" d="M77 624V636" stroke="#1A1A1A" stroke-width="0.9" stroke-linecap="square"/>
<path opacity="0.55" d="M91 636V648" stroke="#1A1A1A" stroke-width="0.9" stroke-linecap="square"/>
<path opacity="0.55" d="M77 648V660" stroke="#1A1A1A" stroke-width="0.9" stroke-linecap="square"/>
<path opacity="0.55" d="M91 660V672" stroke="#1A1A1A" stroke-width="0.9" stroke-linecap="square"/>
<path opacity="0.55" d="M77 672V684" stroke="#1A1A1A" stroke-width="0.9" stroke-linecap="square"/>
<path opacity="0.55" d="M91 684V696" stroke="#1A1A1A" stroke-width="0.9" stroke-linecap="square"/>
<path opacity="0.55" d="M77 696V708" stroke="#1A1A1A" stroke-width="0.9" stroke-linecap="square"/>
<path opacity="0.55" d="M91 708V720" stroke="#1A1A1A" stroke-width="0.9" stroke-linecap="square"/>
<path opacity="0.55" d="M77 720V722" stroke="#1A1A1A" stroke-width="0.9" stroke-linecap="square"/>
<path d="M1154 141H1098V725H1154V141Z" fill="white" stroke="#1A1A1A" stroke-width="2"/>
<path d="M1157 131H1095V141H1157V131Z" fill="white" stroke="#1A1A1A" stroke-width="2"/>
<path opacity="0.55" d="M1101 144H1151" stroke="#1A1A1A" stroke-width="0.9" stroke-linecap="square"/>
<path opacity="0.55" d="M1101 156H1151" stroke="#1A1A1A" stroke-width="0.9" stroke-linecap="square"/>
<path opacity="0.55" d="M1101 168H1151" stroke="#1A1A1A" stroke-width="0.9" stroke-linecap="square"/>
<path opacity="0.55" d="M1101 180H1151" stroke="#1A1A1A" stroke-width="0.9" stroke-linecap="square"/>
<path opacity="0.55" d="M1101 192H1151" stroke="#1A1A1A" stroke-width="0.9" stroke-linecap="square"/>
<path opacity="0.55" d="M1101 204H1151" stroke="#1A1A1A" stroke-width="0.9" stroke-linecap="square"/>
<path opacity="0.55" d="M1101 216H1151" stroke="#1A1A1A" stroke-width="0.9" stroke-linecap="square"/>
<path opacity="0.55" d="M1101 228H1151" stroke="#1A1A1A" stroke-width="0.9" stroke-linecap="square"/>
<path opacity="0.55" d="M1101 240H1151" stroke="#1A1A1A" stroke-width="0.9" stroke-linecap="square"/>
<path opacity="0.55" d="M1101 252H1151" stroke="#1A1A1A" stroke-width="0.9" stroke-linecap="square"/>
<path opacity="0.55" d="M1101 264H1151" stroke="#1A1A1A" stroke-width="0.9" stroke-linecap="square"/>
<path opacity="0.55" d="M1101 276H1151" stroke="#1A1A1A" stroke-width="0.9" stroke-linecap="square"/>
<path opacity="0.55" d="M1101 288H1151" stroke="#1A1A1A" stroke-width="0.9" stroke-linecap="square"/>
<path opacity="0.55" d="M1101 300H1151" stroke="#1A1A1A" stroke-width="0.9" stroke-linecap="square"/>
<path opacity="0.55" d="M1101 312H1151" stroke="#1A1A1A" stroke-width="0.9" stroke-linecap="square"/>
<path opacity="0.55" d="M1101 324H1151" stroke="#1A1A1A" stroke-width="0.9" stroke-linecap="square"/>
<path opacity="0.55" d="M1101 336H1151" stroke="#1A1A1A" stroke-width="0.9" stroke-linecap="square"/>
<path opacity="0.55" d="M1101 348H1151" stroke="#1A1A1A" stroke-width="0.9" stroke-linecap="square"/>
<path opacity="0.55" d="M1101 360H1151" stroke="#1A1A1A" stroke-width="0.9" stroke-linecap="square"/>
<path opacity="0.55" d="M1101 372H1151" stroke="#1A1A1A" stroke-width="0.9" stroke-linecap="square"/>
<path opacity="0.55" d="M1101 384H1151" stroke="#1A1A1A" stroke-width="0.9" stroke-linecap="square"/>
<path opacity="0.55" d="M1101 396H1151" stroke="#1A1A1A" stroke-width="0.9" stroke-linecap="square"/>
<path opacity="0.55" d="M1101 408H1151" stroke="#1A1A1A" stroke-width="0.9" stroke-linecap="square"/>
<path opacity="0.55" d="M1101 420H1151" stroke="#1A1A1A" stroke-width="0.9" stroke-linecap="square"/>
<path opacity="0.55" d="M1101 432H1151" stroke="#1A1A1A" stroke-width="0.9" stroke-linecap="square"/>
<path opacity="0.55" d="M1101 444H1151" stroke="#1A1A1A" stroke-width="0.9" stroke-linecap="square"/>
<path opacity="0.55" d="M1101 456H1151" stroke="#1A1A1A" stroke-width="0.9" stroke-linecap="square"/>
<path opacity="0.55" d="M1101 468H1151" stroke="#1A1A1A" stroke-width="0.9" stroke-linecap="square"/>
<path opacity="0.55" d="M1101 480H1151" stroke="#1A1A1A" stroke-width="0.9" stroke-linecap="square"/>
<path opacity="0.55" d="M1101 492H1151" stroke="#1A1A1A" stroke-width="0.9" stroke-linecap="square"/>
<path opacity="0.55" d="M1101 504H1151" stroke="#1A1A1A" stroke-width="0.9" stroke-linecap="square"/>
<path opacity="0.55" d="M1101 516H1151" stroke="#1A1A1A" stroke-width="0.9" stroke-linecap="square"/>
<path opacity="0.55" d="M1101 528H1151" stroke="#1A1A1A" stroke-width="0.9" stroke-linecap="square"/>
<path opacity="0.55" d="M1101 540H1151" stroke="#1A1A1A" stroke-width="0.9" stroke-linecap="square"/>
<path opacity="0.55" d="M1101 552H1151" stroke="#1A1A1A" stroke-width="0.9" stroke-linecap="square"/>
<path opacity="0.55" d="M1101 564H1151" stroke="#1A1A1A" stroke-width="0.9" stroke-linecap="square"/>
<path opacity="0.55" d="M1101 576H1151" stroke="#1A1A1A" stroke-width="0.9" stroke-linecap="square"/>
<path opacity="0.55" d="M1101 588H1151" stroke="#1A1A1A" stroke-width="0.9" stroke-linecap="square"/>
<path opacity="0.55" d="M1101 600H1151" stroke="#1A1A1A" stroke-width="0.9" stroke-linecap="square"/>
<path opacity="0.55" d="M1101 612H1151" stroke="#1A1A1A" stroke-width="0.9" stroke-linecap="square"/>
<path opacity="0.55" d="M1101 624H1151" stroke="#1A1A1A" stroke-width="0.9" stroke-linecap="square"/>
<path opacity="0.55" d="M1101 636H1151" stroke="#1A1A1A" stroke-width="0.9" stroke-linecap="square"/>
<path opacity="0.55" d="M1101 648H1151" stroke="#1A1A1A" stroke-width="0.9" stroke-linecap="square"/>
<path opacity="0.55" d="M1101 660H1151" stroke="#1A1A1A" stroke-width="0.9" stroke-linecap="square"/>
<path opacity="0.55" d="M1101 672H1151" stroke="#1A1A1A" stroke-width="0.9" stroke-linecap="square"/>
<path opacity="0.55" d="M1101 684H1151" stroke="#1A1A1A" stroke-width="0.9" stroke-linecap="square"/>
<path opacity="0.55" d="M1101 696H1151" stroke="#1A1A1A" stroke-width="0.9" stroke-linecap="square"/>
<path opacity="0.55" d="M1101 708H1151" stroke="#1A1A1A" stroke-width="0.9" stroke-linecap="square"/>
<path opacity="0.55" d="M1101 720H1151" stroke="#1A1A1A" stroke-width="0.9" stroke-linecap="square"/>
<path opacity="0.55" d="M1115 156V168" stroke="#1A1A1A" stroke-width="0.9" stroke-linecap="square"/>
<path opacity="0.55" d="M1115 180V192" stroke="#1A1A1A" stroke-width="0.9" stroke-linecap="square"/>
<path opacity="0.55" d="M1115 204V216" stroke="#1A1A1A" stroke-width="0.9" stroke-linecap="square"/>
<path opacity="0.55" d="M1115 228V240" stroke="#1A1A1A" stroke-width="0.9" stroke-linecap="square"/>
<path opacity="0.55" d="M1115 252V264" stroke="#1A1A1A" stroke-width="0.9" stroke-linecap="square"/>
<path opacity="0.55" d="M1115 276V288" stroke="#1A1A1A" stroke-width="0.9" stroke-linecap="square"/>
<path opacity="0.55" d="M1115 300V312" stroke="#1A1A1A" stroke-width="0.9" stroke-linecap="square"/>
<path opacity="0.55" d="M1115 324V336" stroke="#1A1A1A" stroke-width="0.9" stroke-linecap="square"/>
<path opacity="0.55" d="M1115 348V360" stroke="#1A1A1A" stroke-width="0.9" stroke-linecap="square"/>
<path opacity="0.55" d="M1115 372V384" stroke="#1A1A1A" stroke-width="0.9" stroke-linecap="square"/>
<path opacity="0.55" d="M1115 396V408" stroke="#1A1A1A" stroke-width="0.9" stroke-linecap="square"/>
<path opacity="0.55" d="M1115 420V432" stroke="#1A1A1A" stroke-width="0.9" stroke-linecap="square"/>
<path opacity="0.55" d="M1115 444V456" stroke="#1A1A1A" stroke-width="0.9" stroke-linecap="square"/>
<path opacity="0.55" d="M1115 468V480" stroke="#1A1A1A" stroke-width="0.9" stroke-linecap="square"/>
<path opacity="0.55" d="M1115 492V504" stroke="#1A1A1A" stroke-width="0.9" stroke-linecap="square"/>
<path opacity="0.55" d="M1115 516V528" stroke="#1A1A1A" stroke-width="0.9" stroke-linecap="square"/>
<path opacity="0.55" d="M1115 540V552" stroke="#1A1A1A" stroke-width="0.9" stroke-linecap="square"/>
<path opacity="0.55" d="M1115 564V576" stroke="#1A1A1A" stroke-width="0.9" stroke-linecap="square"/>
<path opacity="0.55" d="M1115 588V600" stroke="#1A1A1A" stroke-width="0.9" stroke-linecap="square"/>
<path opacity="0.55" d="M1115 612V624" stroke="#1A1A1A" stroke-width="0.9" stroke-linecap="square"/>
<path opacity="0.55" d="M1115 636V648" stroke="#1A1A1A" stroke-width="0.9" stroke-linecap="square"/>
<path opacity="0.55" d="M1115 660V672" stroke="#1A1A1A" stroke-width="0.9" stroke-linecap="square"/>
<path opacity="0.55" d="M1115 684V696" stroke="#1A1A1A" stroke-width="0.9" stroke-linecap="square"/>
<path opacity="0.55" d="M1115 708V720" stroke="#1A1A1A" stroke-width="0.9" stroke-linecap="square"/>
<path opacity="0.55" d="M1129 144V156" stroke="#1A1A1A" stroke-width="0.9" stroke-linecap="square"/>
<path opacity="0.55" d="M1143 156V168" stroke="#1A1A1A" stroke-width="0.9" stroke-linecap="square"/>
<path opacity="0.55" d="M1129 168V180" stroke="#1A1A1A" stroke-width="0.9" stroke-linecap="square"/>
<path opacity="0.55" d="M1143 180V192" stroke="#1A1A1A" stroke-width="0.9" stroke-linecap="square"/>
<path opacity="0.55" d="M1129 192V204" stroke="#1A1A1A" stroke-width="0.9" stroke-linecap="square"/>
<path opacity="0.55" d="M1143 204V216" stroke="#1A1A1A" stroke-width="0.9" stroke-linecap="square"/>
<path opacity="0.55" d="M1129 216V228" stroke="#1A1A1A" stroke-width="0.9" stroke-linecap="square"/>
<path opacity="0.55" d="M1143 228V240" stroke="#1A1A1A" stroke-width="0.9" stroke-linecap="square"/>
<path opacity="0.55" d="M1129 240V252" stroke="#1A1A1A" stroke-width="0.9" stroke-linecap="square"/>
<path opacity="0.55" d="M1143 252V264" stroke="#1A1A1A" stroke-width="0.9" stroke-linecap="square"/>
<path opacity="0.55" d="M1129 264V276" stroke="#1A1A1A" stroke-width="0.9" stroke-linecap="square"/>
<path opacity="0.55" d="M1143 276V288" stroke="#1A1A1A" stroke-width="0.9" stroke-linecap="square"/>
<path opacity="0.55" d="M1129 288V300" stroke="#1A1A1A" stroke-width="0.9" stroke-linecap="square"/>
<path opacity="0.55" d="M1143 300V312" stroke="#1A1A1A" stroke-width="0.9" stroke-linecap="square"/>
<path opacity="0.55" d="M1129 312V324" stroke="#1A1A1A" stroke-width="0.9" stroke-linecap="square"/>
<path opacity="0.55" d="M1143 324V336" stroke="#1A1A1A" stroke-width="0.9" stroke-linecap="square"/>
<path opacity="0.55" d="M1129 336V348" stroke="#1A1A1A" stroke-width="0.9" stroke-linecap="square"/>
<path opacity="0.55" d="M1143 348V360" stroke="#1A1A1A" stroke-width="0.9" stroke-linecap="square"/>
<path opacity="0.55" d="M1129 360V372" stroke="#1A1A1A" stroke-width="0.9" stroke-linecap="square"/>
<path opacity="0.55" d="M1143 372V384" stroke="#1A1A1A" stroke-width="0.9" stroke-linecap="square"/>
<path opacity="0.55" d="M1129 384V396" stroke="#1A1A1A" stroke-width="0.9" stroke-linecap="square"/>
<path opacity="0.55" d="M1143 396V408" stroke="#1A1A1A" stroke-width="0.9" stroke-linecap="square"/>
<path opacity="0.55" d="M1129 408V420" stroke="#1A1A1A" stroke-width="0.9" stroke-linecap="square"/>
<path opacity="0.55" d="M1143 420V432" stroke="#1A1A1A" stroke-width="0.9" stroke-linecap="square"/>
<path opacity="0.55" d="M1129 432V444" stroke="#1A1A1A" stroke-width="0.9" stroke-linecap="square"/>
<path opacity="0.55" d="M1143 444V456" stroke="#1A1A1A" stroke-width="0.9" stroke-linecap="square"/>
<path opacity="0.55" d="M1129 456V468" stroke="#1A1A1A" stroke-width="0.9" stroke-linecap="square"/>
<path opacity="0.55" d="M1143 468V480" stroke="#1A1A1A" stroke-width="0.9" stroke-linecap="square"/>
<path opacity="0.55" d="M1129 480V492" stroke="#1A1A1A" stroke-width="0.9" stroke-linecap="square"/>
<path opacity="0.55" d="M1143 492V504" stroke="#1A1A1A" stroke-width="0.9" stroke-linecap="square"/>
<path opacity="0.55" d="M1129 504V516" stroke="#1A1A1A" stroke-width="0.9" stroke-linecap="square"/>
<path opacity="0.55" d="M1143 516V528" stroke="#1A1A1A" stroke-width="0.9" stroke-linecap="square"/>
<path opacity="0.55" d="M1129 528V540" stroke="#1A1A1A" stroke-width="0.9" stroke-linecap="square"/>
<path opacity="0.55" d="M1143 540V552" stroke="#1A1A1A" stroke-width="0.9" stroke-linecap="square"/>
<path opacity="0.55" d="M1129 552V564" stroke="#1A1A1A" stroke-width="0.9" stroke-linecap="square"/>
<path opacity="0.55" d="M1143 564V576" stroke="#1A1A1A" stroke-width="0.9" stroke-linecap="square"/>
<path opacity="0.55" d="M1129 576V588" stroke="#1A1A1A" stroke-width="0.9" stroke-linecap="square"/>
<path opacity="0.55" d="M1143 588V600" stroke="#1A1A1A" stroke-width="0.9" stroke-linecap="square"/>
<path opacity="0.55" d="M1129 600V612" stroke="#1A1A1A" stroke-width="0.9" stroke-linecap="square"/>
<path opacity="0.55" d="M1143 612V624" stroke="#1A1A1A" stroke-width="0.9" stroke-linecap="square"/>
<path opacity="0.55" d="M1129 624V636" stroke="#1A1A1A" stroke-width="0.9" stroke-linecap="square"/>
<path opacity="0.55" d="M1143 636V648" stroke="#1A1A1A" stroke-width="0.9" stroke-linecap="square"/>
<path opacity="0.55" d="M1129 648V660" stroke="#1A1A1A" stroke-width="0.9" stroke-linecap="square"/>
<path opacity="0.55" d="M1143 660V672" stroke="#1A1A1A" stroke-width="0.9" stroke-linecap="square"/>
<path opacity="0.55" d="M1129 672V684" stroke="#1A1A1A" stroke-width="0.9" stroke-linecap="square"/>
<path opacity="0.55" d="M1143 684V696" stroke="#1A1A1A" stroke-width="0.9" stroke-linecap="square"/>
<path opacity="0.55" d="M1129 696V708" stroke="#1A1A1A" stroke-width="0.9" stroke-linecap="square"/>
<path opacity="0.55" d="M1143 708V720" stroke="#1A1A1A" stroke-width="0.9" stroke-linecap="square"/>
<path opacity="0.55" d="M1129 720V722" stroke="#1A1A1A" stroke-width="0.9" stroke-linecap="square"/>
<path d="M126 205C442 171.667 758 171.667 1074 205" stroke="#1A1A1A" stroke-width="1.4" stroke-linecap="square"/>
<path d="M130 213C443.333 185 756.667 185 1070 213" stroke="#1A1A1A" stroke-width="1.4" stroke-linecap="square"/>
<path d="M126 683H1074" stroke="#1A1A1A" stroke-width="1.4" stroke-linecap="square"/>
<path d="M126 444H1074" stroke="#1A1A1A" stroke-width="1.4" stroke-linecap="square"/>
<path d="M155.625 211V539" stroke="#1A1A1A" stroke-width="1.4" stroke-linecap="square"/>
<path d="M214.875 211V539" stroke="#1A1A1A" stroke-width="1.4" stroke-linecap="square"/>
<path d="M274.125 211V539" stroke="#1A1A1A" stroke-width="1.4" stroke-linecap="square"/>
<path d="M333.375 211V539" stroke="#1A1A1A" stroke-width="1.4" stroke-linecap="square"/>
<path d="M392.625 211V539" stroke="#1A1A1A" stroke-width="1.4" stroke-linecap="square"/>
<path d="M451.875 211V539" stroke="#1A1A1A" stroke-width="1.4" stroke-linecap="square"/>
<path d="M511.125 211V539" stroke="#1A1A1A" stroke-width="1.4" stroke-linecap="square"/>
<path d="M570.375 211V539" stroke="#1A1A1A" stroke-width="1.4" stroke-linecap="square"/>
<path d="M629.625 211V539" stroke="#1A1A1A" stroke-width="1.4" stroke-linecap="square"/>
<path d="M688.875 211V539" stroke="#1A1A1A" stroke-width="1.4" stroke-linecap="square"/>
<path d="M748.125 211V539" stroke="#1A1A1A" stroke-width="1.4" stroke-linecap="square"/>
<path d="M807.375 211V539" stroke="#1A1A1A" stroke-width="1.4" stroke-linecap="square"/>
<path d="M866.625 211V539" stroke="#1A1A1A" stroke-width="1.4" stroke-linecap="square"/>
<path d="M925.875 211V539" stroke="#1A1A1A" stroke-width="1.4" stroke-linecap="square"/>
<path d="M985.125 211V539" stroke="#1A1A1A" stroke-width="1.4" stroke-linecap="square"/>
<path d="M1044.38 211V539" stroke="#1A1A1A" stroke-width="1.4" stroke-linecap="square"/>
<path d="M155.625 543V681" stroke="#1A1A1A" stroke-width="1.4" stroke-linecap="square"/>
<path d="M214.875 543V681" stroke="#1A1A1A" stroke-width="1.4" stroke-linecap="square"/>
<path d="M274.125 543V681" stroke="#1A1A1A" stroke-width="1.4" stroke-linecap="square"/>
<path d="M333.375 543V681" stroke="#1A1A1A" stroke-width="1.4" stroke-linecap="square"/>
<path d="M392.625 543V681" stroke="#1A1A1A" stroke-width="1.4" stroke-linecap="square"/>
<path d="M451.875 543V681" stroke="#1A1A1A" stroke-width="1.4" stroke-linecap="square"/>
<path d="M511.125 543V681" stroke="#1A1A1A" stroke-width="1.4" stroke-linecap="square"/>
<path d="M570.375 543V681" stroke="#1A1A1A" stroke-width="1.4" stroke-linecap="square"/>
<path d="M629.625 543V681" stroke="#1A1A1A" stroke-width="1.4" stroke-linecap="square"/>
<path d="M688.875 543V681" stroke="#1A1A1A" stroke-width="1.4" stroke-linecap="square"/>
<path d="M748.125 543V681" stroke="#1A1A1A" stroke-width="1.4" stroke-linecap="square"/>
<path d="M807.375 543V681" stroke="#1A1A1A" stroke-width="1.4" stroke-linecap="square"/>
<path d="M866.625 543V681" stroke="#1A1A1A" stroke-width="1.4" stroke-linecap="square"/>
<path d="M925.875 543V681" stroke="#1A1A1A" stroke-width="1.4" stroke-linecap="square"/>
<path d="M985.125 543V681" stroke="#1A1A1A" stroke-width="1.4" stroke-linecap="square"/>
<path d="M1044.38 543V681" stroke="#1A1A1A" stroke-width="1.4" stroke-linecap="square"/>
<path d="M600 185V689" stroke="#1A1A1A" stroke-width="2.2" stroke-linecap="square"/>
<path d="M605 265.6H595V275.6H605V265.6Z" stroke="#1A1A1A" stroke-width="1.6"/>
<path d="M605 598.4H595V608.4H605V598.4Z" stroke="#1A1A1A" stroke-width="1.6"/>
<path d="M120 233.4H110V245.4H120V233.4Z" stroke="#1A1A1A" stroke-width="1.6"/>
<path d="M120 628.6H110V640.6H120V628.6Z" stroke="#1A1A1A" stroke-width="1.6"/>
<path d="M1064 324H1056V532H1064V324Z" stroke="#1A1A1A" stroke-width="1.6"/>
<path d="M1079 205H1074V701H1079V205Z" stroke="#1A1A1A" stroke-width="1.6"/>
<path d="M130 205H125V684H130V205Z" stroke="#1A1A1A" stroke-width="1.6"/>
<path d="M144 709H1056" stroke="#1A1A1A" stroke-width="1.4" stroke-linecap="square"/>
<path d="M220.714 301H209.286V304.5H220.714V301Z" stroke="#1A1A1A" stroke-width="1.3"/>
<path d="M221.857 304.5H208.143V308.7H221.857V304.5Z" stroke="#1A1A1A" stroke-width="1.3"/>
<path d="M223 308.7H207V314.3H223V308.7Z" stroke="#1A1A1A" stroke-width="1.3"/>
<path d="M221.857 314.3H208.143V318.5H221.857V314.3Z" stroke="#1A1A1A" stroke-width="1.3"/>
<path d="M220.714 318.5H209.286V322H220.714V318.5Z" stroke="#1A1A1A" stroke-width="1.3"/>
<path d="M338.714 301H327.286V304.5H338.714V301Z" stroke="#1A1A1A" stroke-width="1.3"/>
<path d="M339.857 304.5H326.143V308.7H339.857V304.5Z" stroke="#1A1A1A" stroke-width="1.3"/>
<path d="M341 308.7H325V314.3H341V308.7Z" stroke="#1A1A1A" stroke-width="1.3"/>
<path d="M339.857 314.3H326.143V318.5H339.857V314.3Z" stroke="#1A1A1A" stroke-width="1.3"/>
<path d="M338.714 318.5H327.286V322H338.714V318.5Z" stroke="#1A1A1A" stroke-width="1.3"/>
<path d="M457.714 300H446.286V303.5H457.714V300Z" stroke="#1A1A1A" stroke-width="1.3"/>
<path d="M458.857 303.5H445.143V307.7H458.857V303.5Z" stroke="#1A1A1A" stroke-width="1.3"/>
<path d="M460 307.7H444V313.3H460V307.7Z" stroke="#1A1A1A" stroke-width="1.3"/>
<path d="M458.857 313.3H445.143V317.5H458.857V313.3Z" stroke="#1A1A1A" stroke-width="1.3"/>
<path d="M457.714 317.5H446.286V321H457.714V317.5Z" stroke="#1A1A1A" stroke-width="1.3"/>
<path d="M576.714 300H565.286V303.5H576.714V300Z" stroke="#1A1A1A" stroke-width="1.3"/>
<path d="M577.857 303.5H564.143V307.7H577.857V303.5Z" stroke="#1A1A1A" stroke-width="1.3"/>
<path d="M579 307.7H563V313.3H579V307.7Z" stroke="#1A1A1A" stroke-width="1.3"/>
<path d="M577.857 313.3H564.143V317.5H577.857V313.3Z" stroke="#1A1A1A" stroke-width="1.3"/>
<path d="M576.714 317.5H565.286V321H576.714V317.5Z" stroke="#1A1A1A" stroke-width="1.3"/>
<path d="M634.714 301H623.286V304.5H634.714V301Z" stroke="#1A1A1A" stroke-width="1.3"/>
<path d="M635.857 304.5H622.143V308.7H635.857V304.5Z" stroke="#1A1A1A" stroke-width="1.3"/>
<path d="M637 308.7H621V314.3H637V308.7Z" stroke="#1A1A1A" stroke-width="1.3"/>
<path d="M635.857 314.3H622.143V318.5H635.857V314.3Z" stroke="#1A1A1A" stroke-width="1.3"/>
<path d="M634.714 318.5H623.286V322H634.714V318.5Z" stroke="#1A1A1A" stroke-width="1.3"/>
<path d="M752.714 301H741.286V304.5H752.714V301Z" stroke="#1A1A1A" stroke-width="1.3"/>
<path d="M753.857 304.5H740.143V308.7H753.857V304.5Z" stroke="#1A1A1A" stroke-width="1.3"/>
<path d="M755 308.7H739V314.3H755V308.7Z" stroke="#1A1A1A" stroke-width="1.3"/>
<path d="M753.857 314.3H740.143V318.5H753.857V314.3Z" stroke="#1A1A1A" stroke-width="1.3"/>
<path d="M752.714 318.5H741.286V322H752.714V318.5Z" stroke="#1A1A1A" stroke-width="1.3"/>
<path d="M871.714 300H860.286V303.5H871.714V300Z" stroke="#1A1A1A" stroke-width="1.3"/>
<path d="M872.857 303.5H859.143V307.7H872.857V303.5Z" stroke="#1A1A1A" stroke-width="1.3"/>
<path d="M874 307.7H858V313.3H874V307.7Z" stroke="#1A1A1A" stroke-width="1.3"/>
<path d="M872.857 313.3H859.143V317.5H872.857V313.3Z" stroke="#1A1A1A" stroke-width="1.3"/>
<path d="M871.714 317.5H860.286V321H871.714V317.5Z" stroke="#1A1A1A" stroke-width="1.3"/>
<path d="M990.714 300H979.286V303.5H990.714V300Z" stroke="#1A1A1A" stroke-width="1.3"/>
<path d="M991.857 303.5H978.143V307.7H991.857V303.5Z" stroke="#1A1A1A" stroke-width="1.3"/>
<path d="M993 307.7H977V313.3H993V307.7Z" stroke="#1A1A1A" stroke-width="1.3"/>
<path d="M991.857 313.3H978.143V317.5H991.857V313.3Z" stroke="#1A1A1A" stroke-width="1.3"/>
<path d="M990.714 317.5H979.286V321H990.714V317.5Z" stroke="#1A1A1A" stroke-width="1.3"/>
</svg>
