<svg xmlns="http://www.w3.org/2000/svg" viewBox="0 0 1200 860" width="1200" height="860">
  <title>tracked sliding preview</title>
  <desc>2500 mm opening · 1000 mm high · composite boards · Black satin. Figma-importable CAD base — no sample dimensions.</desc>
  <rect id="cad-paper" x="0" y="0" width="1200" height="860" fill="#FFFFFF" stroke="none" />
  <rect id="cad-ground-bar" x="0" y="698" width="1188" height="18" fill="#2A2A2A" stroke="none" />
  <rect id="cad-left-pillar" x="46" y="114" width="56" height="584" rx="0" fill="#FFFFFF" stroke="#1A1A1A" stroke-width="2" />
  <rect id="cad-left-pillar-cap" x="43" y="104" width="62" height="10" rx="0" fill="#FFFFFF" stroke="#1A1A1A" stroke-width="2" />
  <line id="cad-left-pillar-bed-0" x1="49" y1="117" x2="99" y2="117" stroke="#1A1A1A" stroke-width="0.9" stroke-linecap="square" opacity="0.55" />
  <line id="cad-left-pillar-bed-1" x1="49" y1="129" x2="99" y2="129" stroke="#1A1A1A" stroke-width="0.9" stroke-linecap="square" opacity="0.55" />
  <line id="cad-left-pillar-bed-2" x1="49" y1="141" x2="99" y2="141" stroke="#1A1A1A" stroke-width="0.9" stroke-linecap="square" opacity="0.55" />
  <line id="cad-left-pillar-bed-3" x1="49" y1="153" x2="99" y2="153" stroke="#1A1A1A" stroke-width="0.9" stroke-linecap="square" opacity="0.55" />
  <line id="cad-left-pillar-bed-4" x1="49" y1="165" x2="99" y2="165" stroke="#1A1A1A" stroke-width="0.9" stroke-linecap="square" opacity="0.55" />
  <line id="cad-left-pillar-bed-5" x1="49" y1="177" x2="99" y2="177" stroke="#1A1A1A" stroke-width="0.9" stroke-linecap="square" opacity="0.55" />
  <line id="cad-left-pillar-bed-6" x1="49" y1="189" x2="99" y2="189" stroke="#1A1A1A" stroke-width="0.9" stroke-linecap="square" opacity="0.55" />
  <line id="cad-left-pillar-bed-7" x1="49" y1="201" x2="99" y2="201" stroke="#1A1A1A" stroke-width="0.9" stroke-linecap="square" opacity="0.55" />
  <line id="cad-left-pillar-bed-8" x1="49" y1="213" x2="99" y2="213" stroke="#1A1A1A" stroke-width="0.9" stroke-linecap="square" opacity="0.55" />
  <line id="cad-left-pillar-bed-9" x1="49" y1="225" x2="99" y2="225" stroke="#1A1A1A" stroke-width="0.9" stroke-linecap="square" opacity="0.55" />
  <line id="cad-left-pillar-bed-10" x1="49" y1="237" x2="99" y2="237" stroke="#1A1A1A" stroke-width="0.9" stroke-linecap="square" opacity="0.55" />
  <line id="cad-left-pillar-bed-11" x1="49" y1="249" x2="99" y2="249" stroke="#1A1A1A" stroke-width="0.9" stroke-linecap="square" opacity="0.55" />
  <line id="cad-left-pillar-bed-12" x1="49" y1="261" x2="99" y2="261" stroke="#1A1A1A" stroke-width="0.9" stroke-linecap="square" opacity="0.55" />
  <line id="cad-left-pillar-bed-13" x1="49" y1="273" x2="99" y2="273" stroke="#1A1A1A" stroke-width="0.9" stroke-linecap="square" opacity="0.55" />
  <line id="cad-left-pillar-bed-14" x1="49" y1="285" x2="99" y2="285" stroke="#1A1A1A" stroke-width="0.9" stroke-linecap="square" opacity="0.55" />
  <line id="cad-left-pillar-bed-15" x1="49" y1="297" x2="99" y2="297" stroke="#1A1A1A" stroke-width="0.9" stroke-linecap="square" opacity="0.55" />
  <line id="cad-left-pillar-bed-16" x1="49" y1="309" x2="99" y2="309" stroke="#1A1A1A" stroke-width="0.9" stroke-linecap="square" opacity="0.55" />
  <line id="cad-left-pillar-bed-17" x1="49" y1="321" x2="99" y2="321" stroke="#1A1A1A" stroke-width="0.9" stroke-linecap="square" opacity="0.55" />
  <line id="cad-left-pillar-bed-18" x1="49" y1="333" x2="99" y2="333" stroke="#1A1A1A" stroke-width="0.9" stroke-linecap="square" opacity="0.55" />
  <line id="cad-left-pillar-bed-19" x1="49" y1="345" x2="99" y2="345" stroke="#1A1A1A" stroke-width="0.9" stroke-linecap="square" opacity="0.55" />
  <line id="cad-left-pillar-bed-20" x1="49" y1="357" x2="99" y2="357" stroke="#1A1A1A" stroke-width="0.9" stroke-linecap="square" opacity="0.55" />
  <line id="cad-left-pillar-bed-21" x1="49" y1="369" x2="99" y2="369" stroke="#1A1A1A" stroke-width="0.9" stroke-linecap="square" opacity="0.55" />
  <line id="cad-left-pillar-bed-22" x1="49" y1="381" x2="99" y2="381" stroke="#1A1A1A" stroke-width="0.9" stroke-linecap="square" opacity="0.55" />
  <line id="cad-left-pillar-bed-23" x1="49" y1="393" x2="99" y2="393" stroke="#1A1A1A" stroke-width="0.9" stroke-linecap="square" opacity="0.55" />
  <line id="cad-left-pillar-bed-24" x1="49" y1="405" x2="99" y2="405" stroke="#1A1A1A" stroke-width="0.9" stroke-linecap="square" opacity="0.55" />
  <line id="cad-left-pillar-bed-25" x1="49" y1="417" x2="99" y2="417" stroke="#1A1A1A" stroke-width="0.9" stroke-linecap="square" opacity="0.55" />
  <line id="cad-left-pillar-bed-26" x1="49" y1="429" x2="99" y2="429" stroke="#1A1A1A" stroke-width="0.9" stroke-linecap="square" opacity="0.55" />
  <line id="cad-left-pillar-bed-27" x1="49" y1="441" x2="99" y2="441" stroke="#1A1A1A" stroke-width="0.9" stroke-linecap="square" opacity="0.55" />
  <line id="cad-left-pillar-bed-28" x1="49" y1="453" x2="99" y2="453" stroke="#1A1A1A" stroke-width="0.9" stroke-linecap="square" opacity="0.55" />
  <line id="cad-left-pillar-bed-29" x1="49" y1="465" x2="99" y2="465" stroke="#1A1A1A" stroke-width="0.9" stroke-linecap="square" opacity="0.55" />
  <line id="cad-left-pillar-bed-30" x1="49" y1="477" x2="99" y2="477" stroke="#1A1A1A" stroke-width="0.9" stroke-linecap="square" opacity="0.55" />
  <line id="cad-left-pillar-bed-31" x1="49" y1="489" x2="99" y2="489" stroke="#1A1A1A" stroke-width="0.9" stroke-linecap="square" opacity="0.55" />
  <line id="cad-left-pillar-bed-32" x1="49" y1="501" x2="99" y2="501" stroke="#1A1A1A" stroke-width="0.9" stroke-linecap="square" opacity="0.55" />
  <line id="cad-left-pillar-bed-33" x1="49" y1="513" x2="99" y2="513" stroke="#1A1A1A" stroke-width="0.9" stroke-linecap="square" opacity="0.55" />
  <line id="cad-left-pillar-bed-34" x1="49" y1="525" x2="99" y2="525" stroke="#1A1A1A" stroke-width="0.9" stroke-linecap="square" opacity="0.55" />
  <line id="cad-left-pillar-bed-35" x1="49" y1="537" x2="99" y2="537" stroke="#1A1A1A" stroke-width="0.9" stroke-linecap="square" opacity="0.55" />
  <line id="cad-left-pillar-bed-36" x1="49" y1="549" x2="99" y2="549" stroke="#1A1A1A" stroke-width="0.9" stroke-linecap="square" opacity="0.55" />
  <line id="cad-left-pillar-bed-37" x1="49" y1="561" x2="99" y2="561" stroke="#1A1A1A" stroke-width="0.9" stroke-linecap="square" opacity="0.55" />
  <line id="cad-left-pillar-bed-38" x1="49" y1="573" x2="99" y2="573" stroke="#1A1A1A" stroke-width="0.9" stroke-linecap="square" opacity="0.55" />
  <line id="cad-left-pillar-bed-39" x1="49" y1="585" x2="99" y2="585" stroke="#1A1A1A" stroke-width="0.9" stroke-linecap="square" opacity="0.55" />
  <line id="cad-left-pillar-bed-40" x1="49" y1="597" x2="99" y2="597" stroke="#1A1A1A" stroke-width="0.9" stroke-linecap="square" opacity="0.55" />
  <line id="cad-left-pillar-bed-41" x1="49" y1="609" x2="99" y2="609" stroke="#1A1A1A" stroke-width="0.9" stroke-linecap="square" opacity="0.55" />
  <line id="cad-left-pillar-bed-42" x1="49" y1="621" x2="99" y2="621" stroke="#1A1A1A" stroke-width="0.9" stroke-linecap="square" opacity="0.55" />
  <line id="cad-left-pillar-bed-43" x1="49" y1="633" x2="99" y2="633" stroke="#1A1A1A" stroke-width="0.9" stroke-linecap="square" opacity="0.55" />
  <line id="cad-left-pillar-bed-44" x1="49" y1="645" x2="99" y2="645" stroke="#1A1A1A" stroke-width="0.9" stroke-linecap="square" opacity="0.55" />
  <line id="cad-left-pillar-bed-45" x1="49" y1="657" x2="99" y2="657" stroke="#1A1A1A" stroke-width="0.9" stroke-linecap="square" opacity="0.55" />
  <line id="cad-left-pillar-bed-46" x1="49" y1="669" x2="99" y2="669" stroke="#1A1A1A" stroke-width="0.9" stroke-linecap="square" opacity="0.55" />
  <line id="cad-left-pillar-bed-47" x1="49" y1="681" x2="99" y2="681" stroke="#1A1A1A" stroke-width="0.9" stroke-linecap="square" opacity="0.55" />
  <line id="cad-left-pillar-bed-48" x1="49" y1="693" x2="99" y2="693" stroke="#1A1A1A" stroke-width="0.9" stroke-linecap="square" opacity="0.55" />
  <line id="cad-left-pillar-head-0-1" x1="63" y1="129" x2="63" y2="141" stroke="#1A1A1A" stroke-width="0.9" stroke-linecap="square" opacity="0.55" />
  <line id="cad-left-pillar-head-0-3" x1="63" y1="153" x2="63" y2="165" stroke="#1A1A1A" stroke-width="0.9" stroke-linecap="square" opacity="0.55" />
  <line id="cad-left-pillar-head-0-5" x1="63" y1="177" x2="63" y2="189" stroke="#1A1A1A" stroke-width="0.9" stroke-linecap="square" opacity="0.55" />
  <line id="cad-left-pillar-head-0-7" x1="63" y1="201" x2="63" y2="213" stroke="#1A1A1A" stroke-width="0.9" stroke-linecap="square" opacity="0.55" />
  <line id="cad-left-pillar-head-0-9" x1="63" y1="225" x2="63" y2="237" stroke="#1A1A1A" stroke-width="0.9" stroke-linecap="square" opacity="0.55" />
  <line id="cad-left-pillar-head-0-11" x1="63" y1="249" x2="63" y2="261" stroke="#1A1A1A" stroke-width="0.9" stroke-linecap="square" opacity="0.55" />
  <line id="cad-left-pillar-head-0-13" x1="63" y1="273" x2="63" y2="285" stroke="#1A1A1A" stroke-width="0.9" stroke-linecap="square" opacity="0.55" />
  <line id="cad-left-pillar-head-0-15" x1="63" y1="297" x2="63" y2="309" stroke="#1A1A1A" stroke-width="0.9" stroke-linecap="square" opacity="0.55" />
  <line id="cad-left-pillar-head-0-17" x1="63" y1="321" x2="63" y2="333" stroke="#1A1A1A" stroke-width="0.9" stroke-linecap="square" opacity="0.55" />
  <line id="cad-left-pillar-head-0-19" x1="63" y1="345" x2="63" y2="357" stroke="#1A1A1A" stroke-width="0.9" stroke-linecap="square" opacity="0.55" />
  <line id="cad-left-pillar-head-0-21" x1="63" y1="369" x2="63" y2="381" stroke="#1A1A1A" stroke-width="0.9" stroke-linecap="square" opacity="0.55" />
  <line id="cad-left-pillar-head-0-23" x1="63" y1="393" x2="63" y2="405" stroke="#1A1A1A" stroke-width="0.9" stroke-linecap="square" opacity="0.55" />
  <line id="cad-left-pillar-head-0-25" x1="63" y1="417" x2="63" y2="429" stroke="#1A1A1A" stroke-width="0.9" stroke-linecap="square" opacity="0.55" />
  <line id="cad-left-pillar-head-0-27" x1="63" y1="441" x2="63" y2="453" stroke="#1A1A1A" stroke-width="0.9" stroke-linecap="square" opacity="0.55" />
  <line id="cad-left-pillar-head-0-29" x1="63" y1="465" x2="63" y2="477" stroke="#1A1A1A" stroke-width="0.9" stroke-linecap="square" opacity="0.55" />
  <line id="cad-left-pillar-head-0-31" x1="63" y1="489" x2="63" y2="501" stroke="#1A1A1A" stroke-width="0.9" stroke-linecap="square" opacity="0.55" />
  <line id="cad-left-pillar-head-0-33" x1="63" y1="513" x2="63" y2="525" stroke="#1A1A1A" stroke-width="0.9" stroke-linecap="square" opacity="0.55" />
  <line id="cad-left-pillar-head-0-35" x1="63" y1="537" x2="63" y2="549" stroke="#1A1A1A" stroke-width="0.9" stroke-linecap="square" opacity="0.55" />
  <line id="cad-left-pillar-head-0-37" x1="63" y1="561" x2="63" y2="573" stroke="#1A1A1A" stroke-width="0.9" stroke-linecap="square" opacity="0.55" />
  <line id="cad-left-pillar-head-0-39" x1="63" y1="585" x2="63" y2="597" stroke="#1A1A1A" stroke-width="0.9" stroke-linecap="square" opacity="0.55" />
  <line id="cad-left-pillar-head-0-41" x1="63" y1="609" x2="63" y2="621" stroke="#1A1A1A" stroke-width="0.9" stroke-linecap="square" opacity="0.55" />
  <line id="cad-left-pillar-head-0-43" x1="63" y1="633" x2="63" y2="645" stroke="#1A1A1A" stroke-width="0.9" stroke-linecap="square" opacity="0.55" />
  <line id="cad-left-pillar-head-0-45" x1="63" y1="657" x2="63" y2="669" stroke="#1A1A1A" stroke-width="0.9" stroke-linecap="square" opacity="0.55" />
  <line id="cad-left-pillar-head-0-47" x1="63" y1="681" x2="63" y2="693" stroke="#1A1A1A" stroke-width="0.9" stroke-linecap="square" opacity="0.55" />
  <line id="cad-left-pillar-head-1-0" x1="77" y1="117" x2="77" y2="129" stroke="#1A1A1A" stroke-width="0.9" stroke-linecap="square" opacity="0.55" />
  <line id="cad-left-pillar-head-1-1" x1="91" y1="129" x2="91" y2="141" stroke="#1A1A1A" stroke-width="0.9" stroke-linecap="square" opacity="0.55" />
  <line id="cad-left-pillar-head-1-2" x1="77" y1="141" x2="77" y2="153" stroke="#1A1A1A" stroke-width="0.9" stroke-linecap="square" opacity="0.55" />
  <line id="cad-left-pillar-head-1-3" x1="91" y1="153" x2="91" y2="165" stroke="#1A1A1A" stroke-width="0.9" stroke-linecap="square" opacity="0.55" />
  <line id="cad-left-pillar-head-1-4" x1="77" y1="165" x2="77" y2="177" stroke="#1A1A1A" stroke-width="0.9" stroke-linecap="square" opacity="0.55" />
  <line id="cad-left-pillar-head-1-5" x1="91" y1="177" x2="91" y2="189" stroke="#1A1A1A" stroke-width="0.9" stroke-linecap="square" opacity="0.55" />
  <line id="cad-left-pillar-head-1-6" x1="77" y1="189" x2="77" y2="201" stroke="#1A1A1A" stroke-width="0.9" stroke-linecap="square" opacity="0.55" />
  <line id="cad-left-pillar-head-1-7" x1="91" y1="201" x2="91" y2="213" stroke="#1A1A1A" stroke-width="0.9" stroke-linecap="square" opacity="0.55" />
  <line id="cad-left-pillar-head-1-8" x1="77" y1="213" x2="77" y2="225" stroke="#1A1A1A" stroke-width="0.9" stroke-linecap="square" opacity="0.55" />
  <line id="cad-left-pillar-head-1-9" x1="91" y1="225" x2="91" y2="237" stroke="#1A1A1A" stroke-width="0.9" stroke-linecap="square" opacity="0.55" />
  <line id="cad-left-pillar-head-1-10" x1="77" y1="237" x2="77" y2="249" stroke="#1A1A1A" stroke-width="0.9" stroke-linecap="square" opacity="0.55" />
  <line id="cad-left-pillar-head-1-11" x1="91" y1="249" x2="91" y2="261" stroke="#1A1A1A" stroke-width="0.9" stroke-linecap="square" opacity="0.55" />
  <line id="cad-left-pillar-head-1-12" x1="77" y1="261" x2="77" y2="273" stroke="#1A1A1A" stroke-width="0.9" stroke-linecap="square" opacity="0.55" />
  <line id="cad-left-pillar-head-1-13" x1="91" y1="273" x2="91" y2="285" stroke="#1A1A1A" stroke-width="0.9" stroke-linecap="square" opacity="0.55" />
  <line id="cad-left-pillar-head-1-14" x1="77" y1="285" x2="77" y2="297" stroke="#1A1A1A" stroke-width="0.9" stroke-linecap="square" opacity="0.55" />
  <line id="cad-left-pillar-head-1-15" x1="91" y1="297" x2="91" y2="309" stroke="#1A1A1A" stroke-width="0.9" stroke-linecap="square" opacity="0.55" />
  <line id="cad-left-pillar-head-1-16" x1="77" y1="309" x2="77" y2="321" stroke="#1A1A1A" stroke-width="0.9" stroke-linecap="square" opacity="0.55" />
  <line id="cad-left-pillar-head-1-17" x1="91" y1="321" x2="91" y2="333" stroke="#1A1A1A" stroke-width="0.9" stroke-linecap="square" opacity="0.55" />
  <line id="cad-left-pillar-head-1-18" x1="77" y1="333" x2="77" y2="345" stroke="#1A1A1A" stroke-width="0.9" stroke-linecap="square" opacity="0.55" />
  <line id="cad-left-pillar-head-1-19" x1="91" y1="345" x2="91" y2="357" stroke="#1A1A1A" stroke-width="0.9" stroke-linecap="square" opacity="0.55" />
  <line id="cad-left-pillar-head-1-20" x1="77" y1="357" x2="77" y2="369" stroke="#1A1A1A" stroke-width="0.9" stroke-linecap="square" opacity="0.55" />
  <line id="cad-left-pillar-head-1-21" x1="91" y1="369" x2="91" y2="381" stroke="#1A1A1A" stroke-width="0.9" stroke-linecap="square" opacity="0.55" />
  <line id="cad-left-pillar-head-1-22" x1="77" y1="381" x2="77" y2="393" stroke="#1A1A1A" stroke-width="0.9" stroke-linecap="square" opacity="0.55" />
  <line id="cad-left-pillar-head-1-23" x1="91" y1="393" x2="91" y2="405" stroke="#1A1A1A" stroke-width="0.9" stroke-linecap="square" opacity="0.55" />
  <line id="cad-left-pillar-head-1-24" x1="77" y1="405" x2="77" y2="417" stroke="#1A1A1A" stroke-width="0.9" stroke-linecap="square" opacity="0.55" />
  <line id="cad-left-pillar-head-1-25" x1="91" y1="417" x2="91" y2="429" stroke="#1A1A1A" stroke-width="0.9" stroke-linecap="square" opacity="0.55" />
  <line id="cad-left-pillar-head-1-26" x1="77" y1="429" x2="77" y2="441" stroke="#1A1A1A" stroke-width="0.9" stroke-linecap="square" opacity="0.55" />
  <line id="cad-left-pillar-head-1-27" x1="91" y1="441" x2="91" y2="453" stroke="#1A1A1A" stroke-width="0.9" stroke-linecap="square" opacity="0.55" />
  <line id="cad-left-pillar-head-1-28" x1="77" y1="453" x2="77" y2="465" stroke="#1A1A1A" stroke-width="0.9" stroke-linecap="square" opacity="0.55" />
  <line id="cad-left-pillar-head-1-29" x1="91" y1="465" x2="91" y2="477" stroke="#1A1A1A" stroke-width="0.9" stroke-linecap="square" opacity="0.55" />
  <line id="cad-left-pillar-head-1-30" x1="77" y1="477" x2="77" y2="489" stroke="#1A1A1A" stroke-width="0.9" stroke-linecap="square" opacity="0.55" />
  <line id="cad-left-pillar-head-1-31" x1="91" y1="489" x2="91" y2="501" stroke="#1A1A1A" stroke-width="0.9" stroke-linecap="square" opacity="0.55" />
  <line id="cad-left-pillar-head-1-32" x1="77" y1="501" x2="77" y2="513" stroke="#1A1A1A" stroke-width="0.9" stroke-linecap="square" opacity="0.55" />
  <line id="cad-left-pillar-head-1-33" x1="91" y1="513" x2="91" y2="525" stroke="#1A1A1A" stroke-width="0.9" stroke-linecap="square" opacity="0.55" />
  <line id="cad-left-pillar-head-1-34" x1="77" y1="525" x2="77" y2="537" stroke="#1A1A1A" stroke-width="0.9" stroke-linecap="square" opacity="0.55" />
  <line id="cad-left-pillar-head-1-35" x1="91" y1="537" x2="91" y2="549" stroke="#1A1A1A" stroke-width="0.9" stroke-linecap="square" opacity="0.55" />
  <line id="cad-left-pillar-head-1-36" x1="77" y1="549" x2="77" y2="561" stroke="#1A1A1A" stroke-width="0.9" stroke-linecap="square" opacity="0.55" />
  <line id="cad-left-pillar-head-1-37" x1="91" y1="561" x2="91" y2="573" stroke="#1A1A1A" stroke-width="0.9" stroke-linecap="square" opacity="0.55" />
  <line id="cad-left-pillar-head-1-38" x1="77" y1="573" x2="77" y2="585" stroke="#1A1A1A" stroke-width="0.9" stroke-linecap="square" opacity="0.55" />
  <line id="cad-left-pillar-head-1-39" x1="91" y1="585" x2="91" y2="597" stroke="#1A1A1A" stroke-width="0.9" stroke-linecap="square" opacity="0.55" />
  <line id="cad-left-pillar-head-1-40" x1="77" y1="597" x2="77" y2="609" stroke="#1A1A1A" stroke-width="0.9" stroke-linecap="square" opacity="0.55" />
  <line id="cad-left-pillar-head-1-41" x1="91" y1="609" x2="91" y2="621" stroke="#1A1A1A" stroke-width="0.9" stroke-linecap="square" opacity="0.55" />
  <line id="cad-left-pillar-head-1-42" x1="77" y1="621" x2="77" y2="633" stroke="#1A1A1A" stroke-width="0.9" stroke-linecap="square" opacity="0.55" />
  <line id="cad-left-pillar-head-1-43" x1="91" y1="633" x2="91" y2="645" stroke="#1A1A1A" stroke-width="0.9" stroke-linecap="square" opacity="0.55" />
  <line id="cad-left-pillar-head-1-44" x1="77" y1="645" x2="77" y2="657" stroke="#1A1A1A" stroke-width="0.9" stroke-linecap="square" opacity="0.55" />
  <line id="cad-left-pillar-head-1-45" x1="91" y1="657" x2="91" y2="669" stroke="#1A1A1A" stroke-width="0.9" stroke-linecap="square" opacity="0.55" />
  <line id="cad-left-pillar-head-1-46" x1="77" y1="669" x2="77" y2="681" stroke="#1A1A1A" stroke-width="0.9" stroke-linecap="square" opacity="0.55" />
  <line id="cad-left-pillar-head-1-47" x1="91" y1="681" x2="91" y2="693" stroke="#1A1A1A" stroke-width="0.9" stroke-linecap="square" opacity="0.55" />
  <line id="cad-left-pillar-head-1-48" x1="77" y1="693" x2="77" y2="695" stroke="#1A1A1A" stroke-width="0.9" stroke-linecap="square" opacity="0.55" />
  <rect id="cad-right-pillar" x="964" y="114" width="56" height="584" rx="0" fill="#FFFFFF" stroke="#1A1A1A" stroke-width="2" />
  <rect id="cad-right-pillar-cap" x="961" y="104" width="62" height="10" rx="0" fill="#FFFFFF" stroke="#1A1A1A" stroke-width="2" />
  <line id="cad-right-pillar-bed-0" x1="967" y1="117" x2="1017" y2="117" stroke="#1A1A1A" stroke-width="0.9" stroke-linecap="square" opacity="0.55" />
  <line id="cad-right-pillar-bed-1" x1="967" y1="129" x2="1017" y2="129" stroke="#1A1A1A" stroke-width="0.9" stroke-linecap="square" opacity="0.55" />
  <line id="cad-right-pillar-bed-2" x1="967" y1="141" x2="1017" y2="141" stroke="#1A1A1A" stroke-width="0.9" stroke-linecap="square" opacity="0.55" />
  <line id="cad-right-pillar-bed-3" x1="967" y1="153" x2="1017" y2="153" stroke="#1A1A1A" stroke-width="0.9" stroke-linecap="square" opacity="0.55" />
  <line id="cad-right-pillar-bed-4" x1="967" y1="165" x2="1017" y2="165" stroke="#1A1A1A" stroke-width="0.9" stroke-linecap="square" opacity="0.55" />
  <line id="cad-right-pillar-bed-5" x1="967" y1="177" x2="1017" y2="177" stroke="#1A1A1A" stroke-width="0.9" stroke-linecap="square" opacity="0.55" />
  <line id="cad-right-pillar-bed-6" x1="967" y1="189" x2="1017" y2="189" stroke="#1A1A1A" stroke-width="0.9" stroke-linecap="square" opacity="0.55" />
  <line id="cad-right-pillar-bed-7" x1="967" y1="201" x2="1017" y2="201" stroke="#1A1A1A" stroke-width="0.9" stroke-linecap="square" opacity="0.55" />
  <line id="cad-right-pillar-bed-8" x1="967" y1="213" x2="1017" y2="213" stroke="#1A1A1A" stroke-width="0.9" stroke-linecap="square" opacity="0.55" />
  <line id="cad-right-pillar-bed-9" x1="967" y1="225" x2="1017" y2="225" stroke="#1A1A1A" stroke-width="0.9" stroke-linecap="square" opacity="0.55" />
  <line id="cad-right-pillar-bed-10" x1="967" y1="237" x2="1017" y2="237" stroke="#1A1A1A" stroke-width="0.9" stroke-linecap="square" opacity="0.55" />
  <line id="cad-right-pillar-bed-11" x1="967" y1="249" x2="1017" y2="249" stroke="#1A1A1A" stroke-width="0.9" stroke-linecap="square" opacity="0.55" />
  <line id="cad-right-pillar-bed-12" x1="967" y1="261" x2="1017" y2="261" stroke="#1A1A1A" stroke-width="0.9" stroke-linecap="square" opacity="0.55" />
  <line id="cad-right-pillar-bed-13" x1="967" y1="273" x2="1017" y2="273" stroke="#1A1A1A" stroke-width="0.9" stroke-linecap="square" opacity="0.55" />
  <line id="cad-right-pillar-bed-14" x1="967" y1="285" x2="1017" y2="285" stroke="#1A1A1A" stroke-width="0.9" stroke-linecap="square" opacity="0.55" />
  <line id="cad-right-pillar-bed-15" x1="967" y1="297" x2="1017" y2="297" stroke="#1A1A1A" stroke-width="0.9" stroke-linecap="square" opacity="0.55" />
  <line id="cad-right-pillar-bed-16" x1="967" y1="309" x2="1017" y2="309" stroke="#1A1A1A" stroke-width="0.9" stroke-linecap="square" opacity="0.55" />
  <line id="cad-right-pillar-bed-17" x1="967" y1="321" x2="1017" y2="321" stroke="#1A1A1A" stroke-width="0.9" stroke-linecap="square" opacity="0.55" />
  <line id="cad-right-pillar-bed-18" x1="967" y1="333" x2="1017" y2="333" stroke="#1A1A1A" stroke-width="0.9" stroke-linecap="square" opacity="0.55" />
  <line id="cad-right-pillar-bed-19" x1="967" y1="345" x2="1017" y2="345" stroke="#1A1A1A" stroke-width="0.9" stroke-linecap="square" opacity="0.55" />
  <line id="cad-right-pillar-bed-20" x1="967" y1="357" x2="1017" y2="357" stroke="#1A1A1A" stroke-width="0.9" stroke-linecap="square" opacity="0.55" />
  <line id="cad-right-pillar-bed-21" x1="967" y1="369" x2="1017" y2="369" stroke="#1A1A1A" stroke-width="0.9" stroke-linecap="square" opacity="0.55" />
  <line id="cad-right-pillar-bed-22" x1="967" y1="381" x2="1017" y2="381" stroke="#1A1A1A" stroke-width="0.9" stroke-linecap="square" opacity="0.55" />
  <line id="cad-right-pillar-bed-23" x1="967" y1="393" x2="1017" y2="393" stroke="#1A1A1A" stroke-width="0.9" stroke-linecap="square" opacity="0.55" />
  <line id="cad-right-pillar-bed-24" x1="967" y1="405" x2="1017" y2="405" stroke="#1A1A1A" stroke-width="0.9" stroke-linecap="square" opacity="0.55" />
  <line id="cad-right-pillar-bed-25" x1="967" y1="417" x2="1017" y2="417" stroke="#1A1A1A" stroke-width="0.9" stroke-linecap="square" opacity="0.55" />
  <line id="cad-right-pillar-bed-26" x1="967" y1="429" x2="1017" y2="429" stroke="#1A1A1A" stroke-width="0.9" stroke-linecap="square" opacity="0.55" />
  <line id="cad-right-pillar-bed-27" x1="967" y1="441" x2="1017" y2="441" stroke="#1A1A1A" stroke-width="0.9" stroke-linecap="square" opacity="0.55" />
  <line id="cad-right-pillar-bed-28" x1="967" y1="453" x2="1017" y2="453" stroke="#1A1A1A" stroke-width="0.9" stroke-linecap="square" opacity="0.55" />
  <line id="cad-right-pillar-bed-29" x1="967" y1="465" x2="1017" y2="465" stroke="#1A1A1A" stroke-width="0.9" stroke-linecap="square" opacity="0.55" />
  <line id="cad-right-pillar-bed-30" x1="967" y1="477" x2="1017" y2="477" stroke="#1A1A1A" stroke-width="0.9" stroke-linecap="square" opacity="0.55" />
  <line id="cad-right-pillar-bed-31" x1="967" y1="489" x2="1017" y2="489" stroke="#1A1A1A" stroke-width="0.9" stroke-linecap="square" opacity="0.55" />
  <line id="cad-right-pillar-bed-32" x1="967" y1="501" x2="1017" y2="501" stroke="#1A1A1A" stroke-width="0.9" stroke-linecap="square" opacity="0.55" />
  <line id="cad-right-pillar-bed-33" x1="967" y1="513" x2="1017" y2="513" stroke="#1A1A1A" stroke-width="0.9" stroke-linecap="square" opacity="0.55" />
  <line id="cad-right-pillar-bed-34" x1="967" y1="525" x2="1017" y2="525" stroke="#1A1A1A" stroke-width="0.9" stroke-linecap="square" opacity="0.55" />
  <line id="cad-right-pillar-bed-35" x1="967" y1="537" x2="1017" y2="537" stroke="#1A1A1A" stroke-width="0.9" stroke-linecap="square" opacity="0.55" />
  <line id="cad-right-pillar-bed-36" x1="967" y1="549" x2="1017" y2="549" stroke="#1A1A1A" stroke-width="0.9" stroke-linecap="square" opacity="0.55" />
  <line id="cad-right-pillar-bed-37" x1="967" y1="561" x2="1017" y2="561" stroke="#1A1A1A" stroke-width="0.9" stroke-linecap="square" opacity="0.55" />
  <line id="cad-right-pillar-bed-38" x1="967" y1="573" x2="1017" y2="573" stroke="#1A1A1A" stroke-width="0.9" stroke-linecap="square" opacity="0.55" />
  <line id="cad-right-pillar-bed-39" x1="967" y1="585" x2="1017" y2="585" stroke="#1A1A1A" stroke-width="0.9" stroke-linecap="square" opacity="0.55" />
  <line id="cad-right-pillar-bed-40" x1="967" y1="597" x2="1017" y2="597" stroke="#1A1A1A" stroke-width="0.9" stroke-linecap="square" opacity="0.55" />
  <line id="cad-right-pillar-bed-41" x1="967" y1="609" x2="1017" y2="609" stroke="#1A1A1A" stroke-width="0.9" stroke-linecap="square" opacity="0.55" />
  <line id="cad-right-pillar-bed-42" x1="967" y1="621" x2="1017" y2="621" stroke="#1A1A1A" stroke-width="0.9" stroke-linecap="square" opacity="0.55" />
  <line id="cad-right-pillar-bed-43" x1="967" y1="633" x2="1017" y2="633" stroke="#1A1A1A" stroke-width="0.9" stroke-linecap="square" opacity="0.55" />
  <line id="cad-right-pillar-bed-44" x1="967" y1="645" x2="1017" y2="645" stroke="#1A1A1A" stroke-width="0.9" stroke-linecap="square" opacity="0.55" />
  <line id="cad-right-pillar-bed-45" x1="967" y1="657" x2="1017" y2="657" stroke="#1A1A1A" stroke-width="0.9" stroke-linecap="square" opacity="0.55" />
  <line id="cad-right-pillar-bed-46" x1="967" y1="669" x2="1017" y2="669" stroke="#1A1A1A" stroke-width="0.9" stroke-linecap="square" opacity="0.55" />
  <line id="cad-right-pillar-bed-47" x1="967" y1="681" x2="1017" y2="681" stroke="#1A1A1A" stroke-width="0.9" stroke-linecap="square" opacity="0.55" />
  <line id="cad-right-pillar-bed-48" x1="967" y1="693" x2="1017" y2="693" stroke="#1A1A1A" stroke-width="0.9" stroke-linecap="square" opacity="0.55" />
  <line id="cad-right-pillar-head-0-1" x1="981" y1="129" x2="981" y2="141" stroke="#1A1A1A" stroke-width="0.9" stroke-linecap="square" opacity="0.55" />
  <line id="cad-right-pillar-head-0-3" x1="981" y1="153" x2="981" y2="165" stroke="#1A1A1A" stroke-width="0.9" stroke-linecap="square" opacity="0.55" />
  <line id="cad-right-pillar-head-0-5" x1="981" y1="177" x2="981" y2="189" stroke="#1A1A1A" stroke-width="0.9" stroke-linecap="square" opacity="0.55" />
  <line id="cad-right-pillar-head-0-7" x1="981" y1="201" x2="981" y2="213" stroke="#1A1A1A" stroke-width="0.9" stroke-linecap="square" opacity="0.55" />
  <line id="cad-right-pillar-head-0-9" x1="981" y1="225" x2="981" y2="237" stroke="#1A1A1A" stroke-width="0.9" stroke-linecap="square" opacity="0.55" />
  <line id="cad-right-pillar-head-0-11" x1="981" y1="249" x2="981" y2="261" stroke="#1A1A1A" stroke-width="0.9" stroke-linecap="square" opacity="0.55" />
  <line id="cad-right-pillar-head-0-13" x1="981" y1="273" x2="981" y2="285" stroke="#1A1A1A" stroke-width="0.9" stroke-linecap="square" opacity="0.55" />
  <line id="cad-right-pillar-head-0-15" x1="981" y1="297" x2="981" y2="309" stroke="#1A1A1A" stroke-width="0.9" stroke-linecap="square" opacity="0.55" />
  <line id="cad-right-pillar-head-0-17" x1="981" y1="321" x2="981" y2="333" stroke="#1A1A1A" stroke-width="0.9" stroke-linecap="square" opacity="0.55" />
  <line id="cad-right-pillar-head-0-19" x1="981" y1="345" x2="981" y2="357" stroke="#1A1A1A" stroke-width="0.9" stroke-linecap="square" opacity="0.55" />
  <line id="cad-right-pillar-head-0-21" x1="981" y1="369" x2="981" y2="381" stroke="#1A1A1A" stroke-width="0.9" stroke-linecap="square" opacity="0.55" />
  <line id="cad-right-pillar-head-0-23" x1="981" y1="393" x2="981" y2="405" stroke="#1A1A1A" stroke-width="0.9" stroke-linecap="square" opacity="0.55" />
  <line id="cad-right-pillar-head-0-25" x1="981" y1="417" x2="981" y2="429" stroke="#1A1A1A" stroke-width="0.9" stroke-linecap="square" opacity="0.55" />
  <line id="cad-right-pillar-head-0-27" x1="981" y1="441" x2="981" y2="453" stroke="#1A1A1A" stroke-width="0.9" stroke-linecap="square" opacity="0.55" />
  <line id="cad-right-pillar-head-0-29" x1="981" y1="465" x2="981" y2="477" stroke="#1A1A1A" stroke-width="0.9" stroke-linecap="square" opacity="0.55" />
  <line id="cad-right-pillar-head-0-31" x1="981" y1="489" x2="981" y2="501" stroke="#1A1A1A" stroke-width="0.9" stroke-linecap="square" opacity="0.55" />
  <line id="cad-right-pillar-head-0-33" x1="981" y1="513" x2="981" y2="525" stroke="#1A1A1A" stroke-width="0.9" stroke-linecap="square" opacity="0.55" />
  <line id="cad-right-pillar-head-0-35" x1="981" y1="537" x2="981" y2="549" stroke="#1A1A1A" stroke-width="0.9" stroke-linecap="square" opacity="0.55" />
  <line id="cad-right-pillar-head-0-37" x1="981" y1="561" x2="981" y2="573" stroke="#1A1A1A" stroke-width="0.9" stroke-linecap="square" opacity="0.55" />
  <line id="cad-right-pillar-head-0-39" x1="981" y1="585" x2="981" y2="597" stroke="#1A1A1A" stroke-width="0.9" stroke-linecap="square" opacity="0.55" />
  <line id="cad-right-pillar-head-0-41" x1="981" y1="609" x2="981" y2="621" stroke="#1A1A1A" stroke-width="0.9" stroke-linecap="square" opacity="0.55" />
  <line id="cad-right-pillar-head-0-43" x1="981" y1="633" x2="981" y2="645" stroke="#1A1A1A" stroke-width="0.9" stroke-linecap="square" opacity="0.55" />
  <line id="cad-right-pillar-head-0-45" x1="981" y1="657" x2="981" y2="669" stroke="#1A1A1A" stroke-width="0.9" stroke-linecap="square" opacity="0.55" />
  <line id="cad-right-pillar-head-0-47" x1="981" y1="681" x2="981" y2="693" stroke="#1A1A1A" stroke-width="0.9" stroke-linecap="square" opacity="0.55" />
  <line id="cad-right-pillar-head-1-0" x1="995" y1="117" x2="995" y2="129" stroke="#1A1A1A" stroke-width="0.9" stroke-linecap="square" opacity="0.55" />
  <line id="cad-right-pillar-head-1-1" x1="1009" y1="129" x2="1009" y2="141" stroke="#1A1A1A" stroke-width="0.9" stroke-linecap="square" opacity="0.55" />
  <line id="cad-right-pillar-head-1-2" x1="995" y1="141" x2="995" y2="153" stroke="#1A1A1A" stroke-width="0.9" stroke-linecap="square" opacity="0.55" />
  <line id="cad-right-pillar-head-1-3" x1="1009" y1="153" x2="1009" y2="165" stroke="#1A1A1A" stroke-width="0.9" stroke-linecap="square" opacity="0.55" />
  <line id="cad-right-pillar-head-1-4" x1="995" y1="165" x2="995" y2="177" stroke="#1A1A1A" stroke-width="0.9" stroke-linecap="square" opacity="0.55" />
  <line id="cad-right-pillar-head-1-5" x1="1009" y1="177" x2="1009" y2="189" stroke="#1A1A1A" stroke-width="0.9" stroke-linecap="square" opacity="0.55" />
  <line id="cad-right-pillar-head-1-6" x1="995" y1="189" x2="995" y2="201" stroke="#1A1A1A" stroke-width="0.9" stroke-linecap="square" opacity="0.55" />
  <line id="cad-right-pillar-head-1-7" x1="1009" y1="201" x2="1009" y2="213" stroke="#1A1A1A" stroke-width="0.9" stroke-linecap="square" opacity="0.55" />
  <line id="cad-right-pillar-head-1-8" x1="995" y1="213" x2="995" y2="225" stroke="#1A1A1A" stroke-width="0.9" stroke-linecap="square" opacity="0.55" />
  <line id="cad-right-pillar-head-1-9" x1="1009" y1="225" x2="1009" y2="237" stroke="#1A1A1A" stroke-width="0.9" stroke-linecap="square" opacity="0.55" />
  <line id="cad-right-pillar-head-1-10" x1="995" y1="237" x2="995" y2="249" stroke="#1A1A1A" stroke-width="0.9" stroke-linecap="square" opacity="0.55" />
  <line id="cad-right-pillar-head-1-11" x1="1009" y1="249" x2="1009" y2="261" stroke="#1A1A1A" stroke-width="0.9" stroke-linecap="square" opacity="0.55" />
  <line id="cad-right-pillar-head-1-12" x1="995" y1="261" x2="995" y2="273" stroke="#1A1A1A" stroke-width="0.9" stroke-linecap="square" opacity="0.55" />
  <line id="cad-right-pillar-head-1-13" x1="1009" y1="273" x2="1009" y2="285" stroke="#1A1A1A" stroke-width="0.9" stroke-linecap="square" opacity="0.55" />
  <line id="cad-right-pillar-head-1-14" x1="995" y1="285" x2="995" y2="297" stroke="#1A1A1A" stroke-width="0.9" stroke-linecap="square" opacity="0.55" />
  <line id="cad-right-pillar-head-1-15" x1="1009" y1="297" x2="1009" y2="309" stroke="#1A1A1A" stroke-width="0.9" stroke-linecap="square" opacity="0.55" />
  <line id="cad-right-pillar-head-1-16" x1="995" y1="309" x2="995" y2="321" stroke="#1A1A1A" stroke-width="0.9" stroke-linecap="square" opacity="0.55" />
  <line id="cad-right-pillar-head-1-17" x1="1009" y1="321" x2="1009" y2="333" stroke="#1A1A1A" stroke-width="0.9" stroke-linecap="square" opacity="0.55" />
  <line id="cad-right-pillar-head-1-18" x1="995" y1="333" x2="995" y2="345" stroke="#1A1A1A" stroke-width="0.9" stroke-linecap="square" opacity="0.55" />
  <line id="cad-right-pillar-head-1-19" x1="1009" y1="345" x2="1009" y2="357" stroke="#1A1A1A" stroke-width="0.9" stroke-linecap="square" opacity="0.55" />
  <line id="cad-right-pillar-head-1-20" x1="995" y1="357" x2="995" y2="369" stroke="#1A1A1A" stroke-width="0.9" stroke-linecap="square" opacity="0.55" />
  <line id="cad-right-pillar-head-1-21" x1="1009" y1="369" x2="1009" y2="381" stroke="#1A1A1A" stroke-width="0.9" stroke-linecap="square" opacity="0.55" />
  <line id="cad-right-pillar-head-1-22" x1="995" y1="381" x2="995" y2="393" stroke="#1A1A1A" stroke-width="0.9" stroke-linecap="square" opacity="0.55" />
  <line id="cad-right-pillar-head-1-23" x1="1009" y1="393" x2="1009" y2="405" stroke="#1A1A1A" stroke-width="0.9" stroke-linecap="square" opacity="0.55" />
  <line id="cad-right-pillar-head-1-24" x1="995" y1="405" x2="995" y2="417" stroke="#1A1A1A" stroke-width="0.9" stroke-linecap="square" opacity="0.55" />
  <line id="cad-right-pillar-head-1-25" x1="1009" y1="417" x2="1009" y2="429" stroke="#1A1A1A" stroke-width="0.9" stroke-linecap="square" opacity="0.55" />
  <line id="cad-right-pillar-head-1-26" x1="995" y1="429" x2="995" y2="441" stroke="#1A1A1A" stroke-width="0.9" stroke-linecap="square" opacity="0.55" />
  <line id="cad-right-pillar-head-1-27" x1="1009" y1="441" x2="1009" y2="453" stroke="#1A1A1A" stroke-width="0.9" stroke-linecap="square" opacity="0.55" />
  <line id="cad-right-pillar-head-1-28" x1="995" y1="453" x2="995" y2="465" stroke="#1A1A1A" stroke-width="0.9" stroke-linecap="square" opacity="0.55" />
  <line id="cad-right-pillar-head-1-29" x1="1009" y1="465" x2="1009" y2="477" stroke="#1A1A1A" stroke-width="0.9" stroke-linecap="square" opacity="0.55" />
  <line id="cad-right-pillar-head-1-30" x1="995" y1="477" x2="995" y2="489" stroke="#1A1A1A" stroke-width="0.9" stroke-linecap="square" opacity="0.55" />
  <line id="cad-right-pillar-head-1-31" x1="1009" y1="489" x2="1009" y2="501" stroke="#1A1A1A" stroke-width="0.9" stroke-linecap="square" opacity="0.55" />
  <line id="cad-right-pillar-head-1-32" x1="995" y1="501" x2="995" y2="513" stroke="#1A1A1A" stroke-width="0.9" stroke-linecap="square" opacity="0.55" />
  <line id="cad-right-pillar-head-1-33" x1="1009" y1="513" x2="1009" y2="525" stroke="#1A1A1A" stroke-width="0.9" stroke-linecap="square" opacity="0.55" />
  <line id="cad-right-pillar-head-1-34" x1="995" y1="525" x2="995" y2="537" stroke="#1A1A1A" stroke-width="0.9" stroke-linecap="square" opacity="0.55" />
  <line id="cad-right-pillar-head-1-35" x1="1009" y1="537" x2="1009" y2="549" stroke="#1A1A1A" stroke-width="0.9" stroke-linecap="square" opacity="0.55" />
  <line id="cad-right-pillar-head-1-36" x1="995" y1="549" x2="995" y2="561" stroke="#1A1A1A" stroke-width="0.9" stroke-linecap="square" opacity="0.55" />
  <line id="cad-right-pillar-head-1-37" x1="1009" y1="561" x2="1009" y2="573" stroke="#1A1A1A" stroke-width="0.9" stroke-linecap="square" opacity="0.55" />
  <line id="cad-right-pillar-head-1-38" x1="995" y1="573" x2="995" y2="585" stroke="#1A1A1A" stroke-width="0.9" stroke-linecap="square" opacity="0.55" />
  <line id="cad-right-pillar-head-1-39" x1="1009" y1="585" x2="1009" y2="597" stroke="#1A1A1A" stroke-width="0.9" stroke-linecap="square" opacity="0.55" />
  <line id="cad-right-pillar-head-1-40" x1="995" y1="597" x2="995" y2="609" stroke="#1A1A1A" stroke-width="0.9" stroke-linecap="square" opacity="0.55" />
  <line id="cad-right-pillar-head-1-41" x1="1009" y1="609" x2="1009" y2="621" stroke="#1A1A1A" stroke-width="0.9" stroke-linecap="square" opacity="0.55" />
  <line id="cad-right-pillar-head-1-42" x1="995" y1="621" x2="995" y2="633" stroke="#1A1A1A" stroke-width="0.9" stroke-linecap="square" opacity="0.55" />
  <line id="cad-right-pillar-head-1-43" x1="1009" y1="633" x2="1009" y2="645" stroke="#1A1A1A" stroke-width="0.9" stroke-linecap="square" opacity="0.55" />
  <line id="cad-right-pillar-head-1-44" x1="995" y1="645" x2="995" y2="657" stroke="#1A1A1A" stroke-width="0.9" stroke-linecap="square" opacity="0.55" />
  <line id="cad-right-pillar-head-1-45" x1="1009" y1="657" x2="1009" y2="669" stroke="#1A1A1A" stroke-width="0.9" stroke-linecap="square" opacity="0.55" />
  <line id="cad-right-pillar-head-1-46" x1="995" y1="669" x2="995" y2="681" stroke="#1A1A1A" stroke-width="0.9" stroke-linecap="square" opacity="0.55" />
  <line id="cad-right-pillar-head-1-47" x1="1009" y1="681" x2="1009" y2="693" stroke="#1A1A1A" stroke-width="0.9" stroke-linecap="square" opacity="0.55" />
  <line id="cad-right-pillar-head-1-48" x1="995" y1="693" x2="995" y2="695" stroke="#1A1A1A" stroke-width="0.9" stroke-linecap="square" opacity="0.55" />
  <rect id="tracked-leaf-frame" x="120" y="150" width="826" height="520" rx="0" fill="none" fill-opacity="1" stroke="#1A1A1A" stroke-width="2.2" opacity="1" />
  <line id="tracked-leaf-top-rail" x1="128" y1="162" x2="938" y2="162" stroke="#1A1A1A" stroke-width="1.4" stroke-linecap="square" opacity="1" />
  <line id="tracked-leaf-bottom-rail" x1="128" y1="658" x2="938" y2="658" stroke="#1A1A1A" stroke-width="1.4" stroke-linecap="square" opacity="1" />
  <line id="tracked-leaf-mid-rail" x1="128" y1="410" x2="938" y2="410" stroke="#1A1A1A" stroke-width="1.4" stroke-linecap="square" opacity="1" />
  <line id="tracked-leaf-mullion-1" x1="395.3333333333333" y1="158" x2="395.3333333333333" y2="662" stroke="#1A1A1A" stroke-width="1.4" stroke-linecap="square" opacity="1" />
  <line id="tracked-leaf-mullion-2" x1="670.6666666666666" y1="158" x2="670.6666666666666" y2="662" stroke="#1A1A1A" stroke-width="1.4" stroke-linecap="square" opacity="1" />
  <line id="tracked-leaf-board-1" x1="128" y1="187.14285714285714" x2="938" y2="187.14285714285714" stroke="#1A1A1A" stroke-width="1.4" stroke-linecap="square" opacity="1" />
  <line id="tracked-leaf-board-2" x1="128" y1="224.28571428571428" x2="938" y2="224.28571428571428" stroke="#1A1A1A" stroke-width="1.4" stroke-linecap="square" opacity="1" />
  <line id="tracked-leaf-board-3" x1="128" y1="261.42857142857144" x2="938" y2="261.42857142857144" stroke="#1A1A1A" stroke-width="1.4" stroke-linecap="square" opacity="1" />
  <line id="tracked-leaf-board-4" x1="128" y1="298.57142857142856" x2="938" y2="298.57142857142856" stroke="#1A1A1A" stroke-width="1.4" stroke-linecap="square" opacity="1" />
  <line id="tracked-leaf-board-5" x1="128" y1="335.7142857142857" x2="938" y2="335.7142857142857" stroke="#1A1A1A" stroke-width="1.4" stroke-linecap="square" opacity="1" />
  <line id="tracked-leaf-board-6" x1="128" y1="372.8571428571429" x2="938" y2="372.8571428571429" stroke="#1A1A1A" stroke-width="1.4" stroke-linecap="square" opacity="1" />
  <line id="tracked-leaf-board-7" x1="128" y1="410" x2="938" y2="410" stroke="#1A1A1A" stroke-width="1.4" stroke-linecap="square" opacity="1" />
  <line id="tracked-leaf-board-8" x1="128" y1="447.14285714285717" x2="938" y2="447.14285714285717" stroke="#1A1A1A" stroke-width="1.4" stroke-linecap="square" opacity="1" />
  <line id="tracked-leaf-board-9" x1="128" y1="484.2857142857143" x2="938" y2="484.2857142857143" stroke="#1A1A1A" stroke-width="1.4" stroke-linecap="square" opacity="1" />
  <line id="tracked-leaf-board-10" x1="128" y1="521.4285714285714" x2="938" y2="521.4285714285714" stroke="#1A1A1A" stroke-width="1.4" stroke-linecap="square" opacity="1" />
  <line id="tracked-leaf-board-11" x1="128" y1="558.5714285714286" x2="938" y2="558.5714285714286" stroke="#1A1A1A" stroke-width="1.4" stroke-linecap="square" opacity="1" />
  <line id="tracked-leaf-board-12" x1="128" y1="595.7142857142858" x2="938" y2="595.7142857142858" stroke="#1A1A1A" stroke-width="1.4" stroke-linecap="square" opacity="1" />
  <line id="tracked-leaf-board-13" x1="128" y1="632.8571428571429" x2="938" y2="632.8571428571429" stroke="#1A1A1A" stroke-width="1.4" stroke-linecap="square" opacity="1" />
  <rect id="tracked-leaf-bottom-box" x="124" y="652" width="818" height="16" rx="0" fill="none" fill-opacity="1" stroke="#1A1A1A" stroke-width="1.4" opacity="1" />
  <line id="tracked-ground-rail" x1="120" y1="684" x2="946" y2="684" stroke="#1A1A1A" stroke-width="1.4" stroke-linecap="square" opacity="1" />
  <rect id="tracked-wheel-0" x="139" y="678" width="10" height="8" rx="0" fill="none" fill-opacity="1" stroke="#1A1A1A" stroke-width="1.4" opacity="1" />
  <rect id="tracked-wheel-1" x="333.5" y="678" width="10" height="8" rx="0" fill="none" fill-opacity="1" stroke="#1A1A1A" stroke-width="1.4" opacity="1" />
  <rect id="tracked-wheel-2" x="528" y="678" width="10" height="8" rx="0" fill="none" fill-opacity="1" stroke="#1A1A1A" stroke-width="1.4" opacity="1" />
  <rect id="tracked-wheel-3" x="722.5" y="678" width="10" height="8" rx="0" fill="none" fill-opacity="1" stroke="#1A1A1A" stroke-width="1.4" opacity="1" />
  <rect id="tracked-wheel-4" x="917" y="678" width="10" height="8" rx="0" fill="none" fill-opacity="1" stroke="#1A1A1A" stroke-width="1.4" opacity="1" />
  <rect id="tracked-receiver-slot" x="94" y="254" width="8" height="286" rx="0" fill="none" fill-opacity="1" stroke="#1A1A1A" stroke-width="1.4" opacity="1" />
  <rect id="tracked-guide-rollers" x="962" y="640" width="60" height="24" rx="0" fill="none" fill-opacity="1" stroke="#1A1A1A" stroke-width="1.4" opacity="1" />
  <rect id="tracked-upper-guide" x="974" y="162" width="36" height="12" rx="0" fill="none" fill-opacity="1" stroke="#1A1A1A" stroke-width="1.4" opacity="1" />
  <rect id="tracked-runback-zone" x="1028" y="166" width="110" height="488" rx="0" fill="none" fill-opacity="1" stroke="#1A1A1A" stroke-width="1.4" stroke-dasharray="6 5" opacity="1" />
  <line id="tracked-runback-rail" x1="946" y1="684" x2="1138" y2="684" stroke="#1A1A1A" stroke-width="1.4" stroke-linecap="square" opacity="1" />
  <rect id="tracked-motor-pad" x="1036" y="690" width="72" height="14" rx="0" fill="none" fill-opacity="1" stroke="#1A1A1A" stroke-width="1.4" opacity="1" />
  <text id="label-title" x="120" y="104" text-anchor="start" font-size="18" fill="#1A1A1A" font-weight="600">tracked sliding preview</text>
  <text id="label-finish" x="1080" y="132" text-anchor="end" font-size="12" fill="#5C5C5C" font-weight="600">Black satin</text>
  <text id="label-track" x="142" y="702" text-anchor="start" font-size="13" fill="#5C5C5C" font-weight="500">Track / rail schematic</text>
</svg>