<svg width="1200" height="860" viewBox="0 0 1200 860" fill="none" xmlns="http://www.w3.org/2000/svg">
<g clip-path="url(#clip0_79_55738)">
<path d="M1200 0H0V860H1200V0Z" fill="white"/>
<path d="M1175 698H0V716H1175V698Z" fill="#2A2A2A"/>
<path d="M102 114H46V698H102V114Z" fill="white" stroke="#1A1A1A" stroke-width="2"/>
<path d="M105 104H43V114H105V104Z" fill="white" stroke="#1A1A1A" stroke-width="2"/>
<path opacity="0.55" d="M49 117H99" stroke="#1A1A1A" stroke-width="0.9" stroke-linecap="square"/>
<path opacity="0.55" d="M49 129H99" stroke="#1A1A1A" stroke-width="0.9" stroke-linecap="square"/>
<path opacity="0.55" d="M49 141H99" stroke="#1A1A1A" stroke-width="0.9" stroke-linecap="square"/>
<path opacity="0.55" d="M49 153H99" stroke="#1A1A1A" stroke-width="0.9" stroke-linecap="square"/>
<path opacity="0.55" d="M49 165H99" stroke="#1A1A1A" stroke-width="0.9" stroke-linecap="square"/>
<path opacity="0.55" d="M49 177H99" stroke="#1A1A1A" stroke-width="0.9" stroke-linecap="square"/>
<path opacity="0.55" d="M49 189H99" stroke="#1A1A1A" stroke-width="0.9" stroke-linecap="square"/>
<path opacity="0.55" d="M49 201H99" stroke="#1A1A1A" stroke-width="0.9" stroke-linecap="square"/>
<path opacity="0.55" d="M49 213H99" stroke="#1A1A1A" stroke-width="0.9" stroke-linecap="square"/>
<path opacity="0.55" d="M49 225H99" stroke="#1A1A1A" stroke-width="0.9" stroke-linecap="square"/>
<path opacity="0.55" d="M49 237H99" stroke="#1A1A1A" stroke-width="0.9" stroke-linecap="square"/>
<path opacity="0.55" d="M49 249H99" stroke="#1A1A1A" stroke-width="0.9" stroke-linecap="square"/>
<path opacity="0.55" d="M49 261H99" stroke="#1A1A1A" stroke-width="0.9" stroke-linecap="square"/>
<path opacity="0.55" d="M49 273H99" stroke="#1A1A1A" stroke-width="0.9" stroke-linecap="square"/>
<path opacity="0.55" d="M49 285H99" stroke="#1A1A1A" stroke-width="0.9" stroke-linecap="square"/>
<path opacity="0.55" d="M49 297H99" stroke="#1A1A1A" stroke-width="0.9" stroke-linecap="square"/>
<path opacity="0.55" d="M49 309H99" stroke="#1A1A1A" stroke-width="0.9" stroke-linecap="square"/>
<path opacity="0.55" d="M49 321H99" stroke="#1A1A1A" stroke-width="0.9" stroke-linecap="square"/>
<path opacity="0.55" d="M49 333H99" stroke="#1A1A1A" stroke-width="0.9" stroke-linecap="square"/>
<path opacity="0.55" d="M49 345H99" stroke="#1A1A1A" stroke-width="0.9" stroke-linecap="square"/>
<path opacity="0.55" d="M49 357H99" stroke="#1A1A1A" stroke-width="0.9" stroke-linecap="square"/>
<path opacity="0.55" d="M49 369H99" stroke="#1A1A1A" stroke-width="0.9" stroke-linecap="square"/>
<path opacity="0.55" d="M49 381H99" stroke="#1A1A1A" stroke-width="0.9" stroke-linecap="square"/>
<path opacity="0.55" d="M49 393H99" stroke="#1A1A1A" stroke-width="0.9" stroke-linecap="square"/>
<path opacity="0.55" d="M49 405H99" stroke="#1A1A1A" stroke-width="0.9" stroke-linecap="square"/>
<path opacity="0.55" d="M49 417H99" stroke="#1A1A1A" stroke-width="0.9" stroke-linecap="square"/>
<path opacity="0.55" d="M49 429H99" stroke="#1A1A1A" stroke-width="0.9" stroke-linecap="square"/>
<path opacity="0.55" d="M49 441H99" stroke="#1A1A1A" stroke-width="0.9" stroke-linecap="square"/>
<path opacity="0.55" d="M49 453H99" stroke="#1A1A1A" stroke-width="0.9" stroke-linecap="square"/>
<path opacity="0.55" d="M49 465H99" stroke="#1A1A1A" stroke-width="0.9" stroke-linecap="square"/>
<path opacity="0.55" d="M49 477H99" stroke="#1A1A1A" stroke-width="0.9" stroke-linecap="square"/>
<path opacity="0.55" d="M49 489H99" stroke="#1A1A1A" stroke-width="0.9" stroke-linecap="square"/>
<path opacity="0.55" d="M49 501H99" stroke="#1A1A1A" stroke-width="0.9" stroke-linecap="square"/>
<path opacity="0.55" d="M49 513H99" stroke="#1A1A1A" stroke-width="0.9" stroke-linecap="square"/>
<path opacity="0.55" d="M49 525H99" stroke="#1A1A1A" stroke-width="0.9" stroke-linecap="square"/>
<path opacity="0.55" d="M49 537H99" stroke="#1A1A1A" stroke-width="0.9" stroke-linecap="square"/>
<path opacity="0.55" d="M49 549H99" stroke="#1A1A1A" stroke-width="0.9" stroke-linecap="square"/>
<path opacity="0.55" d="M49 561H99" stroke="#1A1A1A" stroke-width="0.9" stroke-linecap="square"/>
<path opacity="0.55" d="M49 573H99" stroke="#1A1A1A" stroke-width="0.9" stroke-linecap="square"/>
<path opacity="0.55" d="M49 585H99" stroke="#1A1A1A" stroke-width="0.9" stroke-linecap="square"/>
<path opacity="0.55" d="M49 597H99" stroke="#1A1A1A" stroke-width="0.9" stroke-linecap="square"/>
<path opacity="0.55" d="M49 609H99" stroke="#1A1A1A" stroke-width="0.9" stroke-linecap="square"/>
<path opacity="0.55" d="M49 621H99" stroke="#1A1A1A" stroke-width="0.9" stroke-linecap="square"/>
<path opacity="0.55" d="M49 633H99" stroke="#1A1A1A" stroke-width="0.9" stroke-linecap="square"/>
<path opacity="0.55" d="M49 645H99" stroke="#1A1A1A" stroke-width="0.9" stroke-linecap="square"/>
<path opacity="0.55" d="M49 657H99" stroke="#1A1A1A" stroke-width="0.9" stroke-linecap="square"/>
<path opacity="0.55" d="M49 669H99" stroke="#1A1A1A" stroke-width="0.9" stroke-linecap="square"/>
<path opacity="0.55" d="M49 681H99" stroke="#1A1A1A" stroke-width="0.9" stroke-linecap="square"/>
<path opacity="0.55" d="M49 693H99" stroke="#1A1A1A" stroke-width="0.9" stroke-linecap="square"/>
<path opacity="0.55" d="M63 129V141" stroke="#1A1A1A" stroke-width="0.9" stroke-linecap="square"/>
<path opacity="0.55" d="M63 153V165" stroke="#1A1A1A" stroke-width="0.9" stroke-linecap="square"/>
<path opacity="0.55" d="M63 177V189" stroke="#1A1A1A" stroke-width="0.9" stroke-linecap="square"/>
<path opacity="0.55" d="M63 201V213" stroke="#1A1A1A" stroke-width="0.9" stroke-linecap="square"/>
<path opacity="0.55" d="M63 225V237" stroke="#1A1A1A" stroke-width="0.9" stroke-linecap="square"/>
<path opacity="0.55" d="M63 249V261" stroke="#1A1A1A" stroke-width="0.9" stroke-linecap="square"/>
<path opacity="0.55" d="M63 273V285" stroke="#1A1A1A" stroke-width="0.9" stroke-linecap="square"/>
<path opacity="0.55" d="M63 297V309" stroke="#1A1A1A" stroke-width="0.9" stroke-linecap="square"/>
<path opacity="0.55" d="M63 321V333" stroke="#1A1A1A" stroke-width="0.9" stroke-linecap="square"/>
<path opacity="0.55" d="M63 345V357" stroke="#1A1A1A" stroke-width="0.9" stroke-linecap="square"/>
<path opacity="0.55" d="M63 369V381" stroke="#1A1A1A" stroke-width="0.9" stroke-linecap="square"/>
<path opacity="0.55" d="M63 393V405" stroke="#1A1A1A" stroke-width="0.9" stroke-linecap="square"/>
<path opacity="0.55" d="M63 417V429" stroke="#1A1A1A" stroke-width="0.9" stroke-linecap="square"/>
<path opacity="0.55" d="M63 441V453" stroke="#1A1A1A" stroke-width="0.9" stroke-linecap="square"/>
<path opacity="0.55" d="M63 465V477" stroke="#1A1A1A" stroke-width="0.9" stroke-linecap="square"/>
<path opacity="0.55" d="M63 489V501" stroke="#1A1A1A" stroke-width="0.9" stroke-linecap="square"/>
<path opacity="0.55" d="M63 513V525" stroke="#1A1A1A" stroke-width="0.9" stroke-linecap="square"/>
<path opacity="0.55" d="M63 537V549" stroke="#1A1A1A" stroke-width="0.9" stroke-linecap="square"/>
<path opacity="0.55" d="M63 561V573" stroke="#1A1A1A" stroke-width="0.9" stroke-linecap="square"/>
<path opacity="0.55" d="M63 585V597" stroke="#1A1A1A" stroke-width="0.9" stroke-linecap="square"/>
<path opacity="0.55" d="M63 609V621" stroke="#1A1A1A" stroke-width="0.9" stroke-linecap="square"/>
<path opacity="0.55" d="M63 633V645" stroke="#1A1A1A" stroke-width="0.9" stroke-linecap="square"/>
<path opacity="0.55" d="M63 657V669" stroke="#1A1A1A" stroke-width="0.9" stroke-linecap="square"/>
<path opacity="0.55" d="M63 681V693" stroke="#1A1A1A" stroke-width="0.9" stroke-linecap="square"/>
<path opacity="0.55" d="M77 117V129" stroke="#1A1A1A" stroke-width="0.9" stroke-linecap="square"/>
<path opacity="0.55" d="M91 129V141" stroke="#1A1A1A" stroke-width="0.9" stroke-linecap="square"/>
<path opacity="0.55" d="M77 141V153" stroke="#1A1A1A" stroke-width="0.9" stroke-linecap="square"/>
<path opacity="0.55" d="M91 153V165" stroke="#1A1A1A" stroke-width="0.9" stroke-linecap="square"/>
<path opacity="0.55" d="M77 165V177" stroke="#1A1A1A" stroke-width="0.9" stroke-linecap="square"/>
<path opacity="0.55" d="M91 177V189" stroke="#1A1A1A" stroke-width="0.9" stroke-linecap="square"/>
<path opacity="0.55" d="M77 189V201" stroke="#1A1A1A" stroke-width="0.9" stroke-linecap="square"/>
<path opacity="0.55" d="M91 201V213" stroke="#1A1A1A" stroke-width="0.9" stroke-linecap="square"/>
<path opacity="0.55" d="M77 213V225" stroke="#1A1A1A" stroke-width="0.9" stroke-linecap="square"/>
<path opacity="0.55" d="M91 225V237" stroke="#1A1A1A" stroke-width="0.9" stroke-linecap="square"/>
<path opacity="0.55" d="M77 237V249" stroke="#1A1A1A" stroke-width="0.9" stroke-linecap="square"/>
<path opacity="0.55" d="M91 249V261" stroke="#1A1A1A" stroke-width="0.9" stroke-linecap="square"/>
<path opacity="0.55" d="M77 261V273" stroke="#1A1A1A" stroke-width="0.9" stroke-linecap="square"/>
<path opacity="0.55" d="M91 273V285" stroke="#1A1A1A" stroke-width="0.9" stroke-linecap="square"/>
<path opacity="0.55" d="M77 285V297" stroke="#1A1A1A" stroke-width="0.9" stroke-linecap="square"/>
<path opacity="0.55" d="M91 297V309" stroke="#1A1A1A" stroke-width="0.9" stroke-linecap="square"/>
<path opacity="0.55" d="M77 309V321" stroke="#1A1A1A" stroke-width="0.9" stroke-linecap="square"/>
<path opacity="0.55" d="M91 321V333" stroke="#1A1A1A" stroke-width="0.9" stroke-linecap="square"/>
<path opacity="0.55" d="M77 333V345" stroke="#1A1A1A" stroke-width="0.9" stroke-linecap="square"/>
<path opacity="0.55" d="M91 345V357" stroke="#1A1A1A" stroke-width="0.9" stroke-linecap="square"/>
<path opacity="0.55" d="M77 357V369" stroke="#1A1A1A" stroke-width="0.9" stroke-linecap="square"/>
<path opacity="0.55" d="M91 369V381" stroke="#1A1A1A" stroke-width="0.9" stroke-linecap="square"/>
<path opacity="0.55" d="M77 381V393" stroke="#1A1A1A" stroke-width="0.9" stroke-linecap="square"/>
<path opacity="0.55" d="M91 393V405" stroke="#1A1A1A" stroke-width="0.9" stroke-linecap="square"/>
<path opacity="0.55" d="M77 405V417" stroke="#1A1A1A" stroke-width="0.9" stroke-linecap="square"/>
<path opacity="0.55" d="M91 417V429" stroke="#1A1A1A" stroke-width="0.9" stroke-linecap="square"/>
<path opacity="0.55" d="M77 429V441" stroke="#1A1A1A" stroke-width="0.9" stroke-linecap="square"/>
<path opacity="0.55" d="M91 441V453" stroke="#1A1A1A" stroke-width="0.9" stroke-linecap="square"/>
<path opacity="0.55" d="M77 453V465" stroke="#1A1A1A" stroke-width="0.9" stroke-linecap="square"/>
<path opacity="0.55" d="M91 465V477" stroke="#1A1A1A" stroke-width="0.9" stroke-linecap="square"/>
<path opacity="0.55" d="M77 477V489" stroke="#1A1A1A" stroke-width="0.9" stroke-linecap="square"/>
<path opacity="0.55" d="M91 489V501" stroke="#1A1A1A" stroke-width="0.9" stroke-linecap="square"/>
<path opacity="0.55" d="M77 501V513" stroke="#1A1A1A" stroke-width="0.9" stroke-linecap="square"/>
<path opacity="0.55" d="M91 513V525" stroke="#1A1A1A" stroke-width="0.9" stroke-linecap="square"/>
<path opacity="0.55" d="M77 525V537" stroke="#1A1A1A" stroke-width="0.9" stroke-linecap="square"/>
<path opacity="0.55" d="M91 537V549" stroke="#1A1A1A" stroke-width="0.9" stroke-linecap="square"/>
<path opacity="0.55" d="M77 549V561" stroke="#1A1A1A" stroke-width="0.9" stroke-linecap="square"/>
<path opacity="0.55" d="M91 561V573" stroke="#1A1A1A" stroke-width="0.9" stroke-linecap="square"/>
<path opacity="0.55" d="M77 573V585" stroke="#1A1A1A" stroke-width="0.9" stroke-linecap="square"/>
<path opacity="0.55" d="M91 585V597" stroke="#1A1A1A" stroke-width="0.9" stroke-linecap="square"/>
<path opacity="0.55" d="M77 597V609" stroke="#1A1A1A" stroke-width="0.9" stroke-linecap="square"/>
<path opacity="0.55" d="M91 609V621" stroke="#1A1A1A" stroke-width="0.9" stroke-linecap="square"/>
<path opacity="0.55" d="M77 621V633" stroke="#1A1A1A" stroke-width="0.9" stroke-linecap="square"/>
<path opacity="0.55" d="M91 633V645" stroke="#1A1A1A" stroke-width="0.9" stroke-linecap="square"/>
<path opacity="0.55" d="M77 645V657" stroke="#1A1A1A" stroke-width="0.9" stroke-linecap="square"/>
<path opacity="0.55" d="M91 657V669" stroke="#1A1A1A" stroke-width="0.9" stroke-linecap="square"/>
<path opacity="0.55" d="M77 669V681" stroke="#1A1A1A" stroke-width="0.9" stroke-linecap="square"/>
<path opacity="0.55" d="M91 681V693" stroke="#1A1A1A" stroke-width="0.9" stroke-linecap="square"/>
<path opacity="0.55" d="M77 693V695" stroke="#1A1A1A" stroke-width="0.9" stroke-linecap="square"/>
<path d="M885 114H829V698H885V114Z" fill="white" stroke="#1A1A1A" stroke-width="2"/>
<path d="M888 104H826V114H888V104Z" fill="white" stroke="#1A1A1A" stroke-width="2"/>
<path opacity="0.55" d="M832 117H882" stroke="#1A1A1A" stroke-width="0.9" stroke-linecap="square"/>
<path opacity="0.55" d="M832 129H882" stroke="#1A1A1A" stroke-width="0.9" stroke-linecap="square"/>
<path opacity="0.55" d="M832 141H882" stroke="#1A1A1A" stroke-width="0.9" stroke-linecap="square"/>
<path opacity="0.55" d="M832 153H882" stroke="#1A1A1A" stroke-width="0.9" stroke-linecap="square"/>
<path opacity="0.55" d="M832 165H882" stroke="#1A1A1A" stroke-width="0.9" stroke-linecap="square"/>
<path opacity="0.55" d="M832 177H882" stroke="#1A1A1A" stroke-width="0.9" stroke-linecap="square"/>
<path opacity="0.55" d="M832 189H882" stroke="#1A1A1A" stroke-width="0.9" stroke-linecap="square"/>
<path opacity="0.55" d="M832 201H882" stroke="#1A1A1A" stroke-width="0.9" stroke-linecap="square"/>
<path opacity="0.55" d="M832 213H882" stroke="#1A1A1A" stroke-width="0.9" stroke-linecap="square"/>
<path opacity="0.55" d="M832 225H882" stroke="#1A1A1A" stroke-width="0.9" stroke-linecap="square"/>
<path opacity="0.55" d="M832 237H882" stroke="#1A1A1A" stroke-width="0.9" stroke-linecap="square"/>
<path opacity="0.55" d="M832 249H882" stroke="#1A1A1A" stroke-width="0.9" stroke-linecap="square"/>
<path opacity="0.55" d="M832 261H882" stroke="#1A1A1A" stroke-width="0.9" stroke-linecap="square"/>
<path opacity="0.55" d="M832 273H882" stroke="#1A1A1A" stroke-width="0.9" stroke-linecap="square"/>
<path opacity="0.55" d="M832 285H882" stroke="#1A1A1A" stroke-width="0.9" stroke-linecap="square"/>
<path opacity="0.55" d="M832 297H882" stroke="#1A1A1A" stroke-width="0.9" stroke-linecap="square"/>
<path opacity="0.55" d="M832 309H882" stroke="#1A1A1A" stroke-width="0.9" stroke-linecap="square"/>
<path opacity="0.55" d="M832 321H882" stroke="#1A1A1A" stroke-width="0.9" stroke-linecap="square"/>
<path opacity="0.55" d="M832 333H882" stroke="#1A1A1A" stroke-width="0.9" stroke-linecap="square"/>
<path opacity="0.55" d="M832 345H882" stroke="#1A1A1A" stroke-width="0.9" stroke-linecap="square"/>
<path opacity="0.55" d="M832 357H882" stroke="#1A1A1A" stroke-width="0.9" stroke-linecap="square"/>
<path opacity="0.55" d="M832 369H882" stroke="#1A1A1A" stroke-width="0.9" stroke-linecap="square"/>
<path opacity="0.55" d="M832 381H882" stroke="#1A1A1A" stroke-width="0.9" stroke-linecap="square"/>
<path opacity="0.55" d="M832 393H882" stroke="#1A1A1A" stroke-width="0.9" stroke-linecap="square"/>
<path opacity="0.55" d="M832 405H882" stroke="#1A1A1A" stroke-width="0.9" stroke-linecap="square"/>
<path opacity="0.55" d="M832 417H882" stroke="#1A1A1A" stroke-width="0.9" stroke-linecap="square"/>
<path opacity="0.55" d="M832 429H882" stroke="#1A1A1A" stroke-width="0.9" stroke-linecap="square"/>
<path opacity="0.55" d="M832 441H882" stroke="#1A1A1A" stroke-width="0.9" stroke-linecap="square"/>
<path opacity="0.55" d="M832 453H882" stroke="#1A1A1A" stroke-width="0.9" stroke-linecap="square"/>
<path opacity="0.55" d="M832 465H882" stroke="#1A1A1A" stroke-width="0.9" stroke-linecap="square"/>
<path opacity="0.55" d="M832 477H882" stroke="#1A1A1A" stroke-width="0.9" stroke-linecap="square"/>
<path opacity="0.55" d="M832 489H882" stroke="#1A1A1A" stroke-width="0.9" stroke-linecap="square"/>
<path opacity="0.55" d="M832 501H882" stroke="#1A1A1A" stroke-width="0.9" stroke-linecap="square"/>
<path opacity="0.55" d="M832 513H882" stroke="#1A1A1A" stroke-width="0.9" stroke-linecap="square"/>
<path opacity="0.55" d="M832 525H882" stroke="#1A1A1A" stroke-width="0.9" stroke-linecap="square"/>
<path opacity="0.55" d="M832 537H882" stroke="#1A1A1A" stroke-width="0.9" stroke-linecap="square"/>
<path opacity="0.55" d="M832 549H882" stroke="#1A1A1A" stroke-width="0.9" stroke-linecap="square"/>
<path opacity="0.55" d="M832 561H882" stroke="#1A1A1A" stroke-width="0.9" stroke-linecap="square"/>
<path opacity="0.55" d="M832 573H882" stroke="#1A1A1A" stroke-width="0.9" stroke-linecap="square"/>
<path opacity="0.55" d="M832 585H882" stroke="#1A1A1A" stroke-width="0.9" stroke-linecap="square"/>
<path opacity="0.55" d="M832 597H882" stroke="#1A1A1A" stroke-width="0.9" stroke-linecap="square"/>
<path opacity="0.55" d="M832 609H882" stroke="#1A1A1A" stroke-width="0.9" stroke-linecap="square"/>
<path opacity="0.55" d="M832 621H882" stroke="#1A1A1A" stroke-width="0.9" stroke-linecap="square"/>
<path opacity="0.55" d="M832 633H882" stroke="#1A1A1A" stroke-width="0.9" stroke-linecap="square"/>
<path opacity="0.55" d="M832 645H882" stroke="#1A1A1A" stroke-width="0.9" stroke-linecap="square"/>
<path opacity="0.55" d="M832 657H882" stroke="#1A1A1A" stroke-width="0.9" stroke-linecap="square"/>
<path opacity="0.55" d="M832 669H882" stroke="#1A1A1A" stroke-width="0.9" stroke-linecap="square"/>
<path opacity="0.55" d="M832 681H882" stroke="#1A1A1A" stroke-width="0.9" stroke-linecap="square"/>
<path opacity="0.55" d="M832 693H882" stroke="#1A1A1A" stroke-width="0.9" stroke-linecap="square"/>
<path opacity="0.55" d="M846 129V141" stroke="#1A1A1A" stroke-width="0.9" stroke-linecap="square"/>
<path opacity="0.55" d="M846 153V165" stroke="#1A1A1A" stroke-width="0.9" stroke-linecap="square"/>
<path opacity="0.55" d="M846 177V189" stroke="#1A1A1A" stroke-width="0.9" stroke-linecap="square"/>
<path opacity="0.55" d="M846 201V213" stroke="#1A1A1A" stroke-width="0.9" stroke-linecap="square"/>
<path opacity="0.55" d="M846 225V237" stroke="#1A1A1A" stroke-width="0.9" stroke-linecap="square"/>
<path opacity="0.55" d="M846 249V261" stroke="#1A1A1A" stroke-width="0.9" stroke-linecap="square"/>
<path opacity="0.55" d="M846 273V285" stroke="#1A1A1A" stroke-width="0.9" stroke-linecap="square"/>
<path opacity="0.55" d="M846 297V309" stroke="#1A1A1A" stroke-width="0.9" stroke-linecap="square"/>
<path opacity="0.55" d="M846 321V333" stroke="#1A1A1A" stroke-width="0.9" stroke-linecap="square"/>
<path opacity="0.55" d="M846 345V357" stroke="#1A1A1A" stroke-width="0.9" stroke-linecap="square"/>
<path opacity="0.55" d="M846 369V381" stroke="#1A1A1A" stroke-width="0.9" stroke-linecap="square"/>
<path opacity="0.55" d="M846 393V405" stroke="#1A1A1A" stroke-width="0.9" stroke-linecap="square"/>
<path opacity="0.55" d="M846 417V429" stroke="#1A1A1A" stroke-width="0.9" stroke-linecap="square"/>
<path opacity="0.55" d="M846 441V453" stroke="#1A1A1A" stroke-width="0.9" stroke-linecap="square"/>
<path opacity="0.55" d="M846 465V477" stroke="#1A1A1A" stroke-width="0.9" stroke-linecap="square"/>
<path opacity="0.55" d="M846 489V501" stroke="#1A1A1A" stroke-width="0.9" stroke-linecap="square"/>
<path opacity="0.55" d="M846 513V525" stroke="#1A1A1A" stroke-width="0.9" stroke-linecap="square"/>
<path opacity="0.55" d="M846 537V549" stroke="#1A1A1A" stroke-width="0.9" stroke-linecap="square"/>
<path opacity="0.55" d="M846 561V573" stroke="#1A1A1A" stroke-width="0.9" stroke-linecap="square"/>
<path opacity="0.55" d="M846 585V597" stroke="#1A1A1A" stroke-width="0.9" stroke-linecap="square"/>
<path opacity="0.55" d="M846 609V621" stroke="#1A1A1A" stroke-width="0.9" stroke-linecap="square"/>
<path opacity="0.55" d="M846 633V645" stroke="#1A1A1A" stroke-width="0.9" stroke-linecap="square"/>
<path opacity="0.55" d="M846 657V669" stroke="#1A1A1A" stroke-width="0.9" stroke-linecap="square"/>
<path opacity="0.55" d="M846 681V693" stroke="#1A1A1A" stroke-width="0.9" stroke-linecap="square"/>
<path opacity="0.55" d="M860 117V129" stroke="#1A1A1A" stroke-width="0.9" stroke-linecap="square"/>
<path opacity="0.55" d="M874 129V141" stroke="#1A1A1A" stroke-width="0.9" stroke-linecap="square"/>
<path opacity="0.55" d="M860 141V153" stroke="#1A1A1A" stroke-width="0.9" stroke-linecap="square"/>
<path opacity="0.55" d="M874 153V165" stroke="#1A1A1A" stroke-width="0.9" stroke-linecap="square"/>
<path opacity="0.55" d="M860 165V177" stroke="#1A1A1A" stroke-width="0.9" stroke-linecap="square"/>
<path opacity="0.55" d="M874 177V189" stroke="#1A1A1A" stroke-width="0.9" stroke-linecap="square"/>
<path opacity="0.55" d="M860 189V201" stroke="#1A1A1A" stroke-width="0.9" stroke-linecap="square"/>
<path opacity="0.55" d="M874 201V213" stroke="#1A1A1A" stroke-width="0.9" stroke-linecap="square"/>
<path opacity="0.55" d="M860 213V225" stroke="#1A1A1A" stroke-width="0.9" stroke-linecap="square"/>
<path opacity="0.55" d="M874 225V237" stroke="#1A1A1A" stroke-width="0.9" stroke-linecap="square"/>
<path opacity="0.55" d="M860 237V249" stroke="#1A1A1A" stroke-width="0.9" stroke-linecap="square"/>
<path opacity="0.55" d="M874 249V261" stroke="#1A1A1A" stroke-width="0.9" stroke-linecap="square"/>
<path opacity="0.55" d="M860 261V273" stroke="#1A1A1A" stroke-width="0.9" stroke-linecap="square"/>
<path opacity="0.55" d="M874 273V285" stroke="#1A1A1A" stroke-width="0.9" stroke-linecap="square"/>
<path opacity="0.55" d="M860 285V297" stroke="#1A1A1A" stroke-width="0.9" stroke-linecap="square"/>
<path opacity="0.55" d="M874 297V309" stroke="#1A1A1A" stroke-width="0.9" stroke-linecap="square"/>
<path opacity="0.55" d="M860 309V321" stroke="#1A1A1A" stroke-width="0.9" stroke-linecap="square"/>
<path opacity="0.55" d="M874 321V333" stroke="#1A1A1A" stroke-width="0.9" stroke-linecap="square"/>
<path opacity="0.55" d="M860 333V345" stroke="#1A1A1A" stroke-width="0.9" stroke-linecap="square"/>
<path opacity="0.55" d="M874 345V357" stroke="#1A1A1A" stroke-width="0.9" stroke-linecap="square"/>
<path opacity="0.55" d="M860 357V369" stroke="#1A1A1A" stroke-width="0.9" stroke-linecap="square"/>
<path opacity="0.55" d="M874 369V381" stroke="#1A1A1A" stroke-width="0.9" stroke-linecap="square"/>
<path opacity="0.55" d="M860 381V393" stroke="#1A1A1A" stroke-width="0.9" stroke-linecap="square"/>
<path opacity="0.55" d="M874 393V405" stroke="#1A1A1A" stroke-width="0.9" stroke-linecap="square"/>
<path opacity="0.55" d="M860 405V417" stroke="#1A1A1A" stroke-width="0.9" stroke-linecap="square"/>
<path opacity="0.55" d="M874 417V429" stroke="#1A1A1A" stroke-width="0.9" stroke-linecap="square"/>
<path opacity="0.55" d="M860 429V441" stroke="#1A1A1A" stroke-width="0.9" stroke-linecap="square"/>
<path opacity="0.55" d="M874 441V453" stroke="#1A1A1A" stroke-width="0.9" stroke-linecap="square"/>
<path opacity="0.55" d="M860 453V465" stroke="#1A1A1A" stroke-width="0.9" stroke-linecap="square"/>
<path opacity="0.55" d="M874 465V477" stroke="#1A1A1A" stroke-width="0.9" stroke-linecap="square"/>
<path opacity="0.55" d="M860 477V489" stroke="#1A1A1A" stroke-width="0.9" stroke-linecap="square"/>
<path opacity="0.55" d="M874 489V501" stroke="#1A1A1A" stroke-width="0.9" stroke-linecap="square"/>
<path opacity="0.55" d="M860 501V513" stroke="#1A1A1A" stroke-width="0.9" stroke-linecap="square"/>
<path opacity="0.55" d="M874 513V525" stroke="#1A1A1A" stroke-width="0.9" stroke-linecap="square"/>
<path opacity="0.55" d="M860 525V537" stroke="#1A1A1A" stroke-width="0.9" stroke-linecap="square"/>
<path opacity="0.55" d="M874 537V549" stroke="#1A1A1A" stroke-width="0.9" stroke-linecap="square"/>
<path opacity="0.55" d="M860 549V561" stroke="#1A1A1A" stroke-width="0.9" stroke-linecap="square"/>
<path opacity="0.55" d="M874 561V573" stroke="#1A1A1A" stroke-width="0.9" stroke-linecap="square"/>
<path opacity="0.55" d="M860 573V585" stroke="#1A1A1A" stroke-width="0.9" stroke-linecap="square"/>
<path opacity="0.55" d="M874 585V597" stroke="#1A1A1A" stroke-width="0.9" stroke-linecap="square"/>
<path opacity="0.55" d="M860 597V609" stroke="#1A1A1A" stroke-width="0.9" stroke-linecap="square"/>
<path opacity="0.55" d="M874 609V621" stroke="#1A1A1A" stroke-width="0.9" stroke-linecap="square"/>
<path opacity="0.55" d="M860 621V633" stroke="#1A1A1A" stroke-width="0.9" stroke-linecap="square"/>
<path opacity="0.55" d="M874 633V645" stroke="#1A1A1A" stroke-width="0.9" stroke-linecap="square"/>
<path opacity="0.55" d="M860 645V657" stroke="#1A1A1A" stroke-width="0.9" stroke-linecap="square"/>
<path opacity="0.55" d="M874 657V669" stroke="#1A1A1A" stroke-width="0.9" stroke-linecap="square"/>
<path opacity="0.55" d="M860 669V681" stroke="#1A1A1A" stroke-width="0.9" stroke-linecap="square"/>
<path opacity="0.55" d="M874 681V693" stroke="#1A1A1A" stroke-width="0.9" stroke-linecap="square"/>
<path opacity="0.55" d="M860 693V695" stroke="#1A1A1A" stroke-width="0.9" stroke-linecap="square"/>
<path d="M126 177C352.333 143.667 578.667 143.667 805 177" stroke="#1A1A1A" stroke-width="1.4" stroke-linecap="square"/>
<path d="M130 186C353.667 158 577.333 158 801 186" stroke="#1A1A1A" stroke-width="1.4" stroke-linecap="square"/>
<path d="M126 656H805" stroke="#1A1A1A" stroke-width="1.4" stroke-linecap="square"/>
<path d="M126 399.6H805" stroke="#1A1A1A" stroke-width="1.4" stroke-linecap="square"/>
<path d="M126 514H805" stroke="#1A1A1A" stroke-width="1.4" stroke-linecap="square"/>
<path d="M138.125 184V512" stroke="#1A1A1A" stroke-width="1.4" stroke-linecap="square"/>
<path d="M162.375 184V512" stroke="#1A1A1A" stroke-width="1.4" stroke-linecap="square"/>
<path d="M186.625 184V512" stroke="#1A1A1A" stroke-width="1.4" stroke-linecap="square"/>
<path d="M210.875 184V512" stroke="#1A1A1A" stroke-width="1.4" stroke-linecap="square"/>
<path d="M235.125 184V512" stroke="#1A1A1A" stroke-width="1.4" stroke-linecap="square"/>
<path d="M259.375 184V512" stroke="#1A1A1A" stroke-width="1.4" stroke-linecap="square"/>
<path d="M283.625 184V512" stroke="#1A1A1A" stroke-width="1.4" stroke-linecap="square"/>
<path d="M307.875 184V512" stroke="#1A1A1A" stroke-width="1.4" stroke-linecap="square"/>
<path d="M332.125 184V512" stroke="#1A1A1A" stroke-width="1.4" stroke-linecap="square"/>
<path d="M356.375 184V512" stroke="#1A1A1A" stroke-width="1.4" stroke-linecap="square"/>
<path d="M380.625 184V512" stroke="#1A1A1A" stroke-width="1.4" stroke-linecap="square"/>
<path d="M404.875 184V512" stroke="#1A1A1A" stroke-width="1.4" stroke-linecap="square"/>
<path d="M429.125 184V512" stroke="#1A1A1A" stroke-width="1.4" stroke-linecap="square"/>
<path d="M453.375 184V512" stroke="#1A1A1A" stroke-width="1.4" stroke-linecap="square"/>
<path d="M477.625 184V512" stroke="#1A1A1A" stroke-width="1.4" stroke-linecap="square"/>
<path d="M501.875 184V512" stroke="#1A1A1A" stroke-width="1.4" stroke-linecap="square"/>
<path d="M526.125 184V512" stroke="#1A1A1A" stroke-width="1.4" stroke-linecap="square"/>
<path d="M550.375 184V512" stroke="#1A1A1A" stroke-width="1.4" stroke-linecap="square"/>
<path d="M574.625 184V512" stroke="#1A1A1A" stroke-width="1.4" stroke-linecap="square"/>
<path d="M598.875 184V512" stroke="#1A1A1A" stroke-width="1.4" stroke-linecap="square"/>
<path d="M623.125 184V512" stroke="#1A1A1A" stroke-width="1.4" stroke-linecap="square"/>
<path d="M647.375 184V512" stroke="#1A1A1A" stroke-width="1.4" stroke-linecap="square"/>
<path d="M671.625 184V512" stroke="#1A1A1A" stroke-width="1.4" stroke-linecap="square"/>
<path d="M695.875 184V512" stroke="#1A1A1A" stroke-width="1.4" stroke-linecap="square"/>
<path d="M720.125 184V512" stroke="#1A1A1A" stroke-width="1.4" stroke-linecap="square"/>
<path d="M744.375 184V512" stroke="#1A1A1A" stroke-width="1.4" stroke-linecap="square"/>
<path d="M768.625 184V512" stroke="#1A1A1A" stroke-width="1.4" stroke-linecap="square"/>
<path d="M792.875 184V512" stroke="#1A1A1A" stroke-width="1.4" stroke-linecap="square"/>
<path d="M141.432 516V654" stroke="#1A1A1A" stroke-width="1.4" stroke-linecap="square"/>
<path d="M172.295 516V654" stroke="#1A1A1A" stroke-width="1.4" stroke-linecap="square"/>
<path d="M203.159 516V654" stroke="#1A1A1A" stroke-width="1.4" stroke-linecap="square"/>
<path d="M234.023 516V654" stroke="#1A1A1A" stroke-width="1.4" stroke-linecap="square"/>
<path d="M264.886 516V654" stroke="#1A1A1A" stroke-width="1.4" stroke-linecap="square"/>
<path d="M295.75 516V654" stroke="#1A1A1A" stroke-width="1.4" stroke-linecap="square"/>
<path d="M326.614 516V654" stroke="#1A1A1A" stroke-width="1.4" stroke-linecap="square"/>
<path d="M357.477 516V654" stroke="#1A1A1A" stroke-width="1.4" stroke-linecap="square"/>
<path d="M388.341 516V654" stroke="#1A1A1A" stroke-width="1.4" stroke-linecap="square"/>
<path d="M419.205 516V654" stroke="#1A1A1A" stroke-width="1.4" stroke-linecap="square"/>
<path d="M450.068 516V654" stroke="#1A1A1A" stroke-width="1.4" stroke-linecap="square"/>
<path d="M480.932 516V654" stroke="#1A1A1A" stroke-width="1.4" stroke-linecap="square"/>
<path d="M511.795 516V654" stroke="#1A1A1A" stroke-width="1.4" stroke-linecap="square"/>
<path d="M542.659 516V654" stroke="#1A1A1A" stroke-width="1.4" stroke-linecap="square"/>
<path d="M573.523 516V654" stroke="#1A1A1A" stroke-width="1.4" stroke-linecap="square"/>
<path d="M604.386 516V654" stroke="#1A1A1A" stroke-width="1.4" stroke-linecap="square"/>
<path d="M635.25 516V654" stroke="#1A1A1A" stroke-width="1.4" stroke-linecap="square"/>
<path d="M666.114 516V654" stroke="#1A1A1A" stroke-width="1.4" stroke-linecap="square"/>
<path d="M696.977 516V654" stroke="#1A1A1A" stroke-width="1.4" stroke-linecap="square"/>
<path d="M727.841 516V654" stroke="#1A1A1A" stroke-width="1.4" stroke-linecap="square"/>
<path d="M758.705 516V654" stroke="#1A1A1A" stroke-width="1.4" stroke-linecap="square"/>
<path d="M789.568 516V654" stroke="#1A1A1A" stroke-width="1.4" stroke-linecap="square"/>
<path d="M807 652H124V668H807V652Z" stroke="#1A1A1A" stroke-width="2.2"/>
<path d="M1121 652H809V668H1121V652Z" stroke="#1A1A1A" stroke-width="1.4"/>
<path d="M891 156V652" stroke="#1A1A1A" stroke-width="1.4" stroke-linecap="square"/>
<path d="M805 178V660" stroke="#1A1A1A" stroke-width="1.4" stroke-linecap="square"/>
<path d="M125 179V661" stroke="#1A1A1A" stroke-width="1.4" stroke-linecap="square"/>
<path d="M891 156L1121 652" stroke="#1A1A1A" stroke-width="1.4" stroke-linecap="square"/>
<path d="M167.714 282H156.286V285.5H167.714V282Z" stroke="#1A1A1A" stroke-width="1.3"/>
<path d="M168.857 285.5H155.143V289.7H168.857V285.5Z" stroke="#1A1A1A" stroke-width="1.3"/>
<path d="M170 289.7H154V295.3H170V289.7Z" stroke="#1A1A1A" stroke-width="1.3"/>
<path d="M168.857 295.3H155.143V299.5H168.857V295.3Z" stroke="#1A1A1A" stroke-width="1.3"/>
<path d="M167.714 299.5H156.286V303H167.714V299.5Z" stroke="#1A1A1A" stroke-width="1.3"/>
<path d="M216.714 282H205.286V285.5H216.714V282Z" stroke="#1A1A1A" stroke-width="1.3"/>
<path d="M217.857 285.5H204.143V289.7H217.857V285.5Z" stroke="#1A1A1A" stroke-width="1.3"/>
<path d="M219 289.7H203V295.3H219V289.7Z" stroke="#1A1A1A" stroke-width="1.3"/>
<path d="M217.857 295.3H204.143V299.5H217.857V295.3Z" stroke="#1A1A1A" stroke-width="1.3"/>
<path d="M216.714 299.5H205.286V303H216.714V299.5Z" stroke="#1A1A1A" stroke-width="1.3"/>
<path d="M265.714 282H254.286V285.5H265.714V282Z" stroke="#1A1A1A" stroke-width="1.3"/>
<path d="M266.857 285.5H253.143V289.7H266.857V285.5Z" stroke="#1A1A1A" stroke-width="1.3"/>
<path d="M268 289.7H252V295.3H268V289.7Z" stroke="#1A1A1A" stroke-width="1.3"/>
<path d="M266.857 295.3H253.143V299.5H266.857V295.3Z" stroke="#1A1A1A" stroke-width="1.3"/>
<path d="M265.714 299.5H254.286V303H265.714V299.5Z" stroke="#1A1A1A" stroke-width="1.3"/>
<path d="M313.714 282H302.286V285.5H313.714V282Z" stroke="#1A1A1A" stroke-width="1.3"/>
<path d="M314.857 285.5H301.143V289.7H314.857V285.5Z" stroke="#1A1A1A" stroke-width="1.3"/>
<path d="M316 289.7H300V295.3H316V289.7Z" stroke="#1A1A1A" stroke-width="1.3"/>
<path d="M314.857 295.3H301.143V299.5H314.857V295.3Z" stroke="#1A1A1A" stroke-width="1.3"/>
<path d="M313.714 299.5H302.286V303H313.714V299.5Z" stroke="#1A1A1A" stroke-width="1.3"/>
<path d="M361.714 282H350.286V285.5H361.714V282Z" stroke="#1A1A1A" stroke-width="1.3"/>
<path d="M362.857 285.5H349.143V289.7H362.857V285.5Z" stroke="#1A1A1A" stroke-width="1.3"/>
<path d="M364 289.7H348V295.3H364V289.7Z" stroke="#1A1A1A" stroke-width="1.3"/>
<path d="M362.857 295.3H349.143V299.5H362.857V295.3Z" stroke="#1A1A1A" stroke-width="1.3"/>
<path d="M361.714 299.5H350.286V303H361.714V299.5Z" stroke="#1A1A1A" stroke-width="1.3"/>
<path d="M410.714 282H399.286V285.5H410.714V282Z" stroke="#1A1A1A" stroke-width="1.3"/>
<path d="M411.857 285.5H398.143V289.7H411.857V285.5Z" stroke="#1A1A1A" stroke-width="1.3"/>
<path d="M413 289.7H397V295.3H413V289.7Z" stroke="#1A1A1A" stroke-width="1.3"/>
<path d="M411.857 295.3H398.143V299.5H411.857V295.3Z" stroke="#1A1A1A" stroke-width="1.3"/>
<path d="M410.714 299.5H399.286V303H410.714V299.5Z" stroke="#1A1A1A" stroke-width="1.3"/>
<path d="M458.714 282H447.286V285.5H458.714V282Z" stroke="#1A1A1A" stroke-width="1.3"/>
<path d="M459.857 285.5H446.143V289.7H459.857V285.5Z" stroke="#1A1A1A" stroke-width="1.3"/>
<path d="M461 289.7H445V295.3H461V289.7Z" stroke="#1A1A1A" stroke-width="1.3"/>
<path d="M459.857 295.3H446.143V299.5H459.857V295.3Z" stroke="#1A1A1A" stroke-width="1.3"/>
<path d="M458.714 299.5H447.286V303H458.714V299.5Z" stroke="#1A1A1A" stroke-width="1.3"/>
<path d="M507.714 282H496.286V285.5H507.714V282Z" stroke="#1A1A1A" stroke-width="1.3"/>
<path d="M508.857 285.5H495.143V289.7H508.857V285.5Z" stroke="#1A1A1A" stroke-width="1.3"/>
<path d="M510 289.7H494V295.3H510V289.7Z" stroke="#1A1A1A" stroke-width="1.3"/>
<path d="M508.857 295.3H495.143V299.5H508.857V295.3Z" stroke="#1A1A1A" stroke-width="1.3"/>
<path d="M507.714 299.5H496.286V303H507.714V299.5Z" stroke="#1A1A1A" stroke-width="1.3"/>
<path d="M556.714 282H545.286V285.5H556.714V282Z" stroke="#1A1A1A" stroke-width="1.3"/>
<path d="M557.857 285.5H544.143V289.7H557.857V285.5Z" stroke="#1A1A1A" stroke-width="1.3"/>
<path d="M559 289.7H543V295.3H559V289.7Z" stroke="#1A1A1A" stroke-width="1.3"/>
<path d="M557.857 295.3H544.143V299.5H557.857V295.3Z" stroke="#1A1A1A" stroke-width="1.3"/>
<path d="M556.714 299.5H545.286V303H556.714V299.5Z" stroke="#1A1A1A" stroke-width="1.3"/>
<path d="M605.714 282H594.286V285.5H605.714V282Z" stroke="#1A1A1A" stroke-width="1.3"/>
<path d="M606.857 285.5H593.143V289.7H606.857V285.5Z" stroke="#1A1A1A" stroke-width="1.3"/>
<path d="M608 289.7H592V295.3H608V289.7Z" stroke="#1A1A1A" stroke-width="1.3"/>
<path d="M606.857 295.3H593.143V299.5H606.857V295.3Z" stroke="#1A1A1A" stroke-width="1.3"/>
<path d="M605.714 299.5H594.286V303H605.714V299.5Z" stroke="#1A1A1A" stroke-width="1.3"/>
<path d="M653.714 282H642.286V285.5H653.714V282Z" stroke="#1A1A1A" stroke-width="1.3"/>
<path d="M654.857 285.5H641.143V289.7H654.857V285.5Z" stroke="#1A1A1A" stroke-width="1.3"/>
<path d="M656 289.7H640V295.3H656V289.7Z" stroke="#1A1A1A" stroke-width="1.3"/>
<path d="M654.857 295.3H641.143V299.5H654.857V295.3Z" stroke="#1A1A1A" stroke-width="1.3"/>
<path d="M653.714 299.5H642.286V303H653.714V299.5Z" stroke="#1A1A1A" stroke-width="1.3"/>
<path d="M701.714 282H690.286V285.5H701.714V282Z" stroke="#1A1A1A" stroke-width="1.3"/>
<path d="M702.857 285.5H689.143V289.7H702.857V285.5Z" stroke="#1A1A1A" stroke-width="1.3"/>
<path d="M704 289.7H688V295.3H704V289.7Z" stroke="#1A1A1A" stroke-width="1.3"/>
<path d="M702.857 295.3H689.143V299.5H702.857V295.3Z" stroke="#1A1A1A" stroke-width="1.3"/>
<path d="M701.714 299.5H690.286V303H701.714V299.5Z" stroke="#1A1A1A" stroke-width="1.3"/>
<path d="M750.714 282H739.286V285.5H750.714V282Z" stroke="#1A1A1A" stroke-width="1.3"/>
<path d="M751.857 285.5H738.143V289.7H751.857V285.5Z" stroke="#1A1A1A" stroke-width="1.3"/>
<path d="M753 289.7H737V295.3H753V289.7Z" stroke="#1A1A1A" stroke-width="1.3"/>
<path d="M751.857 295.3H738.143V299.5H751.857V295.3Z" stroke="#1A1A1A" stroke-width="1.3"/>
<path d="M750.714 299.5H739.286V303H750.714V299.5Z" stroke="#1A1A1A" stroke-width="1.3"/>
<path d="M798.714 282H787.286V285.5H798.714V282Z" stroke="#1A1A1A" stroke-width="1.3"/>
<path d="M799.857 285.5H786.143V289.7H799.857V285.5Z" stroke="#1A1A1A" stroke-width="1.3"/>
<path d="M801 289.7H785V295.3H801V289.7Z" stroke="#1A1A1A" stroke-width="1.3"/>
<path d="M799.857 295.3H786.143V299.5H799.857V295.3Z" stroke="#1A1A1A" stroke-width="1.3"/>
<path d="M798.714 299.5H787.286V303H798.714V299.5Z" stroke="#1A1A1A" stroke-width="1.3"/>
</g>
<defs>
<clipPath id="clip0_79_55738">
<rect width="1200" height="860" fill="white"/>
</clipPath>
</defs>
</svg>
