<svg width="1200" height="860" viewBox="0 0 1200 860" fill="none" xmlns="http://www.w3.org/2000/svg">
<g clip-path="url(#clip0_107_11536)">
<path d="M1200 0H0V860H1200V0Z" fill="white"/>
<path d="M1175 698H0V716H1175V698Z" fill="#2A2A2A"/>
<path d="M102 114H46V698H102V114Z" fill="white" stroke="#1A1A1A" stroke-width="2"/>
<path d="M105 104H43V114H105V104Z" fill="white" stroke="#1A1A1A" stroke-width="2"/>
<path opacity="0.55" d="M49 117H99" stroke="#1A1A1A" stroke-width="0.9" stroke-linecap="square"/>
<path opacity="0.55" d="M49 129H99" stroke="#1A1A1A" stroke-width="0.9" stroke-linecap="square"/>
<path opacity="0.55" d="M49 141H99" stroke="#1A1A1A" stroke-width="0.9" stroke-linecap="square"/>
<path opacity="0.55" d="M49 153H99" stroke="#1A1A1A" stroke-width="0.9" stroke-linecap="square"/>
<path opacity="0.55" d="M49 165H99" stroke="#1A1A1A" stroke-width="0.9" stroke-linecap="square"/>
<path opacity="0.55" d="M49 177H99" stroke="#1A1A1A" stroke-width="0.9" stroke-linecap="square"/>
<path opacity="0.55" d="M49 189H99" stroke="#1A1A1A" stroke-width="0.9" stroke-linecap="square"/>
<path opacity="0.55" d="M49 201H99" stroke="#1A1A1A" stroke-width="0.9" stroke-linecap="square"/>
<path opacity="0.55" d="M49 213H99" stroke="#1A1A1A" stroke-width="0.9" stroke-linecap="square"/>
<path opacity="0.55" d="M49 225H99" stroke="#1A1A1A" stroke-width="0.9" stroke-linecap="square"/>
<path opacity="0.55" d="M49 237H99" stroke="#1A1A1A" stroke-width="0.9" stroke-linecap="square"/>
<path opacity="0.55" d="M49 249H99" stroke="#1A1A1A" stroke-width="0.9" stroke-linecap="square"/>
<path opacity="0.55" d="M49 261H99" stroke="#1A1A1A" stroke-width="0.9" stroke-linecap="square"/>
<path opacity="0.55" d="M49 273H99" stroke="#1A1A1A" stroke-width="0.9" stroke-linecap="square"/>
<path opacity="0.55" d="M49 285H99" stroke="#1A1A1A" stroke-width="0.9" stroke-linecap="square"/>
<path opacity="0.55" d="M49 297H99" stroke="#1A1A1A" stroke-width="0.9" stroke-linecap="square"/>
<path opacity="0.55" d="M49 309H99" stroke="#1A1A1A" stroke-width="0.9" stroke-linecap="square"/>
<path opacity="0.55" d="M49 321H99" stroke="#1A1A1A" stroke-width="0.9" stroke-linecap="square"/>
<path opacity="0.55" d="M49 333H99" stroke="#1A1A1A" stroke-width="0.9" stroke-linecap="square"/>
<path opacity="0.55" d="M49 345H99" stroke="#1A1A1A" stroke-width="0.9" stroke-linecap="square"/>
<path opacity="0.55" d="M49 357H99" stroke="#1A1A1A" stroke-width="0.9" stroke-linecap="square"/>
<path opacity="0.55" d="M49 369H99" stroke="#1A1A1A" stroke-width="0.9" stroke-linecap="square"/>
<path opacity="0.55" d="M49 381H99" stroke="#1A1A1A" stroke-width="0.9" stroke-linecap="square"/>
<path opacity="0.55" d="M49 393H99" stroke="#1A1A1A" stroke-width="0.9" stroke-linecap="square"/>
<path opacity="0.55" d="M49 405H99" stroke="#1A1A1A" stroke-width="0.9" stroke-linecap="square"/>
<path opacity="0.55" d="M49 417H99" stroke="#1A1A1A" stroke-width="0.9" stroke-linecap="square"/>
<path opacity="0.55" d="M49 429H99" stroke="#1A1A1A" stroke-width="0.9" stroke-linecap="square"/>
<path opacity="0.55" d="M49 441H99" stroke="#1A1A1A" stroke-width="0.9" stroke-linecap="square"/>
<path opacity="0.55" d="M49 453H99" stroke="#1A1A1A" stroke-width="0.9" stroke-linecap="square"/>
<path opacity="0.55" d="M49 465H99" stroke="#1A1A1A" stroke-width="0.9" stroke-linecap="square"/>
<path opacity="0.55" d="M49 477H99" stroke="#1A1A1A" stroke-width="0.9" stroke-linecap="square"/>
<path opacity="0.55" d="M49 489H99" stroke="#1A1A1A" stroke-width="0.9" stroke-linecap="square"/>
<path opacity="0.55" d="M49 501H99" stroke="#1A1A1A" stroke-width="0.9" stroke-linecap="square"/>
<path opacity="0.55" d="M49 513H99" stroke="#1A1A1A" stroke-width="0.9" stroke-linecap="square"/>
<path opacity="0.55" d="M49 525H99" stroke="#1A1A1A" stroke-width="0.9" stroke-linecap="square"/>
<path opacity="0.55" d="M49 537H99" stroke="#1A1A1A" stroke-width="0.9" stroke-linecap="square"/>
<path opacity="0.55" d="M49 549H99" stroke="#1A1A1A" stroke-width="0.9" stroke-linecap="square"/>
<path opacity="0.55" d="M49 561H99" stroke="#1A1A1A" stroke-width="0.9" stroke-linecap="square"/>
<path opacity="0.55" d="M49 573H99" stroke="#1A1A1A" stroke-width="0.9" stroke-linecap="square"/>
<path opacity="0.55" d="M49 585H99" stroke="#1A1A1A" stroke-width="0.9" stroke-linecap="square"/>
<path opacity="0.55" d="M49 597H99" stroke="#1A1A1A" stroke-width="0.9" stroke-linecap="square"/>
<path opacity="0.55" d="M49 609H99" stroke="#1A1A1A" stroke-width="0.9" stroke-linecap="square"/>
<path opacity="0.55" d="M49 621H99" stroke="#1A1A1A" stroke-width="0.9" stroke-linecap="square"/>
<path opacity="0.55" d="M49 633H99" stroke="#1A1A1A" stroke-width="0.9" stroke-linecap="square"/>
<path opacity="0.55" d="M49 645H99" stroke="#1A1A1A" stroke-width="0.9" stroke-linecap="square"/>
<path opacity="0.55" d="M49 657H99" stroke="#1A1A1A" stroke-width="0.9" stroke-linecap="square"/>
<path opacity="0.55" d="M49 669H99" stroke="#1A1A1A" stroke-width="0.9" stroke-linecap="square"/>
<path opacity="0.55" d="M49 681H99" stroke="#1A1A1A" stroke-width="0.9" stroke-linecap="square"/>
<path opacity="0.55" d="M49 693H99" stroke="#1A1A1A" stroke-width="0.9" stroke-linecap="square"/>
<path opacity="0.55" d="M63 129V141" stroke="#1A1A1A" stroke-width="0.9" stroke-linecap="square"/>
<path opacity="0.55" d="M63 153V165" stroke="#1A1A1A" stroke-width="0.9" stroke-linecap="square"/>
<path opacity="0.55" d="M63 177V189" stroke="#1A1A1A" stroke-width="0.9" stroke-linecap="square"/>
<path opacity="0.55" d="M63 201V213" stroke="#1A1A1A" stroke-width="0.9" stroke-linecap="square"/>
<path opacity="0.55" d="M63 225V237" stroke="#1A1A1A" stroke-width="0.9" stroke-linecap="square"/>
<path opacity="0.55" d="M63 249V261" stroke="#1A1A1A" stroke-width="0.9" stroke-linecap="square"/>
<path opacity="0.55" d="M63 273V285" stroke="#1A1A1A" stroke-width="0.9" stroke-linecap="square"/>
<path opacity="0.55" d="M63 297V309" stroke="#1A1A1A" stroke-width="0.9" stroke-linecap="square"/>
<path opacity="0.55" d="M63 321V333" stroke="#1A1A1A" stroke-width="0.9" stroke-linecap="square"/>
<path opacity="0.55" d="M63 345V357" stroke="#1A1A1A" stroke-width="0.9" stroke-linecap="square"/>
<path opacity="0.55" d="M63 369V381" stroke="#1A1A1A" stroke-width="0.9" stroke-linecap="square"/>
<path opacity="0.55" d="M63 393V405" stroke="#1A1A1A" stroke-width="0.9" stroke-linecap="square"/>
<path opacity="0.55" d="M63 417V429" stroke="#1A1A1A" stroke-width="0.9" stroke-linecap="square"/>
<path opacity="0.55" d="M63 441V453" stroke="#1A1A1A" stroke-width="0.9" stroke-linecap="square"/>
<path opacity="0.55" d="M63 465V477" stroke="#1A1A1A" stroke-width="0.9" stroke-linecap="square"/>
<path opacity="0.55" d="M63 489V501" stroke="#1A1A1A" stroke-width="0.9" stroke-linecap="square"/>
<path opacity="0.55" d="M63 513V525" stroke="#1A1A1A" stroke-width="0.9" stroke-linecap="square"/>
<path opacity="0.55" d="M63 537V549" stroke="#1A1A1A" stroke-width="0.9" stroke-linecap="square"/>
<path opacity="0.55" d="M63 561V573" stroke="#1A1A1A" stroke-width="0.9" stroke-linecap="square"/>
<path opacity="0.55" d="M63 585V597" stroke="#1A1A1A" stroke-width="0.9" stroke-linecap="square"/>
<path opacity="0.55" d="M63 609V621" stroke="#1A1A1A" stroke-width="0.9" stroke-linecap="square"/>
<path opacity="0.55" d="M63 633V645" stroke="#1A1A1A" stroke-width="0.9" stroke-linecap="square"/>
<path opacity="0.55" d="M63 657V669" stroke="#1A1A1A" stroke-width="0.9" stroke-linecap="square"/>
<path opacity="0.55" d="M63 681V693" stroke="#1A1A1A" stroke-width="0.9" stroke-linecap="square"/>
<path opacity="0.55" d="M77 117V129" stroke="#1A1A1A" stroke-width="0.9" stroke-linecap="square"/>
<path opacity="0.55" d="M91 129V141" stroke="#1A1A1A" stroke-width="0.9" stroke-linecap="square"/>
<path opacity="0.55" d="M77 141V153" stroke="#1A1A1A" stroke-width="0.9" stroke-linecap="square"/>
<path opacity="0.55" d="M91 153V165" stroke="#1A1A1A" stroke-width="0.9" stroke-linecap="square"/>
<path opacity="0.55" d="M77 165V177" stroke="#1A1A1A" stroke-width="0.9" stroke-linecap="square"/>
<path opacity="0.55" d="M91 177V189" stroke="#1A1A1A" stroke-width="0.9" stroke-linecap="square"/>
<path opacity="0.55" d="M77 189V201" stroke="#1A1A1A" stroke-width="0.9" stroke-linecap="square"/>
<path opacity="0.55" d="M91 201V213" stroke="#1A1A1A" stroke-width="0.9" stroke-linecap="square"/>
<path opacity="0.55" d="M77 213V225" stroke="#1A1A1A" stroke-width="0.9" stroke-linecap="square"/>
<path opacity="0.55" d="M91 225V237" stroke="#1A1A1A" stroke-width="0.9" stroke-linecap="square"/>
<path opacity="0.55" d="M77 237V249" stroke="#1A1A1A" stroke-width="0.9" stroke-linecap="square"/>
<path opacity="0.55" d="M91 249V261" stroke="#1A1A1A" stroke-width="0.9" stroke-linecap="square"/>
<path opacity="0.55" d="M77 261V273" stroke="#1A1A1A" stroke-width="0.9" stroke-linecap="square"/>
<path opacity="0.55" d="M91 273V285" stroke="#1A1A1A" stroke-width="0.9" stroke-linecap="square"/>
<path opacity="0.55" d="M77 285V297" stroke="#1A1A1A" stroke-width="0.9" stroke-linecap="square"/>
<path opacity="0.55" d="M91 297V309" stroke="#1A1A1A" stroke-width="0.9" stroke-linecap="square"/>
<path opacity="0.55" d="M77 309V321" stroke="#1A1A1A" stroke-width="0.9" stroke-linecap="square"/>
<path opacity="0.55" d="M91 321V333" stroke="#1A1A1A" stroke-width="0.9" stroke-linecap="square"/>
<path opacity="0.55" d="M77 333V345" stroke="#1A1A1A" stroke-width="0.9" stroke-linecap="square"/>
<path opacity="0.55" d="M91 345V357" stroke="#1A1A1A" stroke-width="0.9" stroke-linecap="square"/>
<path opacity="0.55" d="M77 357V369" stroke="#1A1A1A" stroke-width="0.9" stroke-linecap="square"/>
<path opacity="0.55" d="M91 369V381" stroke="#1A1A1A" stroke-width="0.9" stroke-linecap="square"/>
<path opacity="0.55" d="M77 381V393" stroke="#1A1A1A" stroke-width="0.9" stroke-linecap="square"/>
<path opacity="0.55" d="M91 393V405" stroke="#1A1A1A" stroke-width="0.9" stroke-linecap="square"/>
<path opacity="0.55" d="M77 405V417" stroke="#1A1A1A" stroke-width="0.9" stroke-linecap="square"/>
<path opacity="0.55" d="M91 417V429" stroke="#1A1A1A" stroke-width="0.9" stroke-linecap="square"/>
<path opacity="0.55" d="M77 429V441" stroke="#1A1A1A" stroke-width="0.9" stroke-linecap="square"/>
<path opacity="0.55" d="M91 441V453" stroke="#1A1A1A" stroke-width="0.9" stroke-linecap="square"/>
<path opacity="0.55" d="M77 453V465" stroke="#1A1A1A" stroke-width="0.9" stroke-linecap="square"/>
<path opacity="0.55" d="M91 465V477" stroke="#1A1A1A" stroke-width="0.9" stroke-linecap="square"/>
<path opacity="0.55" d="M77 477V489" stroke="#1A1A1A" stroke-width="0.9" stroke-linecap="square"/>
<path opacity="0.55" d="M91 489V501" stroke="#1A1A1A" stroke-width="0.9" stroke-linecap="square"/>
<path opacity="0.55" d="M77 501V513" stroke="#1A1A1A" stroke-width="0.9" stroke-linecap="square"/>
<path opacity="0.55" d="M91 513V525" stroke="#1A1A1A" stroke-width="0.9" stroke-linecap="square"/>
<path opacity="0.55" d="M77 525V537" stroke="#1A1A1A" stroke-width="0.9" stroke-linecap="square"/>
<path opacity="0.55" d="M91 537V549" stroke="#1A1A1A" stroke-width="0.9" stroke-linecap="square"/>
<path opacity="0.55" d="M77 549V561" stroke="#1A1A1A" stroke-width="0.9" stroke-linecap="square"/>
<path opacity="0.55" d="M91 561V573" stroke="#1A1A1A" stroke-width="0.9" stroke-linecap="square"/>
<path opacity="0.55" d="M77 573V585" stroke="#1A1A1A" stroke-width="0.9" stroke-linecap="square"/>
<path opacity="0.55" d="M91 585V597" stroke="#1A1A1A" stroke-width="0.9" stroke-linecap="square"/>
<path opacity="0.55" d="M77 597V609" stroke="#1A1A1A" stroke-width="0.9" stroke-linecap="square"/>
<path opacity="0.55" d="M91 609V621" stroke="#1A1A1A" stroke-width="0.9" stroke-linecap="square"/>
<path opacity="0.55" d="M77 621V633" stroke="#1A1A1A" stroke-width="0.9" stroke-linecap="square"/>
<path opacity="0.55" d="M91 633V645" stroke="#1A1A1A" stroke-width="0.9" stroke-linecap="square"/>
<path opacity="0.55" d="M77 645V657" stroke="#1A1A1A" stroke-width="0.9" stroke-linecap="square"/>
<path opacity="0.55" d="M91 657V669" stroke="#1A1A1A" stroke-width="0.9" stroke-linecap="square"/>
<path opacity="0.55" d="M77 669V681" stroke="#1A1A1A" stroke-width="0.9" stroke-linecap="square"/>
<path opacity="0.55" d="M91 681V693" stroke="#1A1A1A" stroke-width="0.9" stroke-linecap="square"/>
<path opacity="0.55" d="M77 693V695" stroke="#1A1A1A" stroke-width="0.9" stroke-linecap="square"/>
<path d="M885 114H829V698H885V114Z" fill="white" stroke="#1A1A1A" stroke-width="2"/>
<path d="M888 104H826V114H888V104Z" fill="white" stroke="#1A1A1A" stroke-width="2"/>
<path opacity="0.55" d="M832 117H882" stroke="#1A1A1A" stroke-width="0.9" stroke-linecap="square"/>
<path opacity="0.55" d="M832 129H882" stroke="#1A1A1A" stroke-width="0.9" stroke-linecap="square"/>
<path opacity="0.55" d="M832 141H882" stroke="#1A1A1A" stroke-width="0.9" stroke-linecap="square"/>
<path opacity="0.55" d="M832 153H882" stroke="#1A1A1A" stroke-width="0.9" stroke-linecap="square"/>
<path opacity="0.55" d="M832 165H882" stroke="#1A1A1A" stroke-width="0.9" stroke-linecap="square"/>
<path opacity="0.55" d="M832 177H882" stroke="#1A1A1A" stroke-width="0.9" stroke-linecap="square"/>
<path opacity="0.55" d="M832 189H882" stroke="#1A1A1A" stroke-width="0.9" stroke-linecap="square"/>
<path opacity="0.55" d="M832 201H882" stroke="#1A1A1A" stroke-width="0.9" stroke-linecap="square"/>
<path opacity="0.55" d="M832 213H882" stroke="#1A1A1A" stroke-width="0.9" stroke-linecap="square"/>
<path opacity="0.55" d="M832 225H882" stroke="#1A1A1A" stroke-width="0.9" stroke-linecap="square"/>
<path opacity="0.55" d="M832 237H882" stroke="#1A1A1A" stroke-width="0.9" stroke-linecap="square"/>
<path opacity="0.55" d="M832 249H882" stroke="#1A1A1A" stroke-width="0.9" stroke-linecap="square"/>
<path opacity="0.55" d="M832 261H882" stroke="#1A1A1A" stroke-width="0.9" stroke-linecap="square"/>
<path opacity="0.55" d="M832 273H882" stroke="#1A1A1A" stroke-width="0.9" stroke-linecap="square"/>
<path opacity="0.55" d="M832 285H882" stroke="#1A1A1A" stroke-width="0.9" stroke-linecap="square"/>
<path opacity="0.55" d="M832 297H882" stroke="#1A1A1A" stroke-width="0.9" stroke-linecap="square"/>
<path opacity="0.55" d="M832 309H882" stroke="#1A1A1A" stroke-width="0.9" stroke-linecap="square"/>
<path opacity="0.55" d="M832 321H882" stroke="#1A1A1A" stroke-width="0.9" stroke-linecap="square"/>
<path opacity="0.55" d="M832 333H882" stroke="#1A1A1A" stroke-width="0.9" stroke-linecap="square"/>
<path opacity="0.55" d="M832 345H882" stroke="#1A1A1A" stroke-width="0.9" stroke-linecap="square"/>
<path opacity="0.55" d="M832 357H882" stroke="#1A1A1A" stroke-width="0.9" stroke-linecap="square"/>
<path opacity="0.55" d="M832 369H882" stroke="#1A1A1A" stroke-width="0.9" stroke-linecap="square"/>
<path opacity="0.55" d="M832 381H882" stroke="#1A1A1A" stroke-width="0.9" stroke-linecap="square"/>
<path opacity="0.55" d="M832 393H882" stroke="#1A1A1A" stroke-width="0.9" stroke-linecap="square"/>
<path opacity="0.55" d="M832 405H882" stroke="#1A1A1A" stroke-width="0.9" stroke-linecap="square"/>
<path opacity="0.55" d="M832 417H882" stroke="#1A1A1A" stroke-width="0.9" stroke-linecap="square"/>
<path opacity="0.55" d="M832 429H882" stroke="#1A1A1A" stroke-width="0.9" stroke-linecap="square"/>
<path opacity="0.55" d="M832 441H882" stroke="#1A1A1A" stroke-width="0.9" stroke-linecap="square"/>
<path opacity="0.55" d="M832 453H882" stroke="#1A1A1A" stroke-width="0.9" stroke-linecap="square"/>
<path opacity="0.55" d="M832 465H882" stroke="#1A1A1A" stroke-width="0.9" stroke-linecap="square"/>
<path opacity="0.55" d="M832 477H882" stroke="#1A1A1A" stroke-width="0.9" stroke-linecap="square"/>
<path opacity="0.55" d="M832 489H882" stroke="#1A1A1A" stroke-width="0.9" stroke-linecap="square"/>
<path opacity="0.55" d="M832 501H882" stroke="#1A1A1A" stroke-width="0.9" stroke-linecap="square"/>
<path opacity="0.55" d="M832 513H882" stroke="#1A1A1A" stroke-width="0.9" stroke-linecap="square"/>
<path opacity="0.55" d="M832 525H882" stroke="#1A1A1A" stroke-width="0.9" stroke-linecap="square"/>
<path opacity="0.55" d="M832 537H882" stroke="#1A1A1A" stroke-width="0.9" stroke-linecap="square"/>
<path opacity="0.55" d="M832 549H882" stroke="#1A1A1A" stroke-width="0.9" stroke-linecap="square"/>
<path opacity="0.55" d="M832 561H882" stroke="#1A1A1A" stroke-width="0.9" stroke-linecap="square"/>
<path opacity="0.55" d="M832 573H882" stroke="#1A1A1A" stroke-width="0.9" stroke-linecap="square"/>
<path opacity="0.55" d="M832 585H882" stroke="#1A1A1A" stroke-width="0.9" stroke-linecap="square"/>
<path opacity="0.55" d="M832 597H882" stroke="#1A1A1A" stroke-width="0.9" stroke-linecap="square"/>
<path opacity="0.55" d="M832 609H882" stroke="#1A1A1A" stroke-width="0.9" stroke-linecap="square"/>
<path opacity="0.55" d="M832 621H882" stroke="#1A1A1A" stroke-width="0.9" stroke-linecap="square"/>
<path opacity="0.55" d="M832 633H882" stroke="#1A1A1A" stroke-width="0.9" stroke-linecap="square"/>
<path opacity="0.55" d="M832 645H882" stroke="#1A1A1A" stroke-width="0.9" stroke-linecap="square"/>
<path opacity="0.55" d="M832 657H882" stroke="#1A1A1A" stroke-width="0.9" stroke-linecap="square"/>
<path opacity="0.55" d="M832 669H882" stroke="#1A1A1A" stroke-width="0.9" stroke-linecap="square"/>
<path opacity="0.55" d="M832 681H882" stroke="#1A1A1A" stroke-width="0.9" stroke-linecap="square"/>
<path opacity="0.55" d="M832 693H882" stroke="#1A1A1A" stroke-width="0.9" stroke-linecap="square"/>
<path opacity="0.55" d="M846 129V141" stroke="#1A1A1A" stroke-width="0.9" stroke-linecap="square"/>
<path opacity="0.55" d="M846 153V165" stroke="#1A1A1A" stroke-width="0.9" stroke-linecap="square"/>
<path opacity="0.55" d="M846 177V189" stroke="#1A1A1A" stroke-width="0.9" stroke-linecap="square"/>
<path opacity="0.55" d="M846 201V213" stroke="#1A1A1A" stroke-width="0.9" stroke-linecap="square"/>
<path opacity="0.55" d="M846 225V237" stroke="#1A1A1A" stroke-width="0.9" stroke-linecap="square"/>
<path opacity="0.55" d="M846 249V261" stroke="#1A1A1A" stroke-width="0.9" stroke-linecap="square"/>
<path opacity="0.55" d="M846 273V285" stroke="#1A1A1A" stroke-width="0.9" stroke-linecap="square"/>
<path opacity="0.55" d="M846 297V309" stroke="#1A1A1A" stroke-width="0.9" stroke-linecap="square"/>
<path opacity="0.55" d="M846 321V333" stroke="#1A1A1A" stroke-width="0.9" stroke-linecap="square"/>
<path opacity="0.55" d="M846 345V357" stroke="#1A1A1A" stroke-width="0.9" stroke-linecap="square"/>
<path opacity="0.55" d="M846 369V381" stroke="#1A1A1A" stroke-width="0.9" stroke-linecap="square"/>
<path opacity="0.55" d="M846 393V405" stroke="#1A1A1A" stroke-width="0.9" stroke-linecap="square"/>
<path opacity="0.55" d="M846 417V429" stroke="#1A1A1A" stroke-width="0.9" stroke-linecap="square"/>
<path opacity="0.55" d="M846 441V453" stroke="#1A1A1A" stroke-width="0.9" stroke-linecap="square"/>
<path opacity="0.55" d="M846 465V477" stroke="#1A1A1A" stroke-width="0.9" stroke-linecap="square"/>
<path opacity="0.55" d="M846 489V501" stroke="#1A1A1A" stroke-width="0.9" stroke-linecap="square"/>
<path opacity="0.55" d="M846 513V525" stroke="#1A1A1A" stroke-width="0.9" stroke-linecap="square"/>
<path opacity="0.55" d="M846 537V549" stroke="#1A1A1A" stroke-width="0.9" stroke-linecap="square"/>
<path opacity="0.55" d="M846 561V573" stroke="#1A1A1A" stroke-width="0.9" stroke-linecap="square"/>
<path opacity="0.55" d="M846 585V597" stroke="#1A1A1A" stroke-width="0.9" stroke-linecap="square"/>
<path opacity="0.55" d="M846 609V621" stroke="#1A1A1A" stroke-width="0.9" stroke-linecap="square"/>
<path opacity="0.55" d="M846 633V645" stroke="#1A1A1A" stroke-width="0.9" stroke-linecap="square"/>
<path opacity="0.55" d="M846 657V669" stroke="#1A1A1A" stroke-width="0.9" stroke-linecap="square"/>
<path opacity="0.55" d="M846 681V693" stroke="#1A1A1A" stroke-width="0.9" stroke-linecap="square"/>
<path opacity="0.55" d="M860 117V129" stroke="#1A1A1A" stroke-width="0.9" stroke-linecap="square"/>
<path opacity="0.55" d="M874 129V141" stroke="#1A1A1A" stroke-width="0.9" stroke-linecap="square"/>
<path opacity="0.55" d="M860 141V153" stroke="#1A1A1A" stroke-width="0.9" stroke-linecap="square"/>
<path opacity="0.55" d="M874 153V165" stroke="#1A1A1A" stroke-width="0.9" stroke-linecap="square"/>
<path opacity="0.55" d="M860 165V177" stroke="#1A1A1A" stroke-width="0.9" stroke-linecap="square"/>
<path opacity="0.55" d="M874 177V189" stroke="#1A1A1A" stroke-width="0.9" stroke-linecap="square"/>
<path opacity="0.55" d="M860 189V201" stroke="#1A1A1A" stroke-width="0.9" stroke-linecap="square"/>
<path opacity="0.55" d="M874 201V213" stroke="#1A1A1A" stroke-width="0.9" stroke-linecap="square"/>
<path opacity="0.55" d="M860 213V225" stroke="#1A1A1A" stroke-width="0.9" stroke-linecap="square"/>
<path opacity="0.55" d="M874 225V237" stroke="#1A1A1A" stroke-width="0.9" stroke-linecap="square"/>
<path opacity="0.55" d="M860 237V249" stroke="#1A1A1A" stroke-width="0.9" stroke-linecap="square"/>
<path opacity="0.55" d="M874 249V261" stroke="#1A1A1A" stroke-width="0.9" stroke-linecap="square"/>
<path opacity="0.55" d="M860 261V273" stroke="#1A1A1A" stroke-width="0.9" stroke-linecap="square"/>
<path opacity="0.55" d="M874 273V285" stroke="#1A1A1A" stroke-width="0.9" stroke-linecap="square"/>
<path opacity="0.55" d="M860 285V297" stroke="#1A1A1A" stroke-width="0.9" stroke-linecap="square"/>
<path opacity="0.55" d="M874 297V309" stroke="#1A1A1A" stroke-width="0.9" stroke-linecap="square"/>
<path opacity="0.55" d="M860 309V321" stroke="#1A1A1A" stroke-width="0.9" stroke-linecap="square"/>
<path opacity="0.55" d="M874 321V333" stroke="#1A1A1A" stroke-width="0.9" stroke-linecap="square"/>
<path opacity="0.55" d="M860 333V345" stroke="#1A1A1A" stroke-width="0.9" stroke-linecap="square"/>
<path opacity="0.55" d="M874 345V357" stroke="#1A1A1A" stroke-width="0.9" stroke-linecap="square"/>
<path opacity="0.55" d="M860 357V369" stroke="#1A1A1A" stroke-width="0.9" stroke-linecap="square"/>
<path opacity="0.55" d="M874 369V381" stroke="#1A1A1A" stroke-width="0.9" stroke-linecap="square"/>
<path opacity="0.55" d="M860 381V393" stroke="#1A1A1A" stroke-width="0.9" stroke-linecap="square"/>
<path opacity="0.55" d="M874 393V405" stroke="#1A1A1A" stroke-width="0.9" stroke-linecap="square"/>
<path opacity="0.55" d="M860 405V417" stroke="#1A1A1A" stroke-width="0.9" stroke-linecap="square"/>
<path opacity="0.55" d="M874 417V429" stroke="#1A1A1A" stroke-width="0.9" stroke-linecap="square"/>
<path opacity="0.55" d="M860 429V441" stroke="#1A1A1A" stroke-width="0.9" stroke-linecap="square"/>
<path opacity="0.55" d="M874 441V453" stroke="#1A1A1A" stroke-width="0.9" stroke-linecap="square"/>
<path opacity="0.55" d="M860 453V465" stroke="#1A1A1A" stroke-width="0.9" stroke-linecap="square"/>
<path opacity="0.55" d="M874 465V477" stroke="#1A1A1A" stroke-width="0.9" stroke-linecap="square"/>
<path opacity="0.55" d="M860 477V489" stroke="#1A1A1A" stroke-width="0.9" stroke-linecap="square"/>
<path opacity="0.55" d="M874 489V501" stroke="#1A1A1A" stroke-width="0.9" stroke-linecap="square"/>
<path opacity="0.55" d="M860 501V513" stroke="#1A1A1A" stroke-width="0.9" stroke-linecap="square"/>
<path opacity="0.55" d="M874 513V525" stroke="#1A1A1A" stroke-width="0.9" stroke-linecap="square"/>
<path opacity="0.55" d="M860 525V537" stroke="#1A1A1A" stroke-width="0.9" stroke-linecap="square"/>
<path opacity="0.55" d="M874 537V549" stroke="#1A1A1A" stroke-width="0.9" stroke-linecap="square"/>
<path opacity="0.55" d="M860 549V561" stroke="#1A1A1A" stroke-width="0.9" stroke-linecap="square"/>
<path opacity="0.55" d="M874 561V573" stroke="#1A1A1A" stroke-width="0.9" stroke-linecap="square"/>
<path opacity="0.55" d="M860 573V585" stroke="#1A1A1A" stroke-width="0.9" stroke-linecap="square"/>
<path opacity="0.55" d="M874 585V597" stroke="#1A1A1A" stroke-width="0.9" stroke-linecap="square"/>
<path opacity="0.55" d="M860 597V609" stroke="#1A1A1A" stroke-width="0.9" stroke-linecap="square"/>
<path opacity="0.55" d="M874 609V621" stroke="#1A1A1A" stroke-width="0.9" stroke-linecap="square"/>
<path opacity="0.55" d="M860 621V633" stroke="#1A1A1A" stroke-width="0.9" stroke-linecap="square"/>
<path opacity="0.55" d="M874 633V645" stroke="#1A1A1A" stroke-width="0.9" stroke-linecap="square"/>
<path opacity="0.55" d="M860 645V657" stroke="#1A1A1A" stroke-width="0.9" stroke-linecap="square"/>
<path opacity="0.55" d="M874 657V669" stroke="#1A1A1A" stroke-width="0.9" stroke-linecap="square"/>
<path opacity="0.55" d="M860 669V681" stroke="#1A1A1A" stroke-width="0.9" stroke-linecap="square"/>
<path opacity="0.55" d="M874 681V693" stroke="#1A1A1A" stroke-width="0.9" stroke-linecap="square"/>
<path opacity="0.55" d="M860 693V695" stroke="#1A1A1A" stroke-width="0.9" stroke-linecap="square"/>
<path d="M811 150H120V670H811V150Z" stroke="#1A1A1A" stroke-width="2.2"/>
<path d="M120 165H811" stroke="#1A1A1A" stroke-width="1.4" stroke-linecap="square"/>
<path d="M120 657L810 655.993" stroke="#1A1A1A" stroke-width="1.4" stroke-linecap="square"/>
<path d="M120 400L811 398.996" stroke="#1A1A1A" stroke-width="1.4" stroke-linecap="square"/>
<path d="M120 516H811" stroke="#1A1A1A" stroke-width="1.4" stroke-linecap="square"/>
<path d="M120 535H811" stroke="#1A1A1A" stroke-width="1.4" stroke-linecap="square"/>
<path d="M136 165V516" stroke="#1A1A1A" stroke-width="1.4" stroke-linecap="square"/>
<path d="M158 165V516" stroke="#1A1A1A" stroke-width="1.4" stroke-linecap="square"/>
<path d="M180 165V516" stroke="#1A1A1A" stroke-width="1.4" stroke-linecap="square"/>
<path d="M202 165V516" stroke="#1A1A1A" stroke-width="1.4" stroke-linecap="square"/>
<path d="M224 165V516" stroke="#1A1A1A" stroke-width="1.4" stroke-linecap="square"/>
<path d="M246 165V516" stroke="#1A1A1A" stroke-width="1.4" stroke-linecap="square"/>
<path d="M268 165V516" stroke="#1A1A1A" stroke-width="1.4" stroke-linecap="square"/>
<path d="M290 165V516" stroke="#1A1A1A" stroke-width="1.4" stroke-linecap="square"/>
<path d="M312 165V516" stroke="#1A1A1A" stroke-width="1.4" stroke-linecap="square"/>
<path d="M334 165V516" stroke="#1A1A1A" stroke-width="1.4" stroke-linecap="square"/>
<path d="M356 165V516" stroke="#1A1A1A" stroke-width="1.4" stroke-linecap="square"/>
<path d="M378 165V516" stroke="#1A1A1A" stroke-width="1.4" stroke-linecap="square"/>
<path d="M400 165V516" stroke="#1A1A1A" stroke-width="1.4" stroke-linecap="square"/>
<path d="M422 165V516" stroke="#1A1A1A" stroke-width="1.4" stroke-linecap="square"/>
<path d="M444 165V516" stroke="#1A1A1A" stroke-width="1.4" stroke-linecap="square"/>
<path d="M466 165V516" stroke="#1A1A1A" stroke-width="1.4" stroke-linecap="square"/>
<path d="M488 165V516" stroke="#1A1A1A" stroke-width="1.4" stroke-linecap="square"/>
<path d="M510 165V516" stroke="#1A1A1A" stroke-width="1.4" stroke-linecap="square"/>
<path d="M532 165V516" stroke="#1A1A1A" stroke-width="1.4" stroke-linecap="square"/>
<path d="M554 165V516" stroke="#1A1A1A" stroke-width="1.4" stroke-linecap="square"/>
<path d="M576 165V516" stroke="#1A1A1A" stroke-width="1.4" stroke-linecap="square"/>
<path d="M598 165V516" stroke="#1A1A1A" stroke-width="1.4" stroke-linecap="square"/>
<path d="M620 165V516" stroke="#1A1A1A" stroke-width="1.4" stroke-linecap="square"/>
<path d="M642 165V516" stroke="#1A1A1A" stroke-width="1.4" stroke-linecap="square"/>
<path d="M664 165V516" stroke="#1A1A1A" stroke-width="1.4" stroke-linecap="square"/>
<path d="M686 165V516" stroke="#1A1A1A" stroke-width="1.4" stroke-linecap="square"/>
<path d="M708 165V516" stroke="#1A1A1A" stroke-width="1.4" stroke-linecap="square"/>
<path d="M730 165V516" stroke="#1A1A1A" stroke-width="1.4" stroke-linecap="square"/>
<path d="M752 165V516" stroke="#1A1A1A" stroke-width="1.4" stroke-linecap="square"/>
<path d="M774 165V516" stroke="#1A1A1A" stroke-width="1.4" stroke-linecap="square"/>
<path d="M796 165V516" stroke="#1A1A1A" stroke-width="1.4" stroke-linecap="square"/>
<path d="M132.432 516L133.004 656" stroke="#1A1A1A" stroke-width="1.4" stroke-linecap="square"/>
<path d="M152 516L152.572 656" stroke="#1A1A1A" stroke-width="1.4" stroke-linecap="square"/>
<path d="M171.568 516L172.14 656" stroke="#1A1A1A" stroke-width="1.4" stroke-linecap="square"/>
<path d="M191.136 516L191.708 656" stroke="#1A1A1A" stroke-width="1.4" stroke-linecap="square"/>
<path d="M210.704 516L211.277 656" stroke="#1A1A1A" stroke-width="1.4" stroke-linecap="square"/>
<path d="M230.272 516L230.845 656" stroke="#1A1A1A" stroke-width="1.4" stroke-linecap="square"/>
<path d="M249.841 516L250.413 656" stroke="#1A1A1A" stroke-width="1.4" stroke-linecap="square"/>
<path d="M269.409 516L269.981 656" stroke="#1A1A1A" stroke-width="1.4" stroke-linecap="square"/>
<path d="M288.977 516L289.549 656" stroke="#1A1A1A" stroke-width="1.4" stroke-linecap="square"/>
<path d="M308.545 516L309.117 656" stroke="#1A1A1A" stroke-width="1.4" stroke-linecap="square"/>
<path d="M328.113 516L328.685 656" stroke="#1A1A1A" stroke-width="1.4" stroke-linecap="square"/>
<path d="M347.681 516L348.253 656" stroke="#1A1A1A" stroke-width="1.4" stroke-linecap="square"/>
<path d="M367.249 516L367.821 656" stroke="#1A1A1A" stroke-width="1.4" stroke-linecap="square"/>
<path d="M386.817 516L387.39 656" stroke="#1A1A1A" stroke-width="1.4" stroke-linecap="square"/>
<path d="M406.385 516L406.958 656" stroke="#1A1A1A" stroke-width="1.4" stroke-linecap="square"/>
<path d="M425.954 516L426.526 656" stroke="#1A1A1A" stroke-width="1.4" stroke-linecap="square"/>
<path d="M445.522 516L446.094 656" stroke="#1A1A1A" stroke-width="1.4" stroke-linecap="square"/>
<path d="M465.09 516L465.662 656" stroke="#1A1A1A" stroke-width="1.4" stroke-linecap="square"/>
<path d="M484.658 516L485.23 656" stroke="#1A1A1A" stroke-width="1.4" stroke-linecap="square"/>
<path d="M504.226 516L504.798 656" stroke="#1A1A1A" stroke-width="1.4" stroke-linecap="square"/>
<path d="M523.794 516L524.366 656" stroke="#1A1A1A" stroke-width="1.4" stroke-linecap="square"/>
<path d="M543.362 516L543.935 656" stroke="#1A1A1A" stroke-width="1.4" stroke-linecap="square"/>
<path d="M562.93 516L563.503 656" stroke="#1A1A1A" stroke-width="1.4" stroke-linecap="square"/>
<path d="M582.499 516L583.071 656" stroke="#1A1A1A" stroke-width="1.4" stroke-linecap="square"/>
<path d="M602.067 516L602.639 656" stroke="#1A1A1A" stroke-width="1.4" stroke-linecap="square"/>
<path d="M621.635 516L622.207 656" stroke="#1A1A1A" stroke-width="1.4" stroke-linecap="square"/>
<path d="M641.203 516L641.775 656" stroke="#1A1A1A" stroke-width="1.4" stroke-linecap="square"/>
<path d="M660.771 516L661.343 656" stroke="#1A1A1A" stroke-width="1.4" stroke-linecap="square"/>
<path d="M680.339 516L680.911 656" stroke="#1A1A1A" stroke-width="1.4" stroke-linecap="square"/>
<path d="M699.907 516L700.479 656" stroke="#1A1A1A" stroke-width="1.4" stroke-linecap="square"/>
<path d="M719.475 516L720.048 656" stroke="#1A1A1A" stroke-width="1.4" stroke-linecap="square"/>
<path d="M739.043 516L739.616 656" stroke="#1A1A1A" stroke-width="1.4" stroke-linecap="square"/>
<path d="M758.612 516L759.184 656" stroke="#1A1A1A" stroke-width="1.4" stroke-linecap="square"/>
<path d="M778.18 516L778.752 656" stroke="#1A1A1A" stroke-width="1.4" stroke-linecap="square"/>
<path d="M797.748 516L798.32 656" stroke="#1A1A1A" stroke-width="1.4" stroke-linecap="square"/>
<path d="M1121 652H891V668H1121V652Z" stroke="#1A1A1A" stroke-width="1.4"/>
<path d="M891 156V652" stroke="#1A1A1A" stroke-width="1.4" stroke-linecap="square"/>
<path d="M891 156L1121 652" stroke="#1A1A1A" stroke-width="1.4" stroke-linecap="square"/>
<circle cx="132.5" cy="525.5" r="9" fill="white" stroke="black"/>
<circle cx="151.5" cy="525.5" r="9" fill="white" stroke="black"/>
<circle cx="170.5" cy="525.5" r="9" fill="white" stroke="black"/>
<circle cx="189.5" cy="525.5" r="9" fill="white" stroke="black"/>
<circle cx="208.5" cy="525.5" r="9" fill="white" stroke="black"/>
<circle cx="227.5" cy="525.5" r="9" fill="white" stroke="black"/>
<circle cx="246.5" cy="525.5" r="9" fill="white" stroke="black"/>
<circle cx="265.5" cy="525.5" r="9" fill="white" stroke="black"/>
<circle cx="284.5" cy="525.5" r="9" fill="white" stroke="black"/>
<circle cx="303.5" cy="525.5" r="9" fill="white" stroke="black"/>
<circle cx="322.5" cy="525.5" r="9" fill="white" stroke="black"/>
<circle cx="341.5" cy="525.5" r="9" fill="white" stroke="black"/>
<circle cx="360.5" cy="525.5" r="9" fill="white" stroke="black"/>
<circle cx="379.5" cy="525.5" r="9" fill="white" stroke="black"/>
<circle cx="398.5" cy="525.5" r="9" fill="white" stroke="black"/>
<circle cx="417.5" cy="525.5" r="9" fill="white" stroke="black"/>
<circle cx="436.5" cy="525.5" r="9" fill="white" stroke="black"/>
<circle cx="455.5" cy="525.5" r="9" fill="white" stroke="black"/>
<circle cx="474.5" cy="525.5" r="9" fill="white" stroke="black"/>
<circle cx="493.5" cy="525.5" r="9" fill="white" stroke="black"/>
<circle cx="512.5" cy="525.5" r="9" fill="white" stroke="black"/>
<circle cx="531.5" cy="525.5" r="9" fill="white" stroke="black"/>
<circle cx="550.5" cy="525.5" r="9" fill="white" stroke="black"/>
<circle cx="569.5" cy="525.5" r="9" fill="white" stroke="black"/>
<circle cx="588.5" cy="525.5" r="9" fill="white" stroke="black"/>
<circle cx="607.5" cy="525.5" r="9" fill="white" stroke="black"/>
<circle cx="626.5" cy="525.5" r="9" fill="white" stroke="black"/>
<circle cx="645.5" cy="525.5" r="9" fill="white" stroke="black"/>
<circle cx="664.5" cy="525.5" r="9" fill="white" stroke="black"/>
<circle cx="683.5" cy="525.5" r="9" fill="white" stroke="black"/>
<circle cx="702.5" cy="525.5" r="9" fill="white" stroke="black"/>
<circle cx="721.5" cy="525.5" r="9" fill="white" stroke="black"/>
<circle cx="740.5" cy="525.5" r="9" fill="white" stroke="black"/>
<circle cx="759.5" cy="525.5" r="9" fill="white" stroke="black"/>
<circle cx="778.5" cy="525.5" r="9" fill="white" stroke="black"/>
<circle cx="797.5" cy="525.5" r="9" fill="white" stroke="black"/>
<path d="M120 184H811" stroke="#1A1A1A" stroke-width="1.4" stroke-linecap="square"/>
<circle cx="132.5" cy="174.5" r="9" fill="white" stroke="black"/>
<circle cx="151.5" cy="174.5" r="9" fill="white" stroke="black"/>
<circle cx="170.5" cy="174.5" r="9" fill="white" stroke="black"/>
<circle cx="189.5" cy="174.5" r="9" fill="white" stroke="black"/>
<circle cx="208.5" cy="174.5" r="9" fill="white" stroke="black"/>
<circle cx="227.5" cy="174.5" r="9" fill="white" stroke="black"/>
<circle cx="246.5" cy="174.5" r="9" fill="white" stroke="black"/>
<circle cx="265.5" cy="174.5" r="9" fill="white" stroke="black"/>
<circle cx="284.5" cy="174.5" r="9" fill="white" stroke="black"/>
<circle cx="303.5" cy="174.5" r="9" fill="white" stroke="black"/>
<circle cx="322.5" cy="174.5" r="9" fill="white" stroke="black"/>
<circle cx="341.5" cy="174.5" r="9" fill="white" stroke="black"/>
<circle cx="360.5" cy="174.5" r="9" fill="white" stroke="black"/>
<circle cx="379.5" cy="174.5" r="9" fill="white" stroke="black"/>
<circle cx="398.5" cy="174.5" r="9" fill="white" stroke="black"/>
<circle cx="417.5" cy="174.5" r="9" fill="white" stroke="black"/>
<circle cx="436.5" cy="174.5" r="9" fill="white" stroke="black"/>
<circle cx="455.5" cy="174.5" r="9" fill="white" stroke="black"/>
<circle cx="474.5" cy="174.5" r="9" fill="white" stroke="black"/>
<circle cx="493.5" cy="174.5" r="9" fill="white" stroke="black"/>
<circle cx="512.5" cy="174.5" r="9" fill="white" stroke="black"/>
<circle cx="531.5" cy="174.5" r="9" fill="white" stroke="black"/>
<circle cx="550.5" cy="174.5" r="9" fill="white" stroke="black"/>
<circle cx="569.5" cy="174.5" r="9" fill="white" stroke="black"/>
<circle cx="588.5" cy="174.5" r="9" fill="white" stroke="black"/>
<circle cx="607.5" cy="174.5" r="9" fill="white" stroke="black"/>
<circle cx="626.5" cy="174.5" r="9" fill="white" stroke="black"/>
<circle cx="645.5" cy="174.5" r="9" fill="white" stroke="black"/>
<circle cx="664.5" cy="174.5" r="9" fill="white" stroke="black"/>
<circle cx="683.5" cy="174.5" r="9" fill="white" stroke="black"/>
<circle cx="702.5" cy="174.5" r="9" fill="white" stroke="black"/>
<circle cx="721.5" cy="174.5" r="9" fill="white" stroke="black"/>
<circle cx="740.5" cy="174.5" r="9" fill="white" stroke="black"/>
<circle cx="759.5" cy="174.5" r="9" fill="white" stroke="black"/>
<circle cx="778.5" cy="174.5" r="9" fill="white" stroke="black"/>
<circle cx="797.5" cy="174.5" r="9" fill="white" stroke="black"/>
<path d="M162.286 276H153.714V279H162.286V276Z" stroke="#1A1A1A" stroke-width="1.3"/>
<path d="M163.143 279H152.857V282.6H163.143V279Z" stroke="#1A1A1A" stroke-width="1.3"/>
<path d="M164 282.6H152V287.4H164V282.6Z" stroke="#1A1A1A" stroke-width="1.3"/>
<path d="M163.143 287.4H152.857V291H163.143V287.4Z" stroke="#1A1A1A" stroke-width="1.3"/>
<path d="M162.286 291H153.714V294H162.286V291Z" stroke="#1A1A1A" stroke-width="1.3"/>
<path d="M206.286 276H197.714V279H206.286V276Z" stroke="#1A1A1A" stroke-width="1.3"/>
<path d="M207.143 279H196.857V282.6H207.143V279Z" stroke="#1A1A1A" stroke-width="1.3"/>
<path d="M208 282.6H196V287.4H208V282.6Z" stroke="#1A1A1A" stroke-width="1.3"/>
<path d="M207.143 287.4H196.857V291H207.143V287.4Z" stroke="#1A1A1A" stroke-width="1.3"/>
<path d="M206.286 291H197.714V294H206.286V291Z" stroke="#1A1A1A" stroke-width="1.3"/>
<path d="M250.286 276H241.714V279H250.286V276Z" stroke="#1A1A1A" stroke-width="1.3"/>
<path d="M251.143 279H240.857V282.6H251.143V279Z" stroke="#1A1A1A" stroke-width="1.3"/>
<path d="M252 282.6H240V287.4H252V282.6Z" stroke="#1A1A1A" stroke-width="1.3"/>
<path d="M251.143 287.4H240.857V291H251.143V287.4Z" stroke="#1A1A1A" stroke-width="1.3"/>
<path d="M250.286 291H241.714V294H250.286V291Z" stroke="#1A1A1A" stroke-width="1.3"/>
<path d="M294.286 276H285.714V279H294.286V276Z" stroke="#1A1A1A" stroke-width="1.3"/>
<path d="M295.143 279H284.857V282.6H295.143V279Z" stroke="#1A1A1A" stroke-width="1.3"/>
<path d="M296 282.6H284V287.4H296V282.6Z" stroke="#1A1A1A" stroke-width="1.3"/>
<path d="M295.143 287.4H284.857V291H295.143V287.4Z" stroke="#1A1A1A" stroke-width="1.3"/>
<path d="M294.286 291H285.714V294H294.286V291Z" stroke="#1A1A1A" stroke-width="1.3"/>
<path d="M338.286 276H329.714V279H338.286V276Z" stroke="#1A1A1A" stroke-width="1.3"/>
<path d="M339.143 279H328.857V282.6H339.143V279Z" stroke="#1A1A1A" stroke-width="1.3"/>
<path d="M340 282.6H328V287.4H340V282.6Z" stroke="#1A1A1A" stroke-width="1.3"/>
<path d="M339.143 287.4H328.857V291H339.143V287.4Z" stroke="#1A1A1A" stroke-width="1.3"/>
<path d="M338.286 291H329.714V294H338.286V291Z" stroke="#1A1A1A" stroke-width="1.3"/>
<path d="M382.286 276H373.714V279H382.286V276Z" stroke="#1A1A1A" stroke-width="1.3"/>
<path d="M383.143 279H372.857V282.6H383.143V279Z" stroke="#1A1A1A" stroke-width="1.3"/>
<path d="M384 282.6H372V287.4H384V282.6Z" stroke="#1A1A1A" stroke-width="1.3"/>
<path d="M383.143 287.4H372.857V291H383.143V287.4Z" stroke="#1A1A1A" stroke-width="1.3"/>
<path d="M382.286 291H373.714V294H382.286V291Z" stroke="#1A1A1A" stroke-width="1.3"/>
<path d="M426.286 276H417.714V279H426.286V276Z" stroke="#1A1A1A" stroke-width="1.3"/>
<path d="M427.143 279H416.857V282.6H427.143V279Z" stroke="#1A1A1A" stroke-width="1.3"/>
<path d="M428 282.6H416V287.4H428V282.6Z" stroke="#1A1A1A" stroke-width="1.3"/>
<path d="M427.143 287.4H416.857V291H427.143V287.4Z" stroke="#1A1A1A" stroke-width="1.3"/>
<path d="M426.286 291H417.714V294H426.286V291Z" stroke="#1A1A1A" stroke-width="1.3"/>
<path d="M470.286 276H461.714V279H470.286V276Z" stroke="#1A1A1A" stroke-width="1.3"/>
<path d="M471.143 279H460.857V282.6H471.143V279Z" stroke="#1A1A1A" stroke-width="1.3"/>
<path d="M472 282.6H460V287.4H472V282.6Z" stroke="#1A1A1A" stroke-width="1.3"/>
<path d="M471.143 287.4H460.857V291H471.143V287.4Z" stroke="#1A1A1A" stroke-width="1.3"/>
<path d="M470.286 291H461.714V294H470.286V291Z" stroke="#1A1A1A" stroke-width="1.3"/>
<path d="M514.286 276H505.714V279H514.286V276Z" stroke="#1A1A1A" stroke-width="1.3"/>
<path d="M515.143 279H504.857V282.6H515.143V279Z" stroke="#1A1A1A" stroke-width="1.3"/>
<path d="M516 282.6H504V287.4H516V282.6Z" stroke="#1A1A1A" stroke-width="1.3"/>
<path d="M515.143 287.4H504.857V291H515.143V287.4Z" stroke="#1A1A1A" stroke-width="1.3"/>
<path d="M514.286 291H505.714V294H514.286V291Z" stroke="#1A1A1A" stroke-width="1.3"/>
<path d="M558.286 276H549.714V279H558.286V276Z" stroke="#1A1A1A" stroke-width="1.3"/>
<path d="M559.143 279H548.857V282.6H559.143V279Z" stroke="#1A1A1A" stroke-width="1.3"/>
<path d="M560 282.6H548V287.4H560V282.6Z" stroke="#1A1A1A" stroke-width="1.3"/>
<path d="M559.143 287.4H548.857V291H559.143V287.4Z" stroke="#1A1A1A" stroke-width="1.3"/>
<path d="M558.286 291H549.714V294H558.286V291Z" stroke="#1A1A1A" stroke-width="1.3"/>
<path d="M602.286 276H593.714V279H602.286V276Z" stroke="#1A1A1A" stroke-width="1.3"/>
<path d="M603.143 279H592.857V282.6H603.143V279Z" stroke="#1A1A1A" stroke-width="1.3"/>
<path d="M604 282.6H592V287.4H604V282.6Z" stroke="#1A1A1A" stroke-width="1.3"/>
<path d="M603.143 287.4H592.857V291H603.143V287.4Z" stroke="#1A1A1A" stroke-width="1.3"/>
<path d="M602.286 291H593.714V294H602.286V291Z" stroke="#1A1A1A" stroke-width="1.3"/>
<path d="M646.286 276H637.714V279H646.286V276Z" stroke="#1A1A1A" stroke-width="1.3"/>
<path d="M647.143 279H636.857V282.6H647.143V279Z" stroke="#1A1A1A" stroke-width="1.3"/>
<path d="M648 282.6H636V287.4H648V282.6Z" stroke="#1A1A1A" stroke-width="1.3"/>
<path d="M647.143 287.4H636.857V291H647.143V287.4Z" stroke="#1A1A1A" stroke-width="1.3"/>
<path d="M646.286 291H637.714V294H646.286V291Z" stroke="#1A1A1A" stroke-width="1.3"/>
<path d="M690.286 276H681.714V279H690.286V276Z" stroke="#1A1A1A" stroke-width="1.3"/>
<path d="M691.143 279H680.857V282.6H691.143V279Z" stroke="#1A1A1A" stroke-width="1.3"/>
<path d="M692 282.6H680V287.4H692V282.6Z" stroke="#1A1A1A" stroke-width="1.3"/>
<path d="M691.143 287.4H680.857V291H691.143V287.4Z" stroke="#1A1A1A" stroke-width="1.3"/>
<path d="M690.286 291H681.714V294H690.286V291Z" stroke="#1A1A1A" stroke-width="1.3"/>
<path d="M734.286 276H725.714V279H734.286V276Z" stroke="#1A1A1A" stroke-width="1.3"/>
<path d="M735.143 279H724.857V282.6H735.143V279Z" stroke="#1A1A1A" stroke-width="1.3"/>
<path d="M736 282.6H724V287.4H736V282.6Z" stroke="#1A1A1A" stroke-width="1.3"/>
<path d="M735.143 287.4H724.857V291H735.143V287.4Z" stroke="#1A1A1A" stroke-width="1.3"/>
<path d="M734.286 291H725.714V294H734.286V291Z" stroke="#1A1A1A" stroke-width="1.3"/>
<path d="M778.286 276H769.714V279H778.286V276Z" stroke="#1A1A1A" stroke-width="1.3"/>
<path d="M779.143 279H768.857V282.6H779.143V279Z" stroke="#1A1A1A" stroke-width="1.3"/>
<path d="M780 282.6H768V287.4H780V282.6Z" stroke="#1A1A1A" stroke-width="1.3"/>
<path d="M779.143 287.4H768.857V291H779.143V287.4Z" stroke="#1A1A1A" stroke-width="1.3"/>
<path d="M778.286 291H769.714V294H778.286V291Z" stroke="#1A1A1A" stroke-width="1.3"/>
</g>
<defs>
<clipPath id="clip0_107_11536">
<rect width="1200" height="860" fill="white"/>
</clipPath>
</defs>
</svg>
