<svg width="1200" height="860" viewBox="0 0 1200 860" fill="none" xmlns="http://www.w3.org/2000/svg">
<g clip-path="url(#clip0_110_33634)">
<path d="M1200 0H0V860H1200V0Z" fill="white"/>
<path d="M1200 698H0V716H1200V698Z" fill="#2A2A2A"/>
<path d="M102 114H46V698H102V114Z" fill="white" stroke="#1A1A1A" stroke-width="2"/>
<path d="M105 104H43V114H105V104Z" fill="white" stroke="#1A1A1A" stroke-width="2"/>
<path opacity="0.55" d="M49 117H99" stroke="#1A1A1A" stroke-width="0.9" stroke-linecap="square"/>
<path opacity="0.55" d="M49 129H99" stroke="#1A1A1A" stroke-width="0.9" stroke-linecap="square"/>
<path opacity="0.55" d="M49 141H99" stroke="#1A1A1A" stroke-width="0.9" stroke-linecap="square"/>
<path opacity="0.55" d="M49 153H99" stroke="#1A1A1A" stroke-width="0.9" stroke-linecap="square"/>
<path opacity="0.55" d="M49 165H99" stroke="#1A1A1A" stroke-width="0.9" stroke-linecap="square"/>
<path opacity="0.55" d="M49 177H99" stroke="#1A1A1A" stroke-width="0.9" stroke-linecap="square"/>
<path opacity="0.55" d="M49 189H99" stroke="#1A1A1A" stroke-width="0.9" stroke-linecap="square"/>
<path opacity="0.55" d="M49 201H99" stroke="#1A1A1A" stroke-width="0.9" stroke-linecap="square"/>
<path opacity="0.55" d="M49 213H99" stroke="#1A1A1A" stroke-width="0.9" stroke-linecap="square"/>
<path opacity="0.55" d="M49 225H99" stroke="#1A1A1A" stroke-width="0.9" stroke-linecap="square"/>
<path opacity="0.55" d="M49 237H99" stroke="#1A1A1A" stroke-width="0.9" stroke-linecap="square"/>
<path opacity="0.55" d="M49 249H99" stroke="#1A1A1A" stroke-width="0.9" stroke-linecap="square"/>
<path opacity="0.55" d="M49 261H99" stroke="#1A1A1A" stroke-width="0.9" stroke-linecap="square"/>
<path opacity="0.55" d="M49 273H99" stroke="#1A1A1A" stroke-width="0.9" stroke-linecap="square"/>
<path opacity="0.55" d="M49 285H99" stroke="#1A1A1A" stroke-width="0.9" stroke-linecap="square"/>
<path opacity="0.55" d="M49 297H99" stroke="#1A1A1A" stroke-width="0.9" stroke-linecap="square"/>
<path opacity="0.55" d="M49 309H99" stroke="#1A1A1A" stroke-width="0.9" stroke-linecap="square"/>
<path opacity="0.55" d="M49 321H99" stroke="#1A1A1A" stroke-width="0.9" stroke-linecap="square"/>
<path opacity="0.55" d="M49 333H99" stroke="#1A1A1A" stroke-width="0.9" stroke-linecap="square"/>
<path opacity="0.55" d="M49 345H99" stroke="#1A1A1A" stroke-width="0.9" stroke-linecap="square"/>
<path opacity="0.55" d="M49 357H99" stroke="#1A1A1A" stroke-width="0.9" stroke-linecap="square"/>
<path opacity="0.55" d="M49 369H99" stroke="#1A1A1A" stroke-width="0.9" stroke-linecap="square"/>
<path opacity="0.55" d="M49 381H99" stroke="#1A1A1A" stroke-width="0.9" stroke-linecap="square"/>
<path opacity="0.55" d="M49 393H99" stroke="#1A1A1A" stroke-width="0.9" stroke-linecap="square"/>
<path opacity="0.55" d="M49 405H99" stroke="#1A1A1A" stroke-width="0.9" stroke-linecap="square"/>
<path opacity="0.55" d="M49 417H99" stroke="#1A1A1A" stroke-width="0.9" stroke-linecap="square"/>
<path opacity="0.55" d="M49 429H99" stroke="#1A1A1A" stroke-width="0.9" stroke-linecap="square"/>
<path opacity="0.55" d="M49 441H99" stroke="#1A1A1A" stroke-width="0.9" stroke-linecap="square"/>
<path opacity="0.55" d="M49 453H99" stroke="#1A1A1A" stroke-width="0.9" stroke-linecap="square"/>
<path opacity="0.55" d="M49 465H99" stroke="#1A1A1A" stroke-width="0.9" stroke-linecap="square"/>
<path opacity="0.55" d="M49 477H99" stroke="#1A1A1A" stroke-width="0.9" stroke-linecap="square"/>
<path opacity="0.55" d="M49 489H99" stroke="#1A1A1A" stroke-width="0.9" stroke-linecap="square"/>
<path opacity="0.55" d="M49 501H99" stroke="#1A1A1A" stroke-width="0.9" stroke-linecap="square"/>
<path opacity="0.55" d="M49 513H99" stroke="#1A1A1A" stroke-width="0.9" stroke-linecap="square"/>
<path opacity="0.55" d="M49 525H99" stroke="#1A1A1A" stroke-width="0.9" stroke-linecap="square"/>
<path opacity="0.55" d="M49 537H99" stroke="#1A1A1A" stroke-width="0.9" stroke-linecap="square"/>
<path opacity="0.55" d="M49 549H99" stroke="#1A1A1A" stroke-width="0.9" stroke-linecap="square"/>
<path opacity="0.55" d="M49 561H99" stroke="#1A1A1A" stroke-width="0.9" stroke-linecap="square"/>
<path opacity="0.55" d="M49 573H99" stroke="#1A1A1A" stroke-width="0.9" stroke-linecap="square"/>
<path opacity="0.55" d="M49 585H99" stroke="#1A1A1A" stroke-width="0.9" stroke-linecap="square"/>
<path opacity="0.55" d="M49 597H99" stroke="#1A1A1A" stroke-width="0.9" stroke-linecap="square"/>
<path opacity="0.55" d="M49 609H99" stroke="#1A1A1A" stroke-width="0.9" stroke-linecap="square"/>
<path opacity="0.55" d="M49 621H99" stroke="#1A1A1A" stroke-width="0.9" stroke-linecap="square"/>
<path opacity="0.55" d="M49 633H99" stroke="#1A1A1A" stroke-width="0.9" stroke-linecap="square"/>
<path opacity="0.55" d="M49 645H99" stroke="#1A1A1A" stroke-width="0.9" stroke-linecap="square"/>
<path opacity="0.55" d="M49 657H99" stroke="#1A1A1A" stroke-width="0.9" stroke-linecap="square"/>
<path opacity="0.55" d="M49 669H99" stroke="#1A1A1A" stroke-width="0.9" stroke-linecap="square"/>
<path opacity="0.55" d="M49 681H99" stroke="#1A1A1A" stroke-width="0.9" stroke-linecap="square"/>
<path opacity="0.55" d="M49 693H99" stroke="#1A1A1A" stroke-width="0.9" stroke-linecap="square"/>
<path opacity="0.55" d="M63 129V141" stroke="#1A1A1A" stroke-width="0.9" stroke-linecap="square"/>
<path opacity="0.55" d="M63 153V165" stroke="#1A1A1A" stroke-width="0.9" stroke-linecap="square"/>
<path opacity="0.55" d="M63 177V189" stroke="#1A1A1A" stroke-width="0.9" stroke-linecap="square"/>
<path opacity="0.55" d="M63 201V213" stroke="#1A1A1A" stroke-width="0.9" stroke-linecap="square"/>
<path opacity="0.55" d="M63 225V237" stroke="#1A1A1A" stroke-width="0.9" stroke-linecap="square"/>
<path opacity="0.55" d="M63 249V261" stroke="#1A1A1A" stroke-width="0.9" stroke-linecap="square"/>
<path opacity="0.55" d="M63 273V285" stroke="#1A1A1A" stroke-width="0.9" stroke-linecap="square"/>
<path opacity="0.55" d="M63 297V309" stroke="#1A1A1A" stroke-width="0.9" stroke-linecap="square"/>
<path opacity="0.55" d="M63 321V333" stroke="#1A1A1A" stroke-width="0.9" stroke-linecap="square"/>
<path opacity="0.55" d="M63 345V357" stroke="#1A1A1A" stroke-width="0.9" stroke-linecap="square"/>
<path opacity="0.55" d="M63 369V381" stroke="#1A1A1A" stroke-width="0.9" stroke-linecap="square"/>
<path opacity="0.55" d="M63 393V405" stroke="#1A1A1A" stroke-width="0.9" stroke-linecap="square"/>
<path opacity="0.55" d="M63 417V429" stroke="#1A1A1A" stroke-width="0.9" stroke-linecap="square"/>
<path opacity="0.55" d="M63 441V453" stroke="#1A1A1A" stroke-width="0.9" stroke-linecap="square"/>
<path opacity="0.55" d="M63 465V477" stroke="#1A1A1A" stroke-width="0.9" stroke-linecap="square"/>
<path opacity="0.55" d="M63 489V501" stroke="#1A1A1A" stroke-width="0.9" stroke-linecap="square"/>
<path opacity="0.55" d="M63 513V525" stroke="#1A1A1A" stroke-width="0.9" stroke-linecap="square"/>
<path opacity="0.55" d="M63 537V549" stroke="#1A1A1A" stroke-width="0.9" stroke-linecap="square"/>
<path opacity="0.55" d="M63 561V573" stroke="#1A1A1A" stroke-width="0.9" stroke-linecap="square"/>
<path opacity="0.55" d="M63 585V597" stroke="#1A1A1A" stroke-width="0.9" stroke-linecap="square"/>
<path opacity="0.55" d="M63 609V621" stroke="#1A1A1A" stroke-width="0.9" stroke-linecap="square"/>
<path opacity="0.55" d="M63 633V645" stroke="#1A1A1A" stroke-width="0.9" stroke-linecap="square"/>
<path opacity="0.55" d="M63 657V669" stroke="#1A1A1A" stroke-width="0.9" stroke-linecap="square"/>
<path opacity="0.55" d="M63 681V693" stroke="#1A1A1A" stroke-width="0.9" stroke-linecap="square"/>
<path opacity="0.55" d="M77 117V129" stroke="#1A1A1A" stroke-width="0.9" stroke-linecap="square"/>
<path opacity="0.55" d="M91 129V141" stroke="#1A1A1A" stroke-width="0.9" stroke-linecap="square"/>
<path opacity="0.55" d="M77 141V153" stroke="#1A1A1A" stroke-width="0.9" stroke-linecap="square"/>
<path opacity="0.55" d="M91 153V165" stroke="#1A1A1A" stroke-width="0.9" stroke-linecap="square"/>
<path opacity="0.55" d="M77 165V177" stroke="#1A1A1A" stroke-width="0.9" stroke-linecap="square"/>
<path opacity="0.55" d="M91 177V189" stroke="#1A1A1A" stroke-width="0.9" stroke-linecap="square"/>
<path opacity="0.55" d="M77 189V201" stroke="#1A1A1A" stroke-width="0.9" stroke-linecap="square"/>
<path opacity="0.55" d="M91 201V213" stroke="#1A1A1A" stroke-width="0.9" stroke-linecap="square"/>
<path opacity="0.55" d="M77 213V225" stroke="#1A1A1A" stroke-width="0.9" stroke-linecap="square"/>
<path opacity="0.55" d="M91 225V237" stroke="#1A1A1A" stroke-width="0.9" stroke-linecap="square"/>
<path opacity="0.55" d="M77 237V249" stroke="#1A1A1A" stroke-width="0.9" stroke-linecap="square"/>
<path opacity="0.55" d="M91 249V261" stroke="#1A1A1A" stroke-width="0.9" stroke-linecap="square"/>
<path opacity="0.55" d="M77 261V273" stroke="#1A1A1A" stroke-width="0.9" stroke-linecap="square"/>
<path opacity="0.55" d="M91 273V285" stroke="#1A1A1A" stroke-width="0.9" stroke-linecap="square"/>
<path opacity="0.55" d="M77 285V297" stroke="#1A1A1A" stroke-width="0.9" stroke-linecap="square"/>
<path opacity="0.55" d="M91 297V309" stroke="#1A1A1A" stroke-width="0.9" stroke-linecap="square"/>
<path opacity="0.55" d="M77 309V321" stroke="#1A1A1A" stroke-width="0.9" stroke-linecap="square"/>
<path opacity="0.55" d="M91 321V333" stroke="#1A1A1A" stroke-width="0.9" stroke-linecap="square"/>
<path opacity="0.55" d="M77 333V345" stroke="#1A1A1A" stroke-width="0.9" stroke-linecap="square"/>
<path opacity="0.55" d="M91 345V357" stroke="#1A1A1A" stroke-width="0.9" stroke-linecap="square"/>
<path opacity="0.55" d="M77 357V369" stroke="#1A1A1A" stroke-width="0.9" stroke-linecap="square"/>
<path opacity="0.55" d="M91 369V381" stroke="#1A1A1A" stroke-width="0.9" stroke-linecap="square"/>
<path opacity="0.55" d="M77 381V393" stroke="#1A1A1A" stroke-width="0.9" stroke-linecap="square"/>
<path opacity="0.55" d="M91 393V405" stroke="#1A1A1A" stroke-width="0.9" stroke-linecap="square"/>
<path opacity="0.55" d="M77 405V417" stroke="#1A1A1A" stroke-width="0.9" stroke-linecap="square"/>
<path opacity="0.55" d="M91 417V429" stroke="#1A1A1A" stroke-width="0.9" stroke-linecap="square"/>
<path opacity="0.55" d="M77 429V441" stroke="#1A1A1A" stroke-width="0.9" stroke-linecap="square"/>
<path opacity="0.55" d="M91 441V453" stroke="#1A1A1A" stroke-width="0.9" stroke-linecap="square"/>
<path opacity="0.55" d="M77 453V465" stroke="#1A1A1A" stroke-width="0.9" stroke-linecap="square"/>
<path opacity="0.55" d="M91 465V477" stroke="#1A1A1A" stroke-width="0.9" stroke-linecap="square"/>
<path opacity="0.55" d="M77 477V489" stroke="#1A1A1A" stroke-width="0.9" stroke-linecap="square"/>
<path opacity="0.55" d="M91 489V501" stroke="#1A1A1A" stroke-width="0.9" stroke-linecap="square"/>
<path opacity="0.55" d="M77 501V513" stroke="#1A1A1A" stroke-width="0.9" stroke-linecap="square"/>
<path opacity="0.55" d="M91 513V525" stroke="#1A1A1A" stroke-width="0.9" stroke-linecap="square"/>
<path opacity="0.55" d="M77 525V537" stroke="#1A1A1A" stroke-width="0.9" stroke-linecap="square"/>
<path opacity="0.55" d="M91 537V549" stroke="#1A1A1A" stroke-width="0.9" stroke-linecap="square"/>
<path opacity="0.55" d="M77 549V561" stroke="#1A1A1A" stroke-width="0.9" stroke-linecap="square"/>
<path opacity="0.55" d="M91 561V573" stroke="#1A1A1A" stroke-width="0.9" stroke-linecap="square"/>
<path opacity="0.55" d="M77 573V585" stroke="#1A1A1A" stroke-width="0.9" stroke-linecap="square"/>
<path opacity="0.55" d="M91 585V597" stroke="#1A1A1A" stroke-width="0.9" stroke-linecap="square"/>
<path opacity="0.55" d="M77 597V609" stroke="#1A1A1A" stroke-width="0.9" stroke-linecap="square"/>
<path opacity="0.55" d="M91 609V621" stroke="#1A1A1A" stroke-width="0.9" stroke-linecap="square"/>
<path opacity="0.55" d="M77 621V633" stroke="#1A1A1A" stroke-width="0.9" stroke-linecap="square"/>
<path opacity="0.55" d="M91 633V645" stroke="#1A1A1A" stroke-width="0.9" stroke-linecap="square"/>
<path opacity="0.55" d="M77 645V657" stroke="#1A1A1A" stroke-width="0.9" stroke-linecap="square"/>
<path opacity="0.55" d="M91 657V669" stroke="#1A1A1A" stroke-width="0.9" stroke-linecap="square"/>
<path opacity="0.55" d="M77 669V681" stroke="#1A1A1A" stroke-width="0.9" stroke-linecap="square"/>
<path opacity="0.55" d="M91 681V693" stroke="#1A1A1A" stroke-width="0.9" stroke-linecap="square"/>
<path opacity="0.55" d="M77 693V695" stroke="#1A1A1A" stroke-width="0.9" stroke-linecap="square"/>
<path d="M1154 114H1098V698H1154V114Z" fill="white" stroke="#1A1A1A" stroke-width="2"/>
<path d="M1157 104H1095V114H1157V104Z" fill="white" stroke="#1A1A1A" stroke-width="2"/>
<path opacity="0.55" d="M1101 117H1151" stroke="#1A1A1A" stroke-width="0.9" stroke-linecap="square"/>
<path opacity="0.55" d="M1101 129H1151" stroke="#1A1A1A" stroke-width="0.9" stroke-linecap="square"/>
<path opacity="0.55" d="M1101 141H1151" stroke="#1A1A1A" stroke-width="0.9" stroke-linecap="square"/>
<path opacity="0.55" d="M1101 153H1151" stroke="#1A1A1A" stroke-width="0.9" stroke-linecap="square"/>
<path opacity="0.55" d="M1101 165H1151" stroke="#1A1A1A" stroke-width="0.9" stroke-linecap="square"/>
<path opacity="0.55" d="M1101 177H1151" stroke="#1A1A1A" stroke-width="0.9" stroke-linecap="square"/>
<path opacity="0.55" d="M1101 189H1151" stroke="#1A1A1A" stroke-width="0.9" stroke-linecap="square"/>
<path opacity="0.55" d="M1101 201H1151" stroke="#1A1A1A" stroke-width="0.9" stroke-linecap="square"/>
<path opacity="0.55" d="M1101 213H1151" stroke="#1A1A1A" stroke-width="0.9" stroke-linecap="square"/>
<path opacity="0.55" d="M1101 225H1151" stroke="#1A1A1A" stroke-width="0.9" stroke-linecap="square"/>
<path opacity="0.55" d="M1101 237H1151" stroke="#1A1A1A" stroke-width="0.9" stroke-linecap="square"/>
<path opacity="0.55" d="M1101 249H1151" stroke="#1A1A1A" stroke-width="0.9" stroke-linecap="square"/>
<path opacity="0.55" d="M1101 261H1151" stroke="#1A1A1A" stroke-width="0.9" stroke-linecap="square"/>
<path opacity="0.55" d="M1101 273H1151" stroke="#1A1A1A" stroke-width="0.9" stroke-linecap="square"/>
<path opacity="0.55" d="M1101 285H1151" stroke="#1A1A1A" stroke-width="0.9" stroke-linecap="square"/>
<path opacity="0.55" d="M1101 297H1151" stroke="#1A1A1A" stroke-width="0.9" stroke-linecap="square"/>
<path opacity="0.55" d="M1101 309H1151" stroke="#1A1A1A" stroke-width="0.9" stroke-linecap="square"/>
<path opacity="0.55" d="M1101 321H1151" stroke="#1A1A1A" stroke-width="0.9" stroke-linecap="square"/>
<path opacity="0.55" d="M1101 333H1151" stroke="#1A1A1A" stroke-width="0.9" stroke-linecap="square"/>
<path opacity="0.55" d="M1101 345H1151" stroke="#1A1A1A" stroke-width="0.9" stroke-linecap="square"/>
<path opacity="0.55" d="M1101 357H1151" stroke="#1A1A1A" stroke-width="0.9" stroke-linecap="square"/>
<path opacity="0.55" d="M1101 369H1151" stroke="#1A1A1A" stroke-width="0.9" stroke-linecap="square"/>
<path opacity="0.55" d="M1101 381H1151" stroke="#1A1A1A" stroke-width="0.9" stroke-linecap="square"/>
<path opacity="0.55" d="M1101 393H1151" stroke="#1A1A1A" stroke-width="0.9" stroke-linecap="square"/>
<path opacity="0.55" d="M1101 405H1151" stroke="#1A1A1A" stroke-width="0.9" stroke-linecap="square"/>
<path opacity="0.55" d="M1101 417H1151" stroke="#1A1A1A" stroke-width="0.9" stroke-linecap="square"/>
<path opacity="0.55" d="M1101 429H1151" stroke="#1A1A1A" stroke-width="0.9" stroke-linecap="square"/>
<path opacity="0.55" d="M1101 441H1151" stroke="#1A1A1A" stroke-width="0.9" stroke-linecap="square"/>
<path opacity="0.55" d="M1101 453H1151" stroke="#1A1A1A" stroke-width="0.9" stroke-linecap="square"/>
<path opacity="0.55" d="M1101 465H1151" stroke="#1A1A1A" stroke-width="0.9" stroke-linecap="square"/>
<path opacity="0.55" d="M1101 477H1151" stroke="#1A1A1A" stroke-width="0.9" stroke-linecap="square"/>
<path opacity="0.55" d="M1101 489H1151" stroke="#1A1A1A" stroke-width="0.9" stroke-linecap="square"/>
<path opacity="0.55" d="M1101 501H1151" stroke="#1A1A1A" stroke-width="0.9" stroke-linecap="square"/>
<path opacity="0.55" d="M1101 513H1151" stroke="#1A1A1A" stroke-width="0.9" stroke-linecap="square"/>
<path opacity="0.55" d="M1101 525H1151" stroke="#1A1A1A" stroke-width="0.9" stroke-linecap="square"/>
<path opacity="0.55" d="M1101 537H1151" stroke="#1A1A1A" stroke-width="0.9" stroke-linecap="square"/>
<path opacity="0.55" d="M1101 549H1151" stroke="#1A1A1A" stroke-width="0.9" stroke-linecap="square"/>
<path opacity="0.55" d="M1101 561H1151" stroke="#1A1A1A" stroke-width="0.9" stroke-linecap="square"/>
<path opacity="0.55" d="M1101 573H1151" stroke="#1A1A1A" stroke-width="0.9" stroke-linecap="square"/>
<path opacity="0.55" d="M1101 585H1151" stroke="#1A1A1A" stroke-width="0.9" stroke-linecap="square"/>
<path opacity="0.55" d="M1101 597H1151" stroke="#1A1A1A" stroke-width="0.9" stroke-linecap="square"/>
<path opacity="0.55" d="M1101 609H1151" stroke="#1A1A1A" stroke-width="0.9" stroke-linecap="square"/>
<path opacity="0.55" d="M1101 621H1151" stroke="#1A1A1A" stroke-width="0.9" stroke-linecap="square"/>
<path opacity="0.55" d="M1101 633H1151" stroke="#1A1A1A" stroke-width="0.9" stroke-linecap="square"/>
<path opacity="0.55" d="M1101 645H1151" stroke="#1A1A1A" stroke-width="0.9" stroke-linecap="square"/>
<path opacity="0.55" d="M1101 657H1151" stroke="#1A1A1A" stroke-width="0.9" stroke-linecap="square"/>
<path opacity="0.55" d="M1101 669H1151" stroke="#1A1A1A" stroke-width="0.9" stroke-linecap="square"/>
<path opacity="0.55" d="M1101 681H1151" stroke="#1A1A1A" stroke-width="0.9" stroke-linecap="square"/>
<path opacity="0.55" d="M1101 693H1151" stroke="#1A1A1A" stroke-width="0.9" stroke-linecap="square"/>
<path opacity="0.55" d="M1115 129V141" stroke="#1A1A1A" stroke-width="0.9" stroke-linecap="square"/>
<path opacity="0.55" d="M1115 153V165" stroke="#1A1A1A" stroke-width="0.9" stroke-linecap="square"/>
<path opacity="0.55" d="M1115 177V189" stroke="#1A1A1A" stroke-width="0.9" stroke-linecap="square"/>
<path opacity="0.55" d="M1115 201V213" stroke="#1A1A1A" stroke-width="0.9" stroke-linecap="square"/>
<path opacity="0.55" d="M1115 225V237" stroke="#1A1A1A" stroke-width="0.9" stroke-linecap="square"/>
<path opacity="0.55" d="M1115 249V261" stroke="#1A1A1A" stroke-width="0.9" stroke-linecap="square"/>
<path opacity="0.55" d="M1115 273V285" stroke="#1A1A1A" stroke-width="0.9" stroke-linecap="square"/>
<path opacity="0.55" d="M1115 297V309" stroke="#1A1A1A" stroke-width="0.9" stroke-linecap="square"/>
<path opacity="0.55" d="M1115 321V333" stroke="#1A1A1A" stroke-width="0.9" stroke-linecap="square"/>
<path opacity="0.55" d="M1115 345V357" stroke="#1A1A1A" stroke-width="0.9" stroke-linecap="square"/>
<path opacity="0.55" d="M1115 369V381" stroke="#1A1A1A" stroke-width="0.9" stroke-linecap="square"/>
<path opacity="0.55" d="M1115 393V405" stroke="#1A1A1A" stroke-width="0.9" stroke-linecap="square"/>
<path opacity="0.55" d="M1115 417V429" stroke="#1A1A1A" stroke-width="0.9" stroke-linecap="square"/>
<path opacity="0.55" d="M1115 441V453" stroke="#1A1A1A" stroke-width="0.9" stroke-linecap="square"/>
<path opacity="0.55" d="M1115 465V477" stroke="#1A1A1A" stroke-width="0.9" stroke-linecap="square"/>
<path opacity="0.55" d="M1115 489V501" stroke="#1A1A1A" stroke-width="0.9" stroke-linecap="square"/>
<path opacity="0.55" d="M1115 513V525" stroke="#1A1A1A" stroke-width="0.9" stroke-linecap="square"/>
<path opacity="0.55" d="M1115 537V549" stroke="#1A1A1A" stroke-width="0.9" stroke-linecap="square"/>
<path opacity="0.55" d="M1115 561V573" stroke="#1A1A1A" stroke-width="0.9" stroke-linecap="square"/>
<path opacity="0.55" d="M1115 585V597" stroke="#1A1A1A" stroke-width="0.9" stroke-linecap="square"/>
<path opacity="0.55" d="M1115 609V621" stroke="#1A1A1A" stroke-width="0.9" stroke-linecap="square"/>
<path opacity="0.55" d="M1115 633V645" stroke="#1A1A1A" stroke-width="0.9" stroke-linecap="square"/>
<path opacity="0.55" d="M1115 657V669" stroke="#1A1A1A" stroke-width="0.9" stroke-linecap="square"/>
<path opacity="0.55" d="M1115 681V693" stroke="#1A1A1A" stroke-width="0.9" stroke-linecap="square"/>
<path opacity="0.55" d="M1129 117V129" stroke="#1A1A1A" stroke-width="0.9" stroke-linecap="square"/>
<path opacity="0.55" d="M1143 129V141" stroke="#1A1A1A" stroke-width="0.9" stroke-linecap="square"/>
<path opacity="0.55" d="M1129 141V153" stroke="#1A1A1A" stroke-width="0.9" stroke-linecap="square"/>
<path opacity="0.55" d="M1143 153V165" stroke="#1A1A1A" stroke-width="0.9" stroke-linecap="square"/>
<path opacity="0.55" d="M1129 165V177" stroke="#1A1A1A" stroke-width="0.9" stroke-linecap="square"/>
<path opacity="0.55" d="M1143 177V189" stroke="#1A1A1A" stroke-width="0.9" stroke-linecap="square"/>
<path opacity="0.55" d="M1129 189V201" stroke="#1A1A1A" stroke-width="0.9" stroke-linecap="square"/>
<path opacity="0.55" d="M1143 201V213" stroke="#1A1A1A" stroke-width="0.9" stroke-linecap="square"/>
<path opacity="0.55" d="M1129 213V225" stroke="#1A1A1A" stroke-width="0.9" stroke-linecap="square"/>
<path opacity="0.55" d="M1143 225V237" stroke="#1A1A1A" stroke-width="0.9" stroke-linecap="square"/>
<path opacity="0.55" d="M1129 237V249" stroke="#1A1A1A" stroke-width="0.9" stroke-linecap="square"/>
<path opacity="0.55" d="M1143 249V261" stroke="#1A1A1A" stroke-width="0.9" stroke-linecap="square"/>
<path opacity="0.55" d="M1129 261V273" stroke="#1A1A1A" stroke-width="0.9" stroke-linecap="square"/>
<path opacity="0.55" d="M1143 273V285" stroke="#1A1A1A" stroke-width="0.9" stroke-linecap="square"/>
<path opacity="0.55" d="M1129 285V297" stroke="#1A1A1A" stroke-width="0.9" stroke-linecap="square"/>
<path opacity="0.55" d="M1143 297V309" stroke="#1A1A1A" stroke-width="0.9" stroke-linecap="square"/>
<path opacity="0.55" d="M1129 309V321" stroke="#1A1A1A" stroke-width="0.9" stroke-linecap="square"/>
<path opacity="0.55" d="M1143 321V333" stroke="#1A1A1A" stroke-width="0.9" stroke-linecap="square"/>
<path opacity="0.55" d="M1129 333V345" stroke="#1A1A1A" stroke-width="0.9" stroke-linecap="square"/>
<path opacity="0.55" d="M1143 345V357" stroke="#1A1A1A" stroke-width="0.9" stroke-linecap="square"/>
<path opacity="0.55" d="M1129 357V369" stroke="#1A1A1A" stroke-width="0.9" stroke-linecap="square"/>
<path opacity="0.55" d="M1143 369V381" stroke="#1A1A1A" stroke-width="0.9" stroke-linecap="square"/>
<path opacity="0.55" d="M1129 381V393" stroke="#1A1A1A" stroke-width="0.9" stroke-linecap="square"/>
<path opacity="0.55" d="M1143 393V405" stroke="#1A1A1A" stroke-width="0.9" stroke-linecap="square"/>
<path opacity="0.55" d="M1129 405V417" stroke="#1A1A1A" stroke-width="0.9" stroke-linecap="square"/>
<path opacity="0.55" d="M1143 417V429" stroke="#1A1A1A" stroke-width="0.9" stroke-linecap="square"/>
<path opacity="0.55" d="M1129 429V441" stroke="#1A1A1A" stroke-width="0.9" stroke-linecap="square"/>
<path opacity="0.55" d="M1143 441V453" stroke="#1A1A1A" stroke-width="0.9" stroke-linecap="square"/>
<path opacity="0.55" d="M1129 453V465" stroke="#1A1A1A" stroke-width="0.9" stroke-linecap="square"/>
<path opacity="0.55" d="M1143 465V477" stroke="#1A1A1A" stroke-width="0.9" stroke-linecap="square"/>
<path opacity="0.55" d="M1129 477V489" stroke="#1A1A1A" stroke-width="0.9" stroke-linecap="square"/>
<path opacity="0.55" d="M1143 489V501" stroke="#1A1A1A" stroke-width="0.9" stroke-linecap="square"/>
<path opacity="0.55" d="M1129 501V513" stroke="#1A1A1A" stroke-width="0.9" stroke-linecap="square"/>
<path opacity="0.55" d="M1143 513V525" stroke="#1A1A1A" stroke-width="0.9" stroke-linecap="square"/>
<path opacity="0.55" d="M1129 525V537" stroke="#1A1A1A" stroke-width="0.9" stroke-linecap="square"/>
<path opacity="0.55" d="M1143 537V549" stroke="#1A1A1A" stroke-width="0.9" stroke-linecap="square"/>
<path opacity="0.55" d="M1129 549V561" stroke="#1A1A1A" stroke-width="0.9" stroke-linecap="square"/>
<path opacity="0.55" d="M1143 561V573" stroke="#1A1A1A" stroke-width="0.9" stroke-linecap="square"/>
<path opacity="0.55" d="M1129 573V585" stroke="#1A1A1A" stroke-width="0.9" stroke-linecap="square"/>
<path opacity="0.55" d="M1143 585V597" stroke="#1A1A1A" stroke-width="0.9" stroke-linecap="square"/>
<path opacity="0.55" d="M1129 597V609" stroke="#1A1A1A" stroke-width="0.9" stroke-linecap="square"/>
<path opacity="0.55" d="M1143 609V621" stroke="#1A1A1A" stroke-width="0.9" stroke-linecap="square"/>
<path opacity="0.55" d="M1129 621V633" stroke="#1A1A1A" stroke-width="0.9" stroke-linecap="square"/>
<path opacity="0.55" d="M1143 633V645" stroke="#1A1A1A" stroke-width="0.9" stroke-linecap="square"/>
<path opacity="0.55" d="M1129 645V657" stroke="#1A1A1A" stroke-width="0.9" stroke-linecap="square"/>
<path opacity="0.55" d="M1143 657V669" stroke="#1A1A1A" stroke-width="0.9" stroke-linecap="square"/>
<path opacity="0.55" d="M1129 669V681" stroke="#1A1A1A" stroke-width="0.9" stroke-linecap="square"/>
<path opacity="0.55" d="M1143 681V693" stroke="#1A1A1A" stroke-width="0.9" stroke-linecap="square"/>
<path opacity="0.55" d="M1129 693V695" stroke="#1A1A1A" stroke-width="0.9" stroke-linecap="square"/>
<path d="M596 150H120V670H596V150Z" stroke="#1A1A1A" stroke-width="2.2"/>
<path d="M120 165L596 163.987" stroke="#1A1A1A" stroke-width="1.4" stroke-linecap="square"/>
<path d="M121 656L596 656" stroke="#1A1A1A" stroke-width="1.4" stroke-linecap="square"/>
<path d="M122 399L595 400.004" stroke="#1A1A1A" stroke-width="1.4" stroke-linecap="square"/>
<path d="M157 165L157 656" stroke="#1A1A1A" stroke-width="1.4" stroke-linecap="square"/>
<path d="M194 165L194 656" stroke="#1A1A1A" stroke-width="1.4" stroke-linecap="square"/>
<path d="M231 165L231 656" stroke="#1A1A1A" stroke-width="1.4" stroke-linecap="square"/>
<path d="M268 165L268 656" stroke="#1A1A1A" stroke-width="1.4" stroke-linecap="square"/>
<path d="M305 165L305 656" stroke="#1A1A1A" stroke-width="1.4" stroke-linecap="square"/>
<path d="M342 165L342 656" stroke="#1A1A1A" stroke-width="1.4" stroke-linecap="square"/>
<path d="M379 165L379 656" stroke="#1A1A1A" stroke-width="1.4" stroke-linecap="square"/>
<path d="M416 165L416 656" stroke="#1A1A1A" stroke-width="1.4" stroke-linecap="square"/>
<path d="M453 165L453 656" stroke="#1A1A1A" stroke-width="1.4" stroke-linecap="square"/>
<path d="M490 165L490 656" stroke="#1A1A1A" stroke-width="1.4" stroke-linecap="square"/>
<path d="M527 165L527 656" stroke="#1A1A1A" stroke-width="1.4" stroke-linecap="square"/>
<path d="M564 165L564 656" stroke="#1A1A1A" stroke-width="1.4" stroke-linecap="square"/>
<path d="M634 163L634 654" stroke="#1A1A1A" stroke-width="1.4" stroke-linecap="square"/>
<path d="M671 163L671 654" stroke="#1A1A1A" stroke-width="1.4" stroke-linecap="square"/>
<path d="M708 163L708 654" stroke="#1A1A1A" stroke-width="1.4" stroke-linecap="square"/>
<path d="M745 163L745 654" stroke="#1A1A1A" stroke-width="1.4" stroke-linecap="square"/>
<path d="M782 163L782 654" stroke="#1A1A1A" stroke-width="1.4" stroke-linecap="square"/>
<path d="M819 163L819 654" stroke="#1A1A1A" stroke-width="1.4" stroke-linecap="square"/>
<path d="M856 163L856 654" stroke="#1A1A1A" stroke-width="1.4" stroke-linecap="square"/>
<path d="M893 163L893 654" stroke="#1A1A1A" stroke-width="1.4" stroke-linecap="square"/>
<path d="M930 163L930 654" stroke="#1A1A1A" stroke-width="1.4" stroke-linecap="square"/>
<path d="M967 163L967 654" stroke="#1A1A1A" stroke-width="1.4" stroke-linecap="square"/>
<path d="M1004 163L1004 654" stroke="#1A1A1A" stroke-width="1.4" stroke-linecap="square"/>
<path d="M1041 163L1041 654" stroke="#1A1A1A" stroke-width="1.4" stroke-linecap="square"/>
<path d="M120 206.4H110V218.4H120V206.4Z" stroke="#1A1A1A" stroke-width="1.6"/>
<path d="M120 601.6H110V613.6H120V601.6Z" stroke="#1A1A1A" stroke-width="1.6"/>
<path d="M1080 150H604V670H1080V150Z" stroke="#1A1A1A" stroke-width="2.2"/>
<path d="M605 164L1079 162.991" stroke="#1A1A1A" stroke-width="1.4" stroke-linecap="square"/>
<path d="M605 656L1080 656" stroke="#1A1A1A" stroke-width="1.4" stroke-linecap="square"/>
<path d="M604 400L1080 398.994" stroke="#1A1A1A" stroke-width="1.4" stroke-linecap="square"/>
<path d="M1090 206.4H1080V218.4H1090V206.4Z" stroke="#1A1A1A" stroke-width="1.6"/>
<path d="M1090 601.6H1080V613.6H1090V601.6Z" stroke="#1A1A1A" stroke-width="1.6"/>
<path d="M162 283H152V286.5H162V283Z" stroke="#1A1A1A" stroke-width="1.3"/>
<path d="M163 286.5H151V290.7H163V286.5Z" stroke="#1A1A1A" stroke-width="1.3"/>
<path d="M164 290.7H150V296.3H164V290.7Z" stroke="#1A1A1A" stroke-width="1.3"/>
<path d="M163 296.3H151V300.5H163V296.3Z" stroke="#1A1A1A" stroke-width="1.3"/>
<path d="M162 300.5H152V304H162V300.5Z" stroke="#1A1A1A" stroke-width="1.3"/>
<path d="M236 283H226V286.5H236V283Z" stroke="#1A1A1A" stroke-width="1.3"/>
<path d="M237 286.5H225V290.7H237V286.5Z" stroke="#1A1A1A" stroke-width="1.3"/>
<path d="M238 290.7H224V296.3H238V290.7Z" stroke="#1A1A1A" stroke-width="1.3"/>
<path d="M237 296.3H225V300.5H237V296.3Z" stroke="#1A1A1A" stroke-width="1.3"/>
<path d="M236 300.5H226V304H236V300.5Z" stroke="#1A1A1A" stroke-width="1.3"/>
<path d="M310 283H300V286.5H310V283Z" stroke="#1A1A1A" stroke-width="1.3"/>
<path d="M311 286.5H299V290.7H311V286.5Z" stroke="#1A1A1A" stroke-width="1.3"/>
<path d="M312 290.7H298V296.3H312V290.7Z" stroke="#1A1A1A" stroke-width="1.3"/>
<path d="M311 296.3H299V300.5H311V296.3Z" stroke="#1A1A1A" stroke-width="1.3"/>
<path d="M310 300.5H300V304H310V300.5Z" stroke="#1A1A1A" stroke-width="1.3"/>
<path d="M384 283H374V286.5H384V283Z" stroke="#1A1A1A" stroke-width="1.3"/>
<path d="M385 286.5H373V290.7H385V286.5Z" stroke="#1A1A1A" stroke-width="1.3"/>
<path d="M386 290.7H372V296.3H386V290.7Z" stroke="#1A1A1A" stroke-width="1.3"/>
<path d="M385 296.3H373V300.5H385V296.3Z" stroke="#1A1A1A" stroke-width="1.3"/>
<path d="M384 300.5H374V304H384V300.5Z" stroke="#1A1A1A" stroke-width="1.3"/>
<path d="M458 283H448V286.5H458V283Z" stroke="#1A1A1A" stroke-width="1.3"/>
<path d="M459 286.5H447V290.7H459V286.5Z" stroke="#1A1A1A" stroke-width="1.3"/>
<path d="M460 290.7H446V296.3H460V290.7Z" stroke="#1A1A1A" stroke-width="1.3"/>
<path d="M459 296.3H447V300.5H459V296.3Z" stroke="#1A1A1A" stroke-width="1.3"/>
<path d="M458 300.5H448V304H458V300.5Z" stroke="#1A1A1A" stroke-width="1.3"/>
<path d="M532 283H522V286.5H532V283Z" stroke="#1A1A1A" stroke-width="1.3"/>
<path d="M533 286.5H521V290.7H533V286.5Z" stroke="#1A1A1A" stroke-width="1.3"/>
<path d="M534 290.7H520V296.3H534V290.7Z" stroke="#1A1A1A" stroke-width="1.3"/>
<path d="M533 296.3H521V300.5H533V296.3Z" stroke="#1A1A1A" stroke-width="1.3"/>
<path d="M532 300.5H522V304H532V300.5Z" stroke="#1A1A1A" stroke-width="1.3"/>
<path d="M676 283H666V286.5H676V283Z" stroke="#1A1A1A" stroke-width="1.3"/>
<path d="M677 286.5H665V290.7H677V286.5Z" stroke="#1A1A1A" stroke-width="1.3"/>
<path d="M678 290.7H664V296.3H678V290.7Z" stroke="#1A1A1A" stroke-width="1.3"/>
<path d="M677 296.3H665V300.5H677V296.3Z" stroke="#1A1A1A" stroke-width="1.3"/>
<path d="M676 300.5H666V304H676V300.5Z" stroke="#1A1A1A" stroke-width="1.3"/>
<path d="M750 283H740V286.5H750V283Z" stroke="#1A1A1A" stroke-width="1.3"/>
<path d="M751 286.5H739V290.7H751V286.5Z" stroke="#1A1A1A" stroke-width="1.3"/>
<path d="M752 290.7H738V296.3H752V290.7Z" stroke="#1A1A1A" stroke-width="1.3"/>
<path d="M751 296.3H739V300.5H751V296.3Z" stroke="#1A1A1A" stroke-width="1.3"/>
<path d="M750 300.5H740V304H750V300.5Z" stroke="#1A1A1A" stroke-width="1.3"/>
<path d="M824 283H814V286.5H824V283Z" stroke="#1A1A1A" stroke-width="1.3"/>
<path d="M825 286.5H813V290.7H825V286.5Z" stroke="#1A1A1A" stroke-width="1.3"/>
<path d="M826 290.7H812V296.3H826V290.7Z" stroke="#1A1A1A" stroke-width="1.3"/>
<path d="M825 296.3H813V300.5H825V296.3Z" stroke="#1A1A1A" stroke-width="1.3"/>
<path d="M824 300.5H814V304H824V300.5Z" stroke="#1A1A1A" stroke-width="1.3"/>
<path d="M898 283H888V286.5H898V283Z" stroke="#1A1A1A" stroke-width="1.3"/>
<path d="M899 286.5H887V290.7H899V286.5Z" stroke="#1A1A1A" stroke-width="1.3"/>
<path d="M900 290.7H886V296.3H900V290.7Z" stroke="#1A1A1A" stroke-width="1.3"/>
<path d="M899 296.3H887V300.5H899V296.3Z" stroke="#1A1A1A" stroke-width="1.3"/>
<path d="M898 300.5H888V304H898V300.5Z" stroke="#1A1A1A" stroke-width="1.3"/>
<path d="M972 283H962V286.5H972V283Z" stroke="#1A1A1A" stroke-width="1.3"/>
<path d="M973 286.5H961V290.7H973V286.5Z" stroke="#1A1A1A" stroke-width="1.3"/>
<path d="M974 290.7H960V296.3H974V290.7Z" stroke="#1A1A1A" stroke-width="1.3"/>
<path d="M973 296.3H961V300.5H973V296.3Z" stroke="#1A1A1A" stroke-width="1.3"/>
<path d="M972 300.5H962V304H972V300.5Z" stroke="#1A1A1A" stroke-width="1.3"/>
<path d="M1046 283H1036V286.5H1046V283Z" stroke="#1A1A1A" stroke-width="1.3"/>
<path d="M1047 286.5H1035V290.7H1047V286.5Z" stroke="#1A1A1A" stroke-width="1.3"/>
<path d="M1048 290.7H1034V296.3H1048V290.7Z" stroke="#1A1A1A" stroke-width="1.3"/>
<path d="M1047 296.3H1035V300.5H1047V296.3Z" stroke="#1A1A1A" stroke-width="1.3"/>
<path d="M1046 300.5H1036V304H1046V300.5Z" stroke="#1A1A1A" stroke-width="1.3"/>
</g>
<defs>
<clipPath id="clip0_110_33634">
<rect width="1200" height="860" fill="white"/>
</clipPath>
</defs>
</svg>
