<svg xmlns="http://www.w3.org/2000/svg" viewBox="0 0 1200 860" width="1200" height="860">
  <title>tracked sliding preview</title>
  <desc>2500 mm opening · 1000 mm high · traditional victorian · Black satin. Figma CAD silhouette — no baked millimetres on the drawing. Tracked closed elevation: leaf fills 100% of clear opening between posts (no fake gap). Ground track under the opening; runback / motor pad drawn OUTSIDE beyond the parking post.</desc>
  <rect id="cad-paper" x="0" y="0" width="1200" height="860" fill="#FFFFFF" stroke="none" />
  <rect id="cad-ground-bar" x="0" y="698" width="1188" height="18" fill="#2A2A2A" stroke="none" />
  <rect id="cad-left-pillar" x="46" y="114" width="56" height="584" rx="0" fill="#FFFFFF" stroke="#1A1A1A" stroke-width="2" />
  <rect id="cad-left-pillar-cap" x="43" y="104" width="62" height="10" rx="0" fill="#FFFFFF" stroke="#1A1A1A" stroke-width="2" />
  <line id="cad-left-pillar-bed-0" x1="49" y1="117" x2="99" y2="117" stroke="#1A1A1A" stroke-width="0.9" stroke-linecap="square" opacity="0.55" />
  <line id="cad-left-pillar-bed-1" x1="49" y1="129" x2="99" y2="129" stroke="#1A1A1A" stroke-width="0.9" stroke-linecap="square" opacity="0.55" />
  <line id="cad-left-pillar-bed-2" x1="49" y1="141" x2="99" y2="141" stroke="#1A1A1A" stroke-width="0.9" stroke-linecap="square" opacity="0.55" />
  <line id="cad-left-pillar-bed-3" x1="49" y1="153" x2="99" y2="153" stroke="#1A1A1A" stroke-width="0.9" stroke-linecap="square" opacity="0.55" />
  <line id="cad-left-pillar-bed-4" x1="49" y1="165" x2="99" y2="165" stroke="#1A1A1A" stroke-width="0.9" stroke-linecap="square" opacity="0.55" />
  <line id="cad-left-pillar-bed-5" x1="49" y1="177" x2="99" y2="177" stroke="#1A1A1A" stroke-width="0.9" stroke-linecap="square" opacity="0.55" />
  <line id="cad-left-pillar-bed-6" x1="49" y1="189" x2="99" y2="189" stroke="#1A1A1A" stroke-width="0.9" stroke-linecap="square" opacity="0.55" />
  <line id="cad-left-pillar-bed-7" x1="49" y1="201" x2="99" y2="201" stroke="#1A1A1A" stroke-width="0.9" stroke-linecap="square" opacity="0.55" />
  <line id="cad-left-pillar-bed-8" x1="49" y1="213" x2="99" y2="213" stroke="#1A1A1A" stroke-width="0.9" stroke-linecap="square" opacity="0.55" />
  <line id="cad-left-pillar-bed-9" x1="49" y1="225" x2="99" y2="225" stroke="#1A1A1A" stroke-width="0.9" stroke-linecap="square" opacity="0.55" />
  <line id="cad-left-pillar-bed-10" x1="49" y1="237" x2="99" y2="237" stroke="#1A1A1A" stroke-width="0.9" stroke-linecap="square" opacity="0.55" />
  <line id="cad-left-pillar-bed-11" x1="49" y1="249" x2="99" y2="249" stroke="#1A1A1A" stroke-width="0.9" stroke-linecap="square" opacity="0.55" />
  <line id="cad-left-pillar-bed-12" x1="49" y1="261" x2="99" y2="261" stroke="#1A1A1A" stroke-width="0.9" stroke-linecap="square" opacity="0.55" />
  <line id="cad-left-pillar-bed-13" x1="49" y1="273" x2="99" y2="273" stroke="#1A1A1A" stroke-width="0.9" stroke-linecap="square" opacity="0.55" />
  <line id="cad-left-pillar-bed-14" x1="49" y1="285" x2="99" y2="285" stroke="#1A1A1A" stroke-width="0.9" stroke-linecap="square" opacity="0.55" />
  <line id="cad-left-pillar-bed-15" x1="49" y1="297" x2="99" y2="297" stroke="#1A1A1A" stroke-width="0.9" stroke-linecap="square" opacity="0.55" />
  <line id="cad-left-pillar-bed-16" x1="49" y1="309" x2="99" y2="309" stroke="#1A1A1A" stroke-width="0.9" stroke-linecap="square" opacity="0.55" />
  <line id="cad-left-pillar-bed-17" x1="49" y1="321" x2="99" y2="321" stroke="#1A1A1A" stroke-width="0.9" stroke-linecap="square" opacity="0.55" />
  <line id="cad-left-pillar-bed-18" x1="49" y1="333" x2="99" y2="333" stroke="#1A1A1A" stroke-width="0.9" stroke-linecap="square" opacity="0.55" />
  <line id="cad-left-pillar-bed-19" x1="49" y1="345" x2="99" y2="345" stroke="#1A1A1A" stroke-width="0.9" stroke-linecap="square" opacity="0.55" />
  <line id="cad-left-pillar-bed-20" x1="49" y1="357" x2="99" y2="357" stroke="#1A1A1A" stroke-width="0.9" stroke-linecap="square" opacity="0.55" />
  <line id="cad-left-pillar-bed-21" x1="49" y1="369" x2="99" y2="369" stroke="#1A1A1A" stroke-width="0.9" stroke-linecap="square" opacity="0.55" />
  <line id="cad-left-pillar-bed-22" x1="49" y1="381" x2="99" y2="381" stroke="#1A1A1A" stroke-width="0.9" stroke-linecap="square" opacity="0.55" />
  <line id="cad-left-pillar-bed-23" x1="49" y1="393" x2="99" y2="393" stroke="#1A1A1A" stroke-width="0.9" stroke-linecap="square" opacity="0.55" />
  <line id="cad-left-pillar-bed-24" x1="49" y1="405" x2="99" y2="405" stroke="#1A1A1A" stroke-width="0.9" stroke-linecap="square" opacity="0.55" />
  <line id="cad-left-pillar-bed-25" x1="49" y1="417" x2="99" y2="417" stroke="#1A1A1A" stroke-width="0.9" stroke-linecap="square" opacity="0.55" />
  <line id="cad-left-pillar-bed-26" x1="49" y1="429" x2="99" y2="429" stroke="#1A1A1A" stroke-width="0.9" stroke-linecap="square" opacity="0.55" />
  <line id="cad-left-pillar-bed-27" x1="49" y1="441" x2="99" y2="441" stroke="#1A1A1A" stroke-width="0.9" stroke-linecap="square" opacity="0.55" />
  <line id="cad-left-pillar-bed-28" x1="49" y1="453" x2="99" y2="453" stroke="#1A1A1A" stroke-width="0.9" stroke-linecap="square" opacity="0.55" />
  <line id="cad-left-pillar-bed-29" x1="49" y1="465" x2="99" y2="465" stroke="#1A1A1A" stroke-width="0.9" stroke-linecap="square" opacity="0.55" />
  <line id="cad-left-pillar-bed-30" x1="49" y1="477" x2="99" y2="477" stroke="#1A1A1A" stroke-width="0.9" stroke-linecap="square" opacity="0.55" />
  <line id="cad-left-pillar-bed-31" x1="49" y1="489" x2="99" y2="489" stroke="#1A1A1A" stroke-width="0.9" stroke-linecap="square" opacity="0.55" />
  <line id="cad-left-pillar-bed-32" x1="49" y1="501" x2="99" y2="501" stroke="#1A1A1A" stroke-width="0.9" stroke-linecap="square" opacity="0.55" />
  <line id="cad-left-pillar-bed-33" x1="49" y1="513" x2="99" y2="513" stroke="#1A1A1A" stroke-width="0.9" stroke-linecap="square" opacity="0.55" />
  <line id="cad-left-pillar-bed-34" x1="49" y1="525" x2="99" y2="525" stroke="#1A1A1A" stroke-width="0.9" stroke-linecap="square" opacity="0.55" />
  <line id="cad-left-pillar-bed-35" x1="49" y1="537" x2="99" y2="537" stroke="#1A1A1A" stroke-width="0.9" stroke-linecap="square" opacity="0.55" />
  <line id="cad-left-pillar-bed-36" x1="49" y1="549" x2="99" y2="549" stroke="#1A1A1A" stroke-width="0.9" stroke-linecap="square" opacity="0.55" />
  <line id="cad-left-pillar-bed-37" x1="49" y1="561" x2="99" y2="561" stroke="#1A1A1A" stroke-width="0.9" stroke-linecap="square" opacity="0.55" />
  <line id="cad-left-pillar-bed-38" x1="49" y1="573" x2="99" y2="573" stroke="#1A1A1A" stroke-width="0.9" stroke-linecap="square" opacity="0.55" />
  <line id="cad-left-pillar-bed-39" x1="49" y1="585" x2="99" y2="585" stroke="#1A1A1A" stroke-width="0.9" stroke-linecap="square" opacity="0.55" />
  <line id="cad-left-pillar-bed-40" x1="49" y1="597" x2="99" y2="597" stroke="#1A1A1A" stroke-width="0.9" stroke-linecap="square" opacity="0.55" />
  <line id="cad-left-pillar-bed-41" x1="49" y1="609" x2="99" y2="609" stroke="#1A1A1A" stroke-width="0.9" stroke-linecap="square" opacity="0.55" />
  <line id="cad-left-pillar-bed-42" x1="49" y1="621" x2="99" y2="621" stroke="#1A1A1A" stroke-width="0.9" stroke-linecap="square" opacity="0.55" />
  <line id="cad-left-pillar-bed-43" x1="49" y1="633" x2="99" y2="633" stroke="#1A1A1A" stroke-width="0.9" stroke-linecap="square" opacity="0.55" />
  <line id="cad-left-pillar-bed-44" x1="49" y1="645" x2="99" y2="645" stroke="#1A1A1A" stroke-width="0.9" stroke-linecap="square" opacity="0.55" />
  <line id="cad-left-pillar-bed-45" x1="49" y1="657" x2="99" y2="657" stroke="#1A1A1A" stroke-width="0.9" stroke-linecap="square" opacity="0.55" />
  <line id="cad-left-pillar-bed-46" x1="49" y1="669" x2="99" y2="669" stroke="#1A1A1A" stroke-width="0.9" stroke-linecap="square" opacity="0.55" />
  <line id="cad-left-pillar-bed-47" x1="49" y1="681" x2="99" y2="681" stroke="#1A1A1A" stroke-width="0.9" stroke-linecap="square" opacity="0.55" />
  <line id="cad-left-pillar-bed-48" x1="49" y1="693" x2="99" y2="693" stroke="#1A1A1A" stroke-width="0.9" stroke-linecap="square" opacity="0.55" />
  <line id="cad-left-pillar-head-0-1" x1="63" y1="129" x2="63" y2="141" stroke="#1A1A1A" stroke-width="0.9" stroke-linecap="square" opacity="0.55" />
  <line id="cad-left-pillar-head-0-3" x1="63" y1="153" x2="63" y2="165" stroke="#1A1A1A" stroke-width="0.9" stroke-linecap="square" opacity="0.55" />
  <line id="cad-left-pillar-head-0-5" x1="63" y1="177" x2="63" y2="189" stroke="#1A1A1A" stroke-width="0.9" stroke-linecap="square" opacity="0.55" />
  <line id="cad-left-pillar-head-0-7" x1="63" y1="201" x2="63" y2="213" stroke="#1A1A1A" stroke-width="0.9" stroke-linecap="square" opacity="0.55" />
  <line id="cad-left-pillar-head-0-9" x1="63" y1="225" x2="63" y2="237" stroke="#1A1A1A" stroke-width="0.9" stroke-linecap="square" opacity="0.55" />
  <line id="cad-left-pillar-head-0-11" x1="63" y1="249" x2="63" y2="261" stroke="#1A1A1A" stroke-width="0.9" stroke-linecap="square" opacity="0.55" />
  <line id="cad-left-pillar-head-0-13" x1="63" y1="273" x2="63" y2="285" stroke="#1A1A1A" stroke-width="0.9" stroke-linecap="square" opacity="0.55" />
  <line id="cad-left-pillar-head-0-15" x1="63" y1="297" x2="63" y2="309" stroke="#1A1A1A" stroke-width="0.9" stroke-linecap="square" opacity="0.55" />
  <line id="cad-left-pillar-head-0-17" x1="63" y1="321" x2="63" y2="333" stroke="#1A1A1A" stroke-width="0.9" stroke-linecap="square" opacity="0.55" />
  <line id="cad-left-pillar-head-0-19" x1="63" y1="345" x2="63" y2="357" stroke="#1A1A1A" stroke-width="0.9" stroke-linecap="square" opacity="0.55" />
  <line id="cad-left-pillar-head-0-21" x1="63" y1="369" x2="63" y2="381" stroke="#1A1A1A" stroke-width="0.9" stroke-linecap="square" opacity="0.55" />
  <line id="cad-left-pillar-head-0-23" x1="63" y1="393" x2="63" y2="405" stroke="#1A1A1A" stroke-width="0.9" stroke-linecap="square" opacity="0.55" />
  <line id="cad-left-pillar-head-0-25" x1="63" y1="417" x2="63" y2="429" stroke="#1A1A1A" stroke-width="0.9" stroke-linecap="square" opacity="0.55" />
  <line id="cad-left-pillar-head-0-27" x1="63" y1="441" x2="63" y2="453" stroke="#1A1A1A" stroke-width="0.9" stroke-linecap="square" opacity="0.55" />
  <line id="cad-left-pillar-head-0-29" x1="63" y1="465" x2="63" y2="477" stroke="#1A1A1A" stroke-width="0.9" stroke-linecap="square" opacity="0.55" />
  <line id="cad-left-pillar-head-0-31" x1="63" y1="489" x2="63" y2="501" stroke="#1A1A1A" stroke-width="0.9" stroke-linecap="square" opacity="0.55" />
  <line id="cad-left-pillar-head-0-33" x1="63" y1="513" x2="63" y2="525" stroke="#1A1A1A" stroke-width="0.9" stroke-linecap="square" opacity="0.55" />
  <line id="cad-left-pillar-head-0-35" x1="63" y1="537" x2="63" y2="549" stroke="#1A1A1A" stroke-width="0.9" stroke-linecap="square" opacity="0.55" />
  <line id="cad-left-pillar-head-0-37" x1="63" y1="561" x2="63" y2="573" stroke="#1A1A1A" stroke-width="0.9" stroke-linecap="square" opacity="0.55" />
  <line id="cad-left-pillar-head-0-39" x1="63" y1="585" x2="63" y2="597" stroke="#1A1A1A" stroke-width="0.9" stroke-linecap="square" opacity="0.55" />
  <line id="cad-left-pillar-head-0-41" x1="63" y1="609" x2="63" y2="621" stroke="#1A1A1A" stroke-width="0.9" stroke-linecap="square" opacity="0.55" />
  <line id="cad-left-pillar-head-0-43" x1="63" y1="633" x2="63" y2="645" stroke="#1A1A1A" stroke-width="0.9" stroke-linecap="square" opacity="0.55" />
  <line id="cad-left-pillar-head-0-45" x1="63" y1="657" x2="63" y2="669" stroke="#1A1A1A" stroke-width="0.9" stroke-linecap="square" opacity="0.55" />
  <line id="cad-left-pillar-head-0-47" x1="63" y1="681" x2="63" y2="693" stroke="#1A1A1A" stroke-width="0.9" stroke-linecap="square" opacity="0.55" />
  <line id="cad-left-pillar-head-1-0" x1="77" y1="117" x2="77" y2="129" stroke="#1A1A1A" stroke-width="0.9" stroke-linecap="square" opacity="0.55" />
  <line id="cad-left-pillar-head-1-1" x1="91" y1="129" x2="91" y2="141" stroke="#1A1A1A" stroke-width="0.9" stroke-linecap="square" opacity="0.55" />
  <line id="cad-left-pillar-head-1-2" x1="77" y1="141" x2="77" y2="153" stroke="#1A1A1A" stroke-width="0.9" stroke-linecap="square" opacity="0.55" />
  <line id="cad-left-pillar-head-1-3" x1="91" y1="153" x2="91" y2="165" stroke="#1A1A1A" stroke-width="0.9" stroke-linecap="square" opacity="0.55" />
  <line id="cad-left-pillar-head-1-4" x1="77" y1="165" x2="77" y2="177" stroke="#1A1A1A" stroke-width="0.9" stroke-linecap="square" opacity="0.55" />
  <line id="cad-left-pillar-head-1-5" x1="91" y1="177" x2="91" y2="189" stroke="#1A1A1A" stroke-width="0.9" stroke-linecap="square" opacity="0.55" />
  <line id="cad-left-pillar-head-1-6" x1="77" y1="189" x2="77" y2="201" stroke="#1A1A1A" stroke-width="0.9" stroke-linecap="square" opacity="0.55" />
  <line id="cad-left-pillar-head-1-7" x1="91" y1="201" x2="91" y2="213" stroke="#1A1A1A" stroke-width="0.9" stroke-linecap="square" opacity="0.55" />
  <line id="cad-left-pillar-head-1-8" x1="77" y1="213" x2="77" y2="225" stroke="#1A1A1A" stroke-width="0.9" stroke-linecap="square" opacity="0.55" />
  <line id="cad-left-pillar-head-1-9" x1="91" y1="225" x2="91" y2="237" stroke="#1A1A1A" stroke-width="0.9" stroke-linecap="square" opacity="0.55" />
  <line id="cad-left-pillar-head-1-10" x1="77" y1="237" x2="77" y2="249" stroke="#1A1A1A" stroke-width="0.9" stroke-linecap="square" opacity="0.55" />
  <line id="cad-left-pillar-head-1-11" x1="91" y1="249" x2="91" y2="261" stroke="#1A1A1A" stroke-width="0.9" stroke-linecap="square" opacity="0.55" />
  <line id="cad-left-pillar-head-1-12" x1="77" y1="261" x2="77" y2="273" stroke="#1A1A1A" stroke-width="0.9" stroke-linecap="square" opacity="0.55" />
  <line id="cad-left-pillar-head-1-13" x1="91" y1="273" x2="91" y2="285" stroke="#1A1A1A" stroke-width="0.9" stroke-linecap="square" opacity="0.55" />
  <line id="cad-left-pillar-head-1-14" x1="77" y1="285" x2="77" y2="297" stroke="#1A1A1A" stroke-width="0.9" stroke-linecap="square" opacity="0.55" />
  <line id="cad-left-pillar-head-1-15" x1="91" y1="297" x2="91" y2="309" stroke="#1A1A1A" stroke-width="0.9" stroke-linecap="square" opacity="0.55" />
  <line id="cad-left-pillar-head-1-16" x1="77" y1="309" x2="77" y2="321" stroke="#1A1A1A" stroke-width="0.9" stroke-linecap="square" opacity="0.55" />
  <line id="cad-left-pillar-head-1-17" x1="91" y1="321" x2="91" y2="333" stroke="#1A1A1A" stroke-width="0.9" stroke-linecap="square" opacity="0.55" />
  <line id="cad-left-pillar-head-1-18" x1="77" y1="333" x2="77" y2="345" stroke="#1A1A1A" stroke-width="0.9" stroke-linecap="square" opacity="0.55" />
  <line id="cad-left-pillar-head-1-19" x1="91" y1="345" x2="91" y2="357" stroke="#1A1A1A" stroke-width="0.9" stroke-linecap="square" opacity="0.55" />
  <line id="cad-left-pillar-head-1-20" x1="77" y1="357" x2="77" y2="369" stroke="#1A1A1A" stroke-width="0.9" stroke-linecap="square" opacity="0.55" />
  <line id="cad-left-pillar-head-1-21" x1="91" y1="369" x2="91" y2="381" stroke="#1A1A1A" stroke-width="0.9" stroke-linecap="square" opacity="0.55" />
  <line id="cad-left-pillar-head-1-22" x1="77" y1="381" x2="77" y2="393" stroke="#1A1A1A" stroke-width="0.9" stroke-linecap="square" opacity="0.55" />
  <line id="cad-left-pillar-head-1-23" x1="91" y1="393" x2="91" y2="405" stroke="#1A1A1A" stroke-width="0.9" stroke-linecap="square" opacity="0.55" />
  <line id="cad-left-pillar-head-1-24" x1="77" y1="405" x2="77" y2="417" stroke="#1A1A1A" stroke-width="0.9" stroke-linecap="square" opacity="0.55" />
  <line id="cad-left-pillar-head-1-25" x1="91" y1="417" x2="91" y2="429" stroke="#1A1A1A" stroke-width="0.9" stroke-linecap="square" opacity="0.55" />
  <line id="cad-left-pillar-head-1-26" x1="77" y1="429" x2="77" y2="441" stroke="#1A1A1A" stroke-width="0.9" stroke-linecap="square" opacity="0.55" />
  <line id="cad-left-pillar-head-1-27" x1="91" y1="441" x2="91" y2="453" stroke="#1A1A1A" stroke-width="0.9" stroke-linecap="square" opacity="0.55" />
  <line id="cad-left-pillar-head-1-28" x1="77" y1="453" x2="77" y2="465" stroke="#1A1A1A" stroke-width="0.9" stroke-linecap="square" opacity="0.55" />
  <line id="cad-left-pillar-head-1-29" x1="91" y1="465" x2="91" y2="477" stroke="#1A1A1A" stroke-width="0.9" stroke-linecap="square" opacity="0.55" />
  <line id="cad-left-pillar-head-1-30" x1="77" y1="477" x2="77" y2="489" stroke="#1A1A1A" stroke-width="0.9" stroke-linecap="square" opacity="0.55" />
  <line id="cad-left-pillar-head-1-31" x1="91" y1="489" x2="91" y2="501" stroke="#1A1A1A" stroke-width="0.9" stroke-linecap="square" opacity="0.55" />
  <line id="cad-left-pillar-head-1-32" x1="77" y1="501" x2="77" y2="513" stroke="#1A1A1A" stroke-width="0.9" stroke-linecap="square" opacity="0.55" />
  <line id="cad-left-pillar-head-1-33" x1="91" y1="513" x2="91" y2="525" stroke="#1A1A1A" stroke-width="0.9" stroke-linecap="square" opacity="0.55" />
  <line id="cad-left-pillar-head-1-34" x1="77" y1="525" x2="77" y2="537" stroke="#1A1A1A" stroke-width="0.9" stroke-linecap="square" opacity="0.55" />
  <line id="cad-left-pillar-head-1-35" x1="91" y1="537" x2="91" y2="549" stroke="#1A1A1A" stroke-width="0.9" stroke-linecap="square" opacity="0.55" />
  <line id="cad-left-pillar-head-1-36" x1="77" y1="549" x2="77" y2="561" stroke="#1A1A1A" stroke-width="0.9" stroke-linecap="square" opacity="0.55" />
  <line id="cad-left-pillar-head-1-37" x1="91" y1="561" x2="91" y2="573" stroke="#1A1A1A" stroke-width="0.9" stroke-linecap="square" opacity="0.55" />
  <line id="cad-left-pillar-head-1-38" x1="77" y1="573" x2="77" y2="585" stroke="#1A1A1A" stroke-width="0.9" stroke-linecap="square" opacity="0.55" />
  <line id="cad-left-pillar-head-1-39" x1="91" y1="585" x2="91" y2="597" stroke="#1A1A1A" stroke-width="0.9" stroke-linecap="square" opacity="0.55" />
  <line id="cad-left-pillar-head-1-40" x1="77" y1="597" x2="77" y2="609" stroke="#1A1A1A" stroke-width="0.9" stroke-linecap="square" opacity="0.55" />
  <line id="cad-left-pillar-head-1-41" x1="91" y1="609" x2="91" y2="621" stroke="#1A1A1A" stroke-width="0.9" stroke-linecap="square" opacity="0.55" />
  <line id="cad-left-pillar-head-1-42" x1="77" y1="621" x2="77" y2="633" stroke="#1A1A1A" stroke-width="0.9" stroke-linecap="square" opacity="0.55" />
  <line id="cad-left-pillar-head-1-43" x1="91" y1="633" x2="91" y2="645" stroke="#1A1A1A" stroke-width="0.9" stroke-linecap="square" opacity="0.55" />
  <line id="cad-left-pillar-head-1-44" x1="77" y1="645" x2="77" y2="657" stroke="#1A1A1A" stroke-width="0.9" stroke-linecap="square" opacity="0.55" />
  <line id="cad-left-pillar-head-1-45" x1="91" y1="657" x2="91" y2="669" stroke="#1A1A1A" stroke-width="0.9" stroke-linecap="square" opacity="0.55" />
  <line id="cad-left-pillar-head-1-46" x1="77" y1="669" x2="77" y2="681" stroke="#1A1A1A" stroke-width="0.9" stroke-linecap="square" opacity="0.55" />
  <line id="cad-left-pillar-head-1-47" x1="91" y1="681" x2="91" y2="693" stroke="#1A1A1A" stroke-width="0.9" stroke-linecap="square" opacity="0.55" />
  <line id="cad-left-pillar-head-1-48" x1="77" y1="693" x2="77" y2="695" stroke="#1A1A1A" stroke-width="0.9" stroke-linecap="square" opacity="0.55" />
  <rect id="cad-right-pillar" x="964" y="114" width="56" height="584" rx="0" fill="#FFFFFF" stroke="#1A1A1A" stroke-width="2" />
  <rect id="cad-right-pillar-cap" x="961" y="104" width="62" height="10" rx="0" fill="#FFFFFF" stroke="#1A1A1A" stroke-width="2" />
  <line id="cad-right-pillar-bed-0" x1="967" y1="117" x2="1017" y2="117" stroke="#1A1A1A" stroke-width="0.9" stroke-linecap="square" opacity="0.55" />
  <line id="cad-right-pillar-bed-1" x1="967" y1="129" x2="1017" y2="129" stroke="#1A1A1A" stroke-width="0.9" stroke-linecap="square" opacity="0.55" />
  <line id="cad-right-pillar-bed-2" x1="967" y1="141" x2="1017" y2="141" stroke="#1A1A1A" stroke-width="0.9" stroke-linecap="square" opacity="0.55" />
  <line id="cad-right-pillar-bed-3" x1="967" y1="153" x2="1017" y2="153" stroke="#1A1A1A" stroke-width="0.9" stroke-linecap="square" opacity="0.55" />
  <line id="cad-right-pillar-bed-4" x1="967" y1="165" x2="1017" y2="165" stroke="#1A1A1A" stroke-width="0.9" stroke-linecap="square" opacity="0.55" />
  <line id="cad-right-pillar-bed-5" x1="967" y1="177" x2="1017" y2="177" stroke="#1A1A1A" stroke-width="0.9" stroke-linecap="square" opacity="0.55" />
  <line id="cad-right-pillar-bed-6" x1="967" y1="189" x2="1017" y2="189" stroke="#1A1A1A" stroke-width="0.9" stroke-linecap="square" opacity="0.55" />
  <line id="cad-right-pillar-bed-7" x1="967" y1="201" x2="1017" y2="201" stroke="#1A1A1A" stroke-width="0.9" stroke-linecap="square" opacity="0.55" />
  <line id="cad-right-pillar-bed-8" x1="967" y1="213" x2="1017" y2="213" stroke="#1A1A1A" stroke-width="0.9" stroke-linecap="square" opacity="0.55" />
  <line id="cad-right-pillar-bed-9" x1="967" y1="225" x2="1017" y2="225" stroke="#1A1A1A" stroke-width="0.9" stroke-linecap="square" opacity="0.55" />
  <line id="cad-right-pillar-bed-10" x1="967" y1="237" x2="1017" y2="237" stroke="#1A1A1A" stroke-width="0.9" stroke-linecap="square" opacity="0.55" />
  <line id="cad-right-pillar-bed-11" x1="967" y1="249" x2="1017" y2="249" stroke="#1A1A1A" stroke-width="0.9" stroke-linecap="square" opacity="0.55" />
  <line id="cad-right-pillar-bed-12" x1="967" y1="261" x2="1017" y2="261" stroke="#1A1A1A" stroke-width="0.9" stroke-linecap="square" opacity="0.55" />
  <line id="cad-right-pillar-bed-13" x1="967" y1="273" x2="1017" y2="273" stroke="#1A1A1A" stroke-width="0.9" stroke-linecap="square" opacity="0.55" />
  <line id="cad-right-pillar-bed-14" x1="967" y1="285" x2="1017" y2="285" stroke="#1A1A1A" stroke-width="0.9" stroke-linecap="square" opacity="0.55" />
  <line id="cad-right-pillar-bed-15" x1="967" y1="297" x2="1017" y2="297" stroke="#1A1A1A" stroke-width="0.9" stroke-linecap="square" opacity="0.55" />
  <line id="cad-right-pillar-bed-16" x1="967" y1="309" x2="1017" y2="309" stroke="#1A1A1A" stroke-width="0.9" stroke-linecap="square" opacity="0.55" />
  <line id="cad-right-pillar-bed-17" x1="967" y1="321" x2="1017" y2="321" stroke="#1A1A1A" stroke-width="0.9" stroke-linecap="square" opacity="0.55" />
  <line id="cad-right-pillar-bed-18" x1="967" y1="333" x2="1017" y2="333" stroke="#1A1A1A" stroke-width="0.9" stroke-linecap="square" opacity="0.55" />
  <line id="cad-right-pillar-bed-19" x1="967" y1="345" x2="1017" y2="345" stroke="#1A1A1A" stroke-width="0.9" stroke-linecap="square" opacity="0.55" />
  <line id="cad-right-pillar-bed-20" x1="967" y1="357" x2="1017" y2="357" stroke="#1A1A1A" stroke-width="0.9" stroke-linecap="square" opacity="0.55" />
  <line id="cad-right-pillar-bed-21" x1="967" y1="369" x2="1017" y2="369" stroke="#1A1A1A" stroke-width="0.9" stroke-linecap="square" opacity="0.55" />
  <line id="cad-right-pillar-bed-22" x1="967" y1="381" x2="1017" y2="381" stroke="#1A1A1A" stroke-width="0.9" stroke-linecap="square" opacity="0.55" />
  <line id="cad-right-pillar-bed-23" x1="967" y1="393" x2="1017" y2="393" stroke="#1A1A1A" stroke-width="0.9" stroke-linecap="square" opacity="0.55" />
  <line id="cad-right-pillar-bed-24" x1="967" y1="405" x2="1017" y2="405" stroke="#1A1A1A" stroke-width="0.9" stroke-linecap="square" opacity="0.55" />
  <line id="cad-right-pillar-bed-25" x1="967" y1="417" x2="1017" y2="417" stroke="#1A1A1A" stroke-width="0.9" stroke-linecap="square" opacity="0.55" />
  <line id="cad-right-pillar-bed-26" x1="967" y1="429" x2="1017" y2="429" stroke="#1A1A1A" stroke-width="0.9" stroke-linecap="square" opacity="0.55" />
  <line id="cad-right-pillar-bed-27" x1="967" y1="441" x2="1017" y2="441" stroke="#1A1A1A" stroke-width="0.9" stroke-linecap="square" opacity="0.55" />
  <line id="cad-right-pillar-bed-28" x1="967" y1="453" x2="1017" y2="453" stroke="#1A1A1A" stroke-width="0.9" stroke-linecap="square" opacity="0.55" />
  <line id="cad-right-pillar-bed-29" x1="967" y1="465" x2="1017" y2="465" stroke="#1A1A1A" stroke-width="0.9" stroke-linecap="square" opacity="0.55" />
  <line id="cad-right-pillar-bed-30" x1="967" y1="477" x2="1017" y2="477" stroke="#1A1A1A" stroke-width="0.9" stroke-linecap="square" opacity="0.55" />
  <line id="cad-right-pillar-bed-31" x1="967" y1="489" x2="1017" y2="489" stroke="#1A1A1A" stroke-width="0.9" stroke-linecap="square" opacity="0.55" />
  <line id="cad-right-pillar-bed-32" x1="967" y1="501" x2="1017" y2="501" stroke="#1A1A1A" stroke-width="0.9" stroke-linecap="square" opacity="0.55" />
  <line id="cad-right-pillar-bed-33" x1="967" y1="513" x2="1017" y2="513" stroke="#1A1A1A" stroke-width="0.9" stroke-linecap="square" opacity="0.55" />
  <line id="cad-right-pillar-bed-34" x1="967" y1="525" x2="1017" y2="525" stroke="#1A1A1A" stroke-width="0.9" stroke-linecap="square" opacity="0.55" />
  <line id="cad-right-pillar-bed-35" x1="967" y1="537" x2="1017" y2="537" stroke="#1A1A1A" stroke-width="0.9" stroke-linecap="square" opacity="0.55" />
  <line id="cad-right-pillar-bed-36" x1="967" y1="549" x2="1017" y2="549" stroke="#1A1A1A" stroke-width="0.9" stroke-linecap="square" opacity="0.55" />
  <line id="cad-right-pillar-bed-37" x1="967" y1="561" x2="1017" y2="561" stroke="#1A1A1A" stroke-width="0.9" stroke-linecap="square" opacity="0.55" />
  <line id="cad-right-pillar-bed-38" x1="967" y1="573" x2="1017" y2="573" stroke="#1A1A1A" stroke-width="0.9" stroke-linecap="square" opacity="0.55" />
  <line id="cad-right-pillar-bed-39" x1="967" y1="585" x2="1017" y2="585" stroke="#1A1A1A" stroke-width="0.9" stroke-linecap="square" opacity="0.55" />
  <line id="cad-right-pillar-bed-40" x1="967" y1="597" x2="1017" y2="597" stroke="#1A1A1A" stroke-width="0.9" stroke-linecap="square" opacity="0.55" />
  <line id="cad-right-pillar-bed-41" x1="967" y1="609" x2="1017" y2="609" stroke="#1A1A1A" stroke-width="0.9" stroke-linecap="square" opacity="0.55" />
  <line id="cad-right-pillar-bed-42" x1="967" y1="621" x2="1017" y2="621" stroke="#1A1A1A" stroke-width="0.9" stroke-linecap="square" opacity="0.55" />
  <line id="cad-right-pillar-bed-43" x1="967" y1="633" x2="1017" y2="633" stroke="#1A1A1A" stroke-width="0.9" stroke-linecap="square" opacity="0.55" />
  <line id="cad-right-pillar-bed-44" x1="967" y1="645" x2="1017" y2="645" stroke="#1A1A1A" stroke-width="0.9" stroke-linecap="square" opacity="0.55" />
  <line id="cad-right-pillar-bed-45" x1="967" y1="657" x2="1017" y2="657" stroke="#1A1A1A" stroke-width="0.9" stroke-linecap="square" opacity="0.55" />
  <line id="cad-right-pillar-bed-46" x1="967" y1="669" x2="1017" y2="669" stroke="#1A1A1A" stroke-width="0.9" stroke-linecap="square" opacity="0.55" />
  <line id="cad-right-pillar-bed-47" x1="967" y1="681" x2="1017" y2="681" stroke="#1A1A1A" stroke-width="0.9" stroke-linecap="square" opacity="0.55" />
  <line id="cad-right-pillar-bed-48" x1="967" y1="693" x2="1017" y2="693" stroke="#1A1A1A" stroke-width="0.9" stroke-linecap="square" opacity="0.55" />
  <line id="cad-right-pillar-head-0-1" x1="981" y1="129" x2="981" y2="141" stroke="#1A1A1A" stroke-width="0.9" stroke-linecap="square" opacity="0.55" />
  <line id="cad-right-pillar-head-0-3" x1="981" y1="153" x2="981" y2="165" stroke="#1A1A1A" stroke-width="0.9" stroke-linecap="square" opacity="0.55" />
  <line id="cad-right-pillar-head-0-5" x1="981" y1="177" x2="981" y2="189" stroke="#1A1A1A" stroke-width="0.9" stroke-linecap="square" opacity="0.55" />
  <line id="cad-right-pillar-head-0-7" x1="981" y1="201" x2="981" y2="213" stroke="#1A1A1A" stroke-width="0.9" stroke-linecap="square" opacity="0.55" />
  <line id="cad-right-pillar-head-0-9" x1="981" y1="225" x2="981" y2="237" stroke="#1A1A1A" stroke-width="0.9" stroke-linecap="square" opacity="0.55" />
  <line id="cad-right-pillar-head-0-11" x1="981" y1="249" x2="981" y2="261" stroke="#1A1A1A" stroke-width="0.9" stroke-linecap="square" opacity="0.55" />
  <line id="cad-right-pillar-head-0-13" x1="981" y1="273" x2="981" y2="285" stroke="#1A1A1A" stroke-width="0.9" stroke-linecap="square" opacity="0.55" />
  <line id="cad-right-pillar-head-0-15" x1="981" y1="297" x2="981" y2="309" stroke="#1A1A1A" stroke-width="0.9" stroke-linecap="square" opacity="0.55" />
  <line id="cad-right-pillar-head-0-17" x1="981" y1="321" x2="981" y2="333" stroke="#1A1A1A" stroke-width="0.9" stroke-linecap="square" opacity="0.55" />
  <line id="cad-right-pillar-head-0-19" x1="981" y1="345" x2="981" y2="357" stroke="#1A1A1A" stroke-width="0.9" stroke-linecap="square" opacity="0.55" />
  <line id="cad-right-pillar-head-0-21" x1="981" y1="369" x2="981" y2="381" stroke="#1A1A1A" stroke-width="0.9" stroke-linecap="square" opacity="0.55" />
  <line id="cad-right-pillar-head-0-23" x1="981" y1="393" x2="981" y2="405" stroke="#1A1A1A" stroke-width="0.9" stroke-linecap="square" opacity="0.55" />
  <line id="cad-right-pillar-head-0-25" x1="981" y1="417" x2="981" y2="429" stroke="#1A1A1A" stroke-width="0.9" stroke-linecap="square" opacity="0.55" />
  <line id="cad-right-pillar-head-0-27" x1="981" y1="441" x2="981" y2="453" stroke="#1A1A1A" stroke-width="0.9" stroke-linecap="square" opacity="0.55" />
  <line id="cad-right-pillar-head-0-29" x1="981" y1="465" x2="981" y2="477" stroke="#1A1A1A" stroke-width="0.9" stroke-linecap="square" opacity="0.55" />
  <line id="cad-right-pillar-head-0-31" x1="981" y1="489" x2="981" y2="501" stroke="#1A1A1A" stroke-width="0.9" stroke-linecap="square" opacity="0.55" />
  <line id="cad-right-pillar-head-0-33" x1="981" y1="513" x2="981" y2="525" stroke="#1A1A1A" stroke-width="0.9" stroke-linecap="square" opacity="0.55" />
  <line id="cad-right-pillar-head-0-35" x1="981" y1="537" x2="981" y2="549" stroke="#1A1A1A" stroke-width="0.9" stroke-linecap="square" opacity="0.55" />
  <line id="cad-right-pillar-head-0-37" x1="981" y1="561" x2="981" y2="573" stroke="#1A1A1A" stroke-width="0.9" stroke-linecap="square" opacity="0.55" />
  <line id="cad-right-pillar-head-0-39" x1="981" y1="585" x2="981" y2="597" stroke="#1A1A1A" stroke-width="0.9" stroke-linecap="square" opacity="0.55" />
  <line id="cad-right-pillar-head-0-41" x1="981" y1="609" x2="981" y2="621" stroke="#1A1A1A" stroke-width="0.9" stroke-linecap="square" opacity="0.55" />
  <line id="cad-right-pillar-head-0-43" x1="981" y1="633" x2="981" y2="645" stroke="#1A1A1A" stroke-width="0.9" stroke-linecap="square" opacity="0.55" />
  <line id="cad-right-pillar-head-0-45" x1="981" y1="657" x2="981" y2="669" stroke="#1A1A1A" stroke-width="0.9" stroke-linecap="square" opacity="0.55" />
  <line id="cad-right-pillar-head-0-47" x1="981" y1="681" x2="981" y2="693" stroke="#1A1A1A" stroke-width="0.9" stroke-linecap="square" opacity="0.55" />
  <line id="cad-right-pillar-head-1-0" x1="995" y1="117" x2="995" y2="129" stroke="#1A1A1A" stroke-width="0.9" stroke-linecap="square" opacity="0.55" />
  <line id="cad-right-pillar-head-1-1" x1="1009" y1="129" x2="1009" y2="141" stroke="#1A1A1A" stroke-width="0.9" stroke-linecap="square" opacity="0.55" />
  <line id="cad-right-pillar-head-1-2" x1="995" y1="141" x2="995" y2="153" stroke="#1A1A1A" stroke-width="0.9" stroke-linecap="square" opacity="0.55" />
  <line id="cad-right-pillar-head-1-3" x1="1009" y1="153" x2="1009" y2="165" stroke="#1A1A1A" stroke-width="0.9" stroke-linecap="square" opacity="0.55" />
  <line id="cad-right-pillar-head-1-4" x1="995" y1="165" x2="995" y2="177" stroke="#1A1A1A" stroke-width="0.9" stroke-linecap="square" opacity="0.55" />
  <line id="cad-right-pillar-head-1-5" x1="1009" y1="177" x2="1009" y2="189" stroke="#1A1A1A" stroke-width="0.9" stroke-linecap="square" opacity="0.55" />
  <line id="cad-right-pillar-head-1-6" x1="995" y1="189" x2="995" y2="201" stroke="#1A1A1A" stroke-width="0.9" stroke-linecap="square" opacity="0.55" />
  <line id="cad-right-pillar-head-1-7" x1="1009" y1="201" x2="1009" y2="213" stroke="#1A1A1A" stroke-width="0.9" stroke-linecap="square" opacity="0.55" />
  <line id="cad-right-pillar-head-1-8" x1="995" y1="213" x2="995" y2="225" stroke="#1A1A1A" stroke-width="0.9" stroke-linecap="square" opacity="0.55" />
  <line id="cad-right-pillar-head-1-9" x1="1009" y1="225" x2="1009" y2="237" stroke="#1A1A1A" stroke-width="0.9" stroke-linecap="square" opacity="0.55" />
  <line id="cad-right-pillar-head-1-10" x1="995" y1="237" x2="995" y2="249" stroke="#1A1A1A" stroke-width="0.9" stroke-linecap="square" opacity="0.55" />
  <line id="cad-right-pillar-head-1-11" x1="1009" y1="249" x2="1009" y2="261" stroke="#1A1A1A" stroke-width="0.9" stroke-linecap="square" opacity="0.55" />
  <line id="cad-right-pillar-head-1-12" x1="995" y1="261" x2="995" y2="273" stroke="#1A1A1A" stroke-width="0.9" stroke-linecap="square" opacity="0.55" />
  <line id="cad-right-pillar-head-1-13" x1="1009" y1="273" x2="1009" y2="285" stroke="#1A1A1A" stroke-width="0.9" stroke-linecap="square" opacity="0.55" />
  <line id="cad-right-pillar-head-1-14" x1="995" y1="285" x2="995" y2="297" stroke="#1A1A1A" stroke-width="0.9" stroke-linecap="square" opacity="0.55" />
  <line id="cad-right-pillar-head-1-15" x1="1009" y1="297" x2="1009" y2="309" stroke="#1A1A1A" stroke-width="0.9" stroke-linecap="square" opacity="0.55" />
  <line id="cad-right-pillar-head-1-16" x1="995" y1="309" x2="995" y2="321" stroke="#1A1A1A" stroke-width="0.9" stroke-linecap="square" opacity="0.55" />
  <line id="cad-right-pillar-head-1-17" x1="1009" y1="321" x2="1009" y2="333" stroke="#1A1A1A" stroke-width="0.9" stroke-linecap="square" opacity="0.55" />
  <line id="cad-right-pillar-head-1-18" x1="995" y1="333" x2="995" y2="345" stroke="#1A1A1A" stroke-width="0.9" stroke-linecap="square" opacity="0.55" />
  <line id="cad-right-pillar-head-1-19" x1="1009" y1="345" x2="1009" y2="357" stroke="#1A1A1A" stroke-width="0.9" stroke-linecap="square" opacity="0.55" />
  <line id="cad-right-pillar-head-1-20" x1="995" y1="357" x2="995" y2="369" stroke="#1A1A1A" stroke-width="0.9" stroke-linecap="square" opacity="0.55" />
  <line id="cad-right-pillar-head-1-21" x1="1009" y1="369" x2="1009" y2="381" stroke="#1A1A1A" stroke-width="0.9" stroke-linecap="square" opacity="0.55" />
  <line id="cad-right-pillar-head-1-22" x1="995" y1="381" x2="995" y2="393" stroke="#1A1A1A" stroke-width="0.9" stroke-linecap="square" opacity="0.55" />
  <line id="cad-right-pillar-head-1-23" x1="1009" y1="393" x2="1009" y2="405" stroke="#1A1A1A" stroke-width="0.9" stroke-linecap="square" opacity="0.55" />
  <line id="cad-right-pillar-head-1-24" x1="995" y1="405" x2="995" y2="417" stroke="#1A1A1A" stroke-width="0.9" stroke-linecap="square" opacity="0.55" />
  <line id="cad-right-pillar-head-1-25" x1="1009" y1="417" x2="1009" y2="429" stroke="#1A1A1A" stroke-width="0.9" stroke-linecap="square" opacity="0.55" />
  <line id="cad-right-pillar-head-1-26" x1="995" y1="429" x2="995" y2="441" stroke="#1A1A1A" stroke-width="0.9" stroke-linecap="square" opacity="0.55" />
  <line id="cad-right-pillar-head-1-27" x1="1009" y1="441" x2="1009" y2="453" stroke="#1A1A1A" stroke-width="0.9" stroke-linecap="square" opacity="0.55" />
  <line id="cad-right-pillar-head-1-28" x1="995" y1="453" x2="995" y2="465" stroke="#1A1A1A" stroke-width="0.9" stroke-linecap="square" opacity="0.55" />
  <line id="cad-right-pillar-head-1-29" x1="1009" y1="465" x2="1009" y2="477" stroke="#1A1A1A" stroke-width="0.9" stroke-linecap="square" opacity="0.55" />
  <line id="cad-right-pillar-head-1-30" x1="995" y1="477" x2="995" y2="489" stroke="#1A1A1A" stroke-width="0.9" stroke-linecap="square" opacity="0.55" />
  <line id="cad-right-pillar-head-1-31" x1="1009" y1="489" x2="1009" y2="501" stroke="#1A1A1A" stroke-width="0.9" stroke-linecap="square" opacity="0.55" />
  <line id="cad-right-pillar-head-1-32" x1="995" y1="501" x2="995" y2="513" stroke="#1A1A1A" stroke-width="0.9" stroke-linecap="square" opacity="0.55" />
  <line id="cad-right-pillar-head-1-33" x1="1009" y1="513" x2="1009" y2="525" stroke="#1A1A1A" stroke-width="0.9" stroke-linecap="square" opacity="0.55" />
  <line id="cad-right-pillar-head-1-34" x1="995" y1="525" x2="995" y2="537" stroke="#1A1A1A" stroke-width="0.9" stroke-linecap="square" opacity="0.55" />
  <line id="cad-right-pillar-head-1-35" x1="1009" y1="537" x2="1009" y2="549" stroke="#1A1A1A" stroke-width="0.9" stroke-linecap="square" opacity="0.55" />
  <line id="cad-right-pillar-head-1-36" x1="995" y1="549" x2="995" y2="561" stroke="#1A1A1A" stroke-width="0.9" stroke-linecap="square" opacity="0.55" />
  <line id="cad-right-pillar-head-1-37" x1="1009" y1="561" x2="1009" y2="573" stroke="#1A1A1A" stroke-width="0.9" stroke-linecap="square" opacity="0.55" />
  <line id="cad-right-pillar-head-1-38" x1="995" y1="573" x2="995" y2="585" stroke="#1A1A1A" stroke-width="0.9" stroke-linecap="square" opacity="0.55" />
  <line id="cad-right-pillar-head-1-39" x1="1009" y1="585" x2="1009" y2="597" stroke="#1A1A1A" stroke-width="0.9" stroke-linecap="square" opacity="0.55" />
  <line id="cad-right-pillar-head-1-40" x1="995" y1="597" x2="995" y2="609" stroke="#1A1A1A" stroke-width="0.9" stroke-linecap="square" opacity="0.55" />
  <line id="cad-right-pillar-head-1-41" x1="1009" y1="609" x2="1009" y2="621" stroke="#1A1A1A" stroke-width="0.9" stroke-linecap="square" opacity="0.55" />
  <line id="cad-right-pillar-head-1-42" x1="995" y1="621" x2="995" y2="633" stroke="#1A1A1A" stroke-width="0.9" stroke-linecap="square" opacity="0.55" />
  <line id="cad-right-pillar-head-1-43" x1="1009" y1="633" x2="1009" y2="645" stroke="#1A1A1A" stroke-width="0.9" stroke-linecap="square" opacity="0.55" />
  <line id="cad-right-pillar-head-1-44" x1="995" y1="645" x2="995" y2="657" stroke="#1A1A1A" stroke-width="0.9" stroke-linecap="square" opacity="0.55" />
  <line id="cad-right-pillar-head-1-45" x1="1009" y1="657" x2="1009" y2="669" stroke="#1A1A1A" stroke-width="0.9" stroke-linecap="square" opacity="0.55" />
  <line id="cad-right-pillar-head-1-46" x1="995" y1="669" x2="995" y2="681" stroke="#1A1A1A" stroke-width="0.9" stroke-linecap="square" opacity="0.55" />
  <line id="cad-right-pillar-head-1-47" x1="1009" y1="681" x2="1009" y2="693" stroke="#1A1A1A" stroke-width="0.9" stroke-linecap="square" opacity="0.55" />
  <line id="cad-right-pillar-head-1-48" x1="995" y1="693" x2="995" y2="695" stroke="#1A1A1A" stroke-width="0.9" stroke-linecap="square" opacity="0.55" />
  <rect id="tracked-leaf-frame" x="120" y="150" width="826" height="520" rx="0" fill="none" fill-opacity="1" stroke="#1A1A1A" stroke-width="2.2" opacity="1" />
  <path id="tracked-leaf-arch" d="M 126 178 Q 533 128, 940 178" fill="none" fill-opacity="1" stroke="#1A1A1A" stroke-width="1.4" stroke-linecap="square" stroke-linejoin="miter" opacity="1" />
  <path id="tracked-leaf-arch-inner" d="M 130 186 Q 533 144, 936 186" fill="none" fill-opacity="1" stroke="#1A1A1A" stroke-width="1.4" stroke-linecap="square" stroke-linejoin="miter" opacity="1" />
  <line id="tracked-leaf-bottom-rail" x1="126" y1="656" x2="940" y2="656" stroke="#1A1A1A" stroke-width="1.4" stroke-linecap="square" opacity="1" />
  <line id="tracked-leaf-mid-rail" x1="126" y1="399.6" x2="940" y2="399.6" stroke="#1A1A1A" stroke-width="1.4" stroke-linecap="square" opacity="1" />
  <line id="tracked-leaf-dog-rail" x1="126" y1="514" x2="940" y2="514" stroke="#1A1A1A" stroke-width="1.4" stroke-linecap="square" opacity="1" />
  <line id="tracked-leaf-picket-0" x1="142.28" y1="184" x2="142.28" y2="512" stroke="#1A1A1A" stroke-width="1.4" stroke-linecap="square" opacity="1" />
  <line id="tracked-leaf-picket-1" x1="174.84" y1="184" x2="174.84" y2="512" stroke="#1A1A1A" stroke-width="1.4" stroke-linecap="square" opacity="1" />
  <line id="tracked-leaf-picket-2" x1="207.4" y1="184" x2="207.4" y2="512" stroke="#1A1A1A" stroke-width="1.4" stroke-linecap="square" opacity="1" />
  <line id="tracked-leaf-picket-3" x1="239.95999999999998" y1="184" x2="239.95999999999998" y2="512" stroke="#1A1A1A" stroke-width="1.4" stroke-linecap="square" opacity="1" />
  <line id="tracked-leaf-picket-4" x1="272.52" y1="184" x2="272.52" y2="512" stroke="#1A1A1A" stroke-width="1.4" stroke-linecap="square" opacity="1" />
  <line id="tracked-leaf-picket-5" x1="305.08000000000004" y1="184" x2="305.08000000000004" y2="512" stroke="#1A1A1A" stroke-width="1.4" stroke-linecap="square" opacity="1" />
  <line id="tracked-leaf-picket-6" x1="337.64" y1="184" x2="337.64" y2="512" stroke="#1A1A1A" stroke-width="1.4" stroke-linecap="square" opacity="1" />
  <line id="tracked-leaf-picket-7" x1="370.2" y1="184" x2="370.2" y2="512" stroke="#1A1A1A" stroke-width="1.4" stroke-linecap="square" opacity="1" />
  <line id="tracked-leaf-picket-8" x1="402.76" y1="184" x2="402.76" y2="512" stroke="#1A1A1A" stroke-width="1.4" stroke-linecap="square" opacity="1" />
  <line id="tracked-leaf-picket-9" x1="435.32" y1="184" x2="435.32" y2="512" stroke="#1A1A1A" stroke-width="1.4" stroke-linecap="square" opacity="1" />
  <line id="tracked-leaf-picket-10" x1="467.88" y1="184" x2="467.88" y2="512" stroke="#1A1A1A" stroke-width="1.4" stroke-linecap="square" opacity="1" />
  <line id="tracked-leaf-picket-11" x1="500.44" y1="184" x2="500.44" y2="512" stroke="#1A1A1A" stroke-width="1.4" stroke-linecap="square" opacity="1" />
  <line id="tracked-leaf-picket-12" x1="533" y1="184" x2="533" y2="512" stroke="#1A1A1A" stroke-width="1.4" stroke-linecap="square" opacity="1" />
  <line id="tracked-leaf-picket-13" x1="565.56" y1="184" x2="565.56" y2="512" stroke="#1A1A1A" stroke-width="1.4" stroke-linecap="square" opacity="1" />
  <line id="tracked-leaf-picket-14" x1="598.12" y1="184" x2="598.12" y2="512" stroke="#1A1A1A" stroke-width="1.4" stroke-linecap="square" opacity="1" />
  <line id="tracked-leaf-picket-15" x1="630.6800000000001" y1="184" x2="630.6800000000001" y2="512" stroke="#1A1A1A" stroke-width="1.4" stroke-linecap="square" opacity="1" />
  <line id="tracked-leaf-picket-16" x1="663.24" y1="184" x2="663.24" y2="512" stroke="#1A1A1A" stroke-width="1.4" stroke-linecap="square" opacity="1" />
  <line id="tracked-leaf-picket-17" x1="695.8" y1="184" x2="695.8" y2="512" stroke="#1A1A1A" stroke-width="1.4" stroke-linecap="square" opacity="1" />
  <line id="tracked-leaf-picket-18" x1="728.36" y1="184" x2="728.36" y2="512" stroke="#1A1A1A" stroke-width="1.4" stroke-linecap="square" opacity="1" />
  <line id="tracked-leaf-picket-19" x1="760.92" y1="184" x2="760.92" y2="512" stroke="#1A1A1A" stroke-width="1.4" stroke-linecap="square" opacity="1" />
  <line id="tracked-leaf-picket-20" x1="793.48" y1="184" x2="793.48" y2="512" stroke="#1A1A1A" stroke-width="1.4" stroke-linecap="square" opacity="1" />
  <line id="tracked-leaf-picket-21" x1="826.04" y1="184" x2="826.04" y2="512" stroke="#1A1A1A" stroke-width="1.4" stroke-linecap="square" opacity="1" />
  <line id="tracked-leaf-picket-22" x1="858.6" y1="184" x2="858.6" y2="512" stroke="#1A1A1A" stroke-width="1.4" stroke-linecap="square" opacity="1" />
  <line id="tracked-leaf-picket-23" x1="891.16" y1="184" x2="891.16" y2="512" stroke="#1A1A1A" stroke-width="1.4" stroke-linecap="square" opacity="1" />
  <line id="tracked-leaf-picket-24" x1="923.72" y1="184" x2="923.72" y2="512" stroke="#1A1A1A" stroke-width="1.4" stroke-linecap="square" opacity="1" />
  <line id="tracked-leaf-dog-0" x1="144.5" y1="516" x2="144.5" y2="654" stroke="#1A1A1A" stroke-width="1.4" stroke-linecap="square" opacity="1" />
  <line id="tracked-leaf-dog-1" x1="181.5" y1="516" x2="181.5" y2="654" stroke="#1A1A1A" stroke-width="1.4" stroke-linecap="square" opacity="1" />
  <line id="tracked-leaf-dog-2" x1="218.5" y1="516" x2="218.5" y2="654" stroke="#1A1A1A" stroke-width="1.4" stroke-linecap="square" opacity="1" />
  <line id="tracked-leaf-dog-3" x1="255.5" y1="516" x2="255.5" y2="654" stroke="#1A1A1A" stroke-width="1.4" stroke-linecap="square" opacity="1" />
  <line id="tracked-leaf-dog-4" x1="292.5" y1="516" x2="292.5" y2="654" stroke="#1A1A1A" stroke-width="1.4" stroke-linecap="square" opacity="1" />
  <line id="tracked-leaf-dog-5" x1="329.5" y1="516" x2="329.5" y2="654" stroke="#1A1A1A" stroke-width="1.4" stroke-linecap="square" opacity="1" />
  <line id="tracked-leaf-dog-6" x1="366.5" y1="516" x2="366.5" y2="654" stroke="#1A1A1A" stroke-width="1.4" stroke-linecap="square" opacity="1" />
  <line id="tracked-leaf-dog-7" x1="403.5" y1="516" x2="403.5" y2="654" stroke="#1A1A1A" stroke-width="1.4" stroke-linecap="square" opacity="1" />
  <line id="tracked-leaf-dog-8" x1="440.5" y1="516" x2="440.5" y2="654" stroke="#1A1A1A" stroke-width="1.4" stroke-linecap="square" opacity="1" />
  <line id="tracked-leaf-dog-9" x1="477.5" y1="516" x2="477.5" y2="654" stroke="#1A1A1A" stroke-width="1.4" stroke-linecap="square" opacity="1" />
  <line id="tracked-leaf-dog-10" x1="514.5" y1="516" x2="514.5" y2="654" stroke="#1A1A1A" stroke-width="1.4" stroke-linecap="square" opacity="1" />
  <line id="tracked-leaf-dog-11" x1="551.5" y1="516" x2="551.5" y2="654" stroke="#1A1A1A" stroke-width="1.4" stroke-linecap="square" opacity="1" />
  <line id="tracked-leaf-dog-12" x1="588.5" y1="516" x2="588.5" y2="654" stroke="#1A1A1A" stroke-width="1.4" stroke-linecap="square" opacity="1" />
  <line id="tracked-leaf-dog-13" x1="625.5" y1="516" x2="625.5" y2="654" stroke="#1A1A1A" stroke-width="1.4" stroke-linecap="square" opacity="1" />
  <line id="tracked-leaf-dog-14" x1="662.5" y1="516" x2="662.5" y2="654" stroke="#1A1A1A" stroke-width="1.4" stroke-linecap="square" opacity="1" />
  <line id="tracked-leaf-dog-15" x1="699.5" y1="516" x2="699.5" y2="654" stroke="#1A1A1A" stroke-width="1.4" stroke-linecap="square" opacity="1" />
  <line id="tracked-leaf-dog-16" x1="736.5" y1="516" x2="736.5" y2="654" stroke="#1A1A1A" stroke-width="1.4" stroke-linecap="square" opacity="1" />
  <line id="tracked-leaf-dog-17" x1="773.5" y1="516" x2="773.5" y2="654" stroke="#1A1A1A" stroke-width="1.4" stroke-linecap="square" opacity="1" />
  <line id="tracked-leaf-dog-18" x1="810.5" y1="516" x2="810.5" y2="654" stroke="#1A1A1A" stroke-width="1.4" stroke-linecap="square" opacity="1" />
  <line id="tracked-leaf-dog-19" x1="847.5" y1="516" x2="847.5" y2="654" stroke="#1A1A1A" stroke-width="1.4" stroke-linecap="square" opacity="1" />
  <line id="tracked-leaf-dog-20" x1="884.5" y1="516" x2="884.5" y2="654" stroke="#1A1A1A" stroke-width="1.4" stroke-linecap="square" opacity="1" />
  <line id="tracked-leaf-dog-21" x1="921.5" y1="516" x2="921.5" y2="654" stroke="#1A1A1A" stroke-width="1.4" stroke-linecap="square" opacity="1" />
  <rect id="tracked-leaf-bottom-box" x="124" y="652" width="818" height="16" rx="0" fill="none" fill-opacity="1" stroke="#1A1A1A" stroke-width="1.4" opacity="1" />
  <line id="tracked-ground-rail" x1="120" y1="684" x2="946" y2="684" stroke="#1A1A1A" stroke-width="1.4" stroke-linecap="square" opacity="1" />
  <rect id="tracked-wheel-0" x="139" y="678" width="10" height="8" rx="0" fill="none" fill-opacity="1" stroke="#1A1A1A" stroke-width="1.4" opacity="1" />
  <rect id="tracked-wheel-1" x="333.5" y="678" width="10" height="8" rx="0" fill="none" fill-opacity="1" stroke="#1A1A1A" stroke-width="1.4" opacity="1" />
  <rect id="tracked-wheel-2" x="528" y="678" width="10" height="8" rx="0" fill="none" fill-opacity="1" stroke="#1A1A1A" stroke-width="1.4" opacity="1" />
  <rect id="tracked-wheel-3" x="722.5" y="678" width="10" height="8" rx="0" fill="none" fill-opacity="1" stroke="#1A1A1A" stroke-width="1.4" opacity="1" />
  <rect id="tracked-wheel-4" x="917" y="678" width="10" height="8" rx="0" fill="none" fill-opacity="1" stroke="#1A1A1A" stroke-width="1.4" opacity="1" />
  <rect id="tracked-receiver-slot" x="94" y="254" width="8" height="286" rx="0" fill="none" fill-opacity="1" stroke="#1A1A1A" stroke-width="1.4" opacity="1" />
  <rect id="tracked-guide-rollers" x="962" y="640" width="60" height="24" rx="0" fill="none" fill-opacity="1" stroke="#1A1A1A" stroke-width="1.4" opacity="1" />
  <rect id="tracked-upper-guide" x="974" y="162" width="36" height="12" rx="0" fill="none" fill-opacity="1" stroke="#1A1A1A" stroke-width="1.4" opacity="1" />
  <rect id="tracked-runback-zone" x="1028" y="166" width="110" height="488" rx="0" fill="none" fill-opacity="1" stroke="#1A1A1A" stroke-width="1.4" stroke-dasharray="6 5" opacity="1" />
  <line id="tracked-runback-rail" x1="946" y1="684" x2="1138" y2="684" stroke="#1A1A1A" stroke-width="1.4" stroke-linecap="square" opacity="1" />
  <rect id="tracked-motor-pad" x="1036" y="690" width="72" height="14" rx="0" fill="none" fill-opacity="1" stroke="#1A1A1A" stroke-width="1.4" opacity="1" />
  
</svg>