<svg width="1200" height="860" viewBox="0 0 1200 860" fill="none" xmlns="http://www.w3.org/2000/svg">
<g clip-path="url(#clip0_106_14737)">
<path d="M1200 0H0V860H1200V0Z" fill="white"/>
<path d="M1200 698H0V716H1200V698Z" fill="#2A2A2A"/>
<path d="M102 114H46V698H102V114Z" fill="white" stroke="#1A1A1A" stroke-width="2"/>
<path d="M105 104H43V114H105V104Z" fill="white" stroke="#1A1A1A" stroke-width="2"/>
<path opacity="0.55" d="M49 117H99" stroke="#1A1A1A" stroke-width="0.9" stroke-linecap="square"/>
<path opacity="0.55" d="M49 129H99" stroke="#1A1A1A" stroke-width="0.9" stroke-linecap="square"/>
<path opacity="0.55" d="M49 141H99" stroke="#1A1A1A" stroke-width="0.9" stroke-linecap="square"/>
<path opacity="0.55" d="M49 153H99" stroke="#1A1A1A" stroke-width="0.9" stroke-linecap="square"/>
<path opacity="0.55" d="M49 165H99" stroke="#1A1A1A" stroke-width="0.9" stroke-linecap="square"/>
<path opacity="0.55" d="M49 177H99" stroke="#1A1A1A" stroke-width="0.9" stroke-linecap="square"/>
<path opacity="0.55" d="M49 189H99" stroke="#1A1A1A" stroke-width="0.9" stroke-linecap="square"/>
<path opacity="0.55" d="M49 201H99" stroke="#1A1A1A" stroke-width="0.9" stroke-linecap="square"/>
<path opacity="0.55" d="M49 213H99" stroke="#1A1A1A" stroke-width="0.9" stroke-linecap="square"/>
<path opacity="0.55" d="M49 225H99" stroke="#1A1A1A" stroke-width="0.9" stroke-linecap="square"/>
<path opacity="0.55" d="M49 237H99" stroke="#1A1A1A" stroke-width="0.9" stroke-linecap="square"/>
<path opacity="0.55" d="M49 249H99" stroke="#1A1A1A" stroke-width="0.9" stroke-linecap="square"/>
<path opacity="0.55" d="M49 261H99" stroke="#1A1A1A" stroke-width="0.9" stroke-linecap="square"/>
<path opacity="0.55" d="M49 273H99" stroke="#1A1A1A" stroke-width="0.9" stroke-linecap="square"/>
<path opacity="0.55" d="M49 285H99" stroke="#1A1A1A" stroke-width="0.9" stroke-linecap="square"/>
<path opacity="0.55" d="M49 297H99" stroke="#1A1A1A" stroke-width="0.9" stroke-linecap="square"/>
<path opacity="0.55" d="M49 309H99" stroke="#1A1A1A" stroke-width="0.9" stroke-linecap="square"/>
<path opacity="0.55" d="M49 321H99" stroke="#1A1A1A" stroke-width="0.9" stroke-linecap="square"/>
<path opacity="0.55" d="M49 333H99" stroke="#1A1A1A" stroke-width="0.9" stroke-linecap="square"/>
<path opacity="0.55" d="M49 345H99" stroke="#1A1A1A" stroke-width="0.9" stroke-linecap="square"/>
<path opacity="0.55" d="M49 357H99" stroke="#1A1A1A" stroke-width="0.9" stroke-linecap="square"/>
<path opacity="0.55" d="M49 369H99" stroke="#1A1A1A" stroke-width="0.9" stroke-linecap="square"/>
<path opacity="0.55" d="M49 381H99" stroke="#1A1A1A" stroke-width="0.9" stroke-linecap="square"/>
<path opacity="0.55" d="M49 393H99" stroke="#1A1A1A" stroke-width="0.9" stroke-linecap="square"/>
<path opacity="0.55" d="M49 405H99" stroke="#1A1A1A" stroke-width="0.9" stroke-linecap="square"/>
<path opacity="0.55" d="M49 417H99" stroke="#1A1A1A" stroke-width="0.9" stroke-linecap="square"/>
<path opacity="0.55" d="M49 429H99" stroke="#1A1A1A" stroke-width="0.9" stroke-linecap="square"/>
<path opacity="0.55" d="M49 441H99" stroke="#1A1A1A" stroke-width="0.9" stroke-linecap="square"/>
<path opacity="0.55" d="M49 453H99" stroke="#1A1A1A" stroke-width="0.9" stroke-linecap="square"/>
<path opacity="0.55" d="M49 465H99" stroke="#1A1A1A" stroke-width="0.9" stroke-linecap="square"/>
<path opacity="0.55" d="M49 477H99" stroke="#1A1A1A" stroke-width="0.9" stroke-linecap="square"/>
<path opacity="0.55" d="M49 489H99" stroke="#1A1A1A" stroke-width="0.9" stroke-linecap="square"/>
<path opacity="0.55" d="M49 501H99" stroke="#1A1A1A" stroke-width="0.9" stroke-linecap="square"/>
<path opacity="0.55" d="M49 513H99" stroke="#1A1A1A" stroke-width="0.9" stroke-linecap="square"/>
<path opacity="0.55" d="M49 525H99" stroke="#1A1A1A" stroke-width="0.9" stroke-linecap="square"/>
<path opacity="0.55" d="M49 537H99" stroke="#1A1A1A" stroke-width="0.9" stroke-linecap="square"/>
<path opacity="0.55" d="M49 549H99" stroke="#1A1A1A" stroke-width="0.9" stroke-linecap="square"/>
<path opacity="0.55" d="M49 561H99" stroke="#1A1A1A" stroke-width="0.9" stroke-linecap="square"/>
<path opacity="0.55" d="M49 573H99" stroke="#1A1A1A" stroke-width="0.9" stroke-linecap="square"/>
<path opacity="0.55" d="M49 585H99" stroke="#1A1A1A" stroke-width="0.9" stroke-linecap="square"/>
<path opacity="0.55" d="M49 597H99" stroke="#1A1A1A" stroke-width="0.9" stroke-linecap="square"/>
<path opacity="0.55" d="M49 609H99" stroke="#1A1A1A" stroke-width="0.9" stroke-linecap="square"/>
<path opacity="0.55" d="M49 621H99" stroke="#1A1A1A" stroke-width="0.9" stroke-linecap="square"/>
<path opacity="0.55" d="M49 633H99" stroke="#1A1A1A" stroke-width="0.9" stroke-linecap="square"/>
<path opacity="0.55" d="M49 645H99" stroke="#1A1A1A" stroke-width="0.9" stroke-linecap="square"/>
<path opacity="0.55" d="M49 657H99" stroke="#1A1A1A" stroke-width="0.9" stroke-linecap="square"/>
<path opacity="0.55" d="M49 669H99" stroke="#1A1A1A" stroke-width="0.9" stroke-linecap="square"/>
<path opacity="0.55" d="M49 681H99" stroke="#1A1A1A" stroke-width="0.9" stroke-linecap="square"/>
<path opacity="0.55" d="M49 693H99" stroke="#1A1A1A" stroke-width="0.9" stroke-linecap="square"/>
<path opacity="0.55" d="M63 129V141" stroke="#1A1A1A" stroke-width="0.9" stroke-linecap="square"/>
<path opacity="0.55" d="M63 153V165" stroke="#1A1A1A" stroke-width="0.9" stroke-linecap="square"/>
<path opacity="0.55" d="M63 177V189" stroke="#1A1A1A" stroke-width="0.9" stroke-linecap="square"/>
<path opacity="0.55" d="M63 201V213" stroke="#1A1A1A" stroke-width="0.9" stroke-linecap="square"/>
<path opacity="0.55" d="M63 225V237" stroke="#1A1A1A" stroke-width="0.9" stroke-linecap="square"/>
<path opacity="0.55" d="M63 249V261" stroke="#1A1A1A" stroke-width="0.9" stroke-linecap="square"/>
<path opacity="0.55" d="M63 273V285" stroke="#1A1A1A" stroke-width="0.9" stroke-linecap="square"/>
<path opacity="0.55" d="M63 297V309" stroke="#1A1A1A" stroke-width="0.9" stroke-linecap="square"/>
<path opacity="0.55" d="M63 321V333" stroke="#1A1A1A" stroke-width="0.9" stroke-linecap="square"/>
<path opacity="0.55" d="M63 345V357" stroke="#1A1A1A" stroke-width="0.9" stroke-linecap="square"/>
<path opacity="0.55" d="M63 369V381" stroke="#1A1A1A" stroke-width="0.9" stroke-linecap="square"/>
<path opacity="0.55" d="M63 393V405" stroke="#1A1A1A" stroke-width="0.9" stroke-linecap="square"/>
<path opacity="0.55" d="M63 417V429" stroke="#1A1A1A" stroke-width="0.9" stroke-linecap="square"/>
<path opacity="0.55" d="M63 441V453" stroke="#1A1A1A" stroke-width="0.9" stroke-linecap="square"/>
<path opacity="0.55" d="M63 465V477" stroke="#1A1A1A" stroke-width="0.9" stroke-linecap="square"/>
<path opacity="0.55" d="M63 489V501" stroke="#1A1A1A" stroke-width="0.9" stroke-linecap="square"/>
<path opacity="0.55" d="M63 513V525" stroke="#1A1A1A" stroke-width="0.9" stroke-linecap="square"/>
<path opacity="0.55" d="M63 537V549" stroke="#1A1A1A" stroke-width="0.9" stroke-linecap="square"/>
<path opacity="0.55" d="M63 561V573" stroke="#1A1A1A" stroke-width="0.9" stroke-linecap="square"/>
<path opacity="0.55" d="M63 585V597" stroke="#1A1A1A" stroke-width="0.9" stroke-linecap="square"/>
<path opacity="0.55" d="M63 609V621" stroke="#1A1A1A" stroke-width="0.9" stroke-linecap="square"/>
<path opacity="0.55" d="M63 633V645" stroke="#1A1A1A" stroke-width="0.9" stroke-linecap="square"/>
<path opacity="0.55" d="M63 657V669" stroke="#1A1A1A" stroke-width="0.9" stroke-linecap="square"/>
<path opacity="0.55" d="M63 681V693" stroke="#1A1A1A" stroke-width="0.9" stroke-linecap="square"/>
<path opacity="0.55" d="M77 117V129" stroke="#1A1A1A" stroke-width="0.9" stroke-linecap="square"/>
<path opacity="0.55" d="M91 129V141" stroke="#1A1A1A" stroke-width="0.9" stroke-linecap="square"/>
<path opacity="0.55" d="M77 141V153" stroke="#1A1A1A" stroke-width="0.9" stroke-linecap="square"/>
<path opacity="0.55" d="M91 153V165" stroke="#1A1A1A" stroke-width="0.9" stroke-linecap="square"/>
<path opacity="0.55" d="M77 165V177" stroke="#1A1A1A" stroke-width="0.9" stroke-linecap="square"/>
<path opacity="0.55" d="M91 177V189" stroke="#1A1A1A" stroke-width="0.9" stroke-linecap="square"/>
<path opacity="0.55" d="M77 189V201" stroke="#1A1A1A" stroke-width="0.9" stroke-linecap="square"/>
<path opacity="0.55" d="M91 201V213" stroke="#1A1A1A" stroke-width="0.9" stroke-linecap="square"/>
<path opacity="0.55" d="M77 213V225" stroke="#1A1A1A" stroke-width="0.9" stroke-linecap="square"/>
<path opacity="0.55" d="M91 225V237" stroke="#1A1A1A" stroke-width="0.9" stroke-linecap="square"/>
<path opacity="0.55" d="M77 237V249" stroke="#1A1A1A" stroke-width="0.9" stroke-linecap="square"/>
<path opacity="0.55" d="M91 249V261" stroke="#1A1A1A" stroke-width="0.9" stroke-linecap="square"/>
<path opacity="0.55" d="M77 261V273" stroke="#1A1A1A" stroke-width="0.9" stroke-linecap="square"/>
<path opacity="0.55" d="M91 273V285" stroke="#1A1A1A" stroke-width="0.9" stroke-linecap="square"/>
<path opacity="0.55" d="M77 285V297" stroke="#1A1A1A" stroke-width="0.9" stroke-linecap="square"/>
<path opacity="0.55" d="M91 297V309" stroke="#1A1A1A" stroke-width="0.9" stroke-linecap="square"/>
<path opacity="0.55" d="M77 309V321" stroke="#1A1A1A" stroke-width="0.9" stroke-linecap="square"/>
<path opacity="0.55" d="M91 321V333" stroke="#1A1A1A" stroke-width="0.9" stroke-linecap="square"/>
<path opacity="0.55" d="M77 333V345" stroke="#1A1A1A" stroke-width="0.9" stroke-linecap="square"/>
<path opacity="0.55" d="M91 345V357" stroke="#1A1A1A" stroke-width="0.9" stroke-linecap="square"/>
<path opacity="0.55" d="M77 357V369" stroke="#1A1A1A" stroke-width="0.9" stroke-linecap="square"/>
<path opacity="0.55" d="M91 369V381" stroke="#1A1A1A" stroke-width="0.9" stroke-linecap="square"/>
<path opacity="0.55" d="M77 381V393" stroke="#1A1A1A" stroke-width="0.9" stroke-linecap="square"/>
<path opacity="0.55" d="M91 393V405" stroke="#1A1A1A" stroke-width="0.9" stroke-linecap="square"/>
<path opacity="0.55" d="M77 405V417" stroke="#1A1A1A" stroke-width="0.9" stroke-linecap="square"/>
<path opacity="0.55" d="M91 417V429" stroke="#1A1A1A" stroke-width="0.9" stroke-linecap="square"/>
<path opacity="0.55" d="M77 429V441" stroke="#1A1A1A" stroke-width="0.9" stroke-linecap="square"/>
<path opacity="0.55" d="M91 441V453" stroke="#1A1A1A" stroke-width="0.9" stroke-linecap="square"/>
<path opacity="0.55" d="M77 453V465" stroke="#1A1A1A" stroke-width="0.9" stroke-linecap="square"/>
<path opacity="0.55" d="M91 465V477" stroke="#1A1A1A" stroke-width="0.9" stroke-linecap="square"/>
<path opacity="0.55" d="M77 477V489" stroke="#1A1A1A" stroke-width="0.9" stroke-linecap="square"/>
<path opacity="0.55" d="M91 489V501" stroke="#1A1A1A" stroke-width="0.9" stroke-linecap="square"/>
<path opacity="0.55" d="M77 501V513" stroke="#1A1A1A" stroke-width="0.9" stroke-linecap="square"/>
<path opacity="0.55" d="M91 513V525" stroke="#1A1A1A" stroke-width="0.9" stroke-linecap="square"/>
<path opacity="0.55" d="M77 525V537" stroke="#1A1A1A" stroke-width="0.9" stroke-linecap="square"/>
<path opacity="0.55" d="M91 537V549" stroke="#1A1A1A" stroke-width="0.9" stroke-linecap="square"/>
<path opacity="0.55" d="M77 549V561" stroke="#1A1A1A" stroke-width="0.9" stroke-linecap="square"/>
<path opacity="0.55" d="M91 561V573" stroke="#1A1A1A" stroke-width="0.9" stroke-linecap="square"/>
<path opacity="0.55" d="M77 573V585" stroke="#1A1A1A" stroke-width="0.9" stroke-linecap="square"/>
<path opacity="0.55" d="M91 585V597" stroke="#1A1A1A" stroke-width="0.9" stroke-linecap="square"/>
<path opacity="0.55" d="M77 597V609" stroke="#1A1A1A" stroke-width="0.9" stroke-linecap="square"/>
<path opacity="0.55" d="M91 609V621" stroke="#1A1A1A" stroke-width="0.9" stroke-linecap="square"/>
<path opacity="0.55" d="M77 621V633" stroke="#1A1A1A" stroke-width="0.9" stroke-linecap="square"/>
<path opacity="0.55" d="M91 633V645" stroke="#1A1A1A" stroke-width="0.9" stroke-linecap="square"/>
<path opacity="0.55" d="M77 645V657" stroke="#1A1A1A" stroke-width="0.9" stroke-linecap="square"/>
<path opacity="0.55" d="M91 657V669" stroke="#1A1A1A" stroke-width="0.9" stroke-linecap="square"/>
<path opacity="0.55" d="M77 669V681" stroke="#1A1A1A" stroke-width="0.9" stroke-linecap="square"/>
<path opacity="0.55" d="M91 681V693" stroke="#1A1A1A" stroke-width="0.9" stroke-linecap="square"/>
<path opacity="0.55" d="M77 693V695" stroke="#1A1A1A" stroke-width="0.9" stroke-linecap="square"/>
<path d="M1154 114H1098V698H1154V114Z" fill="white" stroke="#1A1A1A" stroke-width="2"/>
<path d="M1157 104H1095V114H1157V104Z" fill="white" stroke="#1A1A1A" stroke-width="2"/>
<path opacity="0.55" d="M1101 117H1151" stroke="#1A1A1A" stroke-width="0.9" stroke-linecap="square"/>
<path opacity="0.55" d="M1101 129H1151" stroke="#1A1A1A" stroke-width="0.9" stroke-linecap="square"/>
<path opacity="0.55" d="M1101 141H1151" stroke="#1A1A1A" stroke-width="0.9" stroke-linecap="square"/>
<path opacity="0.55" d="M1101 153H1151" stroke="#1A1A1A" stroke-width="0.9" stroke-linecap="square"/>
<path opacity="0.55" d="M1101 165H1151" stroke="#1A1A1A" stroke-width="0.9" stroke-linecap="square"/>
<path opacity="0.55" d="M1101 177H1151" stroke="#1A1A1A" stroke-width="0.9" stroke-linecap="square"/>
<path opacity="0.55" d="M1101 189H1151" stroke="#1A1A1A" stroke-width="0.9" stroke-linecap="square"/>
<path opacity="0.55" d="M1101 201H1151" stroke="#1A1A1A" stroke-width="0.9" stroke-linecap="square"/>
<path opacity="0.55" d="M1101 213H1151" stroke="#1A1A1A" stroke-width="0.9" stroke-linecap="square"/>
<path opacity="0.55" d="M1101 225H1151" stroke="#1A1A1A" stroke-width="0.9" stroke-linecap="square"/>
<path opacity="0.55" d="M1101 237H1151" stroke="#1A1A1A" stroke-width="0.9" stroke-linecap="square"/>
<path opacity="0.55" d="M1101 249H1151" stroke="#1A1A1A" stroke-width="0.9" stroke-linecap="square"/>
<path opacity="0.55" d="M1101 261H1151" stroke="#1A1A1A" stroke-width="0.9" stroke-linecap="square"/>
<path opacity="0.55" d="M1101 273H1151" stroke="#1A1A1A" stroke-width="0.9" stroke-linecap="square"/>
<path opacity="0.55" d="M1101 285H1151" stroke="#1A1A1A" stroke-width="0.9" stroke-linecap="square"/>
<path opacity="0.55" d="M1101 297H1151" stroke="#1A1A1A" stroke-width="0.9" stroke-linecap="square"/>
<path opacity="0.55" d="M1101 309H1151" stroke="#1A1A1A" stroke-width="0.9" stroke-linecap="square"/>
<path opacity="0.55" d="M1101 321H1151" stroke="#1A1A1A" stroke-width="0.9" stroke-linecap="square"/>
<path opacity="0.55" d="M1101 333H1151" stroke="#1A1A1A" stroke-width="0.9" stroke-linecap="square"/>
<path opacity="0.55" d="M1101 345H1151" stroke="#1A1A1A" stroke-width="0.9" stroke-linecap="square"/>
<path opacity="0.55" d="M1101 357H1151" stroke="#1A1A1A" stroke-width="0.9" stroke-linecap="square"/>
<path opacity="0.55" d="M1101 369H1151" stroke="#1A1A1A" stroke-width="0.9" stroke-linecap="square"/>
<path opacity="0.55" d="M1101 381H1151" stroke="#1A1A1A" stroke-width="0.9" stroke-linecap="square"/>
<path opacity="0.55" d="M1101 393H1151" stroke="#1A1A1A" stroke-width="0.9" stroke-linecap="square"/>
<path opacity="0.55" d="M1101 405H1151" stroke="#1A1A1A" stroke-width="0.9" stroke-linecap="square"/>
<path opacity="0.55" d="M1101 417H1151" stroke="#1A1A1A" stroke-width="0.9" stroke-linecap="square"/>
<path opacity="0.55" d="M1101 429H1151" stroke="#1A1A1A" stroke-width="0.9" stroke-linecap="square"/>
<path opacity="0.55" d="M1101 441H1151" stroke="#1A1A1A" stroke-width="0.9" stroke-linecap="square"/>
<path opacity="0.55" d="M1101 453H1151" stroke="#1A1A1A" stroke-width="0.9" stroke-linecap="square"/>
<path opacity="0.55" d="M1101 465H1151" stroke="#1A1A1A" stroke-width="0.9" stroke-linecap="square"/>
<path opacity="0.55" d="M1101 477H1151" stroke="#1A1A1A" stroke-width="0.9" stroke-linecap="square"/>
<path opacity="0.55" d="M1101 489H1151" stroke="#1A1A1A" stroke-width="0.9" stroke-linecap="square"/>
<path opacity="0.55" d="M1101 501H1151" stroke="#1A1A1A" stroke-width="0.9" stroke-linecap="square"/>
<path opacity="0.55" d="M1101 513H1151" stroke="#1A1A1A" stroke-width="0.9" stroke-linecap="square"/>
<path opacity="0.55" d="M1101 525H1151" stroke="#1A1A1A" stroke-width="0.9" stroke-linecap="square"/>
<path opacity="0.55" d="M1101 537H1151" stroke="#1A1A1A" stroke-width="0.9" stroke-linecap="square"/>
<path opacity="0.55" d="M1101 549H1151" stroke="#1A1A1A" stroke-width="0.9" stroke-linecap="square"/>
<path opacity="0.55" d="M1101 561H1151" stroke="#1A1A1A" stroke-width="0.9" stroke-linecap="square"/>
<path opacity="0.55" d="M1101 573H1151" stroke="#1A1A1A" stroke-width="0.9" stroke-linecap="square"/>
<path opacity="0.55" d="M1101 585H1151" stroke="#1A1A1A" stroke-width="0.9" stroke-linecap="square"/>
<path opacity="0.55" d="M1101 597H1151" stroke="#1A1A1A" stroke-width="0.9" stroke-linecap="square"/>
<path opacity="0.55" d="M1101 609H1151" stroke="#1A1A1A" stroke-width="0.9" stroke-linecap="square"/>
<path opacity="0.55" d="M1101 621H1151" stroke="#1A1A1A" stroke-width="0.9" stroke-linecap="square"/>
<path opacity="0.55" d="M1101 633H1151" stroke="#1A1A1A" stroke-width="0.9" stroke-linecap="square"/>
<path opacity="0.55" d="M1101 645H1151" stroke="#1A1A1A" stroke-width="0.9" stroke-linecap="square"/>
<path opacity="0.55" d="M1101 657H1151" stroke="#1A1A1A" stroke-width="0.9" stroke-linecap="square"/>
<path opacity="0.55" d="M1101 669H1151" stroke="#1A1A1A" stroke-width="0.9" stroke-linecap="square"/>
<path opacity="0.55" d="M1101 681H1151" stroke="#1A1A1A" stroke-width="0.9" stroke-linecap="square"/>
<path opacity="0.55" d="M1101 693H1151" stroke="#1A1A1A" stroke-width="0.9" stroke-linecap="square"/>
<path opacity="0.55" d="M1115 129V141" stroke="#1A1A1A" stroke-width="0.9" stroke-linecap="square"/>
<path opacity="0.55" d="M1115 153V165" stroke="#1A1A1A" stroke-width="0.9" stroke-linecap="square"/>
<path opacity="0.55" d="M1115 177V189" stroke="#1A1A1A" stroke-width="0.9" stroke-linecap="square"/>
<path opacity="0.55" d="M1115 201V213" stroke="#1A1A1A" stroke-width="0.9" stroke-linecap="square"/>
<path opacity="0.55" d="M1115 225V237" stroke="#1A1A1A" stroke-width="0.9" stroke-linecap="square"/>
<path opacity="0.55" d="M1115 249V261" stroke="#1A1A1A" stroke-width="0.9" stroke-linecap="square"/>
<path opacity="0.55" d="M1115 273V285" stroke="#1A1A1A" stroke-width="0.9" stroke-linecap="square"/>
<path opacity="0.55" d="M1115 297V309" stroke="#1A1A1A" stroke-width="0.9" stroke-linecap="square"/>
<path opacity="0.55" d="M1115 321V333" stroke="#1A1A1A" stroke-width="0.9" stroke-linecap="square"/>
<path opacity="0.55" d="M1115 345V357" stroke="#1A1A1A" stroke-width="0.9" stroke-linecap="square"/>
<path opacity="0.55" d="M1115 369V381" stroke="#1A1A1A" stroke-width="0.9" stroke-linecap="square"/>
<path opacity="0.55" d="M1115 393V405" stroke="#1A1A1A" stroke-width="0.9" stroke-linecap="square"/>
<path opacity="0.55" d="M1115 417V429" stroke="#1A1A1A" stroke-width="0.9" stroke-linecap="square"/>
<path opacity="0.55" d="M1115 441V453" stroke="#1A1A1A" stroke-width="0.9" stroke-linecap="square"/>
<path opacity="0.55" d="M1115 465V477" stroke="#1A1A1A" stroke-width="0.9" stroke-linecap="square"/>
<path opacity="0.55" d="M1115 489V501" stroke="#1A1A1A" stroke-width="0.9" stroke-linecap="square"/>
<path opacity="0.55" d="M1115 513V525" stroke="#1A1A1A" stroke-width="0.9" stroke-linecap="square"/>
<path opacity="0.55" d="M1115 537V549" stroke="#1A1A1A" stroke-width="0.9" stroke-linecap="square"/>
<path opacity="0.55" d="M1115 561V573" stroke="#1A1A1A" stroke-width="0.9" stroke-linecap="square"/>
<path opacity="0.55" d="M1115 585V597" stroke="#1A1A1A" stroke-width="0.9" stroke-linecap="square"/>
<path opacity="0.55" d="M1115 609V621" stroke="#1A1A1A" stroke-width="0.9" stroke-linecap="square"/>
<path opacity="0.55" d="M1115 633V645" stroke="#1A1A1A" stroke-width="0.9" stroke-linecap="square"/>
<path opacity="0.55" d="M1115 657V669" stroke="#1A1A1A" stroke-width="0.9" stroke-linecap="square"/>
<path opacity="0.55" d="M1115 681V693" stroke="#1A1A1A" stroke-width="0.9" stroke-linecap="square"/>
<path opacity="0.55" d="M1129 117V129" stroke="#1A1A1A" stroke-width="0.9" stroke-linecap="square"/>
<path opacity="0.55" d="M1143 129V141" stroke="#1A1A1A" stroke-width="0.9" stroke-linecap="square"/>
<path opacity="0.55" d="M1129 141V153" stroke="#1A1A1A" stroke-width="0.9" stroke-linecap="square"/>
<path opacity="0.55" d="M1143 153V165" stroke="#1A1A1A" stroke-width="0.9" stroke-linecap="square"/>
<path opacity="0.55" d="M1129 165V177" stroke="#1A1A1A" stroke-width="0.9" stroke-linecap="square"/>
<path opacity="0.55" d="M1143 177V189" stroke="#1A1A1A" stroke-width="0.9" stroke-linecap="square"/>
<path opacity="0.55" d="M1129 189V201" stroke="#1A1A1A" stroke-width="0.9" stroke-linecap="square"/>
<path opacity="0.55" d="M1143 201V213" stroke="#1A1A1A" stroke-width="0.9" stroke-linecap="square"/>
<path opacity="0.55" d="M1129 213V225" stroke="#1A1A1A" stroke-width="0.9" stroke-linecap="square"/>
<path opacity="0.55" d="M1143 225V237" stroke="#1A1A1A" stroke-width="0.9" stroke-linecap="square"/>
<path opacity="0.55" d="M1129 237V249" stroke="#1A1A1A" stroke-width="0.9" stroke-linecap="square"/>
<path opacity="0.55" d="M1143 249V261" stroke="#1A1A1A" stroke-width="0.9" stroke-linecap="square"/>
<path opacity="0.55" d="M1129 261V273" stroke="#1A1A1A" stroke-width="0.9" stroke-linecap="square"/>
<path opacity="0.55" d="M1143 273V285" stroke="#1A1A1A" stroke-width="0.9" stroke-linecap="square"/>
<path opacity="0.55" d="M1129 285V297" stroke="#1A1A1A" stroke-width="0.9" stroke-linecap="square"/>
<path opacity="0.55" d="M1143 297V309" stroke="#1A1A1A" stroke-width="0.9" stroke-linecap="square"/>
<path opacity="0.55" d="M1129 309V321" stroke="#1A1A1A" stroke-width="0.9" stroke-linecap="square"/>
<path opacity="0.55" d="M1143 321V333" stroke="#1A1A1A" stroke-width="0.9" stroke-linecap="square"/>
<path opacity="0.55" d="M1129 333V345" stroke="#1A1A1A" stroke-width="0.9" stroke-linecap="square"/>
<path opacity="0.55" d="M1143 345V357" stroke="#1A1A1A" stroke-width="0.9" stroke-linecap="square"/>
<path opacity="0.55" d="M1129 357V369" stroke="#1A1A1A" stroke-width="0.9" stroke-linecap="square"/>
<path opacity="0.55" d="M1143 369V381" stroke="#1A1A1A" stroke-width="0.9" stroke-linecap="square"/>
<path opacity="0.55" d="M1129 381V393" stroke="#1A1A1A" stroke-width="0.9" stroke-linecap="square"/>
<path opacity="0.55" d="M1143 393V405" stroke="#1A1A1A" stroke-width="0.9" stroke-linecap="square"/>
<path opacity="0.55" d="M1129 405V417" stroke="#1A1A1A" stroke-width="0.9" stroke-linecap="square"/>
<path opacity="0.55" d="M1143 417V429" stroke="#1A1A1A" stroke-width="0.9" stroke-linecap="square"/>
<path opacity="0.55" d="M1129 429V441" stroke="#1A1A1A" stroke-width="0.9" stroke-linecap="square"/>
<path opacity="0.55" d="M1143 441V453" stroke="#1A1A1A" stroke-width="0.9" stroke-linecap="square"/>
<path opacity="0.55" d="M1129 453V465" stroke="#1A1A1A" stroke-width="0.9" stroke-linecap="square"/>
<path opacity="0.55" d="M1143 465V477" stroke="#1A1A1A" stroke-width="0.9" stroke-linecap="square"/>
<path opacity="0.55" d="M1129 477V489" stroke="#1A1A1A" stroke-width="0.9" stroke-linecap="square"/>
<path opacity="0.55" d="M1143 489V501" stroke="#1A1A1A" stroke-width="0.9" stroke-linecap="square"/>
<path opacity="0.55" d="M1129 501V513" stroke="#1A1A1A" stroke-width="0.9" stroke-linecap="square"/>
<path opacity="0.55" d="M1143 513V525" stroke="#1A1A1A" stroke-width="0.9" stroke-linecap="square"/>
<path opacity="0.55" d="M1129 525V537" stroke="#1A1A1A" stroke-width="0.9" stroke-linecap="square"/>
<path opacity="0.55" d="M1143 537V549" stroke="#1A1A1A" stroke-width="0.9" stroke-linecap="square"/>
<path opacity="0.55" d="M1129 549V561" stroke="#1A1A1A" stroke-width="0.9" stroke-linecap="square"/>
<path opacity="0.55" d="M1143 561V573" stroke="#1A1A1A" stroke-width="0.9" stroke-linecap="square"/>
<path opacity="0.55" d="M1129 573V585" stroke="#1A1A1A" stroke-width="0.9" stroke-linecap="square"/>
<path opacity="0.55" d="M1143 585V597" stroke="#1A1A1A" stroke-width="0.9" stroke-linecap="square"/>
<path opacity="0.55" d="M1129 597V609" stroke="#1A1A1A" stroke-width="0.9" stroke-linecap="square"/>
<path opacity="0.55" d="M1143 609V621" stroke="#1A1A1A" stroke-width="0.9" stroke-linecap="square"/>
<path opacity="0.55" d="M1129 621V633" stroke="#1A1A1A" stroke-width="0.9" stroke-linecap="square"/>
<path opacity="0.55" d="M1143 633V645" stroke="#1A1A1A" stroke-width="0.9" stroke-linecap="square"/>
<path opacity="0.55" d="M1129 645V657" stroke="#1A1A1A" stroke-width="0.9" stroke-linecap="square"/>
<path opacity="0.55" d="M1143 657V669" stroke="#1A1A1A" stroke-width="0.9" stroke-linecap="square"/>
<path opacity="0.55" d="M1129 669V681" stroke="#1A1A1A" stroke-width="0.9" stroke-linecap="square"/>
<path opacity="0.55" d="M1143 681V693" stroke="#1A1A1A" stroke-width="0.9" stroke-linecap="square"/>
<path opacity="0.55" d="M1129 693V695" stroke="#1A1A1A" stroke-width="0.9" stroke-linecap="square"/>
<path d="M126 178C442 144.667 758 144.667 1074 178" stroke="#1A1A1A" stroke-width="1.4" stroke-linecap="square"/>
<path d="M130 186C444.667 158 759.333 158 1074 186" stroke="#1A1A1A" stroke-width="1.4" stroke-linecap="square"/>
<path d="M126 656H1074" stroke="#1A1A1A" stroke-width="1.4" stroke-linecap="square"/>
<path d="M126 399.6H1074" stroke="#1A1A1A" stroke-width="1.4" stroke-linecap="square"/>
<path d="M155.625 184L158.993 656" stroke="#1A1A1A" stroke-width="1.4" stroke-linecap="square"/>
<path d="M215 180L217.004 656" stroke="#1A1A1A" stroke-width="1.4" stroke-linecap="square"/>
<path d="M275 176L276.023 656" stroke="#1A1A1A" stroke-width="1.4" stroke-linecap="square"/>
<path d="M334.625 172L332.997 655" stroke="#1A1A1A" stroke-width="1.4" stroke-linecap="square"/>
<path d="M392 170L388.994 655" stroke="#1A1A1A" stroke-width="1.4" stroke-linecap="square"/>
<path d="M450 168L451.875 513" stroke="#1A1A1A" stroke-width="1.4" stroke-linecap="square"/>
<path d="M511 167V514" stroke="#1A1A1A" stroke-width="1.4" stroke-linecap="square"/>
<path d="M569 166L570.003 514" stroke="#1A1A1A" stroke-width="1.4" stroke-linecap="square"/>
<path d="M629 166L630.003 513" stroke="#1A1A1A" stroke-width="1.4" stroke-linecap="square"/>
<path d="M687 167L689.006 513" stroke="#1A1A1A" stroke-width="1.4" stroke-linecap="square"/>
<path d="M747 168L748.125 513" stroke="#1A1A1A" stroke-width="1.4" stroke-linecap="square"/>
<path d="M807 170V513" stroke="#1A1A1A" stroke-width="1.4" stroke-linecap="square"/>
<path d="M867 172V513" stroke="#1A1A1A" stroke-width="1.4" stroke-linecap="square"/>
<path d="M925 176L926.003 514" stroke="#1A1A1A" stroke-width="1.4" stroke-linecap="square"/>
<path d="M985 180L985.125 514" stroke="#1A1A1A" stroke-width="1.4" stroke-linecap="square"/>
<path d="M1044 184V514" stroke="#1A1A1A" stroke-width="1.4" stroke-linecap="square"/>
<path d="M452 514L452.001 656" stroke="#1A1A1A" stroke-width="1.4" stroke-linecap="square"/>
<path d="M511 514V656" stroke="#1A1A1A" stroke-width="1.4" stroke-linecap="square"/>
<path d="M570.375 515L571.004 655" stroke="#1A1A1A" stroke-width="1.4" stroke-linecap="square"/>
<path d="M630 515L628.993 655" stroke="#1A1A1A" stroke-width="1.4" stroke-linecap="square"/>
<path d="M689 513V655" stroke="#1A1A1A" stroke-width="1.4" stroke-linecap="square"/>
<path d="M748.001 513L748 655" stroke="#1A1A1A" stroke-width="1.4" stroke-linecap="square"/>
<path d="M807 514V656" stroke="#1A1A1A" stroke-width="1.4" stroke-linecap="square"/>
<path d="M867 513V655" stroke="#1A1A1A" stroke-width="1.4" stroke-linecap="square"/>
<path d="M926 514L924.993 656" stroke="#1A1A1A" stroke-width="1.4" stroke-linecap="square"/>
<path d="M985 515L985 655" stroke="#1A1A1A" stroke-width="1.4" stroke-linecap="square"/>
<path d="M1044 514L1044 655" stroke="#1A1A1A" stroke-width="1.4" stroke-linecap="square"/>
<path d="M600 154V655" stroke="#1A1A1A" stroke-width="2.2" stroke-linecap="square"/>
<path d="M605 238.6H595V248.6H605V238.6Z" stroke="#1A1A1A" stroke-width="1.6"/>
<path d="M605 571.4H595V581.4H605V571.4Z" stroke="#1A1A1A" stroke-width="1.6"/>
<path d="M120 206.4H110V218.4H120V206.4Z" stroke="#1A1A1A" stroke-width="1.6"/>
<path d="M120 601.6H110V613.6H120V601.6Z" stroke="#1A1A1A" stroke-width="1.6"/>
<path d="M1079 178H1074V656H1079V178Z" stroke="#1A1A1A" stroke-width="1.6"/>
<path d="M130 178H125V657H130V178Z" stroke="#1A1A1A" stroke-width="1.6"/>
<path d="M635.714 281H624.286V284.5H635.714V281Z" stroke="#1A1A1A" stroke-width="1.3"/>
<path d="M636.857 284.5H623.143V288.7H636.857V284.5Z" stroke="#1A1A1A" stroke-width="1.3"/>
<path d="M638 288.7H622V294.3H638V288.7Z" stroke="#1A1A1A" stroke-width="1.3"/>
<path d="M636.857 294.3H623.143V298.5H636.857V294.3Z" stroke="#1A1A1A" stroke-width="1.3"/>
<path d="M635.714 298.5H624.286V302H635.714V298.5Z" stroke="#1A1A1A" stroke-width="1.3"/>
<path d="M753.714 281H742.286V284.5H753.714V281Z" stroke="#1A1A1A" stroke-width="1.3"/>
<path d="M754.857 284.5H741.143V288.7H754.857V284.5Z" stroke="#1A1A1A" stroke-width="1.3"/>
<path d="M756 288.7H740V294.3H756V288.7Z" stroke="#1A1A1A" stroke-width="1.3"/>
<path d="M754.857 294.3H741.143V298.5H754.857V294.3Z" stroke="#1A1A1A" stroke-width="1.3"/>
<path d="M753.714 298.5H742.286V302H753.714V298.5Z" stroke="#1A1A1A" stroke-width="1.3"/>
<path d="M872.714 280H861.286V283.5H872.714V280Z" stroke="#1A1A1A" stroke-width="1.3"/>
<path d="M873.857 283.5H860.143V287.7H873.857V283.5Z" stroke="#1A1A1A" stroke-width="1.3"/>
<path d="M875 287.7H859V293.3H875V287.7Z" stroke="#1A1A1A" stroke-width="1.3"/>
<path d="M873.857 293.3H860.143V297.5H873.857V293.3Z" stroke="#1A1A1A" stroke-width="1.3"/>
<path d="M872.714 297.5H861.286V301H872.714V297.5Z" stroke="#1A1A1A" stroke-width="1.3"/>
<path d="M991.714 280H980.286V283.5H991.714V280Z" stroke="#1A1A1A" stroke-width="1.3"/>
<path d="M992.857 283.5H979.143V287.7H992.857V283.5Z" stroke="#1A1A1A" stroke-width="1.3"/>
<path d="M994 287.7H978V293.3H994V287.7Z" stroke="#1A1A1A" stroke-width="1.3"/>
<path d="M992.857 293.3H979.143V297.5H992.857V293.3Z" stroke="#1A1A1A" stroke-width="1.3"/>
<path d="M991.714 297.5H980.286V301H991.714V297.5Z" stroke="#1A1A1A" stroke-width="1.3"/>
<path d="M220.714 282H209.286V285.5H220.714V282Z" stroke="#1A1A1A" stroke-width="1.3"/>
<path d="M221.857 285.5H208.143V289.7H221.857V285.5Z" stroke="#1A1A1A" stroke-width="1.3"/>
<path d="M223 289.7H207V295.3H223V289.7Z" stroke="#1A1A1A" stroke-width="1.3"/>
<path d="M221.857 295.3H208.143V299.5H221.857V295.3Z" stroke="#1A1A1A" stroke-width="1.3"/>
<path d="M220.714 299.5H209.286V303H220.714V299.5Z" stroke="#1A1A1A" stroke-width="1.3"/>
<path d="M338.714 282H327.286V285.5H338.714V282Z" stroke="#1A1A1A" stroke-width="1.3"/>
<path d="M339.857 285.5H326.143V289.7H339.857V285.5Z" stroke="#1A1A1A" stroke-width="1.3"/>
<path d="M341 289.7H325V295.3H341V289.7Z" stroke="#1A1A1A" stroke-width="1.3"/>
<path d="M339.857 295.3H326.143V299.5H339.857V295.3Z" stroke="#1A1A1A" stroke-width="1.3"/>
<path d="M338.714 299.5H327.286V303H338.714V299.5Z" stroke="#1A1A1A" stroke-width="1.3"/>
<path d="M457.714 281H446.286V284.5H457.714V281Z" stroke="#1A1A1A" stroke-width="1.3"/>
<path d="M458.857 284.5H445.143V288.7H458.857V284.5Z" stroke="#1A1A1A" stroke-width="1.3"/>
<path d="M460 288.7H444V294.3H460V288.7Z" stroke="#1A1A1A" stroke-width="1.3"/>
<path d="M458.857 294.3H445.143V298.5H458.857V294.3Z" stroke="#1A1A1A" stroke-width="1.3"/>
<path d="M457.714 298.5H446.286V302H457.714V298.5Z" stroke="#1A1A1A" stroke-width="1.3"/>
<path d="M576.714 281H565.286V284.5H576.714V281Z" stroke="#1A1A1A" stroke-width="1.3"/>
<path d="M577.857 284.5H564.143V288.7H577.857V284.5Z" stroke="#1A1A1A" stroke-width="1.3"/>
<path d="M579 288.7H563V294.3H579V288.7Z" stroke="#1A1A1A" stroke-width="1.3"/>
<path d="M577.857 294.3H564.143V298.5H577.857V294.3Z" stroke="#1A1A1A" stroke-width="1.3"/>
<path d="M576.714 298.5H565.286V302H576.714V298.5Z" stroke="#1A1A1A" stroke-width="1.3"/>
</g>
<defs>
<clipPath id="clip0_106_14737">
<rect width="1200" height="860" fill="white"/>
</clipPath>
</defs>
</svg>
